<?xml version="1.0" encoding="utf-8"?>
<!-- Generator: Adobe Illustrator 23.1.1, SVG Export Plug-In . SVG Version: 6.00 Build 0)  -->
<svg version="1.1" id="Layer_1" xmlns="http://www.w3.org/2000/svg" xmlns:xlink="http://www.w3.org/1999/xlink" x="0px" y="0px"
	 viewBox="0 0 1792 100" style="enable-background:new 0 0 1792 100;" xml:space="preserve">
<style type="text/css">
	.st0{fill:none;}
	.st1{fill:#0067B1;}
	.st2{font-family:'HelveticaNeue-Light';}
	.st3{font-size:38.0962px;}
	.st4{letter-spacing:290;}
	.st5{letter-spacing:284;}
	.st6{letter-spacing:322;}
	.st7{fill:none;stroke:#0067B1;stroke-width:4;}
	.st8{fill:none;stroke:#0067B1;stroke-width:2;}
	.st9{clip-path:url(#SVGID_2_);}
	.st10{fill:#FFFFFF;}
</style>
<rect x="0" y="19.2" class="st0" width="1792" height="149.81"/>
<text transform="matrix(1 0 0 1 3.467117e-03 63.5091)"><tspan x="0" y="0" class="st1 st2 st3">information</tspan><tspan x="190.4" y="0" class="st1 st2 st3 st4">	</tspan><tspan x="491.63" y="0" class="st1 st2 st3">access</tspan><tspan x="611.94" y="0" class="st1 st2 st3 st5">	</tspan><tspan x="907.08" y="0" class="st1 st2 st3">integration</tspan><tspan x="1086.92" y="0" class="st1 st2 st3 st6">	</tspan><tspan x="1419.75" y="0" class="st1 st2 st3">tools</tspan></text>
<g>
	
		<ellipse transform="matrix(0.0119 -0.9999 0.9999 0.0119 711.4617 819.4575)" class="st7" cx="770.37" cy="49.74" rx="45.7" ry="45.71"/>
	<path class="st8" d="M792.27,10.35c0.04,0.21,0.06,0.42,0.06,0.63c0,4.81-9.83,8.69-21.96,8.69c-12.13,0-21.96-3.89-21.96-8.69"/>
	<path class="st8" d="M810.85,25.64c-9.55,6.27-24.14,10.27-40.49,10.27c-16.33,0-30.9-4-40.46-10.25"/>
	<path class="st8" d="M792.4,90.22c0.04-0.21,0.06-0.41,0.06-0.63c0-4.79-9.83-8.71-21.96-8.71c-12.12,0-21.96,3.91-21.96,8.71"/>
	<path class="st8" d="M810.85,73.78c-9.55-6.27-24.14-10.26-40.49-10.26c-16.33,0-30.9,3.99-40.46,10.24"/>
	<path class="st8" d="M770.37,95.44c-18.1,0-32.78-20.46-32.78-45.7c0-25.25,14.68-45.7,32.78-45.7"/>
	<path class="st8" d="M770.37,95.44c-7.99,0-14.48-20.46-14.48-45.7c0-25.25,6.48-45.7,14.48-45.7"/>
	<path class="st8" d="M770.37,95.44c18.11,0,32.79-20.46,32.79-45.7c0-25.25-14.67-45.7-32.79-45.7"/>
	<path class="st8" d="M770.37,95.44c8,0,14.48-20.46,14.48-45.7c0-25.25-6.48-45.7-14.48-45.7"/>
	<line class="st8" x1="724.6" y1="49.91" x2="815.62" y2="49.91"/>
</g>
<g>
	<path class="st7" d="M1711.67,49.74c0,25.24-20.46,45.7-45.7,45.7s-45.71-20.46-45.71-45.7c0-25.25,20.47-45.7,45.71-45.7
		S1711.67,24.49,1711.67,49.74z"/>
	<g>
		<rect x="1637.2" y="16.29" class="st8" width="57.54" height="42.6"/>
		<polygon class="st8" points="1699.46,80.82 1632.48,80.82 1641.92,65.55 1690.02,65.55 		"/>
		<line class="st8" x1="1675.9" y1="71.85" x2="1655.83" y2="71.85"/>
		<rect x="1647.64" y="25.45" class="st8" width="36.65" height="24.27"/>
	</g>
</g>
<g>
	<g>
		<defs>
			<path id="SVGID_1_" d="M371.08,49.71c0,25.24-20.46,45.7-45.7,45.7c-25.24,0-45.7-20.46-45.7-45.7
				c0-25.24,20.46-45.71,45.7-45.71C350.62,4,371.08,24.46,371.08,49.71z"/>
		</defs>
		<clipPath id="SVGID_2_">
			<use xlink:href="#SVGID_1_"  style="overflow:visible;"/>
		</clipPath>
		<g class="st9">
			<path class="st1" d="M291.49,9.28c-0.11-2.34-1.43-3.93-3.8-3.93c-3.32,0-4.95,2.98-5.05,10.91l0.07,0.07
				c0.78-2.47,2.6-3.94,5.15-3.94c4.17,0,6.3,3.06,6.3,7.46c0,4.54-2.07,8.2-6.68,8.2c-5.42,0-7.01-3.99-7.01-11.56
				c0-7.86,1.55-12.84,7.32-12.84c3.79,0,5.8,2.35,5.86,5.63H291.49z M287.52,26.36c3.32,0,4.47-3.05,4.47-6.13
				s-1.15-6.13-4.47-6.13c-3.29,0-4.47,3.05-4.47,6.13S284.24,26.36,287.52,26.36z"/>
			<path class="st1" d="M309.21,4.06v1.83h-8.88l-1.05,8.37l0.06,0.07c0.92-1.76,2.88-2.44,4.64-2.44c3.69,0,6.34,2.61,6.34,7.93
				c0,4.8-2.41,8.23-7.12,8.23c-3.72,0-6.37-2.33-6.37-6.53h2.17c0,2.71,1.56,4.84,4.44,4.84c2.88,0,4.71-2.37,4.71-6.88
				c0-3.32-1.46-5.89-4.67-5.89c-1.79,0-3.45,0.84-4.14,2.78h-2.03l1.39-12.31H309.21z"/>
			<path class="st1" d="M324.02,9.28c-0.1-2.34-1.42-3.93-3.79-3.93c-3.33,0-4.95,2.98-5.05,10.91l0.06,0.07
				c0.78-2.47,2.61-3.94,5.15-3.94c4.17,0,6.3,3.06,6.3,7.46c0,4.54-2.07,8.2-6.68,8.2c-5.42,0-7.02-3.99-7.02-11.56
				c0-7.86,1.56-12.84,7.32-12.84c3.79,0,5.8,2.35,5.86,5.63H324.02z M320.05,26.36c3.32,0,4.47-3.05,4.47-6.13
				s-1.15-6.13-4.47-6.13c-3.29,0-4.47,3.05-4.47,6.13S316.77,26.36,320.05,26.36z"/>
			<path class="st1" d="M329.58,11.18c0.06-4.64,2.26-7.53,6.77-7.53c3.25,0,6.2,1.94,6.2,6.51c0,2.91-0.88,4.84-3.96,7.39
				l-2.6,2.14c-2.51,2.06-3.83,3.62-4.2,6.13h10.98v1.83h-13.29c0-3.96,1.79-6.53,5.02-9.25l2.58-2.16
				c2.41-2.04,3.32-3.66,3.32-5.97c0-3.18-1.76-4.91-4.24-4.91c-2.74,0-4.27,1.83-4.4,5.83H329.58z"/>
			<path class="st1" d="M350.58,14.33h1.12c2.88,0,4.54-1.62,4.54-4.47c0-2.78-1.36-4.51-3.96-4.51c-2.4,0-4.2,1.56-4.24,4.95h-2.17
				c0-4.01,2.17-6.65,6.4-6.65c3.69,0,6.13,2.24,6.13,5.92c0,2.65-1.25,4.79-3.86,5.43v0.07c2.85,0.41,4.57,2.74,4.57,5.69
				c0,4.34-2.37,7.28-6.87,7.28c-4.14,0-6.54-2.33-6.71-6.8h2.17c0,2.81,1.46,5.11,4.55,5.11c2.43,0,4.71-1.49,4.71-5.53
				c0-3.11-1.86-4.8-4.78-4.8h-1.6V14.33z"/>
			<path class="st1" d="M362.1,11.18c0.07-4.64,2.27-7.53,6.78-7.53c3.25,0,6.2,1.94,6.2,6.51c0,2.91-0.89,4.84-3.97,7.39
				l-2.61,2.14c-2.5,2.06-3.83,3.62-4.2,6.13h10.98v1.83H362c0-3.96,1.8-6.53,5.02-9.25l2.58-2.16c2.41-2.04,3.32-3.66,3.32-5.97
				c0-3.18-1.77-4.91-4.24-4.91c-2.74,0-4.27,1.83-4.4,5.83H362.1z"/>
			<path class="st1" d="M280.58,39.77h11.46c-4.74,5.74-8.51,15.15-8.87,21.76h2.3c0.51-6.51,3.46-15.43,8.61-21.76v-1.83h-13.48
				V39.77z"/>
			<path class="st1" d="M305.79,55.37h-9.25v-2.05l9.25-15.78h2.03v15.99h2.81v1.83h-2.81v6.17h-2.03V55.37z M305.79,53.54V41h-0.07
				l-7.35,12.54H305.79z"/>
			<path class="st1" d="M325.48,37.94v1.83h-8.88l-1.05,8.37l0.06,0.07c0.92-1.76,2.88-2.44,4.64-2.44c3.69,0,6.34,2.62,6.34,7.93
				c0,4.81-2.41,8.23-7.12,8.23c-3.73,0-6.37-2.33-6.37-6.54h2.17c0,2.72,1.56,4.84,4.44,4.84c2.89,0,4.71-2.37,4.71-6.87
				c0-3.33-1.46-5.9-4.67-5.9c-1.79,0-3.46,0.85-4.14,2.78h-2.03l1.39-12.3H325.48z"/>
			<path class="st1" d="M340.28,43.17c-0.11-2.34-1.42-3.94-3.79-3.94c-3.32,0-4.95,2.98-5.05,10.91l0.07,0.07
				c0.78-2.47,2.61-3.93,5.15-3.93c4.17,0,6.3,3.06,6.3,7.45c0,4.55-2.07,8.2-6.68,8.2c-5.42,0-7.01-3.99-7.01-11.55
				c0-7.87,1.55-12.84,7.32-12.84c3.79,0,5.79,2.33,5.86,5.62H340.28z M336.31,60.24c3.33,0,4.48-3.05,4.48-6.13
				c0-3.08-1.15-6.13-4.48-6.13c-3.28,0-4.47,3.05-4.47,6.13C331.84,57.19,333.03,60.24,336.31,60.24z"/>
			<path class="st1" d="M348.01,45.07c0.13-4,1.66-5.83,4.4-5.83c2.48,0,4.24,1.73,4.24,4.92c0,2.3-0.92,3.92-3.32,5.96l-2.58,2.16
				c-3.22,2.72-5.02,5.28-5.02,9.26h13.29v-1.83h-10.98c0.37-2.52,1.69-4.08,4.2-6.14l2.6-2.13c3.08-2.54,3.97-4.47,3.97-7.39
				c0-4.57-2.95-6.5-6.2-6.5c-4.5,0-6.71,2.88-6.77,7.52H348.01z"/>
			<path class="st1" d="M366.85,48.21h1.12c2.88,0,4.54-1.62,4.54-4.47c0-2.78-1.36-4.5-3.96-4.5c-2.41,0-4.2,1.57-4.24,4.95h-2.17
				c0-4,2.17-6.63,6.4-6.63c3.69,0,6.13,2.23,6.13,5.92c0,2.64-1.25,4.78-3.86,5.43v0.06c2.85,0.41,4.57,2.75,4.57,5.69
				c0,4.33-2.37,7.28-6.88,7.28c-4.13,0-6.54-2.33-6.71-6.81h2.17c0,2.82,1.45,5.11,4.54,5.11c2.44,0,4.71-1.48,4.71-5.52
				c0-3.11-1.86-4.81-4.78-4.81h-1.6V48.21z"/>
			<path class="st1" d="M285.53,82.1h1.12c2.88,0,4.54-1.63,4.54-4.47c0-2.79-1.36-4.52-3.96-4.52c-2.4,0-4.2,1.57-4.23,4.95h-2.17
				c0-4.01,2.17-6.64,6.4-6.64c3.7,0,6.14,2.24,6.14,5.92c0,2.65-1.25,4.78-3.86,5.43v0.06c2.85,0.41,4.57,2.75,4.57,5.69
				c0,4.34-2.37,7.29-6.87,7.29c-4.14,0-6.54-2.33-6.71-6.81h2.16c0,2.81,1.46,5.12,4.55,5.12c2.44,0,4.71-1.49,4.71-5.53
				c0-3.11-1.87-4.82-4.78-4.82h-1.59V82.1z"/>
			<path class="st1" d="M296.85,73.66h11.45c-4.74,5.73-8.5,15.15-8.87,21.76h2.31c0.51-6.51,3.46-15.42,8.61-21.76v-1.83h-13.48
				V73.66z"/>
			<path class="st1" d="M313.31,78.95c0.06-4.64,2.27-7.52,6.78-7.52c3.25,0,6.2,1.93,6.2,6.5c0,2.92-0.88,4.85-3.96,7.39
				l-2.61,2.14c-2.51,2.06-3.83,3.62-4.2,6.13h10.98v1.83h-13.29c0-3.97,1.8-6.55,5.02-9.26l2.58-2.17
				c2.41-2.04,3.32-3.65,3.32-5.96c0-3.2-1.76-4.92-4.24-4.92c-2.74,0-4.27,1.83-4.4,5.83H313.31z"/>
			<path class="st1" d="M329.38,71.83h13.48v1.83c-5.14,6.34-8.1,15.25-8.6,21.76h-2.3c0.37-6.61,4.13-16.03,8.88-21.76h-11.45
				V71.83z"/>
			<path class="st1" d="M350.58,82.1h1.12c2.88,0,4.54-1.63,4.54-4.47c0-2.79-1.36-4.52-3.96-4.52c-2.4,0-4.2,1.57-4.24,4.95h-2.17
				c0-4.01,2.17-6.64,6.4-6.64c3.69,0,6.13,2.24,6.13,5.92c0,2.65-1.25,4.78-3.86,5.43v0.06c2.85,0.41,4.57,2.75,4.57,5.69
				c0,4.34-2.37,7.29-6.87,7.29c-4.14,0-6.54-2.33-6.71-6.81h2.17c0,2.81,1.46,5.12,4.55,5.12c2.43,0,4.71-1.49,4.71-5.53
				c0-3.11-1.86-4.82-4.78-4.82h-1.6V82.1z"/>
			<path class="st10" d="M370.85,89.26h-9.25v-2.04l9.25-15.79h2.03v16h2.81v1.83h-2.81v6.16h-2.03V89.26z M370.85,87.43V74.88
				h-0.07l-7.35,12.54H370.85z"/>
		</g>
		<use xlink:href="#SVGID_1_"  style="overflow:visible;fill:none;stroke:#0067B1;stroke-width:4;"/>
	</g>
</g>
<g>
	<path class="st7" d="M1265.75,49.74c0,25.24-20.46,45.7-45.71,45.7c-25.24,0-45.7-20.46-45.7-45.7c0-25.25,20.46-45.7,45.7-45.7
		C1245.29,4.04,1265.75,24.49,1265.75,49.74z"/>
</g>
<g>
	<g>
		<path class="st8" d="M1242.79,38.91c0.29-12.19-8.76-22.8-21.1-24.21c-13.06-1.49-24.85,7.89-26.33,20.95
			c-0.12,1.01-0.05,1.99-0.05,2.98c2.37-8.2,10.34-13.78,19.12-12.78c7.48,0.86,13.33,6.22,15.2,13.06h-14.84l21.17,21.17
			l21.17-21.17H1242.79z"/>
	</g>
</g>
<g>
	<g>
		<path class="st8" d="M1244.74,61.55c-2.37,8.2-10.33,13.78-19.12,12.78c-7.47-0.86-13.33-6.22-15.19-13.06h14.83l-21.16-21.16
			l-21.17,21.16h14.33c-0.3,12.19,8.75,22.8,21.09,24.22c13.06,1.49,24.85-7.9,26.34-20.95
			C1244.82,63.52,1244.75,62.53,1244.74,61.55z"/>
	</g>
</g>
</svg>
