<?xml version="1.0" encoding="utf-8"?>
<!-- Generator: Adobe Illustrator 23.1.1, SVG Export Plug-In . SVG Version: 6.00 Build 0)  -->
<svg version="1.1" id="Layer_1" xmlns="http://www.w3.org/2000/svg" xmlns:xlink="http://www.w3.org/1999/xlink" x="0px" y="0px"
	 viewBox="0 0 167.2 178.9" style="enable-background:new 0 0 167.2 178.9;" xml:space="preserve">
<style type="text/css">
	.st0{fill:#141414;}
</style>
<g>
	<g>
		<g>
			<path class="st0" d="M98.4,178.9c-0.9-3.9-1.8-2.7-3.4-4.6c-3-3.6-4.6-34.5-3.5-43.1c1.2-9.5,4.7-20.4,20.2-24s27.4,1.6,30.8,11
				c6,16.4-8.2,31.4-8.2,31.4s8.3-6,11.9-14.3c3.6-8.3,0.5-16-0.2-20.8c-1.8-11,8-19.8,8-19.8s-7.3,1.5-10.5,11
				c-1.6,4.7-5.5-0.4-11.6-2.6c-10.9-4-19-2.7-19-2.7s-1-1.9-0.6-4.7c0.7-4.6,3.3-6.3,3.3-6.3s-3.3-0.7-5.1,5.6
				c-1.2,4.2-2.9,6.7-8.7,8.3c-6.1,1.7-9.4,5.8-9.4,5.8S89,104.8,95.9,97c3.3-3.7,4.4-3.2,8.2-8.9c3-4.5,2.6-7.1,5.3-11.9
				c2.2-4,4.8-5,4.8-5s-6.4-0.1-12.3,11.5c-4.3,8.6-9.8,7.3-11.7,4.1c-2.7-4.4-3.7-11.7-4.3-18.9c-1.3-14.1,3.5-18.6,4.5-25.7
				c-2.5,6.4-6.4,6.6-8.6,22.5c-1,7.4,0.4,16.6,1,23.2c0.5,5.3-0.9,9.1-0.9,9.1s-6.4-10.1-12-15.4c-6.6-6.3-10.5-9.9-14.8-14.8
				c-3.3-3.7-3.8-9.2-3.1-14c0.9-6.5,4.8-8.5,6.7-9.5c2-1,5.8-1.5,7-0.1c1.3,1.5,1.7,0.5,1.7,0.5s0.6-0.4,0-0.9
				c-1.2-1-3.3-1.9-6.4-1.4c-4.7,0.8-9,4.1-11,9c-2,5-1.6,11.6-1.6,11.6s-5.3-6.3-6.9-12.5C39,39.9,42,35.3,42,35.3
				s-5.6,6.1-2.1,17.8c3.3,11,11,16.5,11,16.5s-4.2,0.1-7.4,2.9c-4.7,4-9.8,2.5-9.8,2.5s2.9,3,11.3-0.6c8.3-3.6,13.2,1.5,21.5,11.9
				c5.8,7.3,10.2,18.7,10.2,18.7s-5.5-7.2-16.1-7.3c-11.4-0.2-15.4,6.3-18.8,11.8c-1.7,2.7-5,6.6-7.5,8.5
				c-5.4,4.3-11.5,6.4-11.5,6.4s12.9,0.6,24.6-16c6.8-9.7,16.8-6.4,21.8-2c5.7,5,8,11.6,9.8,24.7c1.7,12.6,0.3,40.2-2.6,43.1
				c-2.4,2.4-7.5,0.6-8.1,4.6L98.4,178.9L98.4,178.9z"/>
		</g>
		<path class="st0" d="M29.7,126.1c-0.9,3.7-4.4,6.6-4.4,9.4c0.1,3.1,2.4,4.6,4.7,4.6c2.6,0,4.7-1.9,4.6-4.9
			C34.7,132.6,31.1,129.6,29.7,126.1z"/>
		<path class="st0" d="M95.6,61.1c-1.2,5.1-6.1,9-6,12.9c0.1,4.3,3.3,6.3,6.5,6.3c3.5,0,6.4-2.6,6.3-6.7
			C102.4,70,97.4,65.9,95.6,61.1z"/>
		<path class="st0" d="M22.6,124.5c-0.5,1.9-2.5,3.6-2.5,5.1c-0.1,1.8,1,2.8,2.5,2.8c1.4,0,2.6-1.2,2.6-2.6
			C25.3,128.5,23.2,126.5,22.6,124.5z"/>
		<path class="st0" d="M122.7,19.3c-0.6-1.1-1.3-1.3-1.7-1.3c0-0.1,0-0.1,0-0.2c0.3-0.3,1-0.9,2.2-0.6c1.7,0.5,2.8-1.6,2.8-1.6
			s-1.8,0.7-3.1-0.4c-1-0.8-1.7-0.7-2.1-0.6c0,0,0-0.1,0-0.2c0.2-0.4,0.6-1.2,1.9-1.3c1.8-0.1,2.1-2.5,2.1-2.5s-1.5,1.3-3,0.8
			c-1.2-0.4-1.8-0.1-2.1,0.2l-0.1-0.1c0-0.5,0.1-1.4,1.3-1.9c1.6-0.8,1-3.1,1-3.1s-0.9,1.7-2.6,1.8c-1.3,0.1-1.7,0.6-1.9,1l-0.1-0.1
			c-0.2-0.4-0.4-1.3,0.5-2.3c1.2-1.3-0.1-3.3-0.1-3.3s-0.2,2-1.7,2.6c-1.1,0.5-1.4,1.2-1.4,1.6c-0.2,0-0.3-0.1-0.5-0.1
			c-0.3-0.3-0.9-1.1-0.4-2.3c0.6-1.7-1.4-3-1.4-3s0.6,1.9-0.6,3.1c-0.9,0.9-0.8,1.6-0.7,2c0,0-0.1,0-0.2,0c-0.4-0.2-1.2-0.7-1.2-2
			c0-1.8-2.4-2.2-2.4-2.2s1.2,1.6,0.6,3.1c-0.5,1.2-0.2,1.8,0.1,2.1c-0.1,0-0.1,0.1-0.1,0.1c-0.5,0-1.4-0.2-1.8-1.4
			c-0.7-1.7-3-1.2-3-1.2s1.7,1,1.7,2.7c0,1.3,0.5,1.8,0.8,2l-0.1,0.1c-0.4,0.1-1.4,0.3-2.2-0.6c-1.2-1.3-3.3-0.1-3.3-0.1
			s1.9,0.3,2.5,1.9c0.4,1.2,1.1,1.5,1.5,1.5c0,0.1,0,0.1-0.1,0.2c-0.3,0.3-1.2,0.7-2.3,0.2c-1.6-0.8-3.1,1.1-3.1,1.1s1.9-0.4,3,0.9
			c0.8,0.9,1.5,1,2,0.9c0,0.1,0,0.1,0,0.2c-0.2,0.4-0.8,1.1-2.1,1c-1.8-0.2-2.5,2.1-2.5,2.1s1.7-1,3.1-0.3c1.1,0.6,1.8,0.4,2.1,0.1
			l0.1,0.1c-0.1,0.5-0.4,1.3-1.6,1.7c-1.7,0.5-1.5,2.9-1.5,2.9s1.2-1.6,2.8-1.4c1.3,0.1,1.8-0.3,2.1-0.6l0.1,0.1
			c0.1,0.4,0.2,1.4-0.9,2.1c-1.4,1.1-0.4,3.2-0.4,3.2s0.5-1.9,2.1-2.3c1.2-0.3,1.6-0.9,1.7-1.3c0,0,0.1,0.1,0.2,0.1
			c0.3,0.4,0.6,1.2,0,2.3c-1,1.5,0.8,3.2,0.8,3.2s-0.2-2,1.2-2.9c1-0.7,1.1-1.4,1.1-1.8c0.1,0,0.1,0,0.2,0c0.4,0.3,1,0.9,0.8,2.2
			c-0.3,1.8,1.9,2.7,1.9,2.7s-0.9-1.8,0-3.2c0.7-1,0.6-1.7,0.4-2.1c0.1,0,0.1,0,0.2-0.1c0.4,0.1,1.3,0.5,1.5,1.7
			c0.3,1.8,2.7,1.8,2.7,1.8s-1.4-1.3-1.1-3c0.2-1.2-0.1-1.8-0.4-2.1l0.1-0.1c0.5-0.1,1.4,0,2,1.1c0.9,1.6,3.2,0.7,3.2,0.7
			s-1.8-0.7-2.1-2.4c-0.2-1.2-0.8-1.7-1.2-1.8l0.1-0.1c0.4-0.2,1.3-0.5,2.3,0.3c1.4,1.1,3.2-0.5,3.2-0.5S123.5,20.7,122.7,19.3z"/>
		<path class="st0" d="M74.1,88.9c0,0-2,1.5-7.8,3.4c-10.1,3.3-15.6-0.9-15.6-0.9s-1,2.7-4.5,3.9c-2.5,0.8-5.5,1.4-5.5,1.4
			s0.4-2,2.6-3.1c1.2-0.6,1.6-1.2,1.6-1.2s-0.8,0.3-3.3-0.7C40,91.1,38.3,90,38.3,90s3.2-1,4.3-1c1.5-0.1,2.6,0.3,2.6,0.3
			s-1.5-0.7-2.8-1.9c-1.2-1.2-3-3.1-3-3.1s3-0.2,4.4,0.5c2,1,2.2,2,2.2,2S45.2,85,45.1,83c-0.1-2.2-0.6-3.7-0.6-3.7s2.2,0.6,3.1,2.5
			c0.8,1.8,1.2,3.3,1.2,3.3s-0.6-1.8-0.2-3.6c0.3-1.2,1.4-2.8,1.4-2.8s1.1,3.5,1.8,6.4c0.8,3.4-0.3,5.5-0.3,5.5s2.8,2.8,10.8,1.8
			c3.8-0.5,7.5-2.6,7.5-2.6s-1.2-0.2-4-0.7s-5.2-1.7-5.2-1.7s-2.6,1-4.4,0.3c-1.9-0.8-3.2-1.8-3.2-1.8l2.3,0.1c0,0-0.5-1.2-0.1-2.2
			c0.2-0.6,1.6-0.8,2.1-0.6c0.5,0.2,0.1-0.6,0.2-1.6s0.4-1.7,0.4-1.7s0.7,1.7,1.6,2.9c1.5,1.8,1.5,3.8,1.5,3.8s1.1,0.5,1.9,0.8
			s1.8,0.5,1.8,0.5s0.4-1.2-0.4-1.9c-0.7-0.8-0.7-1.4-0.7-1.4s-1.7-0.2-2-1.5c-0.4-1.6,0-3.8,0-3.8s2.1,1.5,2.5,2.9
			c0.5,1.7-0.2,1.6,0.8,3.3c1,1.7,0.8,2.6,0.8,2.6s2.8,0.5,4.5,0.6s0.5,0.4,1.9-0.4c1.5-0.8,1.4-0.5,1.4-0.5L74.1,88.9z"/>
		<path class="st0" d="M89.3,146.3c1.3-4.5,5-8,9.5-7.9c4.8,0.1,6.2-3.6,6.2-3.6s-4.5-0.8-6,0.7c-1.4,1.5-1.5,2.3-3.7,2.5
			c-2.5,0.2-4.1,2.5-3.3,0.6c2.6-6.9,5.2-7.7,6.5-8.3c1-0.5,2,1.6,5.3,1.4c3.6-0.2,6-1.2,6-1.2s-1-1.6-2.8-1.7
			c-1.7-0.1-2.1-0.2-2.1-0.2s1,0.1,2.5-1c1.2-0.9,2.8-3.7,2.8-3.7s-2-0.1-3.2,0.6s-2.7,1.3-2.7,1.3s1.1-1.3,1.5-2.6
			c0.9-2.9,0.3-5.4,0.3-5.4s-1.5,1.7-2.7,2.8c-0.9,0.8-2.1,2.8-2.1,2.8s0.8-1.9,0.6-3.8c-0.1-1.2-1.3-3.1-1.3-3.1s-1.1,2.1-1.6,3.1
			c-0.5,1.2-1.1,3.5-1.1,3.5s-0.2-1.3-0.7-2.1c-0.6-0.9-1.3-2.4-1.3-2.4s-1.1,2.9-0.8,5.4c0.5,3.5,2.3,5,2.3,5s-1.5,0.5-3.4,2.9
			c-1.3,1.7-3.1,5.5-3.1,5.5l-1.1,1.7C89.8,139.2,87.9,151.5,89.3,146.3z"/>
		<path class="st0" d="M77.5,152.2c0,0-1.1-6.3-5.7-12.3s-9.6-11-9.6-11s1.8,9.8,6.3,14.2c5.4,5.2,7.2,8.8,7.2,8.8s-1.1-0.3-1.9-0.4
			c-0.8-0.1-2.3-2.4-4.4-5.6c-2.1-3.1-6.5-5.8-6.5-5.8s1.8,3.1,3.6,5.5c1.8,2.4,5,5.3,5,5.3s-2.9-0.5-7.1-3
			c-3.2-1.9-5.9-5.1-5.9-5.1l-1.2-2.5c0,0-3.7-10.6-5.9-12c-2.2-1.4-3.4-2.9-3.4-2.9s0.9,6.8,4.1,9.5c2.7,2.3,4.7,6.4,4.7,6.4
			s-4.1-3.7-5.7-5.1c-1.6-1.4-5.6-4.6-5.6-4.6s1.8,4.4,4.7,6.2c2.2,1.3,4.2,2.4,4.2,2.4s-1.6-1.1-3.7-1.7c-1.4-0.4-1.5-0.5-2.4-1
			c-1.8-0.8-1.5-3-3.6-5c-2-1.9-3.2-3.7-3.2-3.7s-0.1,3,2.5,5.4c1.3,1.2,2.3,2.3,2.3,2.3s-1.4-2.1-5.6-3.7c-3.2-1.2-4.4-2.7-4.4-2.7
			s0.2,4,4.9,5.3c4,1.1,5,2.4,5,2.4s-3.4-0.5-5,0c-1.5,0.4-1.7,0.8-3.1,1.6c-2.1,1.1-3.9,2-3.9,2s4.8-0.2,8.4-1.7
			c3.8-1.6,4.9-1.1,4.9-1.1s0.6,0.3,2.3,0.8c2.6,0.8,5.4,2.2,5.4,2.2s-3,0.8-7.3,0.7c-6.8-0.1-12.2,5-12.2,5s6.9-0.8,13.3-2.4
			c3.1-0.8,7.5-2.3,7.5-2.3s0.7,0.7,1.9,1.9c1.2,1.2,2.4,2.3,2.4,2.3s-4.2-0.9-6.5-1c-2.3-0.2-8.5,1.3-8.5,1.3s4.6,1,8.2,1.1
			c2.1,0.1,7.3-0.8,7.3-0.8s-4.8,1.5-6.6,2.6c-3.1,1.9-5.5,4.9-5.5,4.9s6-2.7,7.7-3.9c1.7-1.3,5.1-3.2,5.1-3.2s-5.1,3-7.2,6.4
			c-0.9,1.5-3.6,6.3-3.6,6.3s5.4-4.1,6.9-6.9c1.5-2.8,4.6-5.4,4.6-5.4s1,0.9,2.2,1.4c1.1,0.6,2.7,1.2,2.7,1.2s-3.3,0-4.9,0.2
			c-1.8,0.3-4.6,1.9-8,3.6c-2.6,1.3-6.3,2.9-6.3,2.9s7.2-0.6,10.9-1.9c7.1-2.3,10-4.3,10-4.3s1.4,0.6,3.1,0.9
			c1.7,0.4,3.2,0.5,3.2,0.5s-2.7,1-5.4,3.3c-2.2,1.8-5.7,6.9-5.7,6.9s8.3-4.4,11.1-7.7c0.8-0.9,1.7-1.9,1.7-1.9s3.2,0.4,3.6,2.2
			c0.5,0.1,0.7-1.4,0.2-2.1C80.7,153.1,77.5,152.2,77.5,152.2z"/>
		<path class="st0" d="M83.5,60.7c0,0,1.6-3.5,4.6-5c2.4-1.2,4.1-1.6,6.4-2c0.1,0-0.6-0.5-2.3-0.3c-1.2,0.1-2.1-1.3-3.3-1.3
			c-0.7,0-1.5,0.3-1.5,0.3s0.7-1.9,2.6-2.7c1.8-0.7,3.5-0.2,4,0.6c0.6,0.7,1.8,2.1,1.8,1.2c0-0.9-0.8-2.3-1.8-2.9
			c-1.8-1.1-2.7-4.2-2.7-4.2s2-0.9,3.5-0.4s2.4,1.8,2.6,2.2c0.1,0.4,0.9-1.4,2.2-1.7c1.3-0.3,2.9,0.1,2.9,0.1s0,0.8-0.7,1.5
			s-0.7,2.6-0.6,3s1.4-0.6,2.6-1.6s3.3-1.6,5.4-0.6c0.8,0.4,1.9,2.1,1.9,2.1s-1.9,0.2-4,1.3c-3.4,1.7-4.9,0.7-5.5,1.3
			c-0.5,0.6,0.8,0.6,1.7,0.8c0.8,0.2,3.7,1.4,3.6,3.1c-0.1,1.7-2.7,3.5-2.7,3.5s-0.2-1.8-2.2-2.7c-1.3-0.6-2.2-1.8-2.5-1.5
			c-0.4,0.3,0.5,2.2-0.6,3.4s-2.8,1.1-3.4,2.8c-0.7-1.3,0.2-2-0.7-3.5c-0.6-0.9-0.2-3-0.2-3s-2,0.2-4.6,1.7
			c-4.4,2.5-4.7,6.4-4.7,6.4L83.5,60.7z"/>
		<g>
			<path class="st0" d="M58.6,101.4l0.9-0.1c0,0-0.7-0.2-0.9,2.1c-0.1,1.6,0.6,2.3,0.2,2.4s-0.6,0.3-1,0s-0.5-1.2-0.3-2.4
				C58.1,100.5,58.6,101.4,58.6,101.4z"/>
			<path class="st0" d="M59.3,105.3c0,0,0.9,0,1.7,0.7c1.2,1.2,1.7,4.1,2.8,6c0.7,1.1,3.4,4.8,3.3,7.7c-0.1,3.1-1.5,7.3-7.8,8
				s-9.7-4.5-9.7-8.5c0-3.9,3.1-6.6,3.6-8.3c0.5-1.8,0.9-4.5,2.3-5.3c0.8-0.5,2-0.5,2-0.5L59.3,105.3z"/>
		</g>
		<path class="st0" d="M40,39.3c0,0,4.3,5.9,9.4,3.9s5.7-5.5,5.7-5.5s-3.2,1.5-5.9,0.7c-2.7-0.8-3.7-3.7,1.4-3.4
			c6.2,0.3,9.5-3.6,7.7-8.5c-1.1,2.9-6.4,5.5-9.4,5.7c-3.1,0.2-3.3-2.4-0.6-3c5.6-1.3,8.5-3.2,6.4-8.4c-1.3,3.3-4.1,4.6-5.6,4.9
			c-2.3,0.4-2.6-1.3-0.1-2.6c4-2,0-7.2,0.6-9.1c-3.9-0.5-7.5,2.9-6.8,8c0.6,4.7-1.7,5.9-2.9,3.1c-1.6-3.9,0.3-7.1,1.5-8.3
			c-5.8,0.2-8.7,4-7.6,7.9c0.9,3.2,4.5,5.5,3.4,7.3c-1.5,2.4-3.5-0.2-4.7-2.2c-1.2-2.1-1.7-5.5-1.7-5.5s-2.5,1.9-3.2,6
			c-0.3,1.7,0.8,6.1,4.3,8.2C37.2,41.7,40,39.3,40,39.3z"/>
		<path class="st0" d="M146.3,105.1c0,0,1.1-0.4,2.9,0.4c1.5,0.7,2.4,1.7,2.4,1.7s0.5-2.8,2.9-2.9c2.3,0,3.1,1.3,3.1,1.3
			s-1.5-0.1-2.5,0.7c-0.9,0.8-0.9,2.1,1.1,1.1c2.4-1.1,4.3-0.1,4.4,2.2c-0.9-1-3.4-1.2-4.7-0.8c-1.2,0.4-0.9,1.5,0.2,1.3
			c2.4-0.4,3.9-0.1,3.9,2.4c-1-1.1-2.4-1.2-3-1.1c-1,0.2-0.8,1,0.4,1.1c1.9,0.2,1.2,2.9,1.7,3.6c-1.5,0.8-3.4,0-4-2.1
			c-0.5-2-1.7-2.1-1.6-0.8c0,1.9,1.2,2.9,1.9,3.2c-2.3,0.9-4.1-0.2-4.3-2c-0.2-1.5,0.9-3,0.2-3.6c-1-0.7-1.4,0.7-1.5,1.7
			s0.2,2.5,0.2,2.5s-1.1-0.6-2.2-1.9c-0.5-0.6-0.9-2.9,0.4-4.1c1.3-1.2,2.6-1.5,2.6-1.5s-0.8-1.2-2.3-1.5s-2.8,0.1-2.8,0.1
			L146.3,105.1z"/>
		<path class="st0" d="M72.7,72c0,0,1.5-0.4,1.7,0.7c0.2,1.2,2.4,2.3,4.2,1.5c1.6-0.7,1.3-2,3.2-2c-1-1.6-0.7-2.9-2.4-3.9
			c-1.4-0.9-3-0.3-3.7,0c-1.1,0.5-1.6-0.4-1.6-0.4s0.4-0.8,1-1.1c0.7-0.3,2.1-0.6,2.6-1.9c0.5-1.3-0.4-3,0.3-3.8
			c-1.4-0.3-3.2-0.3-4.4,1.6c-1.1,1.9-0.1,2.5-1.2,3.6c-1.1-0.8-1.1-2.3-2.4-2.9c-1.3-0.6-2.2-0.6-2.7-0.9c0.4,1.7-0.9,2.8-0.4,4.2
			c0.5,1.4,2.2,2.6,2.2,2.6s-2.2,0-3.5,1.3c-1.4,1.4-2.2,3.5-2.2,3.5s1-0.1,1.8,0.2c0.8,0.4,1.9,0.6,3.3-1.4
			c0.4-0.6,1.2-0.3,0.7,0.6c-0.6,1-1.8,2-1,3.9c0.5,1.1,1.4,1.6,1.9,2.8c0.8-1.1,1.5-1.5,2.2-2.8c0.7-1.4-0.6-3-0.6-3.8
			C71.9,72.7,72.7,72,72.7,72z"/>
		<path class="st0" d="M85.5,50.2c0,0,1.2-3.2-0.8-7.1c-1.9-4-4.5-4.8-4.5-4.8s-2.9,2.6-6.9,0.8s-5.2-5.7-5.2-5.7s4.9-0.6,7.6-0.6
			c5.8,0,4.9,4,4.9,4s3.7,2.9,5,5.5c1.1,2.2,1.5,4.4,1.5,4.4s3.4-3.8,2.2-6.9c-1.4-3.7-3.1-4.4-3.1-4.4s-2.3,0.7-3.7-3.5
			c-0.9-2.7,0-4.7,0-4.7s2.2,2.1,3.2,3.3c2.2,2.6,1.1,4,1.1,4s1.4,1.3,2.2,2.9c0.8,1.5,1.4,2.3,1.4,2.3s0.5-1.4,0.7-3.7
			c0.3-3.1-0.2-6.2-0.2-6.2S89.3,29,88,27.9s-2.3-2.6-2.3-2.6s-2.8,1-5.1-1.7c-2-2.4-1.6-5.6-2.5-7.6c2.1-0.5,4.5,1.1,5.4,3.6
			c0.9,2.4,2.4,4.8,2.4,4.8s0.9,1.4,2.5,2.9c1.3,1.2,2.6,1.9,2.6,1.9s-0.7-4.9-2.4-9.8c-1.7-4.9-3.2-6.3-3.2-6.3s-3.7,0.2-4.9-3.7
			C79.1,5.2,81.2,0,81.2,0s1.3,2.8,3.4,4.7c4.9,4.5,1.5,7.5,1.5,7.5s1.2,1.9,2.9,6.6c1.7,4.7,2.4,10.6,2.4,10.6s1-1.6,1.4-3.1
			c0.7-2.1,0.4-4.3,0.4-4.3s-3.9-1.9-1.6-6.7c1.3-2.7,1.9-6,1.9-6s2,3,2.5,5.7c1.3,6.2-2.1,7-2.1,7s0.3,2-0.6,4.9
			c-0.7,2.1-1.8,3.8-1.8,3.8s0.2,3.4,0,6c-0.3,2.7-1.2,5.7-1.2,5.7s1.3-0.7,2.4-2c1.2-1.4,2.1-2.4,2.1-2.4s-2.1-4.1,2.6-6.9
			c3.1-1.8,4.6-3.6,4.6-3.6s0.4,5.1-1.3,8c-2.4,4.2-5.3,2.9-5.3,2.9s-1.2,1.9-2.2,2.9c-1.6,1.6-3.5,2.9-3.5,2.9s-0.2,0.6-0.7,1.5
			c-0.7,1.4-1.7,2.3-1.7,2.3s-0.4,2.1-0.8,2.7C86.1,51.2,85.5,50.2,85.5,50.2z"/>
		<path class="st0" d="M110.3,73.7c0.9-1.5,2.5-2.1,2.7-2.3l1-0.3c0,0,6-1.7,10.8-4.4c4.7-2.6,6.5-4.1,6.5-4.1s3,2.1,5.8,2.3
			c2.8,0.2,5.4-2.7,5.4-2.7s2.1-0.4,3.1-0.6c0.8-0.1,1.9-0.1,1.9-0.1s0.1,0.4,0.6,1c0.4,0.6,0.9,0.5,0.9-0.2s0,0.2,0.7,0.8
			s2.5,0.3,1.8-0.3c-0.8-0.7-1.1-1.1-1.1-1.1s2.4-0.5,4.5,0c2.2,0.6,3.7,0,3.7,0s-1.6-1.1-3-1.2c-1.4-0.2-3,0.7-3.6,0.8
			s-2.6,0.2-2.2-0.2c0.4-0.4,6.4-4.8,7.1-6.6c0.7-1.8,1.2-3,0.5-2.5c-0.6,0.4-2.6,1.7-3.2,3.1c-0.6,1.4-3.2,4.4-3.9,5.2
			s-1.8,1.2-1.6,0.6c0.2-0.6,1.7-1.6,1.9-2.8s-0.7-2-0.8-1c-0.2,1-0.4,2-0.7,2.7c-0.3,0.6-1.3,1.3-1.3,1.3s-1.3,0-2.2,0.1
			c-0.9,0.1-2.6,0.4-2.6,0.4s1.1-0.9,0.9-1.2c-0.2-0.4-3.3-0.8-4.7-0.4c-1.4,0.3-2.9,1.5-3.6,1.8c-1.9,0.8-3.4,0.2-3.4,0.2
			s1.3-0.9,1.8-1.2c0.5-0.2,3.1-0.7,3.8-2.5c0.5-1.3,0.3-1.6,0.3-1.6s-2.3,0.7-3,1.2c-1.5,1.3-1.6,2.5-1.6,2.5l-1.4,1
			c0,0,0.1-0.8,0.3-1.5c0.3-1,1.4-1.9,1.4-1.9s4.8-2.5,5.4-7.4c0.5-4.9-0.8-7.4-1.5-7.6c-0.7-0.2-4.3,2.2-5.1,4.7
			c-0.8,2.6-0.2,6.5-0.2,6.5s-1.3-0.9-2.3-1.1c-1-0.2-1.4-0.1-1.4-0.1s-1,1.4-1,3.7c0,1.5,0.9,3,1.8,3.6c1,0.6,1.6,0.6,1.6,0.6
			l0,1.1c0,0-4.7,3.1-7.6,4.6c-4.6,2.4-9.3,3.6-9.3,3.6s0.4-1.1,0.8-1.4c1.5-1.3,3.6-1.7,4.7-1.7c2.1-0.1,4.2-1.2,5.1-3.8
			c0.8-2.1,1.5-3.4,1.5-3.4s-1.9-0.4-3.1-0.2c-1.1,0.2-2.1,1-2.1,1s1.9-2.9,0.8-6.6c-0.8-2.6-1.2-5.4-1.2-6.1
			c-1.7,0.8-4.8,3.9-5.5,7.4c-0.6,3.5-0.3,7.5-0.5,9.8c-0.3,2.3-1.3,4-1.3,4l-0.3,0.9c0,0-2.8-4.2-4.1-6.7c-1.3-2.5-5.6-2.8-5.6-2.8
			s0.9,2.7,2.2,4.1c1.3,1.4,3.1,1.4,4.4,2.3c0.6,0.5,2.1,2.7,2.1,2.7s-1.6-0.8-2.2-1.7c-0.5-0.9-2.5-0.9-2.5-0.9s0.3,1.6,1.5,1.9
			s3.6,1.8,3.6,1.8s-1.5,0.4-3.2,1.8L110.3,73.7z"/>
		<path class="st0" d="M114.1,70.6c2.2-0.7,7.6-0.8,7.6-0.8s2.5,0.1,3.1,0c0.9-0.1,1.1,0.4,1.1,0.4s1.7-0.5,2.5-0.2s1.5,0.6,1.5,0.6
			s0.7,0.3,2.2,0.3s1.9-0.4,2.4-0.3s1,0,1.7-0.5s1.8-1.3,1.9-1.4c0.8-0.7,1.9-1,1.4,0.3c-0.5,1.1-1.7,1.6-2.4,1.7
			c-0.7,0.1-2,0.1-2,0.4c0.1,0.3,1.5,0.8,3.7,1.5s6.2,3.2,6.7,4.7c0.6,1.6,0.5,2-1.6,2c-1.4,0-3.8-0.3-4.6-1.1
			c-0.8-0.8-1.7-1.7-1.7-3.3c0-1.6-1-2-1.4-2.5s-1.1-0.7-0.5,0.3c0.5,1,1.4,2.9,0.8,3.8c-0.6,0.8-1,1.1-1.4,0.3
			c-0.2-0.5-1.4-1.8-1.3-2.9c0.1-1,0.9-1.3,0.9-1.9s0.1-0.7-0.7-0.6c-0.8,0.1-1.9,0.3-2.4,0.1c-0.5-0.2-1.7-0.4-1.7-0.4
			s0.7,0.8,1.1,1.7c0.4,0.9,0.7,1.4,0.6,1.8c-0.1,0.3-2.6,0.9-4,0.4s-1.9-0.8-2.3-1.5c-0.3-0.7-0.3-0.7-0.3-0.7s0,1-0.5,1.7
			c-0.4,0.7-1,1.1-1,1.1s-0.6-0.7-1.2-0.9c-0.7-0.3-0.8-1.2-0.5-2.2s0.2-2,0.2-2s-7.3-0.1-9.9,1.4L114.1,70.6z"/>
		<path class="st0" d="M158.2,44.5c-1-3.3-4.4-2.1-4.4-2.1s0.3-2.7-0.4-5c-0.9-2.9-2.1-4.3-2.1-4.3s0.1-0.5,0.1-1.1
			c0-0.6,0.1-1.2,0.2-1.5c0.3-0.7,0.3-1.5-0.3-1.6s-0.7,0.9-0.6,1.8c0.1,0.9,0,1.7,0,1.7s-1.2-1.1-1.9-1.9c-0.5-0.5-1-0.2-1,0.5
			s0.5,0.6,1.2,0.9c0.7,0.2,1.7,1.4,1.7,1.4s-0.4,2.9-1.7,5.6c-1.3,2.8-2.2,3.4-2.2,3.4s-0.4,0.3-1.2-0.3c-0.8-0.6-2.8,0.1-3.5,2
			c-0.8,2-0.5,5,2.3,6.1c3.8,1.6,5.7-2.4,5.7-2.4s1.3,3,4.9,2.4C156.5,49.9,159.1,47.4,158.2,44.5z M149.2,42.8
			c-0.7-0.6-1.9-0.3-1.9-0.3s1.1-1.4,1.8-2.8c1.2-2.3,2-5.8,2-5.8s1.3,1.6,1.9,4.5c0.4,1.9,0.2,4.1,0.2,4.1s-0.9-0.3-2,0.2
			c-0.9,0.4-1.2,1.3-1.2,1.3S149.9,43.4,149.2,42.8z"/>
		<path class="st0" d="M102,146.1c0,0,3.9-5,8.9-0.2c2.7,2.7,3.1,6.9,3.6,8.3c0.5,1.3,1.3,2.5,0.5,4s-7.9,3.2-12,2.5
			c-8.5-1.5-5.6-7.6-5.6-7.6s-2.1,0.5-3.7,2.7c0.4-2.9,2.6-3.4,2.6-3.4s-2.3,0.2-3.2-0.7c-0.9-1-0.9-1-0.9-1s2.4,1.4,4.9,0
			c-1.9-0.5-2.1-2.2-2.1-2.2s1.4,1.1,2.7,0.9c0.9-0.2-0.6-1.3-0.9-2.6c-0.4-1.8,0.2-2.7,0.2-2.7s0.6,2.8,2.3,3.1
			c1.2,0.2,1.3-0.9,0.3-1.9c-0.3-0.3-1.2-0.7-1.2-0.7s0.8-0.5,1.8-0.2c0.8,0.3,1.3-3,1.3-3s0.7,1.5,0.4,2.9c0.8-0.4,2.2-2.2,2.2-2.2
			s0,1.7-0.9,2.5C102.2,145.2,102,146.1,102,146.1z"/>
		<path class="st0" d="M61.8,8.8c0,0-7.1,1.2-5.3,8.1c0.9,3.4,3.3,4.8,6.1,8.7c1,1.4,1.8,3.2,3.8,3.2c3.1,0.1,7.5-5.2,8.9-9.5
			c3.4-10.6-4.5-11.1-4.5-11.1s1.4-1.3,4.3-0.9c-3-2.1-4.7-0.4-4.7-0.4s1.7-1.4,1.1-3.5c-0.4-1.5-0.8-1.5-0.8-1.5S70.2,5.7,68.2,7
			c0.5-2.1-0.4-3.4-0.4-3.4s-0.2,2.6-1.1,2.8c-0.5,0.1,0-1.3-1.9-2.6c-1.3-0.9-2.7-0.9-2.7-0.9s2.4,2.3,2.2,3.7
			c-0.1,1.4-1.2,1-2.3-0.1c-0.6-0.6-0.9-1.8-0.9-1.8s-0.6,1.5-0.3,2.8c-1.4,0.7-4.4-1.1-4.4-1.1s0.6,0.8,1.1,1.4
			c0.5,0.5,1.1,0.6,1.1,0.6l-3,0.6c0,0,2.2,0.6,3.7,0.5S61.8,8.8,61.8,8.8z"/>
		<path class="st0" d="M113.8,42.3c-0.3-0.6,0.2-1,0.5-1s1.8,1.1,3.4,1.2c1.5,0.1,1.3,0,2.8-0.8c1.5-0.7,7.7-3.1,12-9
			c4.4-5.9,3-7.3,7.9-11.1c0.6-0.5,1.1-0.1,1.5,0.3s0.4,0.8,0.4,1.3c0,0.6,1,2.9-1.7,8.9s-7.7,12-14.5,14c-4.6,1.3-5.5-1.2-6.8-1.7
			s-3.7-0.6-4.3-1C114.5,42.9,113.8,42.3,113.8,42.3z"/>
		<path class="st0" d="M112.3,39c-0.5-0.5-0.2-1.1,0.1-1.2c0.3-0.1,2.1,0.4,3.6-0.1c1.5-0.4,1.2-0.5,2.3-1.7
			c1.1-1.2,6.1-5.5,8.3-12.6c2.1-7.1,0.4-7.9,3.6-13.2c0.4-0.6,1-0.4,1.5-0.2c0.6,0.2,0.7,0.5,0.8,1.1c0.2,0.6,1.9,2.4,1.4,9
			s-3.2,13.9-8.8,18.1c-3.9,2.8-5.6,0.8-7,0.7s-3.8,0.9-4.5,0.7C113.1,39.5,112.3,39,112.3,39z"/>
		<path class="st0" d="M40.3,51.6c-0.6-0.4-1.7-0.9-2.5-2.4s-6.1-7.1-10.9-7.6c-4.8-0.4-9.6,1.7-12.5,5.7c-1.6,2.2-1.8,2.8-2.6,3.5
			c-0.8,0.7-2.1,1-1.4,2.3c0.5,0.9,1.6,1.2,2.4,2.4c1.1,1.7,4.1,6,8.8,7c7.2,1.6,11.6-1.3,14.2-4.7c2.8-3.7,2.5-4.2,3-5
			C39.5,51.9,40.3,51.6,40.3,51.6z"/>
		<path class="st0" d="M63.9,45.3c0,0-0.9-0.1-2.3-0.3c-1-0.1-2.8-0.1-2.8-0.1s1.8-0.4,3.1-0.4c1.4,0,2,0.2,2,0.2s-0.1-0.1-0.6-0.5
			c-1-0.8-2.4-1.6-2.4-1.6s1.3,0.1,3.2,1.2c0.7,0.4,1.4,1.1,1.4,1.1s-0.1-0.7,0-1.1c0.1-0.6,0.6-1.1,0.6-1.1l1.1,0.6
			c0,0-0.4,0.4-0.5,1C66.6,45,66.8,45,66.8,45s0.9-1,2-1.7c1.5-0.9,2.9-1.4,2.9-1.4s-1.6,1.2-2.6,2.1c-0.7,0.5-0.6,0.8-0.6,0.8
			s0.5-0.4,2.1-0.9c1.3-0.4,3.3-0.4,3.3-0.4S72,44.1,71,44.6c-1.5,0.7-1.2,0.7-1.2,0.7s2.7-0.9,5.8,1.9c2.7,2.4,2.4,6.9,1.2,9.1
			c-1.4,2.6-4.2,4.2-6.8,4.3c-2,0-3.6,0-4.7,0.1c-2.5,0.3-5.5-0.3-7.7-3.3s-1.5-6.8,0.1-8.9C60.3,44.7,63.9,45.3,63.9,45.3z"/>
		<path class="st0" d="M153.2,94.6c0,0,1.3,6.5,5.6,6.8c4.2,0.3,7.6-2.4,8.3-7.7c0.6-5.3-2.7-13.8-2.7-13.8s-6.1-0.2-10.4,0.8
			c-5.6,1.3-9.5,3.9-8.8,8.5C146.1,94.7,153.2,94.6,153.2,94.6z"/>
		<path class="st0" d="M156.8,66.7c0,0-4.7,0-5.6,2.9c-0.9,2.9,0.6,5.7,4.2,7c3.6,1.3,10.1,0.2,10.1,0.2s1-4.2,1-7.4
			c-0.1-4.1-1.3-7.3-4.6-7.4C157.7,61.7,156.8,66.7,156.8,66.7z"/>
		<path class="st0" d="M24,65.8c-1.8-0.1-3.8,0.9-5.3,2.4S16.9,70,16,70c-2,0-3.3-2.2-5.2-2c-1.8,0.1-3.1,1.4-3.9,2.1
			S5,72.5,3.3,72.4s-2.7-2-2.7-2s0.1,0.7,0.8,1.5c0.4,0.5,1.2,0.6,1.2,0.6s-0.5,0-1.5-0.3C0.6,72,0,71.8,0,71.8s1.2,1.1,3.1,1.1
			c2.2-0.1,3.9-1.9,5-3.1c1.4-1.5,3.2-1.6,3.9-1c2.1,1.7,3,1.9,3,1.9s-1.1,0.1-2.5-0.2c-2-0.4-3.8,0.7-4.7,1.9
			C7.3,73.1,7,73.9,7,73.9s-1.5-0.5-3.6-0.5c-1.2,0-3.3,0.9-3.3,0.9s2.5-0.7,3.8-0.2c1.3,0.6,1.9,0.7,1.9,0.7S5.3,75.2,3.6,75
			c-1.3-0.1-2-0.7-3.6,0c0.8-0.1,1.7-0.2,2.4,0.1c1,0.6,2.3,0.6,2.3,0.6S4.3,76,3.9,76.2s-1.2,0.4-1.2,0.4c-1.5,0.5-2.4,2.2-2.4,2.2
			S1,77.6,3.2,77c0.9-0.2,2,0.2,2,0.2s-2-0.1-3.3,1.1c-0.6,0.5-1.1,1.8-1.1,1.8s1.7-2.6,5.1-2.2C8.6,78.2,9,79.6,9,79.6
			s-2.7-0.8-4.9-0.1c-3.1,1-3.5,3-3.5,3s1.6-3.1,5.4-2.4s5.7,1.7,7.1,0.3c1.4-1.5,1.6-3.9,3.5-3.7c5.8,0.7,6.6-2.5,6.9-1.7
			c0.4,1-1.4,1.7-2.5,2.4c0,0-0.8,0.3-1.9,2.1c-1.9,3.1-4.3,6.6-5.1,8.1c-1,2.2,5,3.9,7.7,6.7c0.2,0.2,0.7,0.5,1.2,0.5
			c0.3,0-0.8-1.2-2.3-2.6c-1.9-1.7-4.3-3.7-4.5-4.4c0.6-0.7,1.5-1.8,2.8-3.4c1.1-1.4,2.2-2.1,2.4-2.3c0.7-0.5,1.2,1.9,1.3,4.4
			c0.1,2.5,0,4.1-0.5,4.6s-5.1,7.1-6.2,8.4s-6.4,9.1-6.4,9.1l6.1,0.3c0,0-1.1,1.3-3.1,5c-2.1,3.7-5.6,9.5-5.6,9.5l-0.1,0.1
			c0,0,2.8-2.5,5-5c3.3-3.8,5.7-7.7,6.4-8.2c0.7-0.5,1.2-1.3,1.2-1.3l9.8-0.1c0,0,0.7,0.7,0.7,1.5c0,0.5-0.2,1.4-0.3,1.9
			c-0.2,1.7,0,2.7-0.7,5.7c-0.6,2.5-1.8,5.6-1.8,5.6h0.1c0,0,3-3.9,4-6.5c1.2-3.5,1.7-5.9,1.7-6.8c0-0.4-0.1-1.2-0.1-1.2l-0.1-0.3
			c0,0-0.6-3.2-1.5-8.2c-0.8-4.4-1.8-6.6-2-7.3c-0.2-0.7-0.7-1.5-0.7-1.5L28.1,86c0,0,0.9,1.5,1.7,2.5c0.8,1,2.3,2.8,2.9,3.5
			s1.2,1,1.4,1.3c0.1,0.3,3.4,3,3.3,2.5s-1.8-2.3-2.7-3.1c-0.9-0.8-3.3-5.4-3.8-6s-1.3-3.3-1.9-5.6c-0.3-1.1-0.9-2.8-1.7-3.7
			c-0.5-0.5-1-1.1-1-1.1s-0.1-0.4,0.2-1.2c0.1-0.4,0.2-0.8,0.2-0.8s1.4,0.2,1.8,0s0.4-1.9,0.4-2.2c0.1-0.3,0.4-0.3,0.5-0.5
			s-0.3-0.5-0.3-0.8c-0.1-0.3,0-1.2-0.2-1.7C28.5,67.6,27.2,66,24,65.8z"/>
		<g>
			<g>
				<path class="st0" d="M119.2,126.1l1,0.1c0,0,0.1,1.4-0.1,2.3c-0.3,0.9-0.2,1.7-0.5,1.8c-0.4,0-0.8,0.1-1-0.2
					c-0.3-0.4,0.5-0.6,0.7-1.6C119.3,127.5,119.2,126.1,119.2,126.1z"/>
			</g>
			<g>
				<path class="st0" d="M135.8,114.7l0.9,0.3c0,0-0.2,1.3-0.6,2.2c-0.5,1-0.9,1.6-1.2,1.5c-0.3-0.1-0.6,0-0.7-0.4
					c-0.2-0.4,0.7-0.4,1.1-1.3C135.7,116,135.8,114.7,135.8,114.7z"/>
			</g>
			<g>
				<path class="st0" d="M127.1,112.1l-0.6-0.8c0,0-1.5,0.1-2.4,1.1c-0.6,0.7-1.4,1.6-1.2,1.9c0.2,0.3,0.1,0.6,0.6,0.6
					c0.5,0.1,0.7-1.3,1.5-2C125.9,112.1,127.1,112.1,127.1,112.1z"/>
			</g>
			<g>
				<path class="st0" d="M132.2,130l-0.8-0.4c0,0-0.8,0.8-0.9,2c-0.1,0.9-0.4,1.6,0,1.6c0.4,0.1,0.5,0.3,0.8,0s-0.1-0.7,0-1.7
					C131.2,130.5,132.2,130,132.2,130z"/>
			</g>
			<g>
				<path class="st0" d="M127.2,143.5l0.5,0.1c0,0,0,1-0.3,1.6s-0.5,1.2-0.7,1.2c-0.3,0-0.4,0.1-0.6-0.2s0.5-0.3,0.7-1
					C127.1,144.5,127.2,143.5,127.2,143.5z"/>
			</g>
			<path class="st0" d="M124.6,108.5l-0.9,0.6c0,0,1,2.9,6.9,5c6.1,2.1,10.8,1.1,10.8,1.1l-1.7-2.3c0,0-3.2,1.7-8.5,0
				C125.5,111.1,124.6,108.5,124.6,108.5z"/>
		</g>
		<path class="st0" d="M42.7,73c0,0-3.8,1.3-6.2-1.1c-2.5-2.4-1.9-5.2-1.9-5.2s1.8,1.4,3.9,1.9C40.4,69,42.5,70.5,42.7,73z"/>
		<path class="st0" d="M73.2,71.3c0,0,0.9,3.2,5.3,6.3c2.5,1.7,3.9,1.5,3.9,1.5l0.4,2.1c0,0-2.5,0.1-5.6-2.1
			c-2.6-1.9-5.4-7.2-5.4-7.2L73.2,71.3z"/>
		<path class="st0" d="M109.7,35.5c0.1-0.6,1.2-0.6,1.7-0.4c0.5,0.2,1.7,0.5,1.5,0.9s0,1.8,0.3,2.8s1.6,3.9,2.8,4.8
			c1.2,0.9,2,1.1,1.5,1.9s-1.4,1.1-1.9,1.1s-1.5-0.6-1.6-1.3s-1.3-1.9-2-3.6c-0.7-1.8-1.9-3.8-1.9-4.3C110,36.8,109.6,36,109.7,35.5
			z"/>
		<circle class="st0" cx="123.8" cy="149.5" r="4.9"/>
		<circle class="st0" cx="129.9" cy="138.6" r="6"/>
		<circle class="st0" cx="118.1" cy="134.9" r="6.9"/>
		<circle class="st0" cx="119.1" cy="119.7" r="6.8"/>
		<path class="st0" d="M126.1,124.3c0,3.6,2.9,6.6,6.6,6.6c3.6,0,6.6-2.9,6.6-6.6s-2.9-6.6-6.6-6.6
			C129,117.8,126.1,120.7,126.1,124.3z"/>
		<path class="st0" d="M113.4,71.2c0,0,1.2,0.3,1.5,0.5c0.5,0.3,1.4,0.6,1.6,1.1c0.3,0.8,1.3,1,1.7,1.1c0.4,0,0.7-0.1,0.7-0.1
			s-0.3-1-0.9-1.2c-0.5-0.2-1.4-0.3-1.4-0.3s-0.7-0.6-1.3-1c-0.6-0.3-1.4-0.6-1.4-0.6L113.4,71.2z"/>
		<path class="st0" d="M143.1,61.5c0,0,1.8,0.8,3,2.6c1.2,1.8,1.2,4.1,1,5.1s-2.2,0-3-2s0-2.6-0.2-3.4
			C143.7,63.1,143.1,61.5,143.1,61.5z"/>
		<g>
			<polygon class="st0" points="132,94.7 134.6,92.2 131.9,89.4 129.3,92 			"/>
			<polygon class="st0" points="132,82.2 129.3,85.1 131.9,87.6 134.7,84.8 			"/>
			<polygon class="st0" points="128.4,91.1 131,88.6 128.4,86 125.8,88.5 			"/>
			<path class="st0" d="M128.4,84.2l2.6-2.9l0,0c-0.9-0.2-2.1,0.2-2.5-0.6c-0.1,1-1.4,0.6-2.3,1.2L128.4,84.2z"/>
			<path class="st0" d="M135.5,83.8l2.2-2.3c-0.6-0.4-2,0.1-2.1-0.9c-0.4,0.8-1.1,0.2-2.8,0.6l0,0L135.5,83.8z"/>
			<path class="st0" d="M136.4,84.7l2.8,2.8l2.1-2.3c0.2-1.3-1-1.6-0.5-2.4c-0.7,0.5-1.1-0.6-1.9-0.6L136.4,84.7z"/>
			<path class="st0" d="M141.6,90c-0.1-0.4,0-0.9,0-1.6c0-0.8-0.1-1.2,0-1.7l-1.5,1.7L141.6,90z"/>
			<path class="st0" d="M130.8,95.7l0.2-0.2l-2.7-2.7l-2.1,2c0.6,0.7,2.2,0.4,2.1,1.2C128.7,95.3,129.5,96,130.8,95.7z"/>
			<path class="st0" d="M139.2,89.4l-2.8,2.8l2.7,2.5c1.1-0.1,1.2-1.4,2-1.1c-0.5-0.7,0.6-1,0.2-2.1L139.2,89.4z"/>
			<path class="st0" d="M120.1,92.7c0.4-2.2,2-2.6,2-2.6l1.8-1.7l-1.8-1.9c0,0-0.4-0.4-0.4-1.4c0-1.5,1.8-2.5,1.8-2.5
				s-1.7-0.2-2.7,0.8c-1.1,1-0.8,3.1-0.8,3.1s-0.8-0.8-0.7-2.4c0.1-1.7,1-2.6,1-2.6s-1.4,0.5-2.2,1.4c-1.1,1.2-0.8,2.8-0.8,2.8
				s-0.7-1.1-0.8-2.3c-0.1-1.6,0.7-2.5,0.7-2.5s-1.6,0.5-2.2,2s-0.1,2.6-0.1,2.6s-0.8-0.1-1.5-1.5c-0.6-1.4-0.4-3.2-0.4-3.2
				s-1.1,1-1.2,2.8c-0.1,1.3,0.4,2.3,0.4,2.3s-0.6-0.4-2.1-0.4c-1.4,0.1-2.5-0.3-2.5-0.3s0.8,1.8,2,2.2c1.2,0.4,2.6,0.2,2.6,0.2
				s-1.7,0.5-2.7,1.9s-1,3.3-1,3.3s1.2-1.9,2.4-2.6c1.8-1.2,2.8-1.1,2.8-1.1s-1.4,0.9-1.8,2.6c-0.5,2.2,0.3,3.7,0.3,3.7
				s0.2-1.6,1.4-3.5c1.2-1.9,2.6-1.8,2.6-1.8s-1,0.9-1,2.9c0,2.4,2.2,3.8,2.2,3.8s-0.8-1.5-0.4-3.9c0.3-1.7,2.1-2.5,2.1-2.5
				s-1.5,2-0.5,3.9c1.1,1.9,3.8,1.7,3.8,1.7S119.6,95,120.1,92.7z"/>
			<path class="st0" d="M127.4,91.9l-2.6-2.6l-2.1,2c-0.2,0.9,0.9,1.1,0.6,1.9c0.6-0.4,0.8,0.7,1.8,0.9L127.4,91.9z"/>
			<path class="st0" d="M135.5,93.1l-2.7,2.4l0.2,0.2c1.1,0.4,2.2-0.2,2.4,0.6c0.1-0.9,1.9-0.4,2.5-0.9L135.5,93.1z"/>
			<path class="st0" d="M124.9,87.6l2.6-2.5l-2.4-2.5c-0.7,0.1-1,1.1-1.8,0.7c0.5,0.7-0.5,1.2-0.6,2L124.9,87.6z"/>
			
				<rect x="133.6" y="86.6" transform="matrix(0.7077 -0.7065 0.7065 0.7077 -22.9046 121.672)" class="st0" width="4" height="3.9"/>
		</g>
	</g>
</g>
</svg>
