<?xml version="1.0" encoding="utf-8"?>
<!-- Generator: Adobe Illustrator 23.1.1, SVG Export Plug-In . SVG Version: 6.00 Build 0)  -->
<svg version="1.1" id="Layer_1" xmlns="http://www.w3.org/2000/svg" xmlns:xlink="http://www.w3.org/1999/xlink" x="0px" y="0px"
	 viewBox="0 0 895 325" style="enable-background:new 0 0 895 325;" xml:space="preserve">
<style type="text/css">
	.st0{fill:#141414;}
</style>
<g>
	<path class="st0" d="M281.3,303c0,0.4,0.1,0.6,0.3,0.6c1.2-0.9,2.6-1.6,4.2-1.6c2.8,0,4.2,1.8,4.2,4.6v4.9c0,2.4,0.1,2.8,1.2,3
		l0.8,0.1c0.3,0.2,0.3,0.8-0.1,1c-1.4-0.1-2.5-0.1-3.7-0.1c-1.1,0-2.2,0-3.4,0.1c-0.3-0.1-0.3-0.7-0.1-1l0.5-0.1
		c1.1-0.2,1.3-0.6,1.3-3v-4.7c0-1.6-0.7-2.9-2.6-2.9c-1.1,0-1.8,0.5-2.2,1c-0.4,0.4-0.4,0.9-0.4,2.2v4.4c0,2.4,0.1,2.8,1.3,3
		l0.5,0.1c0.2,0.2,0.2,0.8-0.1,1c-1.2-0.1-2.3-0.1-3.5-0.1c-1.1,0-2.2,0-3.6,0.1c-0.3-0.1-0.3-0.7-0.1-1l0.7-0.1
		c1.1-0.2,1.3-0.5,1.3-3v-14.2c0-2.2-0.1-2.4-0.8-2.9l-0.5-0.3c-0.2-0.1-0.2-0.7,0-0.8c1.3-0.4,3-1.1,4.3-1.6c0.2,0,0.4,0.1,0.5,0.3
		c-0.1,1.3-0.1,3.4-0.1,4.8L281.3,303L281.3,303L281.3,303z"/>
	<path class="st0" d="M297.4,307.6c-0.6,0-0.7,0-0.7,0.4c0,3,2,5.4,5,5.4c1.3,0,2.4-0.4,3.2-1.6c0.3-0.1,0.7,0.2,0.7,0.5
		c-1.1,2.6-3.6,3.6-5.6,3.6c-3.8,0-6.4-2.8-6.4-6.6c0-3.7,2.5-7.3,7-7.3c2.4,0,5,1.6,5,4.5c0,0.3,0,0.5-0.2,0.8
		c-0.2,0.3-1,0.4-2.3,0.4L297.4,307.6L297.4,307.6L297.4,307.6z M300.5,306.3c1,0,1.4-0.1,1.6-0.2c0.2-0.1,0.3-0.4,0.3-0.7
		c0-1.2-0.8-2.1-2.2-2.1c-2.2,0-3.2,2.1-3.2,2.8c0,0.1,0.1,0.2,0.5,0.2H300.5L300.5,306.3z"/>
	<path class="st0" d="M317.6,311.3c-0.1,1.9,0.4,2.9,1.6,2.9c0.6,0,1-0.4,1.1-0.4c0.2,0,0.4,0.4,0.3,0.7c-0.7,0.9-2.3,1.5-3.3,1.5
		c-0.8,0-1.8-0.2-2.4-0.9c-0.2-0.2-0.4-0.4-0.5-0.4s-0.4,0.2-0.9,0.5c-0.6,0.4-1.6,0.9-2.8,0.9c-2.2,0-3.4-1.5-3.4-3.2
		c0-1.2,0.5-2.3,2.7-3.1c1.2-0.4,2.4-0.9,3.6-1.3c0.7-0.2,0.8-0.5,0.8-0.9l0-0.9c0.1-1.7-0.4-3.1-2-3.1c-0.9,0-1.6,0.5-1.7,1.4
		c-0.1,0.6-0.3,1-0.6,1.2c-0.5,0.3-1.4,0.6-2.1,0.6c-0.4,0-0.6-0.2-0.6-0.5c0-0.4,0.2-1.1,1.3-2.1c1-1,3.4-2.1,5.1-2.1
		c2.6,0,4.2,1.2,4.1,4.1L317.6,311.3z M314.4,310.2c0-0.4-0.1-0.6-0.3-0.6c-0.3,0-0.9,0.2-1.5,0.4c-0.9,0.3-1.8,0.8-1.8,2.2
		c0,0.9,0.6,1.9,1.8,1.9c1.2,0,1.6-0.8,1.6-1.6L314.4,310.2z"/>
	<path class="st0" d="M322.9,297.4c0-2.2,0-2.4-0.9-2.9l-0.4-0.2c-0.2-0.1-0.2-0.7,0-0.8c1.3-0.4,3-1.1,4.3-1.6
		c0.2,0,0.4,0.1,0.5,0.3c-0.1,1.3-0.1,3.4-0.1,4.8v14.6c0,2.4,0.1,2.8,1.3,3l0.7,0.1c0.2,0.2,0.2,0.8-0.1,1
		c-1.4-0.1-2.5-0.1-3.7-0.1c-1.1,0-2.2,0-3.6,0.1c-0.3-0.1-0.3-0.7-0.1-1l0.7-0.1c1.1-0.2,1.3-0.5,1.3-3L322.9,297.4L322.9,297.4
		L322.9,297.4z"/>
	<path class="st0" d="M335.4,311.5c0,2.4,0.1,2.8,1.2,3l0.6,0.1c0.2,0.2,0.2,0.8-0.1,1c-1.2-0.1-2.3-0.1-3.6-0.1
		c-1.1,0-2.2,0-3.5,0.1c-0.3-0.1-0.3-0.7-0.1-1l0.6-0.1c1.1-0.2,1.3-0.5,1.3-3v-4.9c0-1.5,0-1.9-0.8-2.4l-0.4-0.2
		c-0.1-0.1-0.1-0.6,0-0.8c1.7-0.5,3.4-1.2,4.3-1.8c0.2,0,0.4,0.1,0.5,0.3c-0.1,1.1-0.1,2.7-0.1,4L335.4,311.5L335.4,311.5z
		 M331.6,297c0-1.1,0.8-2,2-2c1.2,0,2,0.9,2,2s-0.8,2-2,2C332.4,299,331.6,298.1,331.6,297z"/>
	<path class="st0" d="M344.4,311.5c0,2.4,0.1,2.8,1.3,3l0.5,0.1c0.2,0.2,0.2,0.8-0.1,1c-1.2-0.1-2.3-0.1-3.5-0.1
		c-1.1,0-2.2,0-3.6,0.1c-0.3-0.1-0.3-0.7-0.1-1l0.7-0.1c1.1-0.2,1.3-0.5,1.3-3v-4.9c0-1.5,0-1.9-0.8-2.4l-0.4-0.2
		c-0.1-0.1-0.1-0.6,0-0.8c1.4-0.4,3.2-1.2,4.3-1.8c0.2,0,0.4,0.1,0.4,0.3c-0.1,0.6-0.1,1.3-0.1,1.5c0,0.2,0.1,0.3,0.3,0.3
		c1.6-0.9,2.5-1.6,4.5-1.6c2.7,0,3.9,1.8,3.9,4.4v5.1c0,2.4,0.1,2.8,1.3,3l0.8,0.1c0.2,0.2,0.2,0.8-0.1,1c-1.4-0.1-2.5-0.1-3.7-0.1
		c-1.1,0-2.2,0-3.4,0.1c-0.3-0.1-0.3-0.7-0.1-1l0.5-0.1c1.1-0.2,1.3-0.6,1.3-3V307c0-1.7-0.7-3-2.6-3c-1,0-1.9,0.5-2.2,1
		c-0.4,0.6-0.5,0.9-0.5,2.1L344.4,311.5L344.4,311.5L344.4,311.5z"/>
	<path class="st0" d="M368.6,304.9c0.1,0.3,0.2,0.7,0.2,1.4c0,2.8-1.8,5.5-6,5.5c-0.4,0-0.8-0.1-1.3-0.1c-0.5,0.3-1,0.7-1,1.3
		c0,0.7,0.5,1.3,1.8,1.3c1,0,2.2-0.1,3.6-0.1c2.4,0,5.4,0.4,5.4,4c0,1.7-1.2,3.3-2.1,4c-1.5,1.2-3.6,2.2-6.4,2.2
		c-4.7,0-6.2-2.2-6.2-3.9c0-0.5,0.1-0.9,0.5-1.4c0.3-0.3,1.6-1.1,2-1.5c0.3-0.2,0.5-0.6,0.2-0.7c-1.2-0.4-2.2-1.5-2.2-2.7
		c0-0.3,0.1-0.6,0.5-0.8c0.5-0.3,2.1-1.3,2.1-1.7c0-0.1,0-0.3-0.1-0.4c-1.1-0.5-2.4-1.8-2.4-3.9c0-3,2.5-5.2,6-5.2
		c1.3,0,2.5,0.3,3.3,0.7c0.7,0.3,1.1,0.5,1.5,0.5h3.2c0.1,0.1,0.3,0.3,0.3,0.6c0,0.7-0.3,1.1-0.5,1.1L368.6,304.9L368.6,304.9
		L368.6,304.9L368.6,304.9z M363,317.1c-1.2,0-1.8,0.1-2.2,0.4c-0.6,0.4-1,1-1,1.9c0,2,1.8,3.3,4.3,3.3c2.8,0,4.4-1.2,4.4-3.1
		c0-1.7-1.6-2.5-3.6-2.5L363,317.1L363,317.1z M363.3,310.5c1.3,0,2.2-1.1,2.2-3.4c0-2.2-1-3.9-2.4-3.9c-1.2,0-2.2,1.1-2.2,3.4
		C360.9,309.2,362.1,310.5,363.3,310.5z"/>
	<path class="st0" d="M388.7,315.5v-5.7h-5.1v-2.1h5.1v-5.2h2.5v5.2h5.1v2.1h-5.1v5.7H388.7z"/>
	<path class="st0" d="M412.5,302.5c0,0.5,0.1,0.6,0.3,0.6c1.1-0.6,2.1-1.1,3.5-1.1c3.9,0,6.3,2.9,6.3,6.5c0,4.7-3.5,7.4-7.8,7.4
		c-2.4,0-4-0.9-4.4-0.9c-0.4,0-0.6,0.3-0.8,0.5c-0.1,0-0.1,0-0.2,0c-0.1,0-0.3-0.1-0.3-0.2c0-0.1,0.1-1.9,0.1-3.1v-14.9
		c0-2.2-0.1-2.4-0.8-2.9l-0.5-0.3c-0.2-0.1-0.2-0.7,0-0.8c1.3-0.4,3-1.1,4.3-1.6c0.2,0,0.4,0.1,0.5,0.3c-0.1,1.3-0.1,3.4-0.1,4.8
		L412.5,302.5L412.5,302.5z M412.5,310.2c0,1.5,0.2,2.6,0.7,3.3c0.5,0.6,1.3,1.1,2.2,1.1c2.2,0,3.4-2.1,3.4-4.9c0-3.9-2-5.9-4.4-5.9
		c-0.7,0-1.4,0.2-1.6,0.4c-0.3,0.2-0.4,0.6-0.4,1.7V310.2L412.5,310.2z"/>
	<path class="st0" d="M428.5,307.6c-0.6,0-0.7,0-0.7,0.4c0,3,2,5.4,5,5.4c1.3,0,2.4-0.4,3.2-1.6c0.3-0.1,0.7,0.2,0.7,0.5
		c-1.1,2.6-3.6,3.6-5.6,3.6c-3.8,0-6.4-2.8-6.4-6.6c0-3.7,2.5-7.3,7-7.3c2.4,0,5,1.6,5,4.5c0,0.3,0,0.5-0.2,0.8
		c-0.2,0.3-1,0.4-2.3,0.4L428.5,307.6L428.5,307.6L428.5,307.6z M431.6,306.3c1,0,1.4-0.1,1.6-0.2c0.2-0.1,0.3-0.4,0.3-0.7
		c0-1.2-0.8-2.1-2.2-2.1c-2.2,0-3.2,2.1-3.2,2.8c0,0.1,0.1,0.2,0.5,0.2H431.6L431.6,306.3z"/>
	<path class="st0" d="M448.7,311.3c-0.1,1.9,0.4,2.9,1.6,2.9c0.6,0,1-0.4,1.1-0.4c0.2,0,0.4,0.4,0.3,0.7c-0.7,0.9-2.3,1.5-3.3,1.5
		c-0.8,0-1.7-0.2-2.4-0.9c-0.2-0.2-0.4-0.4-0.5-0.4s-0.4,0.2-0.9,0.5c-0.6,0.4-1.6,0.9-2.8,0.9c-2.2,0-3.4-1.5-3.4-3.2
		c0-1.2,0.5-2.3,2.7-3.1c1.2-0.4,2.4-0.9,3.6-1.3c0.7-0.2,0.8-0.5,0.8-0.9l0-0.9c0.1-1.7-0.4-3.1-2-3.1c-0.9,0-1.6,0.5-1.7,1.4
		c-0.1,0.6-0.3,1-0.6,1.2c-0.5,0.3-1.4,0.6-2.1,0.6c-0.4,0-0.6-0.2-0.6-0.5c0-0.4,0.2-1.1,1.3-2.1c1-1,3.4-2.1,5.1-2.1
		c2.6,0,4.2,1.2,4.1,4.1L448.7,311.3z M445.5,310.2c0-0.4-0.1-0.6-0.3-0.6c-0.3,0-0.9,0.2-1.5,0.4c-0.9,0.3-1.8,0.8-1.8,2.2
		c0,0.9,0.6,1.9,1.8,1.9c1.2,0,1.5-0.8,1.6-1.6L445.5,310.2z"/>
	<path class="st0" d="M466.1,310.6c0,1.9,0,3.5,0.8,3.5c0.5,0,1-0.1,1.4-0.2c0.3,0.2,0.3,0.9-0.1,1.1c-1.4,0.2-4,0.6-5.4,1.3
		c-0.2,0-0.3-0.2-0.3-0.3c0.1-0.4,0.1-0.9,0.1-1.2c0-0.3-0.1-0.4-0.3-0.4c-1.4,0.8-2.8,1.6-4.5,1.6c-3,0-3.9-1.6-3.9-4.4v-5.2
		c0-2.3-0.1-2.6-1-2.8l-0.5-0.1c-0.2-0.2-0.2-0.8,0.1-0.9c2,0,3.9-0.3,4.6-0.6c0.2,0,0.3,0.1,0.3,0.3c-0.1,0.4-0.1,1.2-0.1,2.8v5.1
		c0,1.9,0.4,3.8,2.7,3.8c0.8,0,1.6-0.3,2.2-0.8c0.3-0.3,0.4-0.6,0.4-1.8v-5c0-2.1-0.2-2.2-1.5-2.6l-0.5-0.2c-0.2-0.2-0.2-0.8,0-0.9
		c2.2,0,4.5-0.3,5.2-0.6c0.2,0,0.3,0.1,0.3,0.3c-0.1,0.6-0.1,1.6-0.1,2.8L466.1,310.6L466.1,310.6L466.1,310.6z"/>
	<path class="st0" d="M475.6,303.9c-0.6,0-0.6,0.1-0.6,1.1v5.1c0,2.1,0.3,3.9,2.4,3.9c0.7,0,1.1-0.2,1.6-0.6c0.3,0,0.5,0.3,0.4,0.7
		c-0.7,0.9-2.2,1.8-4.2,1.8c-3.1,0-3.7-1.8-3.7-4.1v-6.7c0-1.2-0.1-1.2-0.6-1.2h-1.2c-0.3-0.2-0.4-0.7-0.1-0.9
		c1.1-0.4,1.9-0.9,2.6-1.4c0.6-0.5,1.4-1.2,1.8-2c0.3-0.2,0.8-0.1,0.9,0.2v2c0,0.5,0,0.6,0.6,0.6h3.3c0.2,0.1,0.3,0.4,0.3,0.7
		c0,0.4-0.2,0.7-0.4,0.9L475.6,303.9L475.6,303.9z"/>
	<path class="st0" d="M480.1,321.9c0-1.1,0.8-1.5,1.7-1.5l0.7,0c0.5,0,1.1-0.2,1.4-0.7c0.7-1,1.6-2.7,1.6-4.1c0-0.5-0.1-1.2-0.6-2.4
		l-2.7-6.9c-0.8-2-1-2.5-2.3-2.8l-0.7-0.1c-0.3-0.3-0.3-0.8,0.1-1c1.1,0.1,2.4,0.1,3.7,0.1c1.2,0,2.4,0,3.5-0.1
		c0.3,0.1,0.3,0.7,0.1,1l-1,0.2c-0.8,0.2-0.8,0.3-0.2,1.8l1.5,3.8c0.6,1.7,1,2.5,1.1,2.5c0.1,0,0.6-1.1,1.1-2l1-2.2
		c0.8-1.8,1.2-3.1,1.2-3.2c0-0.3-0.1-0.5-0.6-0.6l-1.1-0.2c-0.2-0.3-0.2-0.8,0.1-1c1.2,0.1,2.4,0.1,3.1,0.1c0.9,0,1.7,0,2.6-0.1
		c0.3,0.1,0.3,0.7,0.1,1c-0.4,0.1-1.4,0.3-1.9,0.7c-0.4,0.4-1,1.3-2,3.3l-1.7,3.4c-1.1,2.2-4.1,8.1-5.5,11.2
		c-0.6,1.3-1.4,1.8-2.5,1.8C480.7,323.7,480.1,322.9,480.1,321.9z"/>
	<path class="st0" d="M512.6,315.5v-5.7h-5.1v-2.1h5.1v-5.2h2.5v5.2h5.1v2.1H515v5.7H512.6z"/>
	<path class="st0" d="M535.4,307.6c-0.6,0-0.7,0-0.7,0.4c0,3,2,5.4,5,5.4c1.3,0,2.4-0.4,3.2-1.6c0.3-0.1,0.7,0.2,0.7,0.5
		c-1.1,2.6-3.6,3.6-5.6,3.6c-3.8,0-6.4-2.8-6.4-6.6c0-3.7,2.5-7.3,7-7.3c2.4,0,5,1.6,5,4.5c0,0.3,0,0.5-0.2,0.8
		c-0.2,0.3-1,0.4-2.3,0.4L535.4,307.6L535.4,307.6L535.4,307.6z M538.4,306.3c1,0,1.4-0.1,1.6-0.2c0.2-0.1,0.3-0.4,0.3-0.7
		c0-1.2-0.8-2.1-2.2-2.1c-2.2,0-3.2,2.1-3.2,2.8c0,0.1,0.1,0.2,0.5,0.2H538.4L538.4,306.3z"/>
	<path class="st0" d="M550.7,311.5c0,2.4,0.1,2.8,1.3,3l0.5,0.1c0.2,0.2,0.2,0.8-0.1,1c-1.2-0.1-2.3-0.1-3.5-0.1
		c-1.1,0-2.2,0-3.6,0.1c-0.3-0.1-0.3-0.7-0.1-1l0.7-0.1c1.1-0.2,1.3-0.5,1.3-3v-4.9c0-1.5,0-1.9-0.8-2.4l-0.4-0.2
		c-0.1-0.1-0.1-0.6,0-0.8c1.4-0.4,3.2-1.2,4.3-1.8c0.2,0,0.4,0.1,0.4,0.3c-0.1,0.6-0.1,1.3-0.1,1.5c0,0.2,0.1,0.3,0.3,0.3
		c1.6-0.9,2.5-1.6,4.5-1.6c2.7,0,3.9,1.8,3.9,4.4v5.1c0,2.4,0.1,2.8,1.3,3l0.8,0.1c0.2,0.2,0.2,0.8-0.1,1c-1.4-0.1-2.5-0.1-3.7-0.1
		c-1.1,0-2.2,0-3.4,0.1c-0.3-0.1-0.3-0.7-0.1-1l0.5-0.1c1.1-0.2,1.3-0.6,1.3-3V307c0-1.7-0.7-3-2.6-3c-1,0-1.8,0.5-2.2,1
		c-0.4,0.6-0.5,0.9-0.5,2.1L550.7,311.5L550.7,311.5z"/>
	<path class="st0" d="M566.8,307.6c-0.6,0-0.7,0-0.7,0.4c0,3,2,5.4,5,5.4c1.3,0,2.4-0.4,3.2-1.6c0.3-0.1,0.7,0.2,0.7,0.5
		c-1.1,2.6-3.6,3.6-5.6,3.6c-3.8,0-6.4-2.8-6.4-6.6c0-3.7,2.5-7.3,7-7.3c2.4,0,5,1.6,5,4.5c0,0.3,0,0.5-0.2,0.8
		c-0.2,0.3-1,0.4-2.3,0.4L566.8,307.6L566.8,307.6L566.8,307.6z M569.9,306.3c1,0,1.4-0.1,1.6-0.2c0.2-0.1,0.3-0.4,0.3-0.7
		c0-1.2-0.8-2.1-2.2-2.1c-2.2,0-3.2,2.1-3.2,2.8c0,0.1,0.1,0.2,0.5,0.2H569.9L569.9,306.3z"/>
	<path class="st0" d="M578.7,306.7c0-1.5,0-1.9-0.8-2.4l-0.4-0.2c-0.1-0.1-0.1-0.6,0-0.8c1.4-0.5,3.2-1.2,4.2-1.8
		c0.2,0,0.4,0.1,0.5,0.3c0,0.6-0.1,1.2-0.1,1.5c0,0.2,0.1,0.4,0.3,0.4c1-0.7,2.1-1.7,3.2-1.7c1.2,0,1.8,0.8,1.8,1.6
		c0,1.3-1,1.9-1.9,1.9c-0.3,0-0.6-0.1-0.9-0.3c-0.8-0.6-1.4-0.6-1.6-0.6c-0.8,0-1,0.8-1,2.4v4.5c0,2.4,0.1,2.8,1.3,2.9l1.3,0.1
		c0.2,0.2,0.2,0.8-0.1,1c-2-0.1-3.1-0.1-4.3-0.1c-1.1,0-2.2,0-3.4,0.1c-0.3-0.1-0.3-0.7-0.1-1l0.6-0.1c1.1-0.2,1.3-0.5,1.3-3
		L578.7,306.7L578.7,306.7L578.7,306.7z"/>
	<path class="st0" d="M600.2,304.9c0.1,0.3,0.2,0.7,0.2,1.4c0,2.8-1.8,5.5-6,5.5c-0.4,0-0.8-0.1-1.2-0.1c-0.5,0.3-1,0.7-1,1.3
		c0,0.7,0.5,1.3,1.8,1.3c1,0,2.2-0.1,3.6-0.1c2.4,0,5.4,0.4,5.4,4c0,1.7-1.2,3.3-2.1,4c-1.5,1.2-3.6,2.2-6.4,2.2
		c-4.7,0-6.2-2.2-6.2-3.9c0-0.5,0.1-0.9,0.5-1.4c0.3-0.3,1.6-1.1,2-1.5c0.3-0.2,0.5-0.6,0.2-0.7c-1.2-0.4-2.2-1.5-2.2-2.7
		c0-0.3,0.1-0.6,0.5-0.8c0.5-0.3,2.1-1.3,2.1-1.7c0-0.1,0-0.3-0.1-0.4c-1.1-0.5-2.4-1.8-2.4-3.9c0-3,2.5-5.2,6-5.2
		c1.3,0,2.5,0.3,3.3,0.7c0.7,0.3,1.1,0.5,1.4,0.5h3.2c0.1,0.1,0.3,0.3,0.3,0.6c0,0.7-0.3,1.1-0.5,1.1L600.2,304.9L600.2,304.9
		L600.2,304.9L600.2,304.9z M594.7,317.1c-1.2,0-1.9,0.1-2.2,0.4c-0.6,0.4-1,1-1,1.9c0,2,1.8,3.3,4.3,3.3c2.8,0,4.4-1.2,4.4-3.1
		c0-1.7-1.6-2.5-3.6-2.5L594.7,317.1L594.7,317.1z M594.9,310.5c1.3,0,2.2-1.1,2.2-3.4c0-2.2-1-3.9-2.4-3.9c-1.2,0-2.2,1.1-2.2,3.4
		C592.5,309.2,593.7,310.5,594.9,310.5z"/>
	<path class="st0" d="M604.2,321.9c0-1.1,0.8-1.5,1.7-1.5l0.7,0c0.5,0,1.1-0.2,1.4-0.7c0.7-1,1.6-2.7,1.6-4.1c0-0.5-0.1-1.2-0.6-2.4
		l-2.7-6.9c-0.8-2-1-2.5-2.3-2.8l-0.7-0.1c-0.3-0.3-0.3-0.8,0.1-1c1.1,0.1,2.4,0.1,3.7,0.1c1.2,0,2.4,0,3.5-0.1
		c0.3,0.1,0.3,0.7,0.1,1l-1,0.2c-0.8,0.2-0.8,0.3-0.2,1.8l1.4,3.8c0.6,1.7,1,2.5,1.1,2.5c0.1,0,0.6-1.1,1.1-2l1-2.2
		c0.8-1.8,1.2-3.1,1.2-3.2c0-0.3-0.1-0.5-0.6-0.6l-1.1-0.2c-0.2-0.3-0.2-0.8,0.1-1c1.2,0.1,2.4,0.1,3.1,0.1c0.9,0,1.7,0,2.6-0.1
		c0.3,0.1,0.3,0.7,0.1,1c-0.4,0.1-1.4,0.3-1.9,0.7c-0.4,0.4-1,1.3-2,3.3l-1.7,3.4c-1.1,2.2-4.1,8.1-5.5,11.2
		c-0.6,1.3-1.4,1.8-2.5,1.8C604.8,323.7,604.2,322.9,604.2,321.9z"/>
</g>
<g>
	<g>
		<g>
			<path class="st0" d="M462.3,178.9c-0.9-3.9-1.8-2.7-3.4-4.6c-3-3.6-4.6-34.5-3.5-43.1c1.2-9.5,4.7-20.4,20.2-24
				c15.5-3.6,27.4,1.6,30.8,11c6,16.4-8.2,31.4-8.2,31.4s8.3-6,11.9-14.3c3.6-8.3,0.5-16-0.2-20.8c-1.8-11,8-19.8,8-19.8
				s-7.3,1.5-10.5,11c-1.6,4.7-5.5-0.4-11.6-2.6c-10.9-4-19-2.7-19-2.7s-1-1.9-0.6-4.7c0.7-4.6,3.3-6.3,3.3-6.3s-3.3-0.7-5.1,5.6
				c-1.2,4.2-2.9,6.7-8.7,8.3c-6.1,1.7-9.4,5.8-9.4,5.8s-3.4-4.3,3.5-12.1c3.3-3.7,4.4-3.2,8.2-8.9c3-4.5,2.6-7.1,5.3-11.9
				c2.2-4,4.8-5,4.8-5s-6.4-0.1-12.3,11.5c-4.3,8.6-9.8,7.3-11.7,4.1c-2.7-4.4-3.7-11.7-4.3-18.9c-1.3-14.1,3.5-18.6,4.5-25.7
				c-2.5,6.4-6.4,6.6-8.6,22.5c-1,7.4,0.4,16.6,1,23.2c0.5,5.3-0.9,9.1-0.9,9.1s-6.4-10.1-12-15.4c-6.6-6.3-10.5-9.9-14.8-14.8
				c-3.3-3.7-3.8-9.2-3.1-14c0.9-6.5,4.8-8.5,6.7-9.5c2-1,5.8-1.5,7-0.1c1.3,1.5,1.7,0.5,1.7,0.5s0.6-0.4,0-0.9
				c-1.2-1-3.3-1.9-6.4-1.4c-4.7,0.8-9,4.1-11,9c-2,5-1.6,11.6-1.6,11.6s-5.3-6.3-6.9-12.5c-2.5-9.6,0.5-14.2,0.5-14.2
				s-5.6,6.1-2.1,17.8c3.3,11,11,16.5,11,16.5s-4.2,0.1-7.4,2.9c-4.7,4-9.8,2.5-9.8,2.5s2.9,3,11.3-0.6c8.3-3.6,13.2,1.5,21.5,11.9
				c5.8,7.3,10.2,18.7,10.2,18.7s-5.5-7.2-16.1-7.3c-11.4-0.2-15.4,6.3-18.8,11.8c-1.7,2.7-5,6.6-7.5,8.5
				c-5.4,4.3-11.5,6.4-11.5,6.4s12.9,0.6,24.6-16c6.8-9.7,16.8-6.4,21.8-2c5.7,5,8,11.6,9.8,24.7c1.7,12.6,0.3,40.2-2.6,43.1
				c-2.4,2.4-7.5,0.6-8.1,4.6L462.3,178.9L462.3,178.9z"/>
		</g>
		<path class="st0" d="M393.6,126.1c-0.9,3.7-4.4,6.6-4.4,9.4c0.1,3.1,2.4,4.6,4.7,4.6c2.6,0,4.7-1.9,4.6-4.9
			C398.6,132.6,395,129.6,393.6,126.1z"/>
		<path class="st0" d="M459.5,61.1c-1.2,5.1-6.1,9-6,12.9c0.1,4.3,3.3,6.3,6.5,6.3c3.5,0,6.4-2.6,6.3-6.7
			C466.3,70,461.3,65.9,459.5,61.1z"/>
		<path class="st0" d="M386.5,124.5c-0.5,1.9-2.5,3.6-2.5,5.1c-0.1,1.8,1,2.8,2.5,2.8c1.4,0,2.6-1.2,2.6-2.6
			C389.2,128.5,387.1,126.5,386.5,124.5z"/>
		<path class="st0" d="M486.6,19.3c-0.6-1.1-1.3-1.3-1.7-1.3c0-0.1,0-0.1,0-0.2c0.3-0.3,1-0.9,2.2-0.6c1.7,0.5,2.8-1.6,2.8-1.6
			s-1.8,0.7-3.1-0.4c-1-0.8-1.7-0.7-2.1-0.6c0,0,0-0.1,0-0.2c0.2-0.4,0.6-1.2,1.9-1.3c1.8-0.1,2.1-2.5,2.1-2.5s-1.5,1.3-3,0.8
			c-1.2-0.4-1.8-0.1-2.1,0.2c0,0-0.1-0.1-0.1-0.1c0-0.5,0.1-1.4,1.3-1.9c1.6-0.8,1-3.1,1-3.1s-0.9,1.7-2.6,1.8
			c-1.3,0.1-1.7,0.6-1.9,1c0,0-0.1-0.1-0.1-0.1c-0.2-0.4-0.4-1.3,0.5-2.3c1.2-1.3-0.1-3.3-0.1-3.3s-0.2,2-1.7,2.6
			c-1.1,0.5-1.4,1.2-1.4,1.6c-0.2,0-0.3-0.1-0.5-0.1c-0.3-0.3-0.9-1.1-0.4-2.3c0.6-1.7-1.4-3-1.4-3s0.6,1.9-0.6,3.1
			c-0.9,0.9-0.8,1.6-0.7,2c0,0-0.1,0-0.2,0c-0.4-0.2-1.2-0.7-1.2-2c0-1.8-2.4-2.2-2.4-2.2s1.2,1.6,0.6,3.1c-0.5,1.2-0.2,1.8,0.1,2.1
			c-0.1,0-0.1,0.1-0.1,0.1c-0.5,0-1.4-0.2-1.8-1.4c-0.7-1.7-3-1.2-3-1.2s1.7,1,1.7,2.7c0,1.3,0.5,1.8,0.8,2c0,0-0.1,0.1-0.1,0.1
			c-0.4,0.1-1.4,0.3-2.2-0.6c-1.2-1.3-3.3-0.1-3.3-0.1s1.9,0.3,2.5,1.9c0.4,1.2,1.1,1.5,1.5,1.5c0,0.1,0,0.1-0.1,0.2
			c-0.3,0.3-1.2,0.7-2.3,0.2c-1.6-0.8-3.1,1.1-3.1,1.1s1.9-0.4,3,0.9c0.8,0.9,1.5,1,2,0.9c0,0.1,0,0.1,0,0.2c-0.2,0.4-0.8,1.1-2.1,1
			c-1.8-0.2-2.5,2.1-2.5,2.1s1.7-1,3.1-0.3c1.1,0.6,1.8,0.4,2.1,0.1c0,0,0.1,0.1,0.1,0.1c-0.1,0.5-0.4,1.3-1.6,1.7
			c-1.7,0.5-1.5,2.9-1.5,2.9s1.2-1.6,2.8-1.4c1.3,0.1,1.8-0.3,2.1-0.6c0,0,0.1,0.1,0.1,0.1c0.1,0.4,0.2,1.4-0.9,2.1
			c-1.4,1.1-0.4,3.2-0.4,3.2s0.5-1.9,2.1-2.3c1.2-0.3,1.6-0.9,1.7-1.3c0,0,0.1,0.1,0.2,0.1c0.3,0.4,0.6,1.2,0,2.3
			c-1,1.5,0.8,3.2,0.8,3.2s-0.2-2,1.2-2.9c1-0.7,1.1-1.4,1.1-1.8c0.1,0,0.1,0,0.2,0c0.4,0.3,1,0.9,0.8,2.2c-0.3,1.8,1.9,2.7,1.9,2.7
			s-0.9-1.8,0-3.2c0.7-1,0.6-1.7,0.4-2.1c0.1,0,0.1,0,0.2-0.1c0.4,0.1,1.3,0.5,1.5,1.7c0.3,1.8,2.7,1.8,2.7,1.8s-1.4-1.3-1.1-3
			c0.2-1.2-0.1-1.8-0.4-2.1c0,0,0.1-0.1,0.1-0.1c0.5-0.1,1.4,0,2,1.1c0.9,1.6,3.2,0.7,3.2,0.7s-1.8-0.7-2.1-2.4
			c-0.2-1.2-0.8-1.7-1.2-1.8c0,0,0.1-0.1,0.1-0.1c0.4-0.2,1.3-0.5,2.3,0.3c1.4,1.1,3.2-0.5,3.2-0.5S487.4,20.7,486.6,19.3z"/>
		<path class="st0" d="M438,88.9c0,0-2,1.5-7.8,3.4c-10.1,3.3-15.6-0.9-15.6-0.9s-1,2.7-4.5,3.9c-2.5,0.8-5.5,1.4-5.5,1.4
			s0.4-2,2.6-3.1c1.2-0.6,1.6-1.2,1.6-1.2s-0.8,0.3-3.3-0.7c-1.6-0.6-3.3-1.7-3.3-1.7s3.2-1,4.3-1c1.5-0.1,2.6,0.3,2.6,0.3
			s-1.5-0.7-2.8-1.9c-1.2-1.2-3-3.1-3-3.1s3-0.2,4.4,0.5c2,1,2.2,2,2.2,2S409.1,85,409,83c-0.1-2.2-0.6-3.7-0.6-3.7s2.2,0.6,3.1,2.5
			c0.8,1.8,1.2,3.3,1.2,3.3s-0.6-1.8-0.2-3.6c0.3-1.2,1.4-2.8,1.4-2.8s1.1,3.5,1.8,6.4c0.8,3.4-0.3,5.5-0.3,5.5s2.8,2.8,10.8,1.8
			c3.8-0.5,7.5-2.6,7.5-2.6s-1.2-0.2-4-0.7c-2.8-0.5-5.2-1.7-5.2-1.7s-2.6,1-4.4,0.3c-1.9-0.8-3.2-1.8-3.2-1.8l2.3,0.1
			c0,0-0.5-1.2-0.1-2.2c0.2-0.6,1.6-0.8,2.1-0.6c0.5,0.2,0.1-0.6,0.2-1.6c0.1-1,0.4-1.7,0.4-1.7s0.7,1.7,1.6,2.9
			c1.5,1.8,1.5,3.8,1.5,3.8s1.1,0.5,1.9,0.8c0.8,0.3,1.8,0.5,1.8,0.5s0.4-1.2-0.4-1.9c-0.7-0.8-0.7-1.4-0.7-1.4s-1.7-0.2-2-1.5
			c-0.4-1.6,0-3.8,0-3.8s2.1,1.5,2.5,2.9c0.5,1.7-0.2,1.6,0.8,3.3c1,1.7,0.8,2.6,0.8,2.6s2.8,0.5,4.5,0.6c1.7,0.1,0.5,0.4,1.9-0.4
			c1.5-0.8,1.4-0.5,1.4-0.5L438,88.9z"/>
		<path class="st0" d="M453.2,146.3c1.3-4.5,5-8,9.5-7.9c4.8,0.1,6.2-3.6,6.2-3.6s-4.5-0.8-6,0.7c-1.4,1.5-1.5,2.3-3.7,2.5
			c-2.5,0.2-4.1,2.5-3.3,0.6c2.6-6.9,5.2-7.7,6.5-8.3c1-0.5,2,1.6,5.3,1.4c3.6-0.2,6-1.2,6-1.2s-1-1.6-2.8-1.7
			c-1.7-0.1-2.1-0.2-2.1-0.2s1,0.1,2.5-1c1.2-0.9,2.8-3.7,2.8-3.7s-2-0.1-3.2,0.6c-1.2,0.7-2.7,1.3-2.7,1.3s1.1-1.3,1.5-2.6
			c0.9-2.9,0.3-5.4,0.3-5.4s-1.5,1.7-2.7,2.8c-0.9,0.8-2.1,2.8-2.1,2.8s0.8-1.9,0.6-3.8c-0.1-1.2-1.3-3.1-1.3-3.1s-1.1,2.1-1.6,3.1
			c-0.5,1.2-1.1,3.5-1.1,3.5s-0.2-1.3-0.7-2.1c-0.6-0.9-1.3-2.4-1.3-2.4s-1.1,2.9-0.8,5.4c0.5,3.5,2.3,5,2.3,5s-1.5,0.5-3.4,2.9
			c-1.3,1.7-3.1,5.5-3.1,5.5l-1.1,1.7C453.7,139.2,451.8,151.5,453.2,146.3z"/>
		<path class="st0" d="M441.4,152.2c0,0-1.1-6.3-5.7-12.3c-4.6-6-9.6-11-9.6-11s1.8,9.8,6.3,14.2c5.4,5.2,7.2,8.8,7.2,8.8
			s-1.1-0.3-1.9-0.4c-0.8-0.1-2.3-2.4-4.4-5.6c-2.1-3.1-6.5-5.8-6.5-5.8s1.8,3.1,3.6,5.5c1.8,2.4,5,5.3,5,5.3s-2.9-0.5-7.1-3
			c-3.2-1.9-5.9-5.1-5.9-5.1l-1.2-2.5c0,0-3.7-10.6-5.9-12c-2.2-1.4-3.4-2.9-3.4-2.9s0.9,6.8,4.1,9.5c2.7,2.3,4.7,6.4,4.7,6.4
			s-4.1-3.7-5.7-5.1c-1.6-1.4-5.6-4.6-5.6-4.6s1.8,4.4,4.7,6.2c2.2,1.3,4.2,2.4,4.2,2.4s-1.6-1.1-3.7-1.7c-1.4-0.4-1.5-0.5-2.4-1
			c-1.8-0.8-1.5-3-3.6-5c-2-1.9-3.2-3.7-3.2-3.7s-0.1,3,2.5,5.4c1.3,1.2,2.3,2.3,2.3,2.3s-1.4-2.1-5.6-3.7c-3.2-1.2-4.4-2.7-4.4-2.7
			s0.2,4,4.9,5.3c4,1.1,5,2.4,5,2.4s-3.4-0.5-5,0c-1.5,0.4-1.7,0.8-3.1,1.6c-2.1,1.1-3.9,2-3.9,2s4.8-0.2,8.4-1.7
			c3.8-1.6,4.9-1.1,4.9-1.1s0.6,0.3,2.3,0.8c2.6,0.8,5.4,2.2,5.4,2.2s-3,0.8-7.3,0.7c-6.8-0.1-12.2,5-12.2,5s6.9-0.8,13.3-2.4
			c3.1-0.8,7.5-2.3,7.5-2.3s0.7,0.7,1.9,1.9c1.2,1.2,2.4,2.3,2.4,2.3s-4.2-0.9-6.5-1c-2.3-0.2-8.5,1.3-8.5,1.3s4.6,1,8.2,1.1
			c2.1,0.1,7.3-0.8,7.3-0.8s-4.8,1.5-6.6,2.6c-3.1,1.9-5.5,4.9-5.5,4.9s6-2.7,7.7-3.9c1.7-1.3,5.1-3.2,5.1-3.2s-5.1,3-7.2,6.4
			c-0.9,1.5-3.6,6.3-3.6,6.3s5.4-4.1,6.9-6.9c1.5-2.8,4.6-5.4,4.6-5.4s1,0.9,2.2,1.4c1.1,0.6,2.7,1.2,2.7,1.2s-3.3,0-4.9,0.2
			c-1.8,0.3-4.6,1.9-8,3.6c-2.6,1.3-6.3,2.9-6.3,2.9s7.2-0.6,10.9-1.9c7.1-2.3,10-4.3,10-4.3s1.4,0.6,3.1,0.9
			c1.7,0.4,3.2,0.5,3.2,0.5s-2.7,1-5.4,3.3c-2.2,1.8-5.7,6.9-5.7,6.9s8.3-4.4,11.1-7.7c0.8-0.9,1.7-1.9,1.7-1.9s3.2,0.4,3.6,2.2
			c0.5,0.1,0.7-1.4,0.2-2.1C444.6,153.1,441.4,152.2,441.4,152.2z"/>
		<path class="st0" d="M447.4,60.7c0,0,1.6-3.5,4.6-5c2.4-1.2,4.1-1.6,6.4-2c0.1,0-0.6-0.5-2.3-0.3c-1.2,0.1-2.1-1.3-3.3-1.3
			c-0.7,0-1.5,0.3-1.5,0.3s0.7-1.9,2.6-2.7c1.8-0.7,3.5-0.2,4,0.6c0.6,0.7,1.8,2.1,1.8,1.2c0-0.9-0.8-2.3-1.8-2.9
			c-1.8-1.1-2.7-4.2-2.7-4.2s2-0.9,3.5-0.4c1.5,0.5,2.4,1.8,2.6,2.2c0.1,0.4,0.9-1.4,2.2-1.7c1.3-0.3,2.9,0.1,2.9,0.1s0,0.8-0.7,1.5
			c-0.7,0.7-0.7,2.6-0.6,3c0.1,0.4,1.4-0.6,2.6-1.6c1.2-1,3.3-1.6,5.4-0.6c0.8,0.4,1.9,2.1,1.9,2.1s-1.9,0.2-4,1.3
			c-3.4,1.7-4.9,0.7-5.5,1.3c-0.5,0.6,0.8,0.6,1.7,0.8c0.8,0.2,3.7,1.4,3.6,3.1c-0.1,1.7-2.7,3.5-2.7,3.5s-0.2-1.8-2.2-2.7
			c-1.3-0.6-2.2-1.8-2.5-1.5c-0.4,0.3,0.5,2.2-0.6,3.4c-1.1,1.2-2.8,1.1-3.4,2.8c-0.7-1.3,0.2-2-0.7-3.5c-0.6-0.9-0.2-3-0.2-3
			s-2,0.2-4.6,1.7c-4.4,2.5-4.7,6.4-4.7,6.4L447.4,60.7z"/>
		<g>
			<path class="st0" d="M422.5,101.4l0.9-0.1c0,0-0.7-0.2-0.9,2.1c-0.1,1.6,0.6,2.3,0.2,2.4c-0.4,0.1-0.6,0.3-1,0
				c-0.4-0.3-0.5-1.2-0.3-2.4C422,100.5,422.5,101.4,422.5,101.4z"/>
			<path class="st0" d="M423.2,105.3c0,0,0.9,0,1.7,0.7c1.2,1.2,1.7,4.1,2.8,6c0.7,1.1,3.4,4.8,3.3,7.7c-0.1,3.1-1.5,7.3-7.8,8
				c-6.3,0.7-9.7-4.5-9.7-8.5c0-3.9,3.1-6.6,3.6-8.3c0.5-1.8,0.9-4.5,2.3-5.3c0.8-0.5,2-0.5,2-0.5L423.2,105.3z"/>
		</g>
		<path class="st0" d="M403.9,39.3c0,0,4.3,5.9,9.4,3.9c5.1-2,5.7-5.5,5.7-5.5s-3.2,1.5-5.9,0.7c-2.7-0.8-3.7-3.7,1.4-3.4
			c6.2,0.3,9.5-3.6,7.7-8.5c-1.1,2.9-6.4,5.5-9.4,5.7c-3.1,0.2-3.3-2.4-0.6-3c5.6-1.3,8.5-3.2,6.4-8.4c-1.3,3.3-4.1,4.6-5.6,4.9
			c-2.3,0.4-2.6-1.3-0.1-2.6c4-2,0-7.2,0.6-9.1c-3.9-0.5-7.5,2.9-6.8,8c0.6,4.7-1.7,5.9-2.9,3.1c-1.6-3.9,0.3-7.1,1.5-8.3
			c-5.8,0.2-8.7,4-7.6,7.9c0.9,3.2,4.5,5.5,3.4,7.3c-1.5,2.4-3.5-0.2-4.7-2.2c-1.2-2.1-1.7-5.5-1.7-5.5s-2.5,1.9-3.2,6
			c-0.3,1.7,0.8,6.1,4.3,8.2C401.1,41.7,403.9,39.3,403.9,39.3z"/>
		<path class="st0" d="M510.2,105.1c0,0,1.1-0.4,2.9,0.4c1.5,0.7,2.4,1.7,2.4,1.7s0.5-2.8,2.9-2.9c2.3,0,3.1,1.3,3.1,1.3
			s-1.5-0.1-2.5,0.7c-0.9,0.8-0.9,2.1,1.1,1.1c2.4-1.1,4.3-0.1,4.4,2.2c-0.9-1-3.4-1.2-4.7-0.8c-1.2,0.4-0.9,1.5,0.2,1.3
			c2.4-0.4,3.9-0.1,3.9,2.4c-1-1.1-2.4-1.2-3-1.1c-1,0.2-0.8,1,0.4,1.1c1.9,0.2,1.2,2.9,1.7,3.6c-1.5,0.8-3.4,0-4-2.1
			c-0.5-2-1.7-2.1-1.6-0.8c0,1.9,1.2,2.9,1.9,3.2c-2.3,0.9-4.1-0.2-4.3-2c-0.2-1.5,0.9-3,0.2-3.6c-1-0.7-1.4,0.7-1.5,1.7
			c-0.1,1,0.2,2.5,0.2,2.5s-1.1-0.6-2.2-1.9c-0.5-0.6-0.9-2.9,0.4-4.1c1.3-1.2,2.6-1.5,2.6-1.5s-0.8-1.2-2.3-1.5
			c-1.5-0.3-2.8,0.1-2.8,0.1L510.2,105.1z"/>
		<path class="st0" d="M436.6,72c0,0,1.5-0.4,1.7,0.7c0.2,1.2,2.4,2.3,4.2,1.5c1.6-0.7,1.3-2,3.2-2c-1-1.6-0.7-2.9-2.4-3.9
			c-1.4-0.9-3-0.3-3.7,0c-1.1,0.5-1.6-0.4-1.6-0.4s0.4-0.8,1-1.1c0.7-0.3,2.1-0.6,2.6-1.9c0.5-1.3-0.4-3,0.3-3.8
			c-1.4-0.3-3.2-0.3-4.4,1.6c-1.1,1.9-0.1,2.5-1.2,3.6c-1.1-0.8-1.1-2.3-2.4-2.9c-1.3-0.6-2.2-0.6-2.7-0.9c0.4,1.7-0.9,2.8-0.4,4.2
			c0.5,1.4,2.2,2.6,2.2,2.6s-2.2,0-3.5,1.3c-1.4,1.4-2.2,3.5-2.2,3.5s1-0.1,1.8,0.2c0.8,0.4,1.9,0.6,3.3-1.4
			c0.4-0.6,1.2-0.3,0.7,0.6c-0.6,1-1.8,2-1,3.9c0.5,1.1,1.4,1.6,1.9,2.8c0.8-1.1,1.5-1.5,2.2-2.8c0.7-1.4-0.6-3-0.6-3.8
			C435.8,72.7,436.6,72,436.6,72z"/>
		<path class="st0" d="M449.4,50.2c0,0,1.2-3.2-0.8-7.1c-1.9-4-4.5-4.8-4.5-4.8s-2.9,2.6-6.9,0.8c-4-1.8-5.2-5.7-5.2-5.7
			s4.9-0.6,7.6-0.6c5.8,0,4.9,4,4.9,4s3.7,2.9,5,5.5c1.1,2.2,1.5,4.4,1.5,4.4s3.4-3.8,2.2-6.9c-1.4-3.7-3.1-4.4-3.1-4.4
			s-2.3,0.7-3.7-3.5c-0.9-2.7,0-4.7,0-4.7s2.2,2.1,3.2,3.3c2.2,2.6,1.1,4,1.1,4s1.4,1.3,2.2,2.9c0.8,1.5,1.4,2.3,1.4,2.3
			s0.5-1.4,0.7-3.7c0.3-3.1-0.2-6.2-0.2-6.2s-1.6-0.8-2.9-1.9c-1.3-1.1-2.3-2.6-2.3-2.6s-2.8,1-5.1-1.7c-2-2.4-1.6-5.6-2.5-7.6
			c2.1-0.5,4.5,1.1,5.4,3.6c0.9,2.4,2.4,4.8,2.4,4.8s0.9,1.4,2.5,2.9c1.3,1.2,2.6,1.9,2.6,1.9s-0.7-4.9-2.4-9.8
			c-1.7-4.9-3.2-6.3-3.2-6.3s-3.7,0.2-4.9-3.7C443,5.2,445.1,0,445.1,0s1.3,2.8,3.4,4.7c4.9,4.5,1.5,7.5,1.5,7.5s1.2,1.9,2.9,6.6
			c1.7,4.7,2.4,10.6,2.4,10.6s1-1.6,1.4-3.1c0.7-2.1,0.4-4.3,0.4-4.3s-3.9-1.9-1.6-6.7c1.3-2.7,1.9-6,1.9-6s2,3,2.5,5.7
			c1.3,6.2-2.1,7-2.1,7s0.3,2-0.6,4.9c-0.7,2.1-1.8,3.8-1.8,3.8s0.2,3.4,0,6c-0.3,2.7-1.2,5.7-1.2,5.7s1.3-0.7,2.4-2
			c1.2-1.4,2.1-2.4,2.1-2.4s-2.1-4.1,2.6-6.9c3.1-1.8,4.6-3.6,4.6-3.6s0.4,5.1-1.3,8c-2.4,4.2-5.3,2.9-5.3,2.9s-1.2,1.9-2.2,2.9
			c-1.6,1.6-3.5,2.9-3.5,2.9s-0.2,0.6-0.7,1.5c-0.7,1.4-1.7,2.3-1.7,2.3s-0.4,2.1-0.8,2.7C450,51.2,449.4,50.2,449.4,50.2z"/>
		<path class="st0" d="M474.2,73.7c0.9-1.5,2.5-2.1,2.7-2.3l1-0.3c0,0,6-1.7,10.8-4.4c4.7-2.6,6.5-4.1,6.5-4.1s3,2.1,5.8,2.3
			c2.8,0.2,5.4-2.7,5.4-2.7s2.1-0.4,3.1-0.6c0.8-0.1,1.9-0.1,1.9-0.1s0.1,0.4,0.6,1c0.4,0.6,0.9,0.5,0.9-0.2c0-0.7,0,0.2,0.7,0.8
			c0.7,0.6,2.5,0.3,1.8-0.3c-0.8-0.7-1.1-1.1-1.1-1.1s2.4-0.5,4.5,0c2.2,0.6,3.7,0,3.7,0s-1.6-1.1-3-1.2c-1.4-0.2-3,0.7-3.6,0.8
			c-0.6,0.1-2.6,0.2-2.2-0.2c0.4-0.4,6.4-4.8,7.1-6.6c0.7-1.8,1.2-3,0.5-2.5c-0.6,0.4-2.6,1.7-3.2,3.1c-0.6,1.4-3.2,4.4-3.9,5.2
			c-0.7,0.8-1.8,1.2-1.6,0.6c0.2-0.6,1.7-1.6,1.9-2.8c0.2-1.2-0.7-2-0.8-1c-0.2,1-0.4,2-0.7,2.7c-0.3,0.6-1.3,1.3-1.3,1.3
			s-1.3,0-2.2,0.1c-0.9,0.1-2.6,0.4-2.6,0.4s1.1-0.9,0.9-1.2c-0.2-0.4-3.3-0.8-4.7-0.4c-1.4,0.3-2.9,1.5-3.6,1.8
			c-1.9,0.8-3.4,0.2-3.4,0.2s1.3-0.9,1.8-1.2c0.5-0.2,3.1-0.7,3.8-2.5c0.5-1.3,0.3-1.6,0.3-1.6s-2.3,0.7-3,1.2
			c-1.5,1.3-1.6,2.5-1.6,2.5l-1.4,1c0,0,0.1-0.8,0.3-1.5c0.3-1,1.4-1.9,1.4-1.9s4.8-2.5,5.4-7.4c0.5-4.9-0.8-7.4-1.5-7.6
			c-0.7-0.2-4.3,2.2-5.1,4.7c-0.8,2.6-0.2,6.5-0.2,6.5s-1.3-0.9-2.3-1.1c-1-0.2-1.4-0.1-1.4-0.1s-1,1.4-1,3.7c0,1.5,0.9,3,1.8,3.6
			c1,0.6,1.6,0.6,1.6,0.6L495,62c0,0-4.7,3.1-7.6,4.6c-4.6,2.4-9.3,3.6-9.3,3.6s0.4-1.1,0.8-1.4c1.5-1.3,3.6-1.7,4.7-1.7
			c2.1-0.1,4.2-1.2,5.1-3.8c0.8-2.1,1.5-3.4,1.5-3.4s-1.9-0.4-3.1-0.2c-1.1,0.2-2.1,1-2.1,1s1.9-2.9,0.8-6.6
			c-0.8-2.6-1.2-5.4-1.2-6.1c-1.7,0.8-4.8,3.9-5.5,7.4c-0.6,3.5-0.3,7.5-0.5,9.8c-0.3,2.3-1.3,4-1.3,4l-0.3,0.9c0,0-2.8-4.2-4.1-6.7
			c-1.3-2.5-5.6-2.8-5.6-2.8s0.9,2.7,2.2,4.1c1.3,1.4,3.1,1.4,4.4,2.3c0.6,0.5,2.1,2.7,2.1,2.7s-1.6-0.8-2.2-1.7
			c-0.5-0.9-2.5-0.9-2.5-0.9s0.3,1.6,1.5,1.9c1.2,0.3,3.6,1.8,3.6,1.8s-1.5,0.4-3.2,1.8L474.2,73.7z"/>
		<path class="st0" d="M478,70.6c2.2-0.7,7.6-0.8,7.6-0.8s2.5,0.1,3.1,0c0.9-0.1,1.1,0.4,1.1,0.4s1.7-0.5,2.5-0.2
			c0.8,0.3,1.5,0.6,1.5,0.6s0.7,0.3,2.2,0.3c1.5,0,1.9-0.4,2.4-0.3c0.5,0.1,1,0,1.7-0.5c0.7-0.5,1.8-1.3,1.9-1.4
			c0.8-0.7,1.9-1,1.4,0.3c-0.5,1.1-1.7,1.6-2.4,1.7c-0.7,0.1-2,0.1-2,0.4c0.1,0.3,1.5,0.8,3.7,1.5c2.2,0.7,6.2,3.2,6.7,4.7
			c0.6,1.6,0.5,2-1.6,2c-1.4,0-3.8-0.3-4.6-1.1c-0.8-0.8-1.7-1.7-1.7-3.3c0-1.6-1-2-1.4-2.5c-0.4-0.5-1.1-0.7-0.5,0.3
			c0.5,1,1.4,2.9,0.8,3.8c-0.6,0.8-1,1.1-1.4,0.3c-0.2-0.5-1.4-1.8-1.3-2.9c0.1-1,0.9-1.3,0.9-1.9c0-0.6,0.1-0.7-0.7-0.6
			c-0.8,0.1-1.9,0.3-2.4,0.1c-0.5-0.2-1.7-0.4-1.7-0.4s0.7,0.8,1.1,1.7c0.4,0.9,0.7,1.4,0.6,1.8c-0.1,0.3-2.6,0.9-4,0.4
			c-1.4-0.5-1.9-0.8-2.3-1.5c-0.3-0.7-0.3-0.7-0.3-0.7s0,1-0.5,1.7c-0.4,0.7-1,1.1-1,1.1s-0.6-0.7-1.2-0.9c-0.7-0.3-0.8-1.2-0.5-2.2
			c0.3-1,0.2-2,0.2-2s-7.3-0.1-9.9,1.4L478,70.6z"/>
		<path class="st0" d="M522.1,44.5c-1-3.3-4.4-2.1-4.4-2.1s0.3-2.7-0.4-5c-0.9-2.9-2.1-4.3-2.1-4.3s0.1-0.5,0.1-1.1
			c0-0.6,0.1-1.2,0.2-1.5c0.3-0.7,0.3-1.5-0.3-1.6c-0.6-0.1-0.7,0.9-0.6,1.8c0.1,0.9,0,1.7,0,1.7s-1.2-1.1-1.9-1.9
			c-0.5-0.5-1-0.2-1,0.5c0,0.7,0.5,0.6,1.2,0.9c0.7,0.2,1.7,1.4,1.7,1.4s-0.4,2.9-1.7,5.6c-1.3,2.8-2.2,3.4-2.2,3.4
			s-0.4,0.3-1.2-0.3c-0.8-0.6-2.8,0.1-3.5,2c-0.8,2-0.5,5,2.3,6.1c3.8,1.6,5.7-2.4,5.7-2.4s1.3,3,4.9,2.4
			C520.4,49.9,523,47.4,522.1,44.5z M513.1,42.8c-0.7-0.6-1.9-0.3-1.9-0.3s1.1-1.4,1.8-2.8c1.2-2.3,2-5.8,2-5.8s1.3,1.6,1.9,4.5
			c0.4,1.9,0.2,4.1,0.2,4.1s-0.9-0.3-2,0.2c-0.9,0.4-1.2,1.3-1.2,1.3S513.8,43.4,513.1,42.8z"/>
		<path class="st0" d="M465.9,146.1c0,0,3.9-5,8.9-0.2c2.7,2.7,3.1,6.9,3.6,8.3c0.5,1.3,1.3,2.5,0.5,4c-0.8,1.5-7.9,3.2-12,2.5
			c-8.5-1.5-5.6-7.6-5.6-7.6s-2.1,0.5-3.7,2.7c0.4-2.9,2.6-3.4,2.6-3.4s-2.3,0.2-3.2-0.7c-0.9-1-0.9-1-0.9-1s2.4,1.4,4.9,0
			c-1.9-0.5-2.1-2.2-2.1-2.2s1.4,1.1,2.7,0.9c0.9-0.2-0.6-1.3-0.9-2.6c-0.4-1.8,0.2-2.7,0.2-2.7s0.6,2.8,2.3,3.1
			c1.2,0.2,1.3-0.9,0.3-1.9c-0.3-0.3-1.2-0.7-1.2-0.7s0.8-0.5,1.8-0.2c0.8,0.3,1.3-3,1.3-3s0.7,1.5,0.4,2.9c0.8-0.4,2.2-2.2,2.2-2.2
			s0,1.7-0.9,2.5C466.1,145.2,465.9,146.1,465.9,146.1z"/>
		<path class="st0" d="M425.7,8.8c0,0-7.1,1.2-5.3,8.1c0.9,3.4,3.3,4.8,6.1,8.7c1,1.4,1.8,3.2,3.8,3.2c3.1,0.1,7.5-5.2,8.9-9.5
			c3.4-10.6-4.5-11.1-4.5-11.1s1.4-1.3,4.3-0.9c-3-2.1-4.7-0.4-4.7-0.4s1.7-1.4,1.1-3.5c-0.4-1.5-0.8-1.5-0.8-1.5s-0.5,3.8-2.5,5.1
			c0.5-2.1-0.4-3.4-0.4-3.4s-0.2,2.6-1.1,2.8c-0.5,0.1,0-1.3-1.9-2.6c-1.3-0.9-2.7-0.9-2.7-0.9s2.4,2.3,2.2,3.7
			c-0.1,1.4-1.2,1-2.3-0.1c-0.6-0.6-0.9-1.8-0.9-1.8s-0.6,1.5-0.3,2.8c-1.4,0.7-4.4-1.1-4.4-1.1s0.6,0.8,1.1,1.4
			c0.5,0.5,1.1,0.6,1.1,0.6L419.5,9c0,0,2.2,0.6,3.7,0.5C424.7,9.4,425.7,8.8,425.7,8.8z"/>
		<path class="st0" d="M477.7,42.3c-0.3-0.6,0.2-1,0.5-1c0.3,0,1.8,1.1,3.4,1.2c1.5,0.1,1.3,0,2.8-0.8c1.5-0.7,7.7-3.1,12-9
			c4.4-5.9,3-7.3,7.9-11.1c0.6-0.5,1.1-0.1,1.5,0.3c0.4,0.4,0.4,0.8,0.4,1.3c0,0.6,1,2.9-1.7,8.9c-2.7,6-7.7,12-14.5,14
			c-4.6,1.3-5.5-1.2-6.8-1.7c-1.3-0.5-3.7-0.6-4.3-1C478.4,42.9,477.7,42.3,477.7,42.3z"/>
		<path class="st0" d="M476.2,39c-0.5-0.5-0.2-1.1,0.1-1.2c0.3-0.1,2.1,0.4,3.6-0.1c1.5-0.4,1.2-0.5,2.3-1.7
			c1.1-1.2,6.1-5.5,8.3-12.6c2.1-7.1,0.4-7.9,3.6-13.2c0.4-0.6,1-0.4,1.5-0.2c0.6,0.2,0.7,0.5,0.8,1.1c0.2,0.6,1.9,2.4,1.4,9
			c-0.5,6.6-3.2,13.9-8.8,18.1c-3.9,2.8-5.6,0.8-7,0.7c-1.4-0.1-3.8,0.9-4.5,0.7C477,39.5,476.2,39,476.2,39z"/>
		<path class="st0" d="M404.2,51.6c-0.6-0.4-1.7-0.9-2.5-2.4c-0.8-1.5-6.1-7.1-10.9-7.6c-4.8-0.4-9.6,1.7-12.5,5.7
			c-1.6,2.2-1.8,2.8-2.6,3.5c-0.8,0.7-2.1,1-1.4,2.3c0.5,0.9,1.6,1.2,2.4,2.4c1.1,1.7,4.1,6,8.8,7c7.2,1.6,11.6-1.3,14.2-4.7
			c2.8-3.7,2.5-4.2,3-5C403.4,51.9,404.2,51.6,404.2,51.6z"/>
		<path class="st0" d="M427.8,45.3c0,0-0.9-0.1-2.3-0.3c-1-0.1-2.8-0.1-2.8-0.1s1.8-0.4,3.1-0.4c1.4,0,2,0.2,2,0.2s-0.1-0.1-0.6-0.5
			c-1-0.8-2.4-1.6-2.4-1.6s1.3,0.1,3.2,1.2c0.7,0.4,1.4,1.1,1.4,1.1s-0.1-0.7,0-1.1c0.1-0.6,0.6-1.1,0.6-1.1l1.1,0.6
			c0,0-0.4,0.4-0.5,1c-0.1,0.7,0.1,0.7,0.1,0.7s0.9-1,2-1.7c1.5-0.9,2.9-1.4,2.9-1.4s-1.6,1.2-2.6,2.1c-0.7,0.5-0.6,0.8-0.6,0.8
			s0.5-0.4,2.1-0.9c1.3-0.4,3.3-0.4,3.3-0.4s-1.9,0.6-2.9,1.1c-1.5,0.7-1.2,0.7-1.2,0.7s2.7-0.9,5.8,1.9c2.7,2.4,2.4,6.9,1.2,9.1
			c-1.4,2.6-4.2,4.2-6.8,4.3c-2,0-3.6,0-4.7,0.1c-2.5,0.3-5.5-0.3-7.7-3.3c-2.2-3-1.5-6.8,0.1-8.9C424.2,44.7,427.8,45.3,427.8,45.3
			z"/>
		<path class="st0" d="M517.1,94.6c0,0,1.3,6.5,5.6,6.8c4.2,0.3,7.6-2.4,8.3-7.7c0.6-5.3-2.7-13.8-2.7-13.8s-6.1-0.2-10.4,0.8
			c-5.6,1.3-9.5,3.9-8.8,8.5C510,94.7,517.1,94.6,517.1,94.6z"/>
		<path class="st0" d="M520.7,66.7c0,0-4.7,0-5.6,2.9c-0.9,2.9,0.6,5.7,4.2,7c3.6,1.3,10.1,0.2,10.1,0.2s1-4.2,1-7.4
			c-0.1-4.1-1.3-7.3-4.6-7.4C521.6,61.7,520.7,66.7,520.7,66.7z"/>
		<path class="st0" d="M387.9,65.8c-1.8-0.1-3.8,0.9-5.3,2.4c-1.5,1.5-1.8,1.8-2.7,1.8c-2,0-3.3-2.2-5.2-2c-1.8,0.1-3.1,1.4-3.9,2.1
			c-0.8,0.7-1.9,2.4-3.6,2.3c-1.7-0.1-2.7-2-2.7-2s0.1,0.7,0.8,1.5c0.4,0.5,1.2,0.6,1.2,0.6s-0.5,0-1.5-0.3
			c-0.5-0.2-1.1-0.4-1.1-0.4s1.2,1.1,3.1,1.1c2.2-0.1,3.9-1.9,5-3.1c1.4-1.5,3.2-1.6,3.9-1c2.1,1.7,3,1.9,3,1.9s-1.1,0.1-2.5-0.2
			c-2-0.4-3.8,0.7-4.7,1.9c-0.5,0.7-0.8,1.5-0.8,1.5s-1.5-0.5-3.6-0.5c-1.2,0-3.3,0.9-3.3,0.9s2.5-0.7,3.8-0.2
			c1.3,0.6,1.9,0.7,1.9,0.7s-0.5,0.4-2.2,0.2c-1.3-0.1-2-0.7-3.6,0c0.8-0.1,1.7-0.2,2.4,0.1c1,0.6,2.3,0.6,2.3,0.6s-0.4,0.3-0.8,0.5
			c-0.4,0.2-1.2,0.4-1.2,0.4c-1.5,0.5-2.4,2.2-2.4,2.2s0.7-1.2,2.9-1.8c0.9-0.2,2,0.2,2,0.2s-2-0.1-3.3,1.1
			c-0.6,0.5-1.1,1.8-1.1,1.8s1.7-2.6,5.1-2.2c2.7,0.3,3.1,1.7,3.1,1.7s-2.7-0.8-4.9-0.1c-3.1,1-3.5,3-3.5,3s1.6-3.1,5.4-2.4
			c3.8,0.7,5.7,1.7,7.1,0.3c1.4-1.5,1.6-3.9,3.5-3.7c5.8,0.7,6.6-2.5,6.9-1.7c0.4,1-1.4,1.7-2.5,2.4c0,0-0.8,0.3-1.9,2.1
			c-1.9,3.1-4.3,6.6-5.1,8.1c-1,2.2,5,3.9,7.7,6.7c0.2,0.2,0.7,0.5,1.2,0.5c0.3,0-0.8-1.2-2.3-2.6c-1.9-1.7-4.3-3.7-4.5-4.4
			c0.6-0.7,1.5-1.8,2.8-3.4c1.1-1.4,2.2-2.1,2.4-2.3c0.7-0.5,1.2,1.9,1.3,4.4c0.1,2.5,0,4.1-0.5,4.6c-0.5,0.5-5.1,7.1-6.2,8.4
			c-1.1,1.3-6.4,9.1-6.4,9.1l6.1,0.3c0,0-1.1,1.3-3.1,5c-2.1,3.7-5.6,9.5-5.6,9.5l-0.1,0.1c0,0,2.8-2.5,5-5c3.3-3.8,5.7-7.7,6.4-8.2
			c0.7-0.5,1.2-1.3,1.2-1.3l9.8-0.1c0,0,0.7,0.7,0.7,1.5c0,0.5-0.2,1.4-0.3,1.9c-0.2,1.7,0,2.7-0.7,5.7c-0.6,2.5-1.8,5.6-1.8,5.6
			h0.1c0,0,3-3.9,4-6.5c1.2-3.5,1.7-5.9,1.7-6.8c0-0.4-0.1-1.2-0.1-1.2l-0.1-0.3c0,0-0.6-3.2-1.5-8.2c-0.8-4.4-1.8-6.6-2-7.3
			c-0.2-0.7-0.7-1.5-0.7-1.5L392,86c0,0,0.9,1.5,1.7,2.5c0.8,1,2.3,2.8,2.9,3.5c0.6,0.7,1.2,1,1.4,1.3c0.1,0.3,3.4,3,3.3,2.5
			c-0.1-0.5-1.8-2.3-2.7-3.1c-0.9-0.8-3.3-5.4-3.8-6c-0.5-0.6-1.3-3.3-1.9-5.6c-0.3-1.1-0.9-2.8-1.7-3.7c-0.5-0.5-1-1.1-1-1.1
			s-0.1-0.4,0.2-1.2c0.1-0.4,0.2-0.8,0.2-0.8s1.4,0.2,1.8,0c0.4-0.2,0.4-1.9,0.4-2.2c0.1-0.3,0.4-0.3,0.5-0.5s-0.3-0.5-0.3-0.8
			c-0.1-0.3,0-1.2-0.2-1.7C392.4,67.6,391.1,66,387.9,65.8z"/>
		<g>
			<g>
				<path class="st0" d="M483.1,126.1l1,0.1c0,0,0.1,1.4-0.1,2.3c-0.3,0.9-0.2,1.7-0.5,1.8c-0.4,0-0.8,0.1-1-0.2
					c-0.3-0.4,0.5-0.6,0.7-1.6C483.2,127.5,483.1,126.1,483.1,126.1z"/>
			</g>
			<g>
				<path class="st0" d="M499.7,114.7l0.9,0.3c0,0-0.2,1.3-0.6,2.2c-0.5,1-0.9,1.6-1.2,1.5c-0.3-0.1-0.6,0-0.7-0.4
					c-0.2-0.4,0.7-0.4,1.1-1.3C499.6,116,499.7,114.7,499.7,114.7z"/>
			</g>
			<g>
				<path class="st0" d="M491,112.1l-0.6-0.8c0,0-1.5,0.1-2.4,1.1c-0.6,0.7-1.4,1.6-1.2,1.9c0.2,0.3,0.1,0.6,0.6,0.6
					c0.5,0.1,0.7-1.3,1.5-2C489.8,112.1,491,112.1,491,112.1z"/>
			</g>
			<g>
				<path class="st0" d="M496.1,130l-0.8-0.4c0,0-0.8,0.8-0.9,2c-0.1,0.9-0.4,1.6,0,1.6c0.4,0.1,0.5,0.3,0.8,0
					c0.3-0.3-0.1-0.7,0-1.7C495.1,130.5,496.1,130,496.1,130z"/>
			</g>
			<g>
				<path class="st0" d="M491.1,143.5l0.5,0.1c0,0,0,1-0.3,1.6c-0.3,0.6-0.5,1.2-0.7,1.2c-0.3,0-0.4,0.1-0.6-0.2
					c-0.2-0.3,0.5-0.3,0.7-1C491,144.5,491.1,143.5,491.1,143.5z"/>
			</g>
			<path class="st0" d="M488.5,108.5l-0.9,0.6c0,0,1,2.9,6.9,5c6.1,2.1,10.8,1.1,10.8,1.1l-1.7-2.3c0,0-3.2,1.7-8.5,0
				C489.4,111.1,488.5,108.5,488.5,108.5z"/>
		</g>
		<path class="st0" d="M406.6,73c0,0-3.8,1.3-6.2-1.1c-2.5-2.4-1.9-5.2-1.9-5.2s1.8,1.4,3.9,1.9C404.3,69,406.4,70.5,406.6,73z"/>
		<path class="st0" d="M437.1,71.3c0,0,0.9,3.2,5.3,6.3c2.5,1.7,3.9,1.5,3.9,1.5l0.4,2.1c0,0-2.5,0.1-5.6-2.1
			c-2.6-1.9-5.4-7.2-5.4-7.2L437.1,71.3z"/>
		<path class="st0" d="M473.6,35.5c0.1-0.6,1.2-0.6,1.7-0.4c0.5,0.2,1.7,0.5,1.5,0.9c-0.2,0.4,0,1.8,0.3,2.8c0.3,1,1.6,3.9,2.8,4.8
			c1.2,0.9,2,1.1,1.5,1.9s-1.4,1.1-1.9,1.1s-1.5-0.6-1.6-1.3c-0.1-0.7-1.3-1.9-2-3.6c-0.7-1.8-1.9-3.8-1.9-4.3
			C473.9,36.8,473.5,36,473.6,35.5z"/>
		<circle class="st0" cx="487.7" cy="149.5" r="4.9"/>
		<circle class="st0" cx="493.8" cy="138.6" r="6"/>
		<circle class="st0" cx="482" cy="134.9" r="6.9"/>
		<circle class="st0" cx="483" cy="119.7" r="6.8"/>
		<path class="st0" d="M490,124.3c0,3.6,2.9,6.6,6.6,6.6c3.6,0,6.6-2.9,6.6-6.6s-2.9-6.6-6.6-6.6C492.9,117.8,490,120.7,490,124.3z"
			/>
		<path class="st0" d="M477.3,71.2c0,0,1.2,0.3,1.5,0.5c0.5,0.3,1.4,0.6,1.6,1.1c0.3,0.8,1.3,1,1.7,1.1c0.4,0,0.7-0.1,0.7-0.1
			s-0.3-1-0.9-1.2c-0.5-0.2-1.4-0.3-1.4-0.3s-0.7-0.6-1.3-1c-0.6-0.3-1.4-0.6-1.4-0.6L477.3,71.2z"/>
		<path class="st0" d="M507,61.5c0,0,1.8,0.8,3,2.6c1.2,1.8,1.2,4.1,1,5.1c-0.2,1-2.2,0-3-2c-0.8-2,0-2.6-0.2-3.4
			C507.6,63.1,507,61.5,507,61.5z"/>
		<g>
			<polygon class="st0" points="495.9,94.7 498.5,92.2 495.8,89.4 493.2,92 			"/>
			<polygon class="st0" points="495.9,82.2 493.2,85.1 495.8,87.6 498.6,84.8 			"/>
			<polygon class="st0" points="492.3,91.1 494.9,88.6 492.3,86 489.7,88.5 			"/>
			<path class="st0" d="M492.3,84.2l2.6-2.9l0,0c-0.9-0.2-2.1,0.2-2.5-0.6c-0.1,1-1.4,0.6-2.3,1.2L492.3,84.2z"/>
			<path class="st0" d="M499.4,83.8l2.2-2.3c-0.6-0.4-2,0.1-2.1-0.9c-0.4,0.8-1.1,0.2-2.8,0.6l0,0L499.4,83.8z"/>
			<path class="st0" d="M500.3,84.7l2.8,2.8l2.1-2.3c0.2-1.3-1-1.6-0.5-2.4c-0.7,0.5-1.1-0.6-1.9-0.6L500.3,84.7z"/>
			<path class="st0" d="M505.5,90c-0.1-0.4,0-0.9,0-1.6c0-0.8-0.1-1.2,0-1.7l-1.5,1.7L505.5,90z"/>
			<path class="st0" d="M494.7,95.7l0.2-0.2l-2.7-2.7l-2.1,2c0.6,0.7,2.2,0.4,2.1,1.2C492.6,95.3,493.4,96,494.7,95.7z"/>
			<path class="st0" d="M503.1,89.4l-2.8,2.8l2.7,2.5c1.1-0.1,1.2-1.4,2-1.1c-0.5-0.7,0.6-1,0.2-2.1L503.1,89.4z"/>
			<path class="st0" d="M484,92.7c0.4-2.2,2-2.6,2-2.6l1.8-1.7l-1.8-1.9c0,0-0.4-0.4-0.4-1.4c0-1.5,1.8-2.5,1.8-2.5
				s-1.7-0.2-2.7,0.8c-1.1,1-0.8,3.1-0.8,3.1s-0.8-0.8-0.7-2.4c0.1-1.7,1-2.6,1-2.6s-1.4,0.5-2.2,1.4c-1.1,1.2-0.8,2.8-0.8,2.8
				s-0.7-1.1-0.8-2.3c-0.1-1.6,0.7-2.5,0.7-2.5s-1.6,0.5-2.2,2c-0.6,1.5-0.1,2.6-0.1,2.6s-0.8-0.1-1.5-1.5c-0.6-1.4-0.4-3.2-0.4-3.2
				s-1.1,1-1.2,2.8c-0.1,1.3,0.4,2.3,0.4,2.3s-0.6-0.4-2.1-0.4c-1.4,0.1-2.5-0.3-2.5-0.3s0.8,1.8,2,2.2c1.2,0.4,2.6,0.2,2.6,0.2
				s-1.7,0.5-2.7,1.9c-1,1.4-1,3.3-1,3.3s1.2-1.9,2.4-2.6c1.8-1.2,2.8-1.1,2.8-1.1s-1.4,0.9-1.8,2.6c-0.5,2.2,0.3,3.7,0.3,3.7
				s0.2-1.6,1.4-3.5c1.2-1.9,2.6-1.8,2.6-1.8s-1,0.9-1,2.9c0,2.4,2.2,3.8,2.2,3.8s-0.8-1.5-0.4-3.9c0.3-1.7,2.1-2.5,2.1-2.5
				s-1.5,2-0.5,3.9c1.1,1.9,3.8,1.7,3.8,1.7S483.5,95,484,92.7z"/>
			<path class="st0" d="M491.3,91.9l-2.6-2.6l-2.1,2c-0.2,0.9,0.9,1.1,0.6,1.9c0.6-0.4,0.8,0.7,1.8,0.9L491.3,91.9z"/>
			<path class="st0" d="M499.4,93.1l-2.7,2.4l0.2,0.2c1.1,0.4,2.2-0.2,2.4,0.6c0.1-0.9,1.9-0.4,2.5-0.9L499.4,93.1z"/>
			<path class="st0" d="M488.8,87.6l2.6-2.5l-2.4-2.5c-0.7,0.1-1,1.1-1.8,0.7c0.5,0.7-0.5,1.2-0.6,2L488.8,87.6z"/>
			
				<rect x="497.5" y="86.6" transform="matrix(0.7077 -0.7065 0.7065 0.7077 83.4385 378.7474)" class="st0" width="4" height="3.9"/>
		</g>
	</g>
</g>
<g>
	<path class="st0" d="M33.4,199.2c19.1,0,33.4,12.1,33.4,31.8c0,19-13.4,34.7-33.9,34.7C9.7,265.7,0,247.6,0,232.4
		C0,218.6,10,199.2,33.4,199.2z M35.2,262.5c7.6,0,23.4-4.4,23.4-29.1c0-20.4-12.4-31.3-25.8-31.3c-14.2,0-24.8,9.3-24.8,27.9
		C8.1,249.8,19.9,262.5,35.2,262.5z"/>
	<path class="st0" d="M83.3,230.8c0-11.2,0-13.2-0.2-15.5c-0.2-2.3-0.6-3.7-3.1-4c-0.6-0.1-1.9-0.2-2.5-0.2c-0.3,0-0.6-0.3-0.6-0.6
		c0-0.4,0.3-0.6,1.2-0.6c3.4,0,7.9,0.2,8.6,0.2c0.7,0,5.3-0.2,7.6-0.2c0.8,0,1.3,0.2,1.3,0.6c0,0.3-0.3,0.6-0.7,0.6
		c-0.5,0-0.9,0-1.9,0.2c-2,0.3-2.4,1.6-2.5,4c-0.2,2.3-0.2,4.3-0.2,15.5v10.1c0,10.4,2.3,14.8,5.5,17.7c3.6,3.3,6.9,3.9,11.1,3.9
		c4.6,0,9-2,11.5-5.1c3.5-4.2,4.2-10.1,4.2-17.5v-9.1c0-11.2-0.1-13.2-0.2-15.5c-0.1-2.3-0.5-3.6-3-4c-0.6-0.1-1.9-0.2-2.5-0.2
		c-0.3,0-0.6-0.3-0.6-0.6c0-0.4,0.3-0.6,1.2-0.6c3.3,0,7.6,0.2,8.1,0.2c0.5,0,4.1-0.2,6.3-0.2c0.8,0,1.2,0.2,1.2,0.6
		c0,0.3-0.3,0.6-0.6,0.6c-0.5,0-0.9,0-1.9,0.2c-2,0.4-2.5,1.6-2.6,4c-0.2,2.3-0.1,4.3-0.1,15.5v7.7c0,7.8-1,16.5-7,21.6
		c-5.4,4.7-11.2,5.3-15.6,5.3c-2.5,0-10.3-0.2-15.5-5.1c-3.7-3.4-6.5-8.4-6.5-18.9L83.3,230.8L83.3,230.8L83.3,230.8z"/>
	<path class="st0" d="M149.4,230.8c0-11.2,0-13.2-0.2-15.5c-0.2-2.5-0.6-3.7-3.1-4c-0.6-0.1-1.9-0.2-2.5-0.2c-0.3,0-0.6-0.3-0.6-0.6
		c0-0.4,0.3-0.6,1.2-0.6c3.4,0,8.4,0.2,8.8,0.2c0.8,0,7-0.2,9.3-0.2c4.8,0,10,0.4,13.9,3.1c1.9,1.4,5.2,4.8,5.2,9.8
		c0,5.3-2.2,10.5-9.2,16.5c6.1,7.6,11.3,14.2,15.6,18.7c4,4.1,6.4,4.8,8.3,5c1.4,0.3,2.2,0.3,2.6,0.3c0.4,0,0.7,0.3,0.7,0.6
		c0,0.4-0.4,0.6-1.8,0.6h-4.7c-4.2,0-6.1-0.4-8-1.4c-3.2-1.7-5.9-5.2-10.2-10.6c-3.1-3.9-6.4-8.6-8.1-10.5c-0.3-0.3-0.5-0.4-1-0.4
		l-9.5-0.2c-0.3,0-0.5,0.2-0.5,0.6v1.7c0,7,0,12.6,0.3,15.5c0.3,2.1,0.7,3.5,3,3.8c1,0.2,2.6,0.3,3.3,0.3c0.5,0,0.6,0.3,0.6,0.6
		c0,0.3-0.3,0.6-1.2,0.6c-4.1,0-8.8-0.3-9.2-0.3c-0.1,0-5.1,0.3-7.4,0.3c-0.8,0-1.2-0.2-1.2-0.6c0-0.3,0.2-0.6,0.6-0.6
		c0.7,0,1.6-0.2,2.3-0.3c1.4-0.3,1.6-1.7,2-3.8c0.4-3,0.4-8.7,0.4-15.6L149.4,230.8L149.4,230.8z M155.8,237c0,0.4,0.2,0.7,0.5,0.9
		c1.1,0.6,4.9,1.1,8.2,1.1c1.8,0,3.8-0.1,5.6-1.3c2.5-1.7,4.5-5.5,4.5-11c0-9-4.9-14.2-12.9-14.2c-2.2,0-4.6,0.3-5.3,0.4
		c-0.3,0.2-0.6,0.4-0.6,0.8L155.8,237L155.8,237z"/>
	<path class="st0" d="M245.2,253c0.2,7,1,9.2,3.3,9.8c1.6,0.4,3.5,0.5,4.2,0.5c0.4,0,0.7,0.2,0.7,0.5c0,0.5-0.5,0.7-1.5,0.7
		c-4.8,0-8.2-0.3-9-0.3c-0.8,0-4.3,0.3-8.1,0.3c-0.8,0-1.4-0.1-1.4-0.7c0-0.3,0.3-0.5,0.7-0.5c0.7,0,2.2-0.1,3.5-0.5
		c2.1-0.6,2.5-3.1,2.5-10.8l0.1-48.6c0-3.3,0.3-4.2,0.9-4.2s2.1,1.9,3,2.7c1.3,1.4,13.9,15.1,27,29.1c8.4,9,17.7,19.3,20.4,22.2
		l-0.9-43.1c-0.1-5.5-0.7-7.4-3.3-8.1c-1.5-0.3-3.5-0.4-4.2-0.4c-0.6,0-0.7-0.3-0.7-0.6c0-0.5,0.7-0.6,1.7-0.6
		c3.8,0,7.9,0.3,8.8,0.3s3.7-0.3,7.2-0.3c0.9,0,1.5,0.1,1.5,0.6c0,0.3-0.3,0.6-0.9,0.6c-0.4,0-1,0-2,0.3c-2.8,0.6-3.1,2.5-3.1,7.6
		l-0.2,49.7c0,5.6-0.2,6-0.8,6c-0.7,0-1.7-0.9-6.2-5.4c-0.9-0.8-13.2-13.3-22.2-23c-9.8-10.6-19.4-21.3-22.2-24.4L245.2,253z"/>
	<path class="st0" d="M332.8,211.4c0.9-2.4,1.3-2.8,1.8-2.8c0.8,0,1,1,1.8,2.6c1.4,3.1,13.3,32.8,17.9,43.8c2.7,6.5,4.8,7.4,6.4,7.9
		c1.1,0.3,2.2,0.4,3,0.4c0.4,0,0.9,0.2,0.9,0.6c0,0.4-0.8,0.6-1.7,0.6c-1.1,0-6.6,0-11.8-0.2c-1.4-0.1-2.6-0.1-2.6-0.5
		c0-0.3,0.2-0.3,0.5-0.5c0.4-0.2,1.2-0.8,0.7-2l-6.7-16.6c-0.2-0.3-0.2-0.4-0.7-0.4H325c-0.3,0-0.6,0.2-0.8,0.6l-4.2,11.5
		c-0.7,1.8-1.1,3.6-1.1,4.8c0,1.4,1.3,2,2.5,2h0.7c0.6,0,0.8,0.3,0.8,0.6c0,0.4-0.4,0.6-1.1,0.6c-1.8,0-5.8-0.3-6.7-0.3
		c-0.8,0-4.5,0.3-7.6,0.3c-0.9,0-1.4-0.2-1.4-0.6c0-0.3,0.3-0.6,0.7-0.6c0.5,0,1.6-0.1,2.2-0.2c3.4-0.4,4.8-3,6.3-6.6L332.8,211.4z
		 M341.2,241.5c0.3,0,0.3-0.2,0.3-0.5l-7.4-19.8c-0.4-1.1-0.8-1.1-1.3,0l-7,19.8c-0.1,0.3,0,0.5,0.3,0.5H341.2z"/>
	<path class="st0" d="M391,243.6c0,7,0,12.6,0.3,15.6c0.3,2.1,0.6,3.5,2.9,3.8c1,0.2,2.7,0.3,3.4,0.3c0.5,0,0.6,0.3,0.6,0.6
		c0,0.3-0.3,0.6-1.2,0.6c-4.1,0-8.8-0.3-9.2-0.3c-0.3,0-5.5,0.3-7.7,0.3c-0.8,0-1.2-0.2-1.2-0.6c0-0.3,0.2-0.5,0.6-0.5
		c0.7,0,1.5-0.2,2.2-0.3c1.5-0.3,2-1.8,2.2-3.9c0.3-3,0.3-8.7,0.3-15.6v-30.3l-10.8,0.2c-4.7,0.1-6.5,0.6-7.6,2.3
		c-0.8,1.3-0.9,1.8-1.2,2.3c-0.2,0.6-0.4,0.7-0.8,0.7c-0.2,0-0.5-0.2-0.5-0.6c0-0.8,1.5-7.2,1.6-7.8c0.2-0.4,0.5-1.4,0.8-1.4
		c0.5,0,1.3,0.6,3.3,0.8c2.1,0.3,5,0.3,5.9,0.3h28.2c2.5,0,4.2-0.2,5.4-0.3c1.1-0.2,1.8-0.3,2.1-0.3c0.3,0,0.3,0.4,0.3,0.8
		c0,2.2-0.3,7.4-0.3,8.2c0,0.6-0.3,0.9-0.7,0.9s-0.5-0.3-0.6-1.3l-0.1-0.8c-0.2-2.2-1.9-3.8-9-4l-9.3-0.2L391,243.6L391,243.6z"/>
	<path class="st0" d="M427.5,230.8c0-11.2,0-13.2-0.2-15.5c-0.2-2.3-0.6-3.7-3.1-4c-0.6-0.1-1.9-0.2-2.5-0.2c-0.2,0-0.6-0.3-0.6-0.6
		c0-0.4,0.3-0.6,1.2-0.6c3.4,0,7.9,0.2,8.6,0.2c0.7,0,5.3-0.2,7.5-0.2c0.8,0,1.3,0.2,1.3,0.6c0,0.3-0.3,0.6-0.7,0.6
		c-0.5,0-0.9,0-1.9,0.2c-2,0.3-2.4,1.6-2.5,4c-0.2,2.3-0.2,4.3-0.2,15.5v10.1c0,10.4,2.3,14.8,5.5,17.7c3.6,3.3,6.9,3.9,11.1,3.9
		c4.6,0,9-2,11.5-5.1c3.5-4.2,4.2-10.1,4.2-17.5v-9.1c0-11.2-0.1-13.2-0.2-15.5c-0.1-2.3-0.5-3.6-3-4c-0.6-0.1-1.9-0.2-2.5-0.2
		c-0.3,0-0.6-0.3-0.6-0.6c0-0.4,0.3-0.6,1.2-0.6c3.3,0,7.6,0.2,8.1,0.2c0.5,0,4.1-0.2,6.3-0.2c0.8,0,1.2,0.2,1.2,0.6
		c0,0.3-0.3,0.6-0.6,0.6c-0.5,0-0.9,0-1.9,0.2c-2,0.4-2.5,1.6-2.6,4c-0.2,2.3-0.1,4.3-0.1,15.5v7.7c0,7.8-1,16.5-7,21.6
		c-5.4,4.7-11.2,5.3-15.6,5.3c-2.5,0-10.3-0.2-15.5-5.1c-3.6-3.4-6.5-8.4-6.5-18.9L427.5,230.8L427.5,230.8L427.5,230.8z"/>
	<path class="st0" d="M496,230.8c0-11.2,0-13.2-0.2-15.5c-0.2-2.5-0.6-3.7-3.1-4c-0.6-0.1-1.9-0.2-2.5-0.2c-0.2,0-0.6-0.3-0.6-0.6
		c0-0.4,0.3-0.6,1.2-0.6c3.4,0,8.4,0.2,8.8,0.2c0.8,0,7-0.2,9.3-0.2c4.8,0,10,0.4,13.9,3.1c1.9,1.4,5.2,4.8,5.2,9.8
		c0,5.3-2.2,10.5-9.2,16.5c6.1,7.6,11.3,14.2,15.6,18.7c4,4.1,6.5,4.8,8.3,5c1.4,0.3,2.2,0.3,2.6,0.3c0.4,0,0.7,0.3,0.7,0.6
		c0,0.4-0.4,0.6-1.8,0.6h-4.7c-4.2,0-6.1-0.4-8-1.4c-3.2-1.7-5.9-5.2-10.2-10.6c-3.1-3.9-6.5-8.6-8.1-10.5c-0.3-0.3-0.5-0.4-1-0.4
		l-9.5-0.2c-0.3,0-0.5,0.2-0.5,0.6v1.7c0,7,0,12.6,0.3,15.5c0.3,2.1,0.7,3.5,3,3.8c1,0.2,2.6,0.3,3.3,0.3c0.5,0,0.6,0.3,0.6,0.6
		c0,0.3-0.3,0.6-1.2,0.6c-4.1,0-8.8-0.3-9.2-0.3c-0.1,0-5.1,0.3-7.4,0.3c-0.8,0-1.2-0.2-1.2-0.6c0-0.3,0.2-0.6,0.6-0.6
		c0.7,0,1.6-0.2,2.3-0.3c1.4-0.3,1.6-1.7,2-3.8c0.4-3,0.4-8.7,0.4-15.6L496,230.8L496,230.8L496,230.8z M502.4,237
		c0,0.4,0.2,0.7,0.5,0.9c1.1,0.6,4.9,1.1,8.2,1.1c1.8,0,3.8-0.1,5.6-1.3c2.5-1.7,4.5-5.5,4.5-11c0-9-4.9-14.2-12.9-14.2
		c-2.2,0-4.6,0.3-5.3,0.4c-0.3,0.2-0.6,0.4-0.6,0.8L502.4,237L502.4,237z"/>
	<path class="st0" d="M571.8,211.4c0.9-2.4,1.3-2.8,1.8-2.8c0.8,0,1,1,1.8,2.6c1.4,3.1,13.3,32.8,17.9,43.8c2.7,6.5,4.8,7.4,6.4,7.9
		c1.1,0.3,2.2,0.4,3,0.4c0.4,0,0.9,0.2,0.9,0.6c0,0.4-0.8,0.6-1.7,0.6c-1.1,0-6.6,0-11.8-0.2c-1.4-0.1-2.6-0.1-2.6-0.5
		c0-0.3,0.2-0.3,0.5-0.5c0.4-0.2,1.2-0.8,0.7-2l-6.7-16.6c-0.2-0.3-0.3-0.4-0.7-0.4h-17.2c-0.3,0-0.6,0.2-0.8,0.6l-4.2,11.5
		c-0.7,1.8-1.1,3.6-1.1,4.8c0,1.4,1.3,2,2.5,2h0.7c0.6,0,0.8,0.3,0.8,0.6c0,0.4-0.4,0.6-1.1,0.6c-1.8,0-5.9-0.3-6.7-0.3
		c-0.8,0-4.5,0.3-7.6,0.3c-0.9,0-1.4-0.2-1.4-0.6c0-0.3,0.3-0.6,0.7-0.6c0.5,0,1.6-0.1,2.2-0.2c3.4-0.4,4.8-3,6.3-6.6L571.8,211.4z
		 M580.1,241.5c0.3,0,0.3-0.2,0.3-0.5l-7.4-19.8c-0.4-1.1-0.8-1.1-1.3,0l-7,19.8c-0.1,0.3,0,0.5,0.3,0.5H580.1z"/>
	<path class="st0" d="M625.4,243.7c0,10.6,0.2,14.9,1.5,16.2c1.2,1.2,4.1,1.7,9.9,1.7c3.9,0,7.2-0.1,9-2.2c0.9-1.1,1.5-2.6,1.8-4.1
		c0.1-0.5,0.3-0.9,0.8-0.9c0.3,0,0.5,0.3,0.5,1.1c0,0.8-0.5,5.1-1.1,7.2c-0.5,1.7-0.8,2-4.8,2c-5.3,0-9.5-0.1-13-0.3
		c-3.4-0.1-5.9-0.2-8.1-0.2c-0.3,0-1.6,0-3.1,0.1c-1.5,0.1-3.1,0.2-4.3,0.2c-0.8,0-1.2-0.2-1.2-0.6c0-0.3,0.2-0.6,0.6-0.6
		c0.7,0,1.6-0.2,2.3-0.3c1.4-0.3,1.6-1.7,2-3.8c0.4-3,0.4-8.7,0.4-15.6v-12.7c0-11.2,0-13.2-0.2-15.5c-0.2-2.5-0.6-3.7-3.1-4
		c-0.6-0.1-1.9-0.2-2.5-0.2c-0.3,0-0.6-0.3-0.6-0.6c0-0.4,0.3-0.6,1.2-0.6c3.4,0,8.1,0.2,8.5,0.2c0.3,0,5.9-0.2,8.2-0.2
		c0.8,0,1.2,0.2,1.2,0.6c0,0.3-0.3,0.5-0.6,0.5c-0.5,0-1.6,0.1-2.5,0.2c-2.2,0.4-2.6,1.5-2.8,4.1c-0.1,2.3-0.1,4.3-0.1,15.5
		L625.4,243.7L625.4,243.7z"/>
	<path class="st0" d="M700.5,225c0-13.2,0-15.6-0.2-18.3c-0.2-2.9-0.8-4.2-3.7-4.8c-0.7-0.2-2.1-0.3-2.9-0.3c-0.3,0-0.7-0.2-0.7-0.5
		c0-0.5,0.4-0.7,1.4-0.7c3.8,0,9.2,0.3,9.6,0.3c1,0,6.4-0.3,11.5-0.3c8.4,0,23.9-0.8,34,9.7c4.2,4.4,8.2,11.5,8.2,21.6
		c0,10.7-4.4,18.9-9.2,23.9c-3.6,3.8-11.3,9.8-25.7,9.8c-3.6,0-8.1-0.3-11.8-0.5c-3.7-0.3-6.6-0.5-7-0.5c-0.2,0-1.6,0-3.4,0.1
		c-1.7,0-3.7,0.2-4.9,0.2c-0.9,0-1.4-0.2-1.4-0.7c0-0.3,0.2-0.5,0.7-0.5c0.8,0,1.8-0.2,2.5-0.3c1.7-0.3,2.1-2.2,2.5-4.7
		c0.4-3.6,0.4-10.3,0.4-18.4L700.5,225L700.5,225z M707.6,234.1c0,9,0.1,16.8,0.2,18.4c0.1,2.1,0.3,5.5,0.9,6.4
		c1.1,1.6,4.4,3.4,14.4,3.4c7.9,0,15.2-2.9,20.2-7.9c4.4-4.3,6.8-12.5,6.8-20.3c0-10.8-4.7-17.7-8.1-21.4c-8-8.4-17.6-9.6-27.8-9.6
		c-1.7,0-4.8,0.3-5.5,0.6c-0.8,0.3-1,0.8-1,1.7c-0.1,2.9-0.1,11.5-0.1,18.1L707.6,234.1L707.6,234.1z"/>
	<path class="st0" d="M783.3,243.6c0,7,0,12.6,0.3,15.6c0.3,2.1,0.5,3.5,2.7,3.8c1.1,0.2,2.7,0.3,3.4,0.3c0.4,0,0.6,0.3,0.6,0.6
		c0,0.3-0.3,0.6-1.2,0.6c-4.2,0-9-0.3-9.3-0.3c-0.4,0-5.1,0.3-7.4,0.3c-0.8,0-1.2-0.2-1.2-0.6c0-0.3,0.2-0.6,0.6-0.6
		c0.7,0,1.6-0.2,2.3-0.3c1.4-0.3,1.7-1.7,2-3.8c0.3-3,0.4-8.7,0.4-15.6v-12.7c0-11.2,0-13.2-0.2-15.5c-0.2-2.5-0.8-3.6-2.4-3.9
		c-0.8-0.2-1.8-0.3-2.3-0.3c-0.3,0-0.6-0.3-0.6-0.6c0-0.4,0.3-0.6,1.2-0.6c2.5,0,7.1,0.2,7.6,0.2c0.3,0,5.2-0.2,7.5-0.2
		c0.9,0,1.2,0.2,1.2,0.6c0,0.3-0.3,0.6-0.6,0.6c-0.5,0-1,0-1.9,0.2c-2,0.4-2.5,1.4-2.6,4c-0.1,2.3-0.1,4.3-0.1,15.5L783.3,243.6
		L783.3,243.6z"/>
	<path class="st0" d="M809.8,230.8c0-11.2,0-13.2-0.2-15.5c-0.2-2.5-0.6-3.7-3.1-4c-0.6-0.1-1.9-0.2-2.5-0.2c-0.3,0-0.6-0.3-0.6-0.6
		c0-0.4,0.3-0.6,1.2-0.6c3.4,0,8.2,0.2,8.7,0.2c0.5,0,16.1,0.1,17.8,0c1.4-0.1,2.8-0.3,3.4-0.4c0.3-0.1,0.7-0.3,1-0.3
		c0.3,0,0.3,0.3,0.3,0.7c0,0.5-0.4,1.4-0.6,3.4c-0.1,0.7-0.3,3.9-0.4,4.8c-0.1,0.3-0.3,0.8-0.7,0.8c-0.4,0-0.6-0.3-0.6-0.9
		c0-0.5-0.1-1.7-0.4-2.5c-0.5-1.2-1.3-1.7-5.4-2.2c-1.3-0.2-9.9-0.3-10.8-0.3c-0.3,0-0.4,0.3-0.4,0.8v19.6c0,0.5,0,0.8,0.4,0.8
		c0.9,0,10.8,0,12.5-0.2c1.8-0.2,2.9-0.3,3.6-1c0.5-0.5,0.8-0.9,1.1-0.9c0.3,0,0.4,0.2,0.4,0.6c0,0.4-0.4,1.6-0.6,4
		c-0.2,1.4-0.3,4.2-0.3,4.7c0,0.6-0.2,1.4-0.7,1.4c-0.3,0-0.5-0.3-0.5-0.7c0-0.7,0-1.4-0.3-2.4c-0.2-1-0.9-1.9-3.8-2.2
		c-2-0.3-10-0.3-11.3-0.3c-0.4,0-0.5,0.3-0.5,0.5v6c0,2.5-0.1,10.9,0,12.3c0.2,4.8,1.5,5.8,8.9,5.8c2,0,5.5,0,7.5-0.8
		c2-0.8,3-2.1,3.4-5c0.2-0.8,0.3-1.1,0.8-1.1c0.4,0,0.5,0.6,0.5,1.1c0,0.5-0.6,5.4-1,7c-0.5,1.9-1.3,1.9-4.2,1.9
		c-5.6,0-9.9-0.2-13-0.3c-3.1-0.2-5.1-0.2-6.2-0.2c-0.2,0-1.6,0-3.2,0.1c-1.4,0.1-3.1,0.2-4.3,0.2c-0.8,0-1.2-0.2-1.2-0.6
		c0-0.3,0.2-0.6,0.6-0.6c0.7,0,1.6-0.3,2.3-0.3c1.4-0.3,1.6-1.7,2-3.8c0.4-3,0.4-8.7,0.4-15.6L809.8,230.8L809.8,230.8z"/>
	<path class="st0" d="M875,243.6c0,7,0,12.6,0.3,15.6c0.3,2.1,0.6,3.5,2.9,3.8c1,0.2,2.7,0.3,3.4,0.3c0.5,0,0.6,0.3,0.6,0.6
		c0,0.3-0.3,0.6-1.2,0.6c-4.1,0-8.8-0.3-9.3-0.3c-0.3,0-5.5,0.3-7.7,0.3c-0.8,0-1.2-0.2-1.2-0.6c0-0.3,0.2-0.5,0.6-0.5
		c0.7,0,1.5-0.2,2.2-0.3c1.5-0.3,2-1.8,2.2-3.9c0.3-3,0.3-8.7,0.3-15.6v-30.3l-10.8,0.2c-4.7,0.1-6.4,0.6-7.6,2.3
		c-0.8,1.3-0.9,1.8-1.2,2.3c-0.2,0.6-0.4,0.7-0.8,0.7c-0.2,0-0.5-0.2-0.5-0.6c0-0.8,1.5-7.2,1.6-7.8c0.2-0.4,0.5-1.4,0.8-1.4
		c0.5,0,1.3,0.6,3.3,0.8c2.1,0.3,5,0.3,5.9,0.3h28.2c2.5,0,4.2-0.2,5.4-0.3c1.1-0.2,1.8-0.3,2.1-0.3c0.3,0,0.3,0.4,0.3,0.8
		c0,2.2-0.3,7.4-0.3,8.2c0,0.6-0.3,0.9-0.7,0.9c-0.3,0-0.5-0.3-0.6-1.3l-0.1-0.8c-0.2-2.2-1.9-3.8-9-4l-9.3-0.2L875,243.6L875,243.6
		L875,243.6z"/>
</g>
</svg>
