<?xml version="1.0" encoding="utf-8"?>
<!-- Generator: Adobe Illustrator 23.1.1, SVG Export Plug-In . SVG Version: 6.00 Build 0)  -->
<svg version="1.1" id="Layer_1" xmlns="http://www.w3.org/2000/svg" xmlns:xlink="http://www.w3.org/1999/xlink" x="0px" y="0px"
	 viewBox="0 0 692 395" style="enable-background:new 0 0 692 395;" xml:space="preserve">
<style type="text/css">
	.st0{fill:#BDBEC0;}
	.st1{fill:#141414;}
	.st2{fill:#FFFFFF;}
	.st3{fill:#F05123;}
	.st4{fill:none;stroke:#FFFFFF;stroke-width:2;}
</style>
<rect class="st0" width="692" height="395.69"/>
<polygon class="st1" points="113.32,206 124.81,212.08 127.51,208.03 134.26,212.08 145.07,216.13 138.99,201.27 131.56,192.49 
	114.67,185.06 103.86,172.23 118.73,174.25 111.97,166.15 95.76,168.85 76.85,179.66 83.6,195.2 69.42,216.13 72.79,236.4 
	66.71,231.67 64.69,223.56 56.58,214.78 48.47,222.21 50.5,210.73 34.29,220.86 42.39,207.35 15.38,214.11 44.42,202.62 
	52.53,183.71 31.59,202.62 9.3,214.11 0,237.75 0,238.02 0,265.51 6.59,270.85 14.7,260.72 14.03,249.24 9.97,247.21 12,240.45 
	5.92,237.75 22.13,228.97 26.86,230.32 37.67,224.92 26.86,241.8 26.86,255.31 45.1,233.02 41.05,245.86 41.72,258.01 61.98,256.67 
	70.77,242.48 86.3,258.01 80.22,276.25 95.08,267.47 97.78,270.17 106.57,270.17 103.19,278.28 116.7,270.85 114.67,280.98 
	131.56,270.17 133.58,259.36 124.81,249.91 111.97,249.91 110.62,237.75 103.86,230.32 101.16,208.7 107.92,213.43 "/>
<path class="st1" d="M382.46,246.41l7.31,3.65l0.91,12.79l25.46,14.61l-11.88,28.33l0.92,11.88l-49.48,62.59l-33.84,15.42H434.7
	l4.73-15.14l63.26-42.77l116.88-114.47l-10.85-20.48L578,185.95l-1.13-9l-15.54-24.32l-14.19,4.73l-11.48-9.46l11.48-19.59
	l-47.96,29.72c0,0-8.78-7.43-9.46-9.46c-0.67-2.03-17.26-32.32-17.26-32.32l-0.98-0.1l2.03,14.86l-10.8,14.18l8.11,13.51l-6.08,7.43
	l14.19,6.08l-26.34,5.4l-21.62,19.59l-19.59,10.8l-11.47,2.13l-6.77,8.68l-22.29,7.43l-45.93,0.67l51.34,5.41L382.46,246.41z"/>
<polygon class="st1" points="592.54,395.69 617.76,362.48 629.21,343.2 608.12,337.78 619.57,314.88 643.74,272.88 674.81,245.86 
	653.87,243.83 628.88,228.29 616.04,206 587.67,185.06 576.86,175.6 576.86,185.73 605.91,203.97 616.72,221.54 576.19,249.24 
	541.74,290.43 505.94,316.78 493.78,334.35 469.46,345.83 425.59,395.69 "/>
<polygon class="st1" points="577.49,395.69 692,395.69 692,247.71 676.16,258.01 646.44,269.5 626.18,296.52 595.78,342.45 
	622.8,350.56 590.38,361.36 "/>
<polygon class="st1" points="692.52,93.86 679.38,108.06 665.19,107.38 661.82,119.54 645.6,134.4 640.88,130.35 630.74,135.08 
	617.23,115.49 610.48,129 584.14,147.91 598.83,151.85 609.1,149.8 613.18,158.72 629.39,168.85 630.07,153.99 645.6,153.31 
	659.11,147.23 678.7,133.05 692.52,127.66 "/>
<polygon class="st1" points="692.52,166.91 680.37,180.63 661.87,178.58 643.37,186.12 626.92,184.75 604.31,164.19 612.53,177.21 
	615.21,197.89 635.83,208.04 670.09,223.12 692.52,216.82 "/>
<polygon class="st1" points="9.3,45.24 46.23,54.47 68.74,55.37 79.02,82.62 91.03,79.69 96.44,90.49 121.43,100.63 134.94,113.46 
	155.88,112.11 174.79,120.89 182.22,113.46 200.46,118.86 207.89,113.46 234.91,113.46 290.97,106.03 292.14,107.73 317.32,144.53 
	306.51,139.8 303.81,135.75 297.05,134.4 297.73,125.62 295.03,119.54 286.92,128.32 284.22,120.89 290.97,114.81 280.84,120.21 
	277.46,139.13 265.31,162.77 269.36,120.21 257.87,125.62 225.45,167.5 216.67,168.85 204.51,174.93 176.82,151.29 164.66,150.61 
	133.58,124.94 103.19,95.9 91.03,93.2 91.03,100.63 68.06,88.47 76.17,85.77 49.15,63.47 53.2,78.33 34.96,63.47 34.07,55.43 
	25.51,55.37 "/>
<polygon class="st1" points="0,66.18 28.21,82.39 28.21,92.52 47.8,92.52 72.79,111.43 78.87,101.3 94.41,101.3 100.49,111.43 
	114,112.11 112.65,120.21 119.4,120.89 119.4,127.64 103.86,133.72 78.87,130.35 48.47,107.38 33.62,104 "/>
<polygon class="st1" points="39.69,118.19 46.45,121.57 49.83,130.35 58.61,137.78 74.82,144.53 72.12,158.04 47.12,166.82 
	27.53,191.14 2.54,207.35 23.48,183.71 45.1,166.82 34.96,156.02 27.53,155.34 12.67,160.75 0,143.86 0,135.08 17.4,122.92 
	26.18,124.94 "/>
<polygon class="st1" points="130.88,160.75 236.94,201.27 261.93,217.49 208.56,210.06 175.47,230.32 167.36,226.27 155.2,228.29 
	166.01,220.86 172.09,222.21 191.68,206 218.7,203.97 241.66,207.35 221.4,197.22 165.33,179.66 "/>
<polygon class="st1" points="234.91,156.02 258.55,147.23 265.31,162.77 286.25,159.39 285.57,146.56 302.46,143.86 310.56,163.44 
	332.18,153.99 337.58,162.77 349.06,157.37 374.73,169.52 368.65,172.9 368.65,176.96 357.17,168.17 357.85,174.25 347.04,164.12 
	342.99,172.23 342.31,188.44 341.33,190.63 333.53,208.03 332.18,201.27 332.18,177.63 308.54,164.12 297.05,183.71 272.74,198.57 
	253.15,173.58 245.04,168.85 "/>
<polygon class="st1" points="330.83,222.89 370.68,201.27 361.25,214.93 363.93,218.83 382.84,212.08 387.57,214.78 401.37,208.35 
	393.65,216.13 371.4,226.42 "/>
<polygon class="st1" points="355.15,178.31 361.23,179.66 367.9,183.9 382.66,187.4 392.3,187.09 395.53,189.31 416.67,206.16 
	409.42,208.91 392.3,194.52 384.87,197.22 384.87,191.82 369.91,196.41 361.9,187.09 355.82,186.41 "/>
<polygon class="st1" points="390.27,167.5 397.7,169.52 419.99,190.47 391.62,178.98 "/>
<polygon class="st1" points="474.03,116.84 505.1,133.05 516.59,144.53 509.15,149.93 499.02,145.88 "/>
<path class="st2" d="M225.89,371.75c-4.73,0-7.27-0.74-8.23-2.4c-0.4-0.68-0.68-1.83,0.22-3.41l10.05-17.79
	c3.68-6.43,11.29-6.57,11.61-6.57h8.39c3.89,0,6.53,1.05,7.83,3.12c1.87,2.97,0.1,6.73,0.02,6.89l-5.54,10.78
	c0.48,0.08,1.74,0.1,2.54,0.05c2.38-4.94,3.73-7.79,5.18-10.84l3.28-6.89c0.7-2.42,3.25-3.11,4.63-3.11h11.18l-12.12,23.46
	c-0.49,0.93-0.65,1.68-0.45,2.13c0.16,0.36,0.56,0.5,0.56,0.5l1.6,0.44l-2.11,3.61l-25.25,0c-0.76-0.06-3.48-0.41-4.52-2.22
	c-0.36-0.63-0.65-1.68,0.02-3.08l1.11-2.32l-1.11,1.24l-6.12,6.39l-1.22,0.01C227.03,371.74,226.49,371.75,225.89,371.75z
	 M239.56,344.11c-0.05,0-6.47,0.15-9.41,5.29L220.1,367.2c-0.23,0.4-0.32,0.73-0.24,0.87c0.07,0.12,0.81,1.12,6.03,1.12
	c0.58,0,1.1-0.01,1.52-0.02l0.18,0l3.91-4.08c-0.27-0.18-0.52-0.41-0.71-0.71c-0.32-0.5-0.59-1.35-0.05-2.55l0.11,0.04l-0.1-0.05
	l0.47,0.18l-0.44-0.25l0.36,0.18l-0.35-0.2l5.79-10.24c1.44-2.57,4.48-2.65,4.82-2.65l4.63,0l-8.93,18.66
	c-0.16,0.33-0.19,0.57-0.11,0.71c0.29,0.5,1.65,0.88,2.48,0.95l23.36,0c-0.25-0.26-0.49-0.59-0.67-0.99
	c-0.52-1.2-0.35-2.66,0.53-4.32l10.19-19.74h-7c-0.07,0-1.84,0.05-2.27,1.48l-3.34,7.06c-1.51,3.18-2.92,6.15-5.5,11.5l-0.3,0.63
	l-0.69,0.08c0,0-1.04,0.13-2.19,0.13c-2.12,0-3.31-0.4-3.86-1.3c-0.21-0.35-0.5-1.06-0.02-2.01l0.03,0.01l5.78-11.24l0,0
	c0,0,1.22-2.65,0.1-4.41c-1.01-1.59-3.64-1.92-5.67-1.92L239.56,344.11L239.56,344.11z M233.05,362.9c-0.01,0.18,0.44,0.27,0.7,0.27
	h2.6l5.64-11.77h-0.56l0,0c-0.12,0-1.88,0.02-2.63,1.35L233.05,362.9z"/>
<path class="st2" d="M310.63,371.72h-35.12c-0.86-0.01-5.07-0.2-6.38-2.48c-0.39-0.69-0.68-1.82,0.18-3.35l10.13-17.8
	c3.6-6.36,11.28-6.51,11.6-6.51H323l-11.02,21.4c-1.42,2.74-1.24,3.92-1.1,4.3c0.1,0.26,0.24,0.33,0.27,0.34l1.63,0.4L310.63,371.72
	z M291.06,344.11c-0.05,0-6.53,0.16-9.4,5.22l-10.12,17.8c-0.15,0.27-0.3,0.63-0.18,0.84c0.38,0.67,2.52,1.17,4.19,1.2h33.56
	c-0.19-0.22-0.37-0.48-0.5-0.79c-0.71-1.55-0.33-3.77,1.13-6.58l9.1-17.68L291.06,344.11L291.06,344.11z M296.74,365.72l-11.67,0
	c-0.45-0.02-1.8-0.19-2.49-1.34c-0.55-0.91-0.49-2.07,0.18-3.44l-0.02-0.01l5.35-9.42c1.51-2.68,4.71-2.7,4.85-2.7l10.82,0.04
	c0.59,0.15,2,0.49,2.57,1.67c0.22,0.45,0.39,1.2-0.05,2.16l-5.26,10.91C300.64,364.55,299.3,365.72,296.74,365.72z M285.2,363.17
	h11.53c1.28,0,1.83-0.42,1.92-0.57l0.31-0.65l4.99-10.38c0,0,0,0,0,0c0.01,0-0.18-0.12-0.77-0.26l-10.29,0.02
	c-0.13,0.01-1.87,0.08-2.62,1.41l-5.22,9.19l0.01,0.01c-0.43,0.82-0.35,1.12-0.34,1.12C284.8,363.1,285.04,363.16,285.2,363.17z"/>
<path class="st2" d="M328.95,371.65c-4.79,0-8.22,0-8.68,0c-0.84-0.01-3.66-0.19-4.9-2.13c-0.51-0.8-0.93-2.19,0-4.28l13.85-23.74
	h12.9l-1.11,1.91c-0.43,0.74-10.16,17.69-10.91,19.21c-0.12,0.25-0.12,0.37-0.12,0.37c0.02-0.04,0.47,0.12,1.25,0.12
	c1.24-0.08,1.71-0.45,1.78-0.58l10.66-21.03h14.34l-11.74,21.56c0.22,0.06,0.51,0.1,0.74,0.11h1.72l10.38-21.66h14.31l-11.08,21.46
	c-0.87,2.4-0.5,3.45-0.3,3.79c0.21,0.34,0.51,0.43,0.51,0.43l1.8,0.25l-2.25,4.22L328.95,371.65z M330.68,344.05l-13.05,22.36
	c-0.19,0.45-0.44,1.25-0.12,1.74c0.41,0.64,1.73,0.95,2.78,0.96c0.45,0,3.88,0,8.66,0l31.71-0.13c-0.28-0.23-0.55-0.53-0.79-0.92
	c-0.86-1.43-0.81-3.49,0.16-6.11l9.23-17.89h-8.52l-10.38,21.66h-3.34c-0.56,0-2.4-0.12-3.14-1.39c-0.23-0.4-0.53-1.25,0.12-2.38
	l0.47-0.94l9.26-16.96h-8.49l-9.92,19.55c-0.3,0.81-1.48,1.88-3.75,2.05l-0.35,0.01c-1.16,0-2.71-0.25-3.44-1.42
	c-0.33-0.53-0.6-1.44,0.03-2.74c0.07-0.14,6.95-12.38,9.89-17.46H330.68L330.68,344.05z"/>
<path class="st3" d="M408.89,371.56c-2.11,0-3.1,0-3.1,0h-16.5l-7.45-7.69h18.71c2.52,0,3.6-1.09,4.02-1.77l1.89-3.94
	c1.51-2.85-2.43-2.85-2.43-2.85H389.7c-2.68,0-4.19,1.51-4.61,2.26l-7.82,13.99H373c0,0-9.38-0.08-6.61-5.03l13.15-23.11
	c4.36-7.62,13.65-7.7,13.65-7.7h47.11l-10.3,3.83l-4.65,9.07c-1.51,2.01-6.67,1.79-8.12,1.25c1.33,0.54,6.53,1.76,3.69,7.29
	l-5.03,9.8C415.29,369.05,412.49,371.56,408.89,371.56z M393.27,349.79h15.32c1.84,0,2.34-1.01,2.34-1.01l0.96-1.84
	c0.25-0.67,0.75-2.68-2.34-2.68h-13.48c0,0-3.26,0-4.86,2.6l-0.71,1.34C390.34,348.71,390.34,349.79,393.27,349.79z"/>
<path class="st3" d="M464.05,369.88l-0.98,1.69h-9.62h0.07c0,0-5.41-0.43-3.8-3.8l3.24-6.74v0.06c1.26-2.39-2.04-2.39-2.04-2.39
	h-12.01c-2.24,0-3.51,1.27-3.86,1.89l-1.2,2.17l0.07-0.06c-1.26,2.32,1.89,2.39,1.89,2.39h11.45l-6.25,6.46h-15.73
	c0,0-7.87-0.07-5.54-4.22l11.02-19.38c3.65-6.38,11.45-6.45,11.45-6.45h32.51l-10.88,21.21
	C460.89,368.4,464.05,369.88,464.05,369.88z M444.25,349.44c0,0-2.74,0-4.06,2.18l-0.21,0.35c-0.14,0.42-0.14,1.33,2.32,1.33h12.85
	c1.54,0,1.97-0.85,1.97-0.85l0.42-0.77c0.2-0.56,0.63-2.24-1.97-2.24L444.25,349.44L444.25,349.44z"/>
<path class="st3" d="M536.05,339.25l-17.81,10.1h-11.47l-12.09,24.73c-3.27,6.33,0.83,7.09,0.83,7.09l-1.04,1.61h-9.18
	c0,0-6.26-0.07-4.45-3.83l13.21-28.08c0.49-1.18-1.11-1.46-1.88-1.46h-2.71c0,0-2.71,0-4.04,2.15H474l2.09-3.68
	c3.55-6.26,11.34-6.34,11.34-6.34h35.21L536.05,339.25z"/>
<path class="st2" d="M583.36,329.71c-11.28-2.88-18.96,3.33-19.7,5.82c-0.74,2.5-6.96,2.59-9.01,3.48
	c-2.05,0.89-4.33,2.63-5.16,1.81c-0.73-0.74-1.38-1.61-1.6-2.98c-0.23-1.38,0.18-2.57,0.18-2.57s0.37,1.24,1.03,2.34
	c0.86,1.39,2.11,1.07,4.47-1.63c2.35-2.7,0.95-7.88,0.52-8.77c-1.14-2.37-6.79,0.18-12.02-1.1c-4.17-1.03-7.74-3.48-8.99-3.25
	c-1.25,0.25-1.16,5.4-1.16,5.4c-2.19-2.55-1.17-8.94-0.72-9.76c0.44-0.81,5.18,0.89,7.75,0.92c2.57,0.02,5.1-0.84,5.1-0.84
	c0.03-1.46,2.72-1.92,4.7-3.92c2-2.01-3.85-8.52-2.11-18.86c10.02,8.44,9.4,17.48,12.18,17.68c4.89,0.34,9.86-0.99,11.25-8.12
	c4.43-22.76-17.38-60.13-40.03-62.84c-4.66-0.56-10.27,1.2-10.13,5.81c-2.28-8.58,6.55-11.4,6.55-11.4s-8.85-10.17-10.65-34.79
	c-2.19-30.11,8.56-48.02,10.77-51.26c-13.8,36.45,1.57,69.19,20.26,25c-11.46,42.87,7.92,57.23,18.44,64.14
	c14.91,9.77,35.42,4.59,50.55-7.31c-15.72,14.54-28.65,42.63-13.76,58.1c15.62,16.23,38.55,2.07,57.6,9.97
	c11.77,4.12,18.17,14.48,18.33,23.43c-4.29-13.65-17.11-19.42-29.25-14.55c-10.62,4.26-16.95,20.63-40.51,23.37
	C599.41,334.07,587.12,330.67,583.36,329.71z"/>
<path class="st2" d="M660.88,297.31c-8.63-3.59-17.87-2.97-26.8-2.37c-3.4,0.23-6.66,0.44-9.77,0.44
	c-4.53-1.57-11.16-5.49-11.09-13.6c0.18-20.21,23.93-23.38,33.55-26.11c-9.58,0.69-30.72,4.99-39.8-7.54
	c4.79-8.44,10.6-15.24,13.87-19.45c-3.56,1.92-9.96,5.73-17.54,8.74c-0.18-15.75,21.86-26.77,21.86-26.77s-18.58,9.08-21.69,4.58
	c-6.38-9.22,22.57-28.06,22.57-28.06s-35.28,18.21-39.06,43.93c-3.86-2.85-9.17,0.01-9.59,3.53c4.28-2.06,7.83-1.18,10.95,6.79
	c-7.25,0.88-14.63-0.05-21.06-4.5c-27.27-18.85-21.66-44.85-18.05-68.8c-5.63,11.98-15.29,28.71-19.93,25.23
	c-4.85-3.64-8.05-14.41,0.3-47c-4.9,4.18-17.88,19.76-17.8,47.72c0.01,2.67,0.1,5.44,0.31,8.33c1.36,18.72,6.39,27.03,9.33,33
	c-3,2.11-5.32,4.73-5.32,9.42c0,2.92,2.17,6.21,5.05,8.22c0.36-1.13-0.72-8.51,8.42-6.87c8,1.43,16.96,7.38,24.41,17.62
	c8.13,11.14,12.95,24.57,12.95,35.23c0,1.98-0.17,3.86-0.52,5.62c-0.72,3.66-2.42,5.15-6.11,5.18c-0.29-0.64-0.63-1.42-0.63-1.42
	c-1.44-3.61-3.87-9.69-10.71-15.44l-4.94-4.15l-1.07,6.36c-0.27,1.59-0.38,3.11-0.38,4.52c0,4.75,1.25,8.54,2.15,11.26
	c0.18,0.53,0.37,1.15,0.52,1.66c-0.37,0.25-0.7,0.53-1.09,0.75c-0.76,0.44-1.78,1.08-2.58,2c-0.74,0.17-1.7,0.32-2.64,0.31
	c-0.74-0.01-2.16-0.3-3.3-0.55c-3.02-0.64-6.13-1.31-7.71,1.54c-1.03,1.86-0.87,11.07,1.29,13.08c1.73,1.62,4.75,2.74,4.75,2.74
	s-0.15-2.59,0.16-3.74c0.28-1.16,0-2.31,0.86-2.01c0.86,0.29,4.02,2.39,6.15,2.91c1.7,0.42,4.56,0.43,6.11,0.4
	c0,0,3.31-0.21,3.73-0.22c0.1,0.56,0.45,1.48,0.45,2.11c0,0.49-0.29,2.89-1.01,3.17c-0.73,0.29-2.16-3.17-2.16-3.17
	c-1.3,1.73-2.44,3.61-2.46,5.48c-0.03,2.52,0.81,4.84,1.73,5.78c2.53,2.56,5.07,1.01,7.01-0.05l1.53-0.76c0.01,0,2.1-0.47,2.1-0.47
	c3.25-0.63,7.64-1.47,8.9-5.14c0.77-1.4,6.53-5.77,15.35-3.51c0.01,0,0.76,0.19,0.76,0.19c4.93,1.28,16.47,4.27,25.44,3.23
	c16.49-1.93,25.13-10,32.06-16.49c3.38-3.15,6.31-5.9,9.4-7.14c4.93-1.98,11.61-2.98,16.03-0.89c4.62,2.18,9.08,6.21,11.68,15.73
	C679.56,322.44,681.87,304.41,660.88,297.31z"/>
<path class="st1" d="M569.93,326.45c10.98-5.87,19.15,3.32,37.79-4.34c15.09-6.19,18.87-18.22,33.97-22.98
	c1.01-0.32,2.02-0.57,3.02-0.76c-15.06,0.2-31.17,4.36-42.64-7.56c-14.89-15.48-1.55-42.52,11.58-56.08
	c-15.15,10.25-33.47,15.07-48.37,5.3c-10.53-6.91-29.01-21.25-19.06-62.07c-17.31,40.39-32.6,10.24-20.49-24.38
	c-2.2,3.24-12.11,18.45-9.92,48.56c1.8,24.61,10.65,34.79,10.65,34.79s-8.83,2.81-6.55,11.4c-0.14-4.61,5.47-6.37,10.13-5.81
	c22.65,2.71,44.46,40.08,40.03,62.84c-1.39,7.13-6.36,8.46-11.25,8.12c-2.78-0.19-2.16-9.24-12.18-17.68
	c-1.74,10.34,4.11,16.84,2.11,18.86c-1.98,2-4.67,2.46-4.7,3.92c0,0-2.53,0.86-5.1,0.84c-2.57-0.02-7.31-1.73-7.75-0.92
	c-0.45,0.81-1.47,7.2,0.72,9.76c0,0-0.09-5.15,1.16-5.4c1.25-0.23,4.81,2.22,8.99,3.25c5.22,1.27,10.88-1.27,12.02,1.1
	c0.43,0.89,1.83,6.07-0.52,8.77c-2.36,2.71-3.61,3.03-4.47,1.63c-0.66-1.1-1.03-2.34-1.03-2.34s-0.41,1.2-0.18,2.57
	c0.23,1.37,0.87,2.24,1.6,2.98c0.83,0.83,3.1-0.92,5.16-1.81c2.05-0.89,8.27-0.98,9.01-3.48c0.12-0.4,0.44-0.9,0.9-1.44
	C565.21,331.68,566.69,328.18,569.93,326.45z"/>
<polygon class="st2" points="625.75,284.83 623.42,284.83 623.42,283.91 629.06,283.91 629.06,284.83 626.73,284.83 626.73,291.14 
	625.75,291.14 "/>
<polygon class="st2" points="630.03,283.91 631.49,283.91 633.79,289.38 633.83,289.38 636.11,283.91 637.57,283.91 637.57,291.14 
	636.59,291.14 636.59,285.2 636.57,285.2 634.13,291.14 633.47,291.14 631.03,285.2 631.01,285.2 631.01,291.14 630.03,291.14 "/>
<path class="st2" d="M228.47,336.28h-35.31c-0.38,0.01-9.23,0.25-13.5,7.64l-4.26,7.31c-0.49,0.83-0.66,1.55-0.66,2.17
	c0,0.63,0.18,1.13,0.39,1.52c1.44,2.57,6.39,2.8,7.37,2.8c0,0,2.24,0,2.88,0c-0.34,0.15-39.86,17.65-39.86,17.65l29.34-3.95
	l26.88,0.01c0.39,0,9.49-0.08,13.54-7.6l4.34-8.01c0.45-0.83,0.62-1.55,0.62-2.16c0-0.68-0.2-1.23-0.44-1.63
	c-1.5-2.55-6.29-2.72-7.24-2.74h-19.52c-0.52,0-0.84-0.05-1.06-0.1c0.29-0.58,0.66-1.31,0.66-1.31c0.94-1.62,3.26-1.66,3.29-1.66
	h12.8c0.27,0,0.47,0.08,0.68,0.16c-0.08,0.13-1.3,2.21-1.3,2.21h11.37c4.27,0,6.42-3.69,6.51-3.84c0.01-0.02,4.63-8.47,4.63-8.47
	h-2.14L228.47,336.28L228.47,336.28z M186.17,359.84c0,0,0.58-1.18,1.05-2.11c5.25,0,13.29,0,16.05,0c-0.4,0.71-0.82,1.44-0.82,1.44
	c-0.96,1.7-3.2,1.72-3.29,1.72h-12.75c-0.28,0-0.48-0.08-0.69-0.16C185.92,360.35,186.17,359.84,186.17,359.84z M226.33,338.82
	c-1.05,1.92-2.56,4.69-2.56,4.69c-0.05,0.07-1.52,2.54-4.29,2.54c0,0-5.01,0-7.34,0c-0.02-0.42-0.14-0.83-0.4-1.18
	c-0.87-1.12-2.66-1.19-3.01-1.19h-12.81c-0.15,0-3.8,0.03-5.52,3c-0.04,0.07-1.11,2.21-1.11,2.21l-0.03,0.19
	c-0.1,0.63,0.07,1.22,0.47,1.7c0.61,0.73,1.69,1.08,3.3,1.08h19.51c1.69,0.02,4.48,0.5,5.05,1.48c0.17,0.29,0.09,0.71-0.22,1.28
	c0,0.01-4.35,8.01-4.35,8.01c-3.32,6.17-11.22,6.27-11.3,6.27h-27.04c-0.09,0.01-6.24,0.83-11.81,1.58
	c7.89-3.49,17.33-7.68,20.26-8.97c0.06,0.26,0.09,0.52,0.24,0.74c0.86,1.13,2.68,1.19,3.04,1.19h12.73c0.13,0.01,3.8,0.06,5.53-3.01
	l2.97-5.24h-25.12c-1.82-0.04-4.65-0.58-5.17-1.51c-0.04-0.08-0.07-0.17-0.07-0.29c0-0.23,0.1-0.52,0.31-0.87
	c0-0.01,4.27-7.32,4.27-7.32c3.54-6.12,11.25-6.37,11.34-6.38C193.25,338.82,222.55,338.82,226.33,338.82z"/>
<g>
	<g>
		<g>
			<polyline class="st4" points="692.52,92.23 677.86,107.85 664.51,107.85 661.96,119.93 646.07,136.47 638.44,130.11 
				632.08,135.19 616.81,116.75 609.82,128.83 582.48,147.28 547.7,128.58 516.98,146.64 506.8,135.19 472.46,115.77 455.92,121.2 
				435.2,108.23 412.05,121.2 394.08,120.57 353.54,136.47 324.29,121.84 316.66,123.75 292.73,107.1 207.91,113.57 184.38,112.94 
				141.78,105.31 98.01,90.41 91.54,80.5 80.09,83.05 68.65,56.34 43.84,55.07 9.5,44.89 0,52.65 			"/>
			<polyline class="st4" points="292.25,107.89 291.42,116.33 286.26,119.69 285.48,130.28 295.04,120.98 297.11,124.6 
				297.36,133.89 303.56,134.41 304.59,139.58 316.99,145.52 300.76,123.11 292.49,107.21 278.5,112.94 259.42,125.02 
				234.62,156.81 			"/>
			<polyline class="st4" points="0,65.23 32.4,104.67 50.2,107.85 78.7,130.13 104.46,134.93 132.87,123.75 163.4,151.09 
				177.39,150.46 205.37,174.62 216.18,168.26 225.87,167.56 234.64,156.79 244.27,171.4 254.34,175.26 275.96,199.42 
				296.31,185.43 310.39,164.61 330.65,177.16 341.46,190.52 355.45,177.8 383.43,187.34 391.7,186.7 416.15,206.19 			"/>
			<polyline class="st4" points="316.66,123.75 332.56,139.01 349.09,139.64 368.17,154.91 387.88,168.9 401.87,170.17 
				420.31,191.79 427.77,198.83 			"/>
			<polyline class="st4" points="516.98,146.64 491.54,163.18 483.27,173.35 456.56,175.89 433.03,195.61 411.41,208.96 
				400.6,209.59 392.97,218.5 370.08,226.13 323.65,226.13 296.94,228.67 289.31,222.95 249.25,238.22 235.26,240.12 219.36,240.76 
				194.56,261.11 176.12,271.92 			"/>
			<polyline class="st4" points="103.49,161.44 128.42,159.99 147.5,167.62 238.51,201.47 277.65,227.3 			"/>
			<polyline class="st4" points="141.59,105.3 120.95,100.84 134.64,114.52 156.08,111.68 174.94,121.24 184.24,113.23 
				201.8,117.11 207.91,113.57 235.37,114.52 292.25,107.41 279.14,121.2 276.26,141.18 264.51,163.81 256.24,177.16 			"/>
			<polyline class="st4" points="483.27,173.35 467.37,165.72 473.73,156.81 464.19,144.1 476.27,131.38 472.46,115.77 
				500.42,148.07 508.94,151.75 			"/>
			<polyline class="st4" points="19.52,48.07 47.15,61.98 80.09,83.05 90.72,84.82 118.63,108.07 132.87,123.75 179.3,144.1 
				205.37,153.64 227.63,147.84 237.8,152.36 			"/>
			<polyline class="st4" points="23.32,184 0,208.96 27.31,191.16 45.11,167.62 73.1,158.72 73.95,145 			"/>
			<polyline class="st4" points="0,134.97 17.2,123.11 26.69,124.63 40.66,119.3 27.19,135.14 15.67,134.97 0,147.84 26.18,142.24 
				13.32,161.27 27.31,156.18 35.58,156.18 53.38,142.82 74.37,144.73 59.11,139.01 49.57,129.47 47.19,120.53 40.66,119.3 
				32.4,104.67 45.75,114.84 77.55,141.55 103.62,161.27 96.63,168.26 75.64,180.98 83.91,194.97 70.55,214.68 72.46,235.04 
				40.03,260.47 40.47,244.18 46.07,232.03 34.94,243.94 25.4,255.39 26.04,242.66 36.85,226.13 25.75,232.98 22.86,228.67 
				0,240.34 10.77,214.05 31.76,203.24 52.11,184.16 43.37,203.39 11.18,214.48 44.24,208.54 32.11,223.78 50.7,212.15 
				47.26,223.65 56.12,215.51 65.43,224.67 66.2,232.3 72.14,235.4 			"/>
			<polyline class="st4" points="263.24,217.87 234.62,212.77 206.64,208.33 175.48,230.26 166.58,226.13 153.86,229.95 
				164.72,223.34 172.77,224.01 193.9,207.58 220.06,205.9 244.21,209.93 219.15,196.35 			"/>
			<polyline class="st4" points="70.55,214.68 80.66,216.03 97.9,207.69 86.86,221.97 80.66,216.03 83.91,194.97 97.9,207.69 
				104.26,232.49 111.25,238.22 112.53,251.57 125.24,249.66 134.78,260.47 133.61,269.75 115.01,280.09 116.31,272.34 
				101.84,281.38 105.46,271.82 99,271.05 93.83,266.91 77.82,277.5 87.38,258.65 71.62,242.89 62.07,258.39 39.74,260.95 			"/>
			<polyline class="st4" points="107.78,195.37 114.76,185.04 131.55,193.82 140.07,203.63 144.96,216.59 135.33,212.51 
				105.53,172.71 96.9,168.5 84.28,195.63 			"/>
			<polyline class="st4" points="582.48,147.28 598.97,152.77 609.25,148.66 615.42,160.31 629.12,167.85 636.66,150.72 
				661.33,146.61 679.14,129.48 687.37,117.83 685.31,99.93 			"/>
			<polyline class="st4" points="547.7,128.58 535.93,148.66 546.89,154.14 561.28,152.77 576.36,168.53 592.12,180.87 
				605.14,183.61 615.42,198 653.11,215.82 			"/>
			<polyline class="st4" points="561.28,152.77 577.04,176.76 577.04,185.67 606.51,203.48 616.79,221.3 653.79,243.23 
				677.09,245.97 692.52,237.74 			"/>
			<polyline class="st4" points="677.09,245.97 642.14,272.7 612.77,282.9 			"/>
			<polyline class="st4" points="572.5,333.22 553.69,351.5 546.15,368.63 501.92,395.69 			"/>
			<polyline class="st4" points="601.66,335.05 585.9,352.18 596.18,358.35 568.77,373.43 535.87,385.08 530.33,395.69 			"/>
			<polyline class="st4" points="131.92,376.79 54.83,364.52 100.8,395.69 131.92,376.79 157.49,332.4 168.83,318.4 188.13,319.61 
				200.91,311.89 224.8,313.34 246.7,296.68 226.14,305.59 194.62,307.64 156.93,319.98 117.19,330.26 98.68,351.5 54.83,364.52 
				11.48,395.69 			"/>
		</g>
		<polyline class="st4" points="68.65,56.34 65.28,65.19 44.31,55.43 47.15,61.98 		"/>
		<polyline class="st4" points="48.03,62.63 65.28,65.19 80.22,83.13 91.23,91.77 		"/>
		<line class="st4" x1="91.54" y1="80.5" x2="90.72" y2="84.82"/>
		<polyline class="st4" points="91.23,91.77 76.66,85.67 91.74,101.76 		"/>
		<line class="st4" x1="33.3" y1="55.38" x2="53.62" y2="78.21"/>
		<line class="st4" x1="33.69" y1="62.36" x2="48.03" y2="62.8"/>
		<line class="st4" x1="19.84" y1="48.23" x2="23.47" y2="53.82"/>
		<polygon class="st4" points="50.07,107.25 49.43,94.62 42.95,98.88 		"/>
		<line class="st4" x1="15.51" y1="79.4" x2="28.03" y2="82.64"/>
		<line class="st4" x1="28.04" y1="92.28" x2="21.77" y2="91.43"/>
		<polyline class="st4" points="49.72,93.95 78.18,129.47 82.21,118.14 49.67,107.29 		"/>
		<polyline class="st4" points="104.89,134.56 72.35,110.46 95.46,101.97 		"/>
		<polyline class="st4" points="72.35,110.46 98.68,112.27 79.43,101.5 		"/>
		<path class="st4" d="M111.56,121.24"/>
		<polyline class="st4" points="111.49,121.3 104.62,134.29 98.68,112.27 		"/>
		<polygon class="st4" points="32.78,104.98 28.04,91.6 42.95,98.88 		"/>
		<polyline class="st4" points="72.93,110.57 111.39,121.41 119.65,128.21 119.5,121.77 111.49,121.3 114.79,112.34 98.76,112.34 
			95.46,101.97 79.43,101.5 72.35,110.46 49.72,93.95 28.04,91.09 28.03,82.64 0,65.17 15.78,79.69 27.86,91.78 		"/>
		<polyline class="st4" points="49.57,129.47 47.01,133.95 35.16,135.14 26.18,142.42 15.67,134.97 17.35,123.54 26.98,134.64 
			26.69,124.63 		"/>
		<line class="st4" x1="26.84" y1="124.86" x2="46.85" y2="133.69"/>
		<polyline class="st4" points="33.78,127.71 47.02,121.2 47.01,133.95 		"/>
		<polyline class="st4" points="33.41,127.92 35.16,135.14 27.19,135.14 26.18,142.24 35.58,156.18 		"/>
		<polyline class="st4" points="58.82,138.95 46.77,133.91 35.58,156.18 35.31,135.08 		"/>
		<line class="st4" x1="27.31" y1="156.18" x2="26.25" y2="142.61"/>
		<polyline class="st4" points="15.52,135.01 0,134.86 0,147.86 12.82,161.66 		"/>
		<polyline class="st4" points="35.21,135.7 42.7,141.9 53.38,142.82 59.11,139.01 		"/>
		<polyline class="st4" points="28.03,82.64 21.52,84.82 22.02,91.56 15.45,79.22 		"/>
		<polyline class="st4" points="82.21,117.88 99.78,118.4 114.06,112.85 		"/>
		<polyline class="st4" points="119.5,121.77 116.82,125.89 104.44,134.46 		"/>
		<polyline class="st4" points="100.55,118.4 94.87,126.92 78.7,129.65 		"/>
		<line class="st4" x1="76.66" y1="85.67" x2="77.31" y2="93.86"/>
		<line class="st4" x1="76.53" y1="86.37" x2="80.22" y2="83.13"/>
		<polyline class="st4" points="53.38,142.82 60.78,152.49 73.1,158.72 		"/>
		<polyline class="st4" points="60.78,152.49 35.58,156.18 45.11,167.62 60.78,152.49 73.69,144.74 		"/>
		<polyline class="st4" points="45.11,167.62 23.32,184 27.31,191.16 		"/>
		<polyline class="st4" points="31.76,203.24 43.21,203.12 40.89,194.85 		"/>
		<polyline class="st4" points="22.86,228.67 25.65,218.1 16.61,221.45 4.86,232.91 22.86,228.67 11.36,214.59 25.39,217.58 
			44.24,208.54 		"/>
		<polyline class="st4" points="25.65,218.1 32.11,223.78 26.04,231.85 25.39,217.58 		"/>
		<polyline class="st4" points="0,240.76 11.96,240.31 7.05,248.32 14.8,248.32 15.83,260.2 7.04,271.06 0,267.06 		"/>
		<polyline class="st4" points="10.93,240.57 0,246.25 7.05,248.32 15.83,260.2 		"/>
		<polyline class="st4" points="14.8,248.32 11.7,254.51 0,256.58 6.79,270.01 11.7,254.51 		"/>
		<line class="st4" x1="0" y1="256.58" x2="7.05" y2="248.32"/>
		<polyline class="st4" points="26.04,242.66 45.75,231.85 36.85,226.13 50.45,212.93 		"/>
		<polyline class="st4" points="46.07,232.35 47.03,224.03 64.91,224.81 58.19,245.99 41.3,243.94 52.77,234.11 47.6,224.55 
			66.2,232.3 58.19,245.99 		"/>
		<polyline class="st4" points="62.07,258.39 58.19,245.99 52.77,234.11 63.1,230.75 		"/>
		<polyline class="st4" points="72.4,235.14 103.82,232.83 87.38,258.65 112.2,251.83 105.46,271.82 134.48,260.55 		"/>
		<polyline class="st4" points="125.24,249.66 116.31,272.34 133.61,269.75 118.63,266.91 112.34,251.56 		"/>
		<polyline class="st4" points="100.81,261.23 87.38,258.65 93.83,266.91 100.81,261.23 99,271.05 		"/>
		<line class="st4" x1="80.66" y1="216.03" x2="72.66" y2="234.11"/>
		<line class="st4" x1="86.86" y1="221.97" x2="87.38" y2="258.65"/>
		<polyline class="st4" points="87.12,233.86 112.2,251.69 100.81,261.23 105.46,271.82 116.31,272.34 		"/>
		<polyline class="st4" points="86.86,234.11 71.62,242.89 72.4,235.14 86.86,221.97 104.26,232.49 		"/>
		<line class="st4" x1="98.38" y1="241.9" x2="111.25" y2="238.22"/>
		<polyline class="st4" points="75.76,181.42 86.86,188.65 108.14,215.07 114.06,209.15 124.83,212.42 125.09,206.22 134.78,212.14 
			131.55,200.28 131.55,193.82 		"/>
		<polyline class="st4" points="96.63,168.26 113.41,165.8 118.37,174.97 113.21,174.97 105.53,172.71 		"/>
		<polyline class="st4" points="113.21,174.97 113.21,166.44 105.72,172.9 107.78,195.37 		"/>
		<polyline class="st4" points="139.29,202.86 131.55,200.28 115.79,186.33 		"/>
		<line class="st4" x1="131.55" y1="200.28" x2="143.94" y2="215.52"/>
		<polyline class="st4" points="97.9,207.69 107.52,214.22 101.58,199.5 124.93,206.27 107.78,195.37 113.47,208.28 87.38,189.17 
			107.78,195.37 96.78,168.2 		"/>
		<polyline class="st4" points="9.5,44.89 23.47,53.82 33.11,55.1 33.69,62.36 54.47,79.23 47.86,62.46 76.66,85.67 67,88.04 
			91.5,101.5 91.23,91.77 98.01,90.75 120.95,100.84 118.37,108.33 		"/>
		<polyline class="st4" points="134.64,114.52 132.77,123.09 120.95,100.84 		"/>
		<polyline class="st4" points="177.78,143.45 154.79,123.82 132.87,123.75 156.08,111.68 179.3,144.1 174.94,121.24 200.51,134.93 
					"/>
		<line class="st4" x1="154.79" y1="123.82" x2="156.08" y2="111.68"/>
		<polyline class="st4" points="163.57,151.2 179.3,144.1 177.39,150.46 		"/>
		<polyline class="st4" points="205.37,174.62 179.3,144.1 199.99,134.15 		"/>
		<polyline class="st4" points="259.65,125.37 235.47,114.93 227.63,147.91 199.99,134.41 201.8,117.11 235.37,114.78 		"/>
		<polyline class="st4" points="258.62,125.11 241.31,129.76 238.19,152.04 		"/>
		<polyline class="st4" points="199.99,134.41 216.52,125.11 235.15,115.09 241.31,129.76 227.63,147.59 216.01,124.6 
			207.91,113.57 		"/>
		<polyline class="st4" points="216.26,168.51 205.37,153.64 204.9,173.93 		"/>
		<line class="st4" x1="201.8" y1="117.11" x2="216.26" y2="125.37"/>
		<line class="st4" x1="241.31" y1="129.76" x2="247.77" y2="139.32"/>
		<polyline class="st4" points="278.5,112.94 259.94,111.73 259.42,125.02 		"/>
		<line class="st4" x1="276.26" y1="141.18" x2="269.99" y2="118.66"/>
		<polyline class="st4" points="254.34,175.26 264.51,163.81 269.99,118.66 279.14,121.2 278.25,113.23 285.74,114.52 		"/>
		<polyline class="st4" points="184.24,113.23 199.99,134.41 205.37,153.64 225.72,166.99 227.63,147.84 234.64,156.79 
			259.3,147.57 244.8,170.8 264.51,163.81 259.78,147.08 		"/>
		<polyline class="st4" points="302.01,142.93 297.88,154.82 286.26,146.29 		"/>
		<polyline class="st4" points="288.58,158.95 276.96,175.74 275.93,198.72 		"/>
		<polyline class="st4" points="256.81,176.77 276.96,175.74 265.08,163.08 288.58,158.95 286.26,146.29 302.01,142.93 
			310.3,164.45 297.88,154.82 296.31,185.43 288.58,158.95 297.88,154.82 		"/>
		<line class="st4" x1="276.96" y1="175.74" x2="296.31" y2="185.43"/>
		<polyline class="st4" points="286.26,119.69 290.39,120.72 285.48,130.28 		"/>
		<polygon class="st4" points="295.04,120.98 297.05,116.53 291.42,116.33 290.39,120.72 		"/>
		<line class="st4" x1="295.04" y1="120.98" x2="291.42" y2="116.33"/>
		<polyline class="st4" points="297.36,117.11 297.11,124.6 300.72,124.08 297.88,133.38 		"/>
		<polyline class="st4" points="297.69,133.65 303.82,128.47 303.56,134.41 308.47,134.93 304.86,139.58 		"/>
		<polyline class="st4" points="328.08,226.27 347.99,212.67 346.48,220.83 359.09,213.96 362.97,218.61 382.34,212.67 
			387.25,215.77 400.57,209.7 		"/>
		<line class="st4" x1="166.73" y1="180.75" x2="178.52" y2="179.24"/>
		<polyline class="st4" points="128.42,159.99 167.74,181.08 238.17,201.88 244.21,209.93 261.82,217.21 		"/>
		<line class="st4" x1="193.9" y1="207.58" x2="206.64" y2="208.33"/>
		<polyline class="st4" points="166.58,226.13 172.77,224.01 175.48,229.31 184.51,215.29 206.64,208.33 220.06,205.9 
			261.42,217.21 		"/>
		<polyline class="st4" points="310.3,164.45 320.34,159.96 332.41,153.58 337.44,160.96 347.5,157.94 355.88,161.3 375.67,170.69 
			367.62,171.36 368.63,175.72 356.22,167 357.56,174.04 345.82,165.66 341.8,173.04 342.81,181.42 341.46,190.52 332.07,202.55 
			333.75,207.91 332.07,212.27 		"/>
		<polyline class="st4" points="342.81,181.42 331.4,177.06 337.36,161.48 341.46,174.04 331.12,177 332.41,153.58 		"/>
		<polygon class="st4" points="356.22,167 347.76,158.76 345.82,165.66 		"/>
		<polygon class="st4" points="367.62,171.36 357.23,167.34 361.59,164.32 		"/>
		<polyline class="st4" points="357.04,185.48 360.08,180.04 362.26,186.12 369.97,189.47 378.15,186.12 376.23,191.72 
			369.97,189.14 368.96,196.85 		"/>
		<line class="st4" x1="370.31" y1="189.8" x2="359.91" y2="179.41"/>
		<polyline class="st4" points="355.45,177.8 356.89,185.45 362.26,186.12 368.96,196.85 383.43,187.34 386.74,191.48 
			384.39,197.52 392.77,193.49 391.59,187.4 386.74,191.48 		"/>
		<line class="st4" x1="392.77" y1="193.49" x2="386.74" y2="191.48"/>
		<polyline class="st4" points="387.88,168.9 393.11,176.72 409.88,186.45 399.48,174.04 407.01,176.15 		"/>
		<polyline class="st4" points="393.11,176.72 399.48,174.04 388.71,169.64 		"/>
		<line class="st4" x1="399.48" y1="174.04" x2="401.87" y2="170.17"/>
		<polyline class="st4" points="399.63,174.41 409.88,186.45 420.31,191.79 		"/>
		<polyline class="st4" points="391.7,186.7 410.63,208.03 409.88,201.2 		"/>
		<polyline class="st4" points="387.25,215.77 370.08,226.13 363.26,218.65 358.57,226.02 345.92,221.45 329.39,226.02 		"/>
		<line class="st4" x1="363.26" y1="218.65" x2="345.92" y2="221.45"/>
		<line class="st4" x1="370.08" y1="226.13" x2="382.34" y2="212.67"/>
		<polyline class="st4" points="347.92,212.67 371.31,201.54 359.09,213.96 		"/>
		<line class="st4" x1="333.75" y1="207.91" x2="341.46" y2="190.52"/>
		<polyline class="st4" points="226.65,305.59 225.31,313.34 195.13,307.64 201.43,311.89 		"/>
		<polyline class="st4" points="158,332.4 151.73,328.05 118.2,329.98 		"/>
		<polyline class="st4" points="151.97,328.05 99.86,351.21 132.43,376.79 151.97,328.3 145.7,322.99 200.71,311.65 		"/>
		<line class="st4" x1="151.97" y1="328.05" x2="169.34" y2="318.4"/>
		<path class="st4" d="M73.91,68.22c10.05-0.91,30.32,11.92,38.54,8.26c8.22-3.65,10.05-2.74,16.45-0.91
			c6.39,1.83,17.36,2.74,17.36,2.74s10.96,3.65,22.84,0s16.45-9.14,36.55-2.74s21.02,16.45,27.41,12.79
			c6.39-3.65,8.22-5.48,14.62-3.65c6.39,1.83,13.7,2.74,18.27,0c4.57-2.74,12.79-2.74,18.27-1.83c5.48,0.91,17.36,0.91,26.5-4.57
			c9.14-5.48,48.42-19.19,90.45-11.88c21.9,3.81,42.03,21.02,47.51,19.19s17.36-4.57,26.5-1.83c9.14,2.74,10.96,4.57,15.53,0.91
			c4.57-3.65,11.88-6.39,16.45-3.65c4.57,2.74,11.88,3.65,19.19,2.74c7.31-0.91,35.64-1.83,42.03-0.91
			c6.39,0.92,23.75,8.22,36.55,1.83c12.79-6.39,32.64-16.57,52.08-14.62c19.23,1.93,30.69,4.56,35.53,3.64"/>
		<path class="st4" d="M692.52,85.99c-10.9,1.09-26.95,4.66-33.7,3.24c-8.22-1.73-10.05-1.3-16.45-0.43
			c-6.4,0.86-17.36,1.3-17.36,1.3s-10.96,1.73-22.84,0c-11.88-1.73-16.45-4.33-36.55-1.3c-20.1,3.03-21.02,7.79-27.41,6.06
			c-6.4-1.73-8.23-2.6-14.62-1.73c-6.39,0.87-13.7,1.3-18.27,0c-4.57-1.3-12.79-1.3-18.27-0.86s-17.36,0.43-26.5-2.16
			c-9.14-2.6-48.42-9.09-90.45-5.63c-21.9,1.8-42.03,9.95-47.51,9.09c-5.48-0.87-17.36-2.16-26.5-0.86
			c-9.14,1.3-10.96,2.16-15.53,0.43c-4.57-1.73-11.88-3.03-16.45-1.73c-4.57,1.3-11.88,1.73-19.19,1.3
			c-7.31-0.43-35.63-0.87-42.03-0.43c-6.39,0.43-23.75,3.89-36.55,0.86c-12.79-3.03-32.89-8.65-52.08-6.92s-25.58,2.16-30.15,1.3
			c-4.57-0.87-4.57-2.16-7.31-1.3"/>
	</g>
	<line class="st4" x1="49.15" y1="395.69" x2="54.83" y2="364.52"/>
	<path class="st4" d="M100.8,395.69"/>
	<line class="st4" x1="0" y1="267.06" x2="0" y2="256.58"/>
	<path class="st4" d="M0,246.42"/>
</g>
<path class="st3" d="M660.37,300.65c-4.9-1.92-10.21-2.36-15.66-2.29c-1,0.2-2.01,0.45-3.02,0.76
	c-15.1,4.76-18.87,16.78-33.97,22.98c-18.64,7.67-26.81-1.53-37.79,4.34c-3.25,1.74-4.72,5.23-5.38,7.65
	c2.42-2.82,9.34-6.8,18.81-4.38c3.76,0.96,16.05,4.36,24.87,3.32c23.56-2.75,29.9-19.12,40.51-23.37
	c12.13-4.87,24.2-1.88,28.5,11.77C676.67,311.9,672.13,304.77,660.37,300.65z"/>
</svg>
