<?xml version="1.0" encoding="utf-8"?>
<!-- Generator: Adobe Illustrator 23.1.1, SVG Export Plug-In . SVG Version: 6.00 Build 0)  -->
<svg version="1.1" id="Layer_1" xmlns="http://www.w3.org/2000/svg" xmlns:xlink="http://www.w3.org/1999/xlink" x="0px" y="0px"
	 viewBox="0 0 595.44 841.89" style="enable-background:new 0 0 595.44 841.89;" xml:space="preserve">
<style type="text/css">
	.st0{fill:#F05123;}
	.st1{fill:#BDBEC0;}
	.st2{fill:#231F20;}
	.st3{fill:none;stroke:#BDBEC0;stroke-width:0.75;}
	.st4{fill:none;}
	.st5{fill:#FFFFFF;}
</style>
<rect x="380" y="90.69" class="st0" width="197.39" height="5.72"/>
<rect x="423.69" y="90.69" class="st1" width="16.35" height="5.72"/>
<g>
	<path class="st2" d="M155.79,829.12c0.91,0,1.31-0.2,1.31-0.76c0-0.56-0.41-0.8-1.36-0.8c-0.59,0-1.22,0.08-1.91,0.24l0.2-2.06
		h3.14l-0.04,0.52h-2.6l-0.13,0.94c0.48-0.1,0.95-0.16,1.43-0.16c1.31,0,1.94,0.42,1.94,1.33c0,0.96-0.66,1.31-2.1,1.31
		c-0.56,0-1.1-0.07-1.66-0.18l-0.19-0.62C154.58,829.04,155.25,829.12,155.79,829.12z"/>
	<path class="st2" d="M162.71,826.26h-2.82v0.91l-0.58-0.11v-1.31h4.04v0.5l-2.13,3.44h-0.75L162.71,826.26z"/>
	<path class="st2" d="M167.8,825.74h3.12c0.56,0,0.82,0.21,0.82,0.75v0.45c0,0.32-0.1,0.59-0.65,0.66c0.43,0.05,0.67,0.32,0.67,0.76
		v0.49c0,0.52-0.36,0.76-1.07,0.76h-2.89L167.8,825.74L167.8,825.74z M171.09,826.6c0-0.28-0.12-0.34-0.4-0.34h-2.24v1.07h2.24
		c0.28,0,0.4-0.08,0.4-0.35V826.6z M171.12,828.3c0-0.36-0.11-0.47-0.43-0.47h-2.24v1.25h2.24c0.32,0,0.43-0.1,0.43-0.46V828.3z"/>
	<path class="st2" d="M173.55,825.74h3.73v0.52h-3.09v1.08h1.88v0.51h-1.88v1.23h3.12v0.53h-3.76V825.74z"/>
	<path class="st2" d="M179.44,826.27v2.81h2.69v-0.97l0.65,0.14v0.46c0,0.72-0.2,0.92-0.9,0.92h-2.17c-0.7,0-0.91-0.2-0.91-0.92
		v-2.04c0-0.71,0.21-0.92,0.91-0.92h2.17c0.7,0,0.9,0.2,0.9,0.92v0.37l-0.65,0.12v-0.88L179.44,826.27L179.44,826.27z"/>
	<path class="st2" d="M184.47,825.74h0.65v1.66l2.42-1.66h0.95l-2.81,1.85l3.12,2.02h-1.08l-2.59-1.74v1.74h-0.65L184.47,825.74
		L184.47,825.74z"/>
	<path class="st2" d="M189.94,825.74h3.73v0.52h-3.09v1.08h1.88v0.51h-1.88v1.23h3.12v0.53h-3.76L189.94,825.74L189.94,825.74z"/>
	<path class="st2" d="M195.23,825.74h0.4l2.9,2.59c0.13,0.12,0.29,0.28,0.44,0.49c-0.06-0.36-0.06-0.68-0.06-0.95v-2.12h0.59v3.87
		h-0.36l-2.98-2.7c-0.11-0.1-0.26-0.22-0.39-0.44c0.04,0.28,0.04,0.56,0.04,0.85v2.28h-0.59L195.23,825.74L195.23,825.74z"/>
	<path class="st2" d="M201.52,825.74h3.12c0.56,0,0.82,0.21,0.82,0.75v0.86c0,0.54-0.26,0.75-0.82,0.75h-0.57l1.77,1.51h-0.96
		l-1.58-1.51h-1.14v1.51h-0.65L201.52,825.74L201.52,825.74z M202.16,826.24v1.36h2.22c0.29,0,0.42-0.07,0.42-0.4v-0.56
		c0-0.32-0.13-0.4-0.42-0.4L202.16,826.24L202.16,826.24z"/>
	<path class="st2" d="M207.23,825.74h0.65v3.87h-0.65V825.74z"/>
	<path class="st2" d="M213.51,826.04c0.5,0.32,0.8,0.92,0.8,1.61c0,0.73-0.3,1.33-0.8,1.66c-0.35,0.23-0.83,0.3-1.49,0.3h-2.13
		v-3.87h2.13C212.67,825.74,213.15,825.82,213.51,826.04z M210.53,826.27v2.81h1.4c1.16,0,1.72-0.32,1.72-1.42
		c0-1.05-0.57-1.39-1.72-1.39H210.53z"/>
	<path class="st2" d="M216.54,826.27v2.81h3.03v-1.13H218v-0.5h2.21v1.25c0,0.71-0.21,0.92-0.91,0.92h-2.51
		c-0.69,0-0.91-0.2-0.91-0.92v-2.04c0-0.72,0.22-0.92,0.91-0.92h2.51c0.67,0,0.91,0.19,0.91,0.87c0,0.03,0,0.07,0,0.1l-0.65,0.13
		v-0.57L216.54,826.27L216.54,826.27z"/>
	<path class="st2" d="M222.07,825.74h3.73v0.52h-3.09v1.08h1.88v0.51h-1.88v1.23h3.12v0.53h-3.76L222.07,825.74L222.07,825.74z"/>
	<path class="st2" d="M233.79,826.04c0.5,0.32,0.8,0.92,0.8,1.61c0,0.73-0.3,1.33-0.8,1.66c-0.35,0.23-0.83,0.3-1.49,0.3h-2.13
		v-3.87h2.13C232.96,825.74,233.44,825.82,233.79,826.04z M230.82,826.27v2.81h1.4c1.16,0,1.72-0.32,1.72-1.42
		c0-1.05-0.57-1.39-1.72-1.39H230.82z"/>
	<path class="st2" d="M236.23,825.74h3.12c0.56,0,0.82,0.21,0.82,0.75v0.86c0,0.54-0.26,0.75-0.82,0.75h-0.57l1.77,1.51h-0.96
		l-1.58-1.51h-1.14v1.51h-0.65L236.23,825.74L236.23,825.74z M236.88,826.24v1.36h2.22c0.29,0,0.42-0.07,0.42-0.4v-0.56
		c0-0.32-0.13-0.4-0.42-0.4L236.88,826.24L236.88,826.24z"/>
	<path class="st2" d="M241.95,825.74h0.65v3.87h-0.65V825.74z"/>
	<path class="st2" d="M243.85,825.74h0.7l1.71,3.23l1.64-3.23h0.64l-2.03,3.87h-0.54L243.85,825.74z"/>
	<path class="st2" d="M249.78,825.74h3.73v0.52h-3.09v1.08h1.88v0.51h-1.88v1.23h3.12v0.53h-3.76L249.78,825.74L249.78,825.74z"/>
	<path class="st2" d="M255.88,828.99v0.57l-0.52,0.8h-0.33l0.44-0.83h-0.19c-0.01,0-0.03,0-0.07,0c-0.13,0-0.16-0.04-0.16-0.2v-0.34
		c0-0.2,0.04-0.2,0.23-0.2h0.38C255.84,828.79,255.88,828.79,255.88,828.99z"/>
	<path class="st2" d="M261.23,827v2.61h-0.55v-3.87h0.52l1.88,2.52l1.76-2.52h0.59v3.87h-0.59V827c0-0.09,0.02-0.28,0.03-0.57
		c-0.1,0.2-0.17,0.34-0.23,0.42l-1.48,2.15H263l-1.54-2.09c-0.08-0.1-0.18-0.24-0.26-0.48C261.23,826.66,261.23,826.85,261.23,827z"
		/>
	<path class="st2" d="M268.82,825.74h0.69l2.15,3.87h-0.71l-0.49-0.95h-2.62l-0.5,0.95h-0.64L268.82,825.74z M270.19,828.17
		l-1.04-1.98l-1.04,1.98H270.19z"/>
	<path class="st2" d="M272.91,825.74h3.12c0.56,0,0.82,0.21,0.82,0.75v0.86c0,0.54-0.26,0.75-0.82,0.75h-0.57l1.77,1.51h-0.96
		l-1.58-1.51h-1.14v1.51h-0.65L272.91,825.74L272.91,825.74z M273.55,826.24v1.36h2.22c0.29,0,0.42-0.07,0.42-0.4v-0.56
		c0-0.32-0.14-0.4-0.42-0.4L273.55,826.24L273.55,826.24z"/>
	<path class="st2" d="M278.62,825.74h0.65v1.66l2.42-1.66h0.95l-2.81,1.85l3.11,2.02h-1.08l-2.59-1.74v1.74h-0.65L278.62,825.74
		L278.62,825.74z"/>
	<path class="st2" d="M284.09,825.74h0.65v1.58h3.06v-1.58h0.65v3.87h-0.65v-1.76h-3.06v1.76h-0.65V825.74z"/>
	<path class="st2" d="M291.8,825.74h0.69l2.15,3.87h-0.71l-0.5-0.95h-2.62l-0.49,0.95h-0.64L291.8,825.74z M293.18,828.17
		l-1.04-1.98l-1.04,1.98H293.18z"/>
	<path class="st2" d="M296.44,827v2.61h-0.55v-3.87h0.53l1.88,2.52l1.76-2.52h0.59v3.87h-0.59V827c0-0.09,0.02-0.28,0.03-0.57
		c-0.1,0.2-0.17,0.34-0.23,0.42l-1.48,2.15h-0.17l-1.54-2.09c-0.08-0.1-0.18-0.24-0.26-0.48C296.44,826.66,296.44,826.85,296.44,827
		z"/>
	<path class="st2" d="M306.33,825.74h2.68c0.7,0,0.9,0.2,0.9,0.92v2.04c0,0.71-0.2,0.92-0.9,0.92h-2.68c-0.69,0-0.91-0.2-0.91-0.92
		v-2.04C305.42,825.94,305.64,825.74,306.33,825.74z M309.27,829.07v-2.81h-3.2v2.81H309.27z"/>
	<path class="st2" d="M311.87,825.74h0.41l2.9,2.59c0.14,0.12,0.29,0.28,0.44,0.49c-0.06-0.36-0.06-0.68-0.06-0.95v-2.12h0.59v3.87
		h-0.36l-2.98-2.7c-0.11-0.1-0.26-0.22-0.39-0.44c0.04,0.28,0.05,0.56,0.05,0.85v2.28h-0.59L311.87,825.74L311.87,825.74z"/>
	<path class="st2" d="M319.66,829.61h-0.65v-3.35h-1.77v-0.53h4.2v0.53h-1.78V829.61z"/>
	<path class="st2" d="M323.32,825.74h0.69l2.15,3.87h-0.71l-0.5-0.95h-2.62l-0.49,0.95h-0.64L323.32,825.74z M324.7,828.17
		l-1.04-1.98l-1.04,1.98H324.7z"/>
	<path class="st2" d="M327.42,825.74h3.12c0.56,0,0.82,0.21,0.82,0.75v0.86c0,0.54-0.26,0.75-0.82,0.75h-0.57l1.77,1.51h-0.96
		l-1.58-1.51h-1.14v1.51h-0.65L327.42,825.74L327.42,825.74z M328.06,826.24v1.36h2.22c0.29,0,0.42-0.07,0.42-0.4v-0.56
		c0-0.32-0.14-0.4-0.42-0.4L328.06,826.24L328.06,826.24z"/>
	<path class="st2" d="M333.13,825.74h0.65v3.87h-0.65V825.74z"/>
	<path class="st2" d="M336.64,825.74h2.68c0.7,0,0.9,0.2,0.9,0.92v2.04c0,0.71-0.2,0.92-0.9,0.92h-2.68c-0.69,0-0.91-0.2-0.91-0.92
		v-2.04C335.73,825.94,335.95,825.74,336.64,825.74z M339.58,829.07v-2.81h-3.21v2.81H339.58z"/>
	<path class="st2" d="M344.99,825.74h0.65v3.33h2.94v0.54h-3.58L344.99,825.74L344.99,825.74z"/>
	<path class="st2" d="M349.83,828.86v-0.31l0.62-0.14v0.68h2.24c0.29,0,0.35-0.07,0.35-0.35v-0.52c0-0.28-0.06-0.35-0.35-0.35h-1.37
		v-0.5h1.23c0.29,0,0.35-0.1,0.35-0.44v-0.23c0-0.35-0.06-0.44-0.35-0.44h-2.07v0.6l-0.59-0.12v-0.24c0-0.62,0.21-0.76,0.83-0.76
		h1.97c0.62,0,0.83,0.14,0.83,0.76v0.35c0,0.44-0.15,0.64-0.59,0.73c0.51,0.08,0.73,0.3,0.73,0.79v0.41c0,0.6-0.19,0.83-0.89,0.83
		h-2.11C350.04,829.61,349.83,829.47,349.83,828.86z"/>
	<path class="st2" d="M356.06,826.27v1.08h2.44c0.7,0,0.9,0.22,0.9,0.92v0.44c0,0.71-0.2,0.92-0.9,0.92h-2.26
		c-0.7,0-0.91-0.2-0.91-0.92v-0.1l0.6-0.14v0.62h2.88v-1.16h-2.43c-0.69,0-0.9-0.2-0.9-0.92v-0.34c0-0.72,0.21-0.92,0.9-0.92h2.06
		c0.65,0,0.91,0.18,0.91,0.85v0.08l-0.56,0.16v-0.56L356.06,826.27L356.06,826.27z"/>
	<path class="st2" d="M365.13,825.74H367c0.62,0,0.83,0.14,0.83,0.76v0.24c0,0.42-0.12,0.56-0.48,0.79l-2.51,1.55h2.55v-0.73
		l0.61,0.2v0.31c0,0.62-0.22,0.76-0.84,0.76h-3.05v-0.24c0-0.24,0.01-0.43,0.45-0.71l2.63-1.65v-0.76h-2.28v0.91l-0.62-0.16v-0.5
		C364.29,825.88,364.5,825.74,365.13,825.74z"/>
	<path class="st2" d="M369.01,825.74h0.7l1.71,3.23l1.64-3.23h0.64l-2.03,3.87h-0.54L369.01,825.74z"/>
	<path class="st2" d="M377.6,828.69h-2.94v-0.48l2.79-2.52h0.73v2.52h0.89v0.48h-0.89v0.92h-0.59L377.6,828.69L377.6,828.69z
		 M377.6,826.16l-2.25,2.05h2.25V826.16z"/>
	<path class="st2" d="M383.95,826.27v2.81h2.69v-0.97l0.65,0.14v0.46c0,0.72-0.2,0.92-0.9,0.92h-2.17c-0.7,0-0.91-0.2-0.91-0.92
		v-2.04c0-0.71,0.21-0.92,0.91-0.92h2.17c0.7,0,0.9,0.2,0.9,0.92v0.37l-0.65,0.12v-0.88L383.95,826.27L383.95,826.27z"/>
	<path class="st2" d="M390.34,825.74h0.69l2.15,3.87h-0.71l-0.49-0.95h-2.62l-0.5,0.95h-0.64L390.34,825.74z M391.72,828.17
		l-1.04-1.98l-1.04,1.98H391.72z"/>
	<path class="st2" d="M394.44,825.74h0.4l2.9,2.59c0.14,0.12,0.29,0.28,0.44,0.49c-0.06-0.36-0.06-0.68-0.06-0.95v-2.12h0.59v3.87
		h-0.36l-2.98-2.7c-0.11-0.1-0.26-0.22-0.39-0.44c0.04,0.28,0.05,0.56,0.05,0.85v2.28h-0.59L394.44,825.74L394.44,825.74z"/>
	<path class="st2" d="M402.08,825.74h0.69l2.15,3.87h-0.71l-0.49-0.95h-2.62l-0.49,0.95h-0.64L402.08,825.74z M403.45,828.17
		l-1.04-1.98l-1.04,1.98H403.45z"/>
	<path class="st2" d="M409.79,826.04c0.5,0.32,0.8,0.92,0.8,1.61c0,0.73-0.3,1.33-0.8,1.66c-0.35,0.23-0.83,0.3-1.49,0.3h-2.13
		v-3.87h2.13C408.96,825.74,409.44,825.82,409.79,826.04z M406.82,826.27v2.81h1.4c1.16,0,1.72-0.32,1.72-1.42
		c0-1.05-0.57-1.39-1.72-1.39H406.82z"/>
	<path class="st2" d="M413.45,825.74h0.69l2.15,3.87h-0.71l-0.49-0.95h-2.62l-0.49,0.95h-0.64L413.45,825.74z M414.83,828.17
		l-1.04-1.98l-1.04,1.98H414.83z"/>
	<path class="st2" d="M424.66,829.61h-0.65v-3.35h-1.77v-0.53h4.2v0.53h-1.78L424.66,829.61L424.66,829.61z"/>
	<path class="st2" d="M427.36,828.99v0.43c0,0.2-0.04,0.2-0.23,0.2h-0.38c-0.02,0-0.04,0-0.08,0c-0.14,0-0.15-0.04-0.15-0.2v-0.43
		c0-0.2,0.05-0.2,0.23-0.2h0.38C427.31,828.79,427.36,828.8,427.36,828.99z"/>
	<path class="st2" d="M434.82,828.69h-2.93v-0.48l2.79-2.52h0.74v2.52h0.89v0.48h-0.89v0.92h-0.59L434.82,828.69L434.82,828.69z
		 M434.82,826.16l-2.25,2.05h2.25V826.16z"/>
	<path class="st2" d="M439.4,826.35h-0.84v-0.39l1.43-0.25v3.9h-0.59V826.35z"/>
	<path class="st2" d="M446.34,826.16c-1.5,0-2.3,0.36-2.41,1.15c0.57-0.11,1.14-0.16,1.72-0.16c1.14,0,1.57,0.21,1.57,1v0.53
		c0,0.66-0.4,0.95-1.25,0.95h-1.54c-0.91,0-1.19-0.27-1.19-1.19v-0.51c0-1.46,0.99-2.27,2.68-2.27c0.09,0,0.18,0.01,0.26,0.02
		l0.4,0.51C446.49,826.16,446.41,826.16,446.34,826.16z M443.85,828.02c0,0.99,0.02,1.07,0.82,1.07h1.18c0.59,0,0.75-0.12,0.75-0.6
		v-0.25c0-0.47-0.2-0.6-0.92-0.6c-0.69,0-1.29,0.05-1.81,0.14C443.86,827.89,443.85,827.96,443.85,828.02z"/>
	<path class="st2" d="M449.8,828.99v0.43c0,0.2-0.04,0.2-0.23,0.2h-0.38c-0.02,0-0.04,0-0.08,0c-0.14,0-0.15-0.04-0.15-0.2v-0.43
		c0-0.2,0.05-0.2,0.23-0.2h0.38C449.75,828.79,449.8,828.8,449.8,828.99z"/>
	<path class="st2" d="M451.55,828.78v-0.41c0-0.47,0.2-0.7,0.71-0.77c-0.44-0.06-0.62-0.29-0.62-0.75v-0.35
		c0-0.62,0.21-0.76,0.83-0.76h2.27c0.62,0,0.83,0.14,0.83,0.76v0.35c0,0.46-0.2,0.69-0.63,0.75c0.5,0.08,0.71,0.31,0.71,0.77v0.41
		c0,0.6-0.2,0.83-0.89,0.83h-2.32C451.73,829.61,451.55,829.38,451.55,828.78z M452.17,828.69c0,0.32,0.08,0.4,0.39,0.4h2.07
		c0.32,0,0.39-0.08,0.39-0.4v-0.42c0-0.32-0.08-0.4-0.39-0.4h-2.07c-0.32,0-0.39,0.09-0.39,0.4V828.69z M452.24,826.97
		c0,0.31,0.06,0.41,0.39,0.41h1.92c0.32,0,0.39-0.09,0.39-0.41v-0.3c0-0.31-0.06-0.41-0.39-0.41h-1.92c-0.33,0-0.39,0.11-0.39,0.41
		V826.97z"/>
	<path class="st2" d="M459.03,826.35h-0.84v-0.39l1.43-0.25v3.9h-0.59V826.35z"/>
	<path class="st2" d="M462.77,828.78v-0.41c0-0.47,0.2-0.7,0.71-0.77c-0.44-0.06-0.62-0.29-0.62-0.75v-0.35
		c0-0.62,0.21-0.76,0.83-0.76h2.27c0.62,0,0.83,0.14,0.83,0.76v0.35c0,0.46-0.2,0.69-0.63,0.75c0.5,0.08,0.71,0.31,0.71,0.77v0.41
		c0,0.6-0.2,0.83-0.89,0.83h-2.32C462.95,829.61,462.77,829.38,462.77,828.78z M463.39,828.69c0,0.32,0.08,0.4,0.39,0.4h2.07
		c0.32,0,0.39-0.08,0.39-0.4v-0.42c0-0.32-0.08-0.4-0.39-0.4h-2.07c-0.32,0-0.39,0.09-0.39,0.4V828.69z M463.46,826.97
		c0,0.31,0.06,0.41,0.39,0.41h1.92c0.32,0,0.39-0.09,0.39-0.41v-0.3c0-0.31-0.06-0.41-0.39-0.41h-1.92c-0.33,0-0.39,0.11-0.39,0.41
		V826.97z"/>
	<path class="st2" d="M469.43,828.99v0.43c0,0.2-0.04,0.2-0.23,0.2h-0.38c-0.02,0-0.04,0-0.08,0c-0.14,0-0.15-0.04-0.15-0.2v-0.43
		c0-0.2,0.05-0.2,0.23-0.2h0.38C469.39,828.79,469.43,828.8,469.43,828.99z"/>
	<path class="st2" d="M471.38,828.86v-0.31l0.61-0.14v0.68h2.24c0.29,0,0.35-0.07,0.35-0.35v-0.52c0-0.28-0.06-0.35-0.35-0.35h-1.37
		v-0.5h1.23c0.29,0,0.35-0.1,0.35-0.44v-0.23c0-0.35-0.06-0.44-0.35-0.44h-2.07v0.6l-0.58-0.12v-0.24c0-0.62,0.21-0.76,0.83-0.76
		h1.97c0.62,0,0.83,0.14,0.83,0.76v0.35c0,0.44-0.15,0.64-0.59,0.73c0.51,0.08,0.73,0.3,0.73,0.79v0.41c0,0.6-0.19,0.83-0.89,0.83
		h-2.11C471.58,829.61,471.38,829.47,471.38,828.86z"/>
	<path class="st2" d="M479.7,828.69h-2.94v-0.48l2.79-2.52h0.73v2.52h0.89v0.48h-0.89v0.92h-0.59L479.7,828.69L479.7,828.69z
		 M479.7,826.16l-2.25,2.05h2.25V826.16z"/>
	<path class="st2" d="M482.4,828.78v-0.41c0-0.47,0.2-0.7,0.71-0.77c-0.44-0.06-0.62-0.29-0.62-0.75v-0.35
		c0-0.62,0.21-0.76,0.83-0.76h2.27c0.62,0,0.83,0.14,0.83,0.76v0.35c0,0.46-0.2,0.69-0.63,0.75c0.5,0.08,0.71,0.31,0.71,0.77v0.41
		c0,0.6-0.2,0.83-0.89,0.83h-2.32C482.59,829.61,482.4,829.38,482.4,828.78z M483.02,828.69c0,0.32,0.08,0.4,0.39,0.4h2.07
		c0.32,0,0.39-0.08,0.39-0.4v-0.42c0-0.32-0.07-0.4-0.39-0.4h-2.07c-0.32,0-0.39,0.09-0.39,0.4V828.69z M483.1,826.97
		c0,0.31,0.06,0.41,0.39,0.41h1.92c0.32,0,0.39-0.09,0.39-0.41v-0.3c0-0.31-0.06-0.41-0.39-0.41h-1.92c-0.33,0-0.39,0.11-0.39,0.41
		V826.97z"/>
	<path class="st2" d="M488.83,825.74h2.46c0.65,0,0.83,0.21,0.83,0.92v2.04c0,0.71-0.19,0.92-0.83,0.92h-2.46
		c-0.65,0-0.83-0.2-0.83-0.92v-2.04C487.99,825.94,488.18,825.74,488.83,825.74z M491.5,829.08v-2.82h-2.88v2.82H491.5z"/>
	<path class="st2" d="M499.48,825.74h3.69v0.53h-3.04v1.27h1.73v0.52h-1.73v1.56h-0.65L499.48,825.74L499.48,825.74z"/>
	<path class="st2" d="M503.78,828.99v0.43c0,0.2-0.04,0.2-0.23,0.2h-0.38c-0.02,0-0.04,0-0.08,0c-0.14,0-0.15-0.04-0.15-0.2v-0.43
		c0-0.2,0.05-0.2,0.23-0.2h0.38C503.73,828.79,503.78,828.8,503.78,828.99z"/>
	<path class="st2" d="M509.21,829.19c1.5,0,2.3-0.36,2.42-1.15c-0.57,0.11-1.15,0.16-1.73,0.16c-1.14,0-1.56-0.22-1.56-1.01v-0.52
		c0-0.66,0.4-0.95,1.25-0.95h1.53c0.91,0,1.2,0.27,1.2,1.19v0.51c0,1.46-0.99,2.26-2.68,2.26c-0.09,0-0.18,0-0.26-0.01l-0.4-0.52
		C509.07,829.19,509.14,829.19,509.21,829.19z M511.7,827.33c0-0.99-0.02-1.07-0.81-1.07h-1.18c-0.59,0-0.76,0.12-0.76,0.6v0.25
		c0,0.47,0.2,0.6,0.92,0.6c0.69,0,1.29-0.05,1.81-0.14C511.69,827.47,511.7,827.39,511.7,827.33z"/>
	<path class="st2" d="M514.76,825.74h2.46c0.65,0,0.83,0.21,0.83,0.92v2.04c0,0.71-0.19,0.92-0.83,0.92h-2.46
		c-0.65,0-0.83-0.2-0.83-0.92v-2.04C513.93,825.94,514.11,825.74,514.76,825.74z M517.43,829.08v-2.82h-2.88v2.82H517.43z"/>
	<path class="st2" d="M521.81,829.12c0.91,0,1.31-0.2,1.31-0.76c0-0.56-0.41-0.8-1.36-0.8c-0.59,0-1.22,0.08-1.91,0.24l0.2-2.06
		h3.14l-0.04,0.52h-2.6l-0.14,0.94c0.48-0.1,0.95-0.16,1.43-0.16c1.31,0,1.94,0.42,1.94,1.33c0,0.96-0.66,1.31-2.09,1.31
		c-0.56,0-1.1-0.07-1.66-0.18l-0.19-0.62C520.6,829.04,521.27,829.12,521.81,829.12z"/>
	<path class="st2" d="M526.22,828.99v0.43c0,0.2-0.04,0.2-0.23,0.2h-0.38c-0.02,0-0.04,0-0.08,0c-0.14,0-0.15-0.04-0.15-0.2v-0.43
		c0-0.2,0.04-0.2,0.23-0.2h0.38C526.17,828.79,526.22,828.8,526.22,828.99z"/>
	<path class="st2" d="M528.84,829.19c1.5,0,2.3-0.36,2.42-1.15c-0.57,0.11-1.15,0.16-1.73,0.16c-1.14,0-1.56-0.22-1.56-1.01v-0.52
		c0-0.66,0.41-0.95,1.25-0.95h1.53c0.91,0,1.2,0.27,1.2,1.19v0.51c0,1.46-0.99,2.26-2.68,2.26c-0.09,0-0.18,0-0.26-0.01l-0.4-0.52
		C528.7,829.19,528.78,829.19,528.84,829.19z M531.34,827.33c0-0.99-0.02-1.07-0.81-1.07h-1.18c-0.59,0-0.76,0.12-0.76,0.6v0.25
		c0,0.47,0.2,0.6,0.92,0.6c0.69,0,1.29-0.05,1.81-0.14C531.33,827.47,531.34,827.39,531.34,827.33z"/>
	<path class="st2" d="M536.48,828.69h-2.94v-0.48l2.79-2.52h0.73v2.52h0.89v0.48h-0.89v0.92h-0.59L536.48,828.69L536.48,828.69z
		 M536.48,826.16l-2.25,2.05h2.25V826.16z"/>
	<path class="st2" d="M540,825.74h2.46c0.65,0,0.83,0.21,0.83,0.92v2.04c0,0.71-0.19,0.92-0.83,0.92H540c-0.65,0-0.83-0.2-0.83-0.92
		v-2.04C539.17,825.94,539.36,825.74,540,825.74z M542.68,829.08v-2.82h-2.88v2.82H542.68z"/>
	<path class="st2" d="M545.85,828.99v0.43c0,0.2-0.04,0.2-0.23,0.2h-0.38c-0.02,0-0.04,0-0.08,0c-0.14,0-0.15-0.04-0.15-0.2v-0.43
		c0-0.2,0.04-0.2,0.23-0.2h0.38C545.81,828.79,545.85,828.8,545.85,828.99z"/>
	<path class="st2" d="M547.6,828.78v-0.41c0-0.47,0.2-0.7,0.71-0.77c-0.44-0.06-0.62-0.29-0.62-0.75v-0.35
		c0-0.62,0.21-0.76,0.83-0.76h2.27c0.62,0,0.83,0.14,0.83,0.76v0.35c0,0.46-0.2,0.69-0.63,0.75c0.5,0.08,0.71,0.31,0.71,0.77v0.41
		c0,0.6-0.2,0.83-0.89,0.83h-2.32C547.79,829.61,547.6,829.38,547.6,828.78z M548.22,828.69c0,0.32,0.08,0.4,0.39,0.4h2.07
		c0.32,0,0.39-0.08,0.39-0.4v-0.42c0-0.32-0.08-0.4-0.39-0.4h-2.07c-0.32,0-0.39,0.09-0.39,0.4V828.69z M548.3,826.97
		c0,0.31,0.06,0.41,0.39,0.41h1.92c0.32,0,0.39-0.09,0.39-0.41v-0.3c0-0.31-0.06-0.41-0.39-0.41h-1.92c-0.33,0-0.39,0.11-0.39,0.41
		V826.97z"/>
	<path class="st2" d="M555.09,826.35h-0.84v-0.39l1.43-0.25v3.9h-0.59V826.35z"/>
	<path class="st2" d="M560.04,825.74h1.87c0.62,0,0.83,0.14,0.83,0.76v0.24c0,0.42-0.12,0.56-0.48,0.79l-2.51,1.55h2.54v-0.73
		l0.62,0.2v0.31c0,0.62-0.22,0.76-0.84,0.76h-3.05v-0.24c0-0.24,0.01-0.43,0.45-0.71l2.63-1.65v-0.76h-2.28v0.91L559.2,827v-0.5
		C559.2,825.88,559.41,825.74,560.04,825.74z"/>
	<path class="st2" d="M564.43,828.78v-0.41c0-0.47,0.2-0.7,0.71-0.77c-0.44-0.06-0.62-0.29-0.62-0.75v-0.35
		c0-0.62,0.21-0.76,0.83-0.76h2.27c0.62,0,0.83,0.14,0.83,0.76v0.35c0,0.46-0.2,0.69-0.63,0.75c0.5,0.08,0.71,0.31,0.71,0.77v0.41
		c0,0.6-0.2,0.83-0.89,0.83h-2.32C564.62,829.61,564.43,829.38,564.43,828.78z M565.05,828.69c0,0.32,0.07,0.4,0.39,0.4h2.07
		c0.32,0,0.39-0.08,0.39-0.4v-0.42c0-0.32-0.08-0.4-0.39-0.4h-2.07c-0.32,0-0.39,0.09-0.39,0.4V828.69z M565.13,826.97
		c0,0.31,0.06,0.41,0.39,0.41h1.92c0.32,0,0.39-0.09,0.39-0.41v-0.3c0-0.31-0.06-0.41-0.39-0.41h-1.92c-0.33,0-0.39,0.11-0.39,0.41
		V826.97z"/>
</g>
<g>
	<path class="st2" d="M27.11,825.99v1h2.9c0.87,0,1.16,0.22,1.16,1.1v0.64c0,0.87-0.29,1.1-1.16,1.1h-2.87
		c-0.87,0-1.16-0.23-1.16-1.1v-0.13l0.95-0.2v0.55h3.29v-1.06h-2.9c-0.87,0-1.15-0.23-1.15-1.1v-0.51c0-0.87,0.28-1.1,1.15-1.1h2.64
		c0.83,0,1.15,0.22,1.15,1.02v0.1l-0.95,0.23v-0.53L27.11,825.99L27.11,825.99z"/>
	<path class="st2" d="M33.4,825.18h0.74l3.27,2.74c0.19,0.15,0.37,0.32,0.53,0.51c-0.03-0.39-0.04-0.66-0.04-0.8v-2.44h0.97v4.65
		h-0.74l-3.41-2.87c-0.13-0.12-0.26-0.23-0.39-0.38c0.04,0.36,0.04,0.6,0.04,0.74v2.51H33.4V825.18z"/>
	<path class="st2" d="M42.29,825.18h3.42c0.87,0,1.15,0.22,1.15,1.1v2.45c0,0.87-0.28,1.1-1.15,1.1h-3.42
		c-0.87,0-1.15-0.23-1.15-1.1v-2.45C41.13,825.4,41.42,825.18,42.29,825.18z M45.78,828.95v-2.94h-3.56v2.94H45.78z"/>
	<path class="st2" d="M48.3,825.18h1.12l1.18,3.11l1.23-3.11h0.76l1.26,3.11l1.12-3.11h0.96l-1.79,4.65h-0.73l-1.28-3.21l-1.3,3.21
		h-0.75L48.3,825.18z"/>
	<path class="st2" d="M57.47,825.18h3.98c0.71,0,1.04,0.25,1.04,0.9v0.57c0,0.45-0.29,0.72-0.8,0.78c0.54,0.07,0.84,0.4,0.84,0.89
		v0.59c0,0.62-0.46,0.91-1.37,0.91h-3.69V825.18z M58.53,825.93v1.11H61c0.33,0,0.49-0.06,0.49-0.33v-0.44
		c0-0.27-0.16-0.33-0.49-0.33H58.53z M58.53,827.81v1.18H61c0.37,0,0.52-0.07,0.52-0.41v-0.35c0-0.34-0.15-0.41-0.52-0.41H58.53z"/>
	<path class="st2" d="M66.35,825.18h1.04l2.67,4.65h-1.21l-0.56-1.02h-2.94l-0.54,1.02h-1.08L66.35,825.18z M67.84,827.97l-1-1.89
		l-1.04,1.89H67.84z"/>
	<path class="st2" d="M73.09,829.82h-1.08v-3.82h-2.13v-0.83h5.36v0.83h-2.14V829.82z"/>
	<path class="st2" d="M81.02,826.01v2.94h2.92v-1l1.08,0.23v0.55c0,0.87-0.28,1.1-1.15,1.1h-2.77c-0.87,0-1.15-0.23-1.15-1.1v-2.45
		c0-0.87,0.28-1.1,1.15-1.1h2.77c0.87,0,1.15,0.22,1.15,1.1v0.44l-1.08,0.17v-0.88H81.02z"/>
	<path class="st2" d="M88.82,825.18h1.04l2.67,4.65h-1.22l-0.56-1.02h-2.94l-0.54,1.02h-1.08L88.82,825.18z M90.3,827.97l-1-1.89
		l-1.04,1.89H90.3z"/>
	<path class="st2" d="M94.01,825.18h0.74l3.27,2.74c0.19,0.15,0.37,0.32,0.53,0.51c-0.03-0.39-0.04-0.66-0.04-0.8v-2.44h0.97v4.65
		h-0.74l-3.41-2.87c-0.14-0.12-0.26-0.23-0.39-0.38c0.04,0.36,0.04,0.6,0.04,0.74v2.51h-0.97
		C94.01,829.82,94.01,825.18,94.01,825.18z"/>
	<path class="st2" d="M103.53,825.18h1.04l2.67,4.65h-1.21l-0.56-1.02h-2.94l-0.54,1.02h-1.08L103.53,825.18z M105.02,827.97
		l-1-1.89l-1.04,1.89H105.02z"/>
	<path class="st2" d="M108.69,825.18h2.99c1.74,0,2.66,0.85,2.66,2.3c0,0.87-0.38,1.59-1.03,1.99c-0.45,0.28-1.08,0.36-1.91,0.36
		h-2.71L108.69,825.18L108.69,825.18z M111.16,828.95c1.37,0,2.05-0.34,2.05-1.49c0-0.95-0.51-1.45-1.53-1.45h-1.92v2.94H111.16z"/>
	<path class="st2" d="M117.84,825.18h1.04l2.67,4.65h-1.21l-0.56-1.02h-2.94l-0.54,1.02h-1.08L117.84,825.18z M119.32,827.97
		l-1-1.89l-1.04,1.89H119.32z"/>
	<path class="st2" d="M126.52,825.18h1.08v4.65h-1.08V825.18z"/>
	<path class="st2" d="M129.97,825.18h0.74l3.27,2.74c0.19,0.15,0.37,0.32,0.53,0.51c-0.03-0.39-0.04-0.66-0.04-0.8v-2.44h0.97v4.65
		h-0.74l-3.41-2.87c-0.13-0.12-0.26-0.23-0.39-0.38c0.04,0.36,0.04,0.6,0.04,0.74v2.51h-0.97L129.97,825.18L129.97,825.18z"/>
	<path class="st2" d="M138.78,826.01v2.94h2.92v-1l1.08,0.23v0.55c0,0.87-0.28,1.1-1.15,1.1h-2.77c-0.87,0-1.15-0.23-1.15-1.1v-2.45
		c0-0.87,0.28-1.1,1.15-1.1h2.77c0.87,0,1.15,0.22,1.15,1.1v0.44l-1.08,0.17v-0.88H138.78z"/>
	<path class="st2" d="M145.79,828.43c0.18,0,0.22,0.11,0.22,0.33v0.73c0,0.33-0.07,0.33-0.38,0.33h-0.64c-0.03,0-0.08,0-0.16,0
		c-0.18,0-0.22-0.11-0.22-0.33v-0.73c0-0.33,0.07-0.33,0.38-0.33h0.64C145.71,828.43,145.76,828.43,145.79,828.43z"/>
</g>
<g>
	<path class="st0" d="M500.59,5.38h0.84l0.86,2.3l0.93-2.3h0.55l0.92,2.3l0.85-2.3h0.72l-1.32,3.29h-0.54l-0.95-2.33l-0.96,2.33
		h-0.55L500.59,5.38z"/>
	<path class="st0" d="M506.73,5.38h0.84l0.86,2.3l0.93-2.3h0.55l0.92,2.3l0.85-2.3h0.72l-1.32,3.29h-0.55l-0.95-2.33l-0.96,2.33
		h-0.55L506.73,5.38z"/>
	<path class="st0" d="M512.88,5.38h0.84l0.86,2.3l0.93-2.3h0.55l0.92,2.3l0.85-2.3h0.72l-1.32,3.29h-0.54l-0.95-2.33l-0.97,2.33
		h-0.55L512.88,5.38z"/>
	<path class="st0" d="M520.44,7.46c0.16,0,0.19,0.09,0.19,0.29v0.63c0,0.29-0.06,0.29-0.33,0.29h-0.55c-0.02,0-0.07,0-0.14,0
		c-0.16,0-0.19-0.09-0.19-0.29V7.75c0-0.29,0.06-0.29,0.33-0.29h0.55C520.37,7.46,520.42,7.46,520.44,7.46z"/>
	<path class="st0" d="M522.82,5.97v0.69h2.14c0.65,0,0.85,0.16,0.85,0.78v0.45c0,0.61-0.2,0.78-0.85,0.78h-2.14
		c-0.65,0-0.86-0.16-0.86-0.78V7.8l0.72-0.13v0.39h2.42V7.3h-2.13c-0.65,0-0.86-0.16-0.86-0.78V6.16c0-0.62,0.22-0.78,0.86-0.78
		h1.95c0.61,0,0.86,0.14,0.86,0.72v0.08l-0.69,0.15V5.97H522.82z"/>
	<path class="st0" d="M527.21,5.38h0.55l2.79,2.19V5.38h0.72v3.29h-0.55l-2.79-2.22v2.22h-0.73L527.21,5.38L527.21,5.38z"/>
	<path class="st0" d="M533.53,5.38h2.54c0.65,0,0.86,0.15,0.86,0.78v1.74c0,0.62-0.21,0.78-0.86,0.78h-2.54
		c-0.65,0-0.86-0.16-0.86-0.78V6.16C532.67,5.53,532.88,5.38,533.53,5.38z M536.12,8.04V5.99h-2.65v2.05H536.12z"/>
	<path class="st0" d="M537.86,5.38h0.84l0.86,2.3l0.93-2.3h0.55l0.92,2.3l0.85-2.3h0.72l-1.32,3.29h-0.54l-0.95-2.33l-0.97,2.33
		h-0.55L537.86,5.38z"/>
	<path class="st0" d="M544.45,5.38h2.96c0.53,0,0.78,0.17,0.78,0.64v0.4c0,0.3-0.2,0.5-0.56,0.56c0.37,0.06,0.58,0.3,0.58,0.63v0.42
		c0,0.44-0.34,0.65-1.02,0.65h-2.74L544.45,5.38L544.45,5.38z M545.25,5.91v0.78h1.8c0.24,0,0.36-0.04,0.36-0.23V6.15
		c0-0.19-0.11-0.23-0.36-0.23H545.25z M545.25,7.24v0.84h1.8c0.27,0,0.39-0.06,0.39-0.3V7.53c0-0.24-0.12-0.3-0.39-0.3L545.25,7.24
		L545.25,7.24z"/>
	<path class="st0" d="M551.02,5.38h0.77l1.98,3.29h-0.9l-0.41-0.72h-2.18l-0.41,0.72h-0.8L551.02,5.38z M552.14,7.35l-0.77-1.37
		l-0.74,1.37H552.14z"/>
	<path class="st0" d="M556.12,8.67h-0.8v-2.7h-1.59V5.38h3.98v0.59h-1.59L556.12,8.67L556.12,8.67z"/>
	<path class="st0" d="M559.73,7.46c0.16,0,0.19,0.09,0.19,0.29v0.63c0,0.29-0.06,0.29-0.33,0.29h-0.55c-0.02,0-0.07,0-0.14,0
		c-0.16,0-0.19-0.09-0.19-0.29V7.75c0-0.29,0.06-0.29,0.33-0.29h0.55C559.66,7.46,559.71,7.46,559.73,7.46z"/>
	<path class="st0" d="M562.06,5.99v2.05h2.16v-0.7l0.81,0.16v0.39c0,0.61-0.21,0.78-0.86,0.78h-2.05c-0.66,0-0.85-0.17-0.85-0.78
		V6.16c0-0.61,0.2-0.78,0.85-0.78h2.05c0.65,0,0.86,0.16,0.86,0.78v0.32l-0.81,0.12V5.99H562.06z"/>
	<path class="st0" d="M567.12,5.38h2.54c0.65,0,0.85,0.15,0.85,0.78v1.74c0,0.62-0.21,0.78-0.85,0.78h-2.54
		c-0.65,0-0.85-0.16-0.85-0.78V6.16C566.27,5.53,566.48,5.38,567.12,5.38z M569.72,8.04V5.99h-2.65v2.05H569.72z"/>
	<path class="st0" d="M571.91,5.38h0.65l1.61,1.95l1.6-1.95h0.65v3.29h-0.75V6.41l-1.47,1.87h-0.16l-1.49-1.81v2.21h-0.65
		L571.91,5.38L571.91,5.38z"/>
</g>
<g>
	<polyline class="st3" points="280.33,68.55 282.54,76.83 275.64,84.01 274.81,86.77 262.44,90.87 	"/>
	<polyline class="st3" points="170.8,90.81 187.99,79.69 204.88,75.06 212.27,67.45 227.3,63.88 241.64,59.37 253.95,58.77 
		261.89,55.84 253.43,61.52 244.24,61.01 239.32,63.75 232.26,63.97 227.52,68.28 217.67,84.04 205.52,90.87 187.99,79.69 
		217.67,84.04 	"/>
	<polyline class="st3" points="-2.71,-7.75 9.21,6.26 16.07,7.39 26.84,15.06 37.12,16.87 47.9,13.03 59.65,22.74 65.04,22.51 
		75.81,31.09 79.97,28.83 83.64,28.38 87.08,24.76 90.99,29.74 94.66,31.32 102.99,39.89 110.82,34.93 116.21,27.48 124.04,31.99 
		128.21,36.73 133.59,32.22 144.37,35.6 147.55,35.38 156.96,42.29 	"/>
	<polyline class="st3" points="118.66,13.03 124.78,18.45 131.14,18.67 138.49,24.09 146.08,29.06 151.47,29.51 158.57,37.19 
		161.44,39.68 	"/>
	<polyline class="st3" points="195.78,21.16 185.99,27.03 182.8,30.64 172.52,31.54 163.46,38.54 155.14,43.28 150.98,43.51 
		148.04,46.67 139.22,49.38 121.35,49.38 111.07,50.28 108.13,48.25 92.7,53.66 87.32,54.34 81.19,54.57 71.65,61.79 64.55,65.63 	
		"/>
	<polyline class="st3" points="35.48,28.34 46.18,25.9 53.53,28.6 88.79,41.02 103.64,49.79 	"/>
	<polyline class="st3" points="34.34,1.46 43.31,4.9 48.58,9.76 56.83,8.75 64.09,12.14 67.67,9.3 74.43,10.67 76.79,9.42 
		87.36,9.76 109.3,7.23 104.21,12.13 100.91,18.56 93.12,21.16 89.23,27.64 	"/>
	<polyline class="st3" points="182.8,30.64 176.68,27.93 179.13,24.77 175.46,20.25 180.11,15.74 178.64,10.2 187.82,22.45 
		192.69,22.97 	"/>
	<polyline class="st3" points="22.04,-7.49 42.41,7.46 47.9,13.03 65.77,20.25 75.81,23.64 	"/>
	<polyline class="st3" points="-9.98,47.47 7.25,36.96 14.11,28.6 24.88,25.45 25.21,20.58 	"/>
	<polyline class="st3" points="25.28,20.45 35.53,28.28 32.84,30.76 25.86,33.35 29.04,38.31 23.9,45.31 24.58,51.97 -9.17,64.43 	
		"/>
	<polyline class="st3" points="25.37,20.48 19.5,18.45 15.82,15.06 14.84,12.13 12.39,11.45 9.21,6.26 	"/>
	<polyline class="st3" points="98.01,46.47 87.07,44.63 76.3,43.06 64.3,50.5 60.87,49.38 55.98,50.73 60.16,48.38 63.26,48.62 
		71.39,42.79 67.11,36.67 76.41,38.1 67.11,33.4 	"/>
	<polyline class="st3" points="221,21.38 227.35,23.33 231.31,21.88 233.68,26.01 238.96,28.69 241.86,22.6 251.36,21.15 
		254.66,13.88 260.18,10.57 262.94,0.08 	"/>
	<polyline class="st3" points="207.61,14.75 203.08,21.88 207.3,23.82 212.84,23.33 218.65,28.93 224.71,33.31 229.73,34.28 
		233.68,39.39 247.75,45.63 	"/>
	<polyline class="st3" points="212.84,23.33 218.91,31.85 218.91,35.01 230.25,41.33 234.21,47.66 248.46,55.44 257.43,56.42 
		262.01,55.66 	"/>
	<g>
		<polyline class="st3" points="603.04,16.72 590.66,11.22 575.05,15.19 563.78,15.69 558.57,26.14 553.37,25.15 550.43,29.02 
			530.54,34.85 511.18,37.83 500.48,38.08 462.04,35.59 451.06,42.06 447.59,41.32 434.3,47.04 415.87,40.82 407.71,41.07 
			397.18,35.99 387.76,41.07 380.25,38.94 366.85,47.75 360.02,51.02 346.05,43.96 330.25,51.27 317.82,44.05 314.64,39.33 
			307.7,46.54 304.81,44.55 301.35,47.04 294.12,40.57 292.96,35.85 286.9,35.85 277.02,24.92 272.05,22.44 265.66,10.78 
			263.11,0.16 257.73,7.39 252.59,7.39 251.6,11.68 245.48,17.54 242.55,15.29 240.1,17.09 234.22,10.55 231.53,14.84 221,21.38 
			207.61,14.75 195.78,21.16 189.77,19.21 178.64,10.2 172.28,12.13 164.3,7.52 155.38,12.13 148.47,11.9 132.86,17.54 
			121.59,12.35 118.66,13.03 109.8,7.01 76.79,9.42 67.73,9.19 51.33,6.48 34.47,1.46 29.5,-5.32 22.04,-7.49 		"/>
		<polyline class="st3" points="462.1,35.67 462.53,39.16 464.88,40.48 465.23,44.62 460.88,40.98 459.94,42.4 459.83,46.03 
			457.01,46.24 456.54,48.26 450.91,50.58 458.29,41.81 462.04,35.59 468.4,37.83 477.07,42.56 488.35,55 		"/>
		<polyline class="st3" points="594.47,19.05 580.26,34.6 572.16,35.85 559.44,44.3 547.3,46.29 534.59,42.06 520.71,52.76 
			514.36,52.51 501.64,61.97 496.73,59.48 492.39,58.98 488.33,54.99 483.72,60.47 479.39,62.22 469.56,71.67 460.31,66.2 
			453.95,57.98 444.81,63.08 439.79,68.19 433.43,63.21 420.71,66.94 416.95,66.69 405.84,74.32 		"/>
		<polyline class="st3" points="451.06,42.06 443.83,48.03 436.32,48.28 427.65,54.25 418.69,59.73 412.33,60.22 403.95,68.68 
			400.56,71.43 		"/>
		<polyline class="st3" points="360.02,51.02 371.58,57.49 375.24,61.62 387.48,62.46 398.17,70.18 408.02,75.3 412.91,75.65 
			416.38,79.13 426.78,82.12 447.88,82.12 460.02,83.11 463.49,80.88 481.69,86.85 488.05,87.59 495.28,87.84 506.55,95.8 
			518.19,103.65 		"/>
		<polyline class="st3" points="547.94,56.81 536.61,56.24 527.94,59.23 486.71,72.44 468.79,82.58 		"/>
		<polyline class="st3" points="530.8,34.8 540,33.1 533.78,38.46 524.05,37.35 515.47,41.08 511.24,37.95 503.26,39.47 
			500.48,38.08 488,38.46 462.1,35.67 468.11,41.07 469.42,48.88 474.76,57.74 478.52,62.96 		"/>
		<polyline class="st3" points="373.84,53.67 375.34,61.47 382.56,58.48 379.67,55 384.01,50.03 378.52,45.05 380.25,38.94 
			367.54,51.58 363.67,53.02 		"/>
		<polyline class="st3" points="585.65,12.48 573.55,17.9 558.57,26.14 553.74,26.83 541.06,35.93 534.59,42.06 513.49,50.03 
			501.64,53.76 491.52,51.49 486.9,53.26 		"/>
		<polyline class="st3" points="584.38,65.64 594.41,75.4 582.57,68.43 574.47,59.23 561.76,55.75 561.37,50.38 		"/>
		<polyline class="st3" points="594.4,46.45 587.16,41.81 582.85,42.41 576.49,40.32 582.62,46.52 587.85,46.45 594.32,51.49 
			583.07,49.3 588.92,56.74 582.57,54.75 578.81,54.75 570.71,49.53 561.18,50.27 568.11,48.03 572.45,44.3 573.55,40.94 
			576.49,40.32 580.26,34.6 574.18,38.58 559.73,49.03 547.88,56.74 551.06,59.48 560.6,64.46 556.84,69.93 562.91,77.64 
			562.04,85.6 575.45,94.33 576.53,89.22 574.18,84.36 579.09,89.08 583.43,93.56 583.14,88.58 578.23,82.12 583.28,84.66 
			584.59,83.11 594.47,87.58 590.08,77.39 580.54,73.16 571.29,65.7 575.34,73.11 590.03,77.37 574.87,75.23 580.39,81.2 
			571.93,76.65 573.55,81.08 569.47,77.96 565.28,81.5 564.89,84.53 562.19,85.74 		"/>
		<polyline class="st3" points="475.1,79.01 488.35,76.89 501.06,75.15 515.23,83.57 519.27,82.12 525.05,83.61 520.11,81.03 
			516.45,81.29 506.85,74.86 494.96,74.2 483.98,75.78 495.47,70.43 		"/>
		<polyline class="st3" points="562.91,77.64 558.32,78.17 550.48,74.9 555.5,80.49 558.32,78.17 556.84,69.93 550.48,74.9 
			547.59,84.6 544.42,86.85 543.84,92.07 538.05,91.32 533.72,95.55 534.25,99.18 542.71,103.22 542.12,100.19 548.69,103.73 
			547.04,99.99 549.98,99.69 552.33,98.07 559.61,102.21 555.26,94.83 562.42,88.67 566.77,94.74 575.45,94.33 		"/>
		<polyline class="st3" points="545.99,70.08 542.82,66.04 535.19,69.48 531.32,73.31 529.1,78.39 533.72,76.64 547.02,61.22 
			551.06,59.48 556.67,70.18 		"/>
		<polyline class="st3" points="330.25,51.27 322.75,53.42 318.08,51.81 315.27,56.37 309.05,59.32 305.62,52.62 294.41,51.01 
			286.31,44.31 282.58,39.75 283.48,32.12 		"/>
		<polyline class="st3" points="291.77,79.37 315.27,71.11 319.95,65.48 325.86,64.41 333.03,59.58 339.88,53.42 346.42,53.96 
			351.4,51.81 346.05,43.96 		"/>
		<polyline class="st3" points="339.88,53.42 332.72,62.8 332.72,66.29 319.32,73.26 314.65,80.23 305.49,85.58 297.84,88.81 
			287.25,89.88 275.64,84.01 		"/>
		<polyline class="st3" points="563.78,15.69 565.31,19.16 574.83,15.4 573.55,17.9 		"/>
		<polyline class="st3" points="573.15,18.15 565.31,19.16 558.52,26.17 553.51,29.55 		"/>
		<line class="st3" x1="553.37" y1="25.15" x2="553.74" y2="26.83"/>
		<polyline class="st3" points="553.51,29.55 560.13,27.17 551.96,33.03 		"/>
		<line class="st3" x1="579.87" y1="15.1" x2="570.6" y2="24.25"/>
		<line class="st3" x1="579.66" y1="18.05" x2="573.15" y2="18.22"/>
		<polygon class="st3" points="572.21,35.65 572.4,30.6 575.46,32.33 		"/>
		<line class="st3" x1="587.93" y1="24.72" x2="582.23" y2="25.98"/>
		<line class="st3" x1="582.23" y1="29.75" x2="585.08" y2="29.42"/>
		<polyline class="st3" points="572.38,30.41 559.44,44.3 557.61,39.87 572.4,35.63 		"/>
		<polyline class="st3" points="547.3,46.29 562.09,36.86 551.59,33.54 		"/>
		<polyline class="st3" points="562.09,36.86 550.12,37.57 558.88,33.36 		"/>
		<path class="st3" d="M544.27,41.08"/>
		<polyline class="st3" points="544.31,41.1 547.34,45.93 550.12,37.57 		"/>
		<polygon class="st3" points="580.07,34.72 582.23,29.49 575.46,32.33 		"/>
		<polyline class="st3" points="561.83,36.91 544.35,41.15 540.71,43.74 540.66,41.29 544.31,41.1 542.81,37.6 550.09,37.6 
			551.59,33.54 558.88,33.36 562.09,36.86 572.38,30.41 582.23,29.29 582.23,25.98 594.4,19.15 587.8,24.83 582.31,29.56 		"/>
		<polyline class="st3" points="572.45,44.3 573.61,46.06 579,46.52 583.08,49.37 587.85,46.45 587.09,41.98 582.71,46.33 
			582.85,42.41 		"/>
		<line class="st3" x1="582.78" y1="42.5" x2="573.68" y2="45.95"/>
		<polyline class="st3" points="579.62,43.61 573.6,41.07 573.61,46.06 		"/>
		<polyline class="st3" points="579.79,43.7 579,46.52 582.62,46.52 583.07,49.3 578.81,54.75 		"/>
		<polyline class="st3" points="568.24,48.01 573.72,46.04 578.66,54.32 578.93,46.5 		"/>
		<line class="st3" x1="582.57" y1="54.75" x2="583.04" y2="49.44"/>
		<polyline class="st3" points="587.92,46.47 594.26,46.41 600.78,47.99 594.23,51.5 589.15,56.9 		"/>
		<polyline class="st3" points="578.97,46.74 575.57,49.17 570.71,49.53 568.11,48.03 		"/>
		<polyline class="st3" points="582.23,25.98 585.2,26.83 584.97,29.47 587.96,24.65 		"/>
		<polyline class="st3" points="557.61,39.77 549.29,39.97 542.84,37.66 		"/>
		<polyline class="st3" points="540.66,41.29 542.54,42.46 547.28,46.17 		"/>
		<polyline class="st3" points="549.28,39.97 551.86,43.3 559.44,44.3 		"/>
		<line class="st3" x1="560.13" y1="27.17" x2="559.14" y2="30.36"/>
		<line class="st3" x1="560.2" y1="27.44" x2="558.52" y2="26.17"/>
		<polyline class="st3" points="570.71,49.53 567.36,53.31 561.76,55.75 		"/>
		<polyline class="st3" points="567.36,53.31 578.81,54.75 574.47,59.23 567.36,53.31 561.48,50.28 		"/>
		<polyline class="st3" points="574.47,59.23 584.38,65.64 582.57,68.43 		"/>
		<polyline class="st3" points="580.54,73.16 575.5,72.99 576.39,69.88 		"/>
		<polyline class="st3" points="584.59,83.11 583.32,78.97 587.43,80.29 593.13,84.66 584.59,83.11 589.73,77.61 583.43,78.77 
			574.87,75.23 		"/>
		<polyline class="st3" points="583.32,78.97 580.39,81.2 583.14,84.36 583.43,78.77 		"/>
		<polyline class="st3" points="601.34,99.14 596.02,98.3 591.85,99.62 587.78,95.44 588.25,90.8 591.77,90.8 589.54,87.66 
			594.41,87.84 601.46,89.01 594.24,94.03 591.77,90.8 		"/>
		<polyline class="st3" points="590.01,87.76 594.24,89.99 591.77,90.8 587.78,95.44 		"/>
		<polyline class="st3" points="588.25,90.8 589.66,93.22 594.24,94.03 591.89,99.28 589.66,93.22 		"/>
		<polyline class="st3" points="583.14,88.58 574.4,84.42 578.23,82.12 572.05,76.95 		"/>
		<polyline class="st3" points="574.28,84.48 573.67,81.32 565.48,81.6 568.53,89.89 576.2,89.08 570.99,85.24 573.34,81.5 
			564.89,84.53 568.53,89.89 		"/>
		<polyline class="st3" points="566.77,94.74 568.53,89.89 570.99,85.24 566.3,83.93 		"/>
		<polyline class="st3" points="562.07,85.64 547.89,84.72 555.26,94.83 544.11,92.11 547.04,99.99 533.78,95.34 		"/>
		<polyline class="st3" points="538.05,91.32 542.12,100.19 534.25,99.18 541.06,98.07 544.11,92.11 		"/>
		<polyline class="st3" points="549.16,95.85 555.26,94.83 552.33,98.07 549.16,95.85 549.98,99.69 		"/>
		<line class="st3" x1="558.32" y1="78.17" x2="561.96" y2="85.24"/>
		<line class="st3" x1="555.5" y1="80.49" x2="555.26" y2="94.83"/>
		<polyline class="st3" points="555.38,85.14 544.23,92.21 549.16,95.85 547.04,99.99 542.12,100.19 		"/>
		<polyline class="st3" points="555.5,85.24 562.42,88.67 562.07,85.64 555.5,80.49 547.59,84.6 		"/>
		<line class="st3" x1="550.33" y1="88.37" x2="544.42" y2="86.85"/>
		<polyline class="st3" points="560.54,64.62 555.5,67.46 545.82,77.67 543.15,75.36 538.24,76.75 538.16,74.39 533.84,76.58 
			535.19,72 535.19,69.48 		"/>
		<polyline class="st3" points="551.06,59.48 543.39,58.52 541.18,62.1 543.52,62.1 547.02,61.22 		"/>
		<polyline class="st3" points="543.52,62.1 543.52,58.77 546.93,61.29 545.99,70.08 		"/>
		<polyline class="st3" points="531.67,73.01 535.19,72 542.35,66.55 		"/>
		<line class="st3" x1="535.19" y1="72" x2="529.28" y2="78.22"/>
		<polyline class="st3" points="550.48,74.9 546.25,77.37 548.81,71.7 538.12,74.43 545.99,70.08 543.41,75.13 555.26,67.66 
			545.99,70.08 551.05,59.49 		"/>
		<polyline class="st3" points="590.66,11.22 584.31,14.71 579.87,15.1 579.66,18.05 570.22,24.65 573.22,18.09 560.13,27.17 
			564.53,28.09 551.66,33.4 553.51,29.55 550.43,29.16 540,33.1 541.18,36.03 		"/>
		<polyline class="st3" points="533.78,38.46 534.51,41.85 540,33.1 		"/>
		<polyline class="st3" points="514.18,49.77 524.62,42.09 534.59,42.06 524.04,37.35 513.49,50.03 515.47,41.08 503.85,46.44 		"/>
		<line class="st3" x1="524.62" y1="42.09" x2="524.04" y2="37.35"/>
		<polyline class="st3" points="520.64,52.8 513.49,50.03 514.36,52.51 		"/>
		<polyline class="st3" points="501.64,61.97 513.49,50.03 504.08,46.13 		"/>
		<polyline class="st3" points="476.96,42.7 488,38.46 491.52,51.52 504.08,46.24 503.26,39.47 488,38.56 		"/>
		<polyline class="st3" points="477.43,42.6 485.3,44.42 486.71,53.41 		"/>
		<polyline class="st3" points="504.08,46.24 496.57,42.6 487.88,38.46 485.3,44.42 491.52,51.39 496.81,42.4 500.48,38.08 		"/>
		<polyline class="st3" points="496.69,59.57 501.64,53.76 501.85,61.7 		"/>
		<line class="st3" x1="503.26" y1="39.47" x2="496.68" y2="42.7"/>
		<line class="st3" x1="485.3" y1="44.42" x2="482.36" y2="48.15"/>
		<polyline class="st3" points="468.4,37.83 476.96,37.24 477.07,42.56 		"/>
		<line class="st3" x1="469.42" y1="48.88" x2="472.27" y2="40.07"/>
		<polyline class="st3" points="479.39,62.22 474.76,57.74 472.27,40.07 468.11,41.07 468.52,37.95 465.11,38.46 		"/>
		<polyline class="st3" points="511.24,37.95 504.08,46.24 501.64,53.76 492.39,58.98 491.52,51.49 488.33,54.99 477.08,51.49 
			483.72,60.47 474.76,57.74 477.08,51.49 		"/>
		<polyline class="st3" points="457.71,49.57 459.59,54.22 464.88,50.88 		"/>
		<polyline class="st3" points="463.82,55.83 469.1,62.4 469.57,71.39 		"/>
		<polyline class="st3" points="478.26,62.81 469.1,62.4 474.5,57.45 463.82,55.83 464.88,50.88 457.71,49.57 454.06,57.85 
			459.59,54.22 460.31,66.2 463.82,55.83 459.59,54.22 		"/>
		<line class="st3" x1="469.1" y1="62.4" x2="460.31" y2="66.2"/>
		<polyline class="st3" points="464.88,40.48 463,40.88 465.23,44.62 		"/>
		<polygon class="st3" points="460.88,40.98 459.83,39.16 462.53,39.16 463,40.88 		"/>
		<line class="st3" x1="460.88" y1="40.98" x2="462.53" y2="39.16"/>
		<polyline class="st3" points="459.83,39.47 459.94,42.4 458.3,42.19 459.59,45.83 		"/>
		<polyline class="st3" points="459.83,45.73 456.89,43.91 457.01,46.24 454.78,46.44 456.42,48.26 		"/>
		<polyline class="st3" points="445.24,82.05 436.79,76.82 437.52,80.04 431.77,77.36 430.01,79.18 421.21,76.85 418.98,78.06 
			413.01,75.72 		"/>
		<line class="st3" x1="519.2" y1="64.36" x2="513.56" y2="63.84"/>
		<polyline class="st3" points="536.61,56.24 518.74,64.5 486.73,72.63 483.98,75.78 476.01,78.77 		"/>
		<line class="st3" x1="506.85" y1="74.86" x2="501.06" y2="75.15"/>
		<polyline class="st3" points="519.27,82.12 516.45,81.29 515.22,83.36 511.12,77.88 501.06,75.15 494.96,74.2 476.01,78.77 		"/>
		<polyline class="st3" points="453.95,57.98 449.39,56.23 443.9,53.74 441.61,56.62 437.04,55.44 433.23,56.75 424.24,60.43 
			427.9,60.69 427.44,62.4 433.08,58.99 432.47,61.74 437.8,58.46 439.63,61.35 439.18,64.62 439.79,68.19 444.05,72.89 
			443.29,74.99 444.05,76.7 		"/>
		<polyline class="st3" points="439.18,64.62 444.63,62.96 441.59,56.99 439.78,61.74 444.7,62.96 443.9,53.74 		"/>
		<polygon class="st3" points="433.08,58.99 437.03,55.66 437.8,58.46 		"/>
		<polygon class="st3" points="427.9,60.69 432.62,59.12 430.64,57.94 		"/>
		<polyline class="st3" points="432.65,66.12 431.31,64.05 430.33,66.46 426.83,67.77 423.29,66.54 424.08,68.67 426.83,67.64 
			427.29,70.66 		"/>
		<line class="st3" x1="426.87" y1="67.64" x2="431.4" y2="63.84"/>
		<polyline class="st3" points="433.43,63.21 432.77,66.2 430.33,66.46 427.29,70.66 420.71,66.94 419.21,68.56 420.27,70.92 
			416.46,69.35 417.08,66.85 419.21,68.56 		"/>
		<line class="st3" x1="416.46" y1="69.35" x2="419.21" y2="68.56"/>
		<polyline class="st3" points="418.69,59.73 416.31,62.79 408.69,66.59 413.37,61.74 409.85,62.71 		"/>
		<polyline class="st3" points="416.31,62.79 413.41,61.74 418.54,59.85 		"/>
		<line class="st3" x1="413.41" y1="61.74" x2="412.33" y2="60.22"/>
		<polyline class="st3" points="409.91,62.71 408.69,66.59 403.95,68.68 		"/>
		<polyline class="st3" points="416.95,66.69 408.27,75 408.69,72.37 		"/>
		<polyline class="st3" points="418.98,78.06 426.69,81.99 429.88,79.19 432.01,82.07 437.76,80.29 445.27,82.07 		"/>
		<line class="st3" x1="429.88" y1="79.19" x2="437.76" y2="80.29"/>
		<line class="st3" x1="426.78" y1="82.12" x2="421.21" y2="76.85"/>
		<polyline class="st3" points="436.79,76.76 426.22,72.5 431.77,77.36 		"/>
		<line class="st3" x1="443.29" y1="74.99" x2="439.79" y2="68.19"/>
		<path class="st3" d="M561.51,20.39c-4.57-0.36-13.9,4.62-17.64,3.19c-3.74-1.43-4.57-1.07-7.47-0.36
			c-2.91,0.72-7.89,1.07-7.89,1.07s-4.98,1.43-10.38,0c-5.4-1.43-7.47-3.57-16.61-1.07c-9.14,2.5-9.55,6.43-12.46,5
			c-2.91-1.43-3.74-2.15-6.64-1.43c-2.91,0.72-6.23,1.07-8.3,0c-2.08-1.07-5.81-1.07-8.3-0.72c-2.49,0.36-7.89,0.36-12.04-1.79
			c-4.15-2.14-22.01-7.51-41.11-4.65c-9.96,1.49-19.1,8.22-21.6,7.51c-2.49-0.71-7.89-1.79-12.04-0.71
			c-4.15,1.07-4.98,1.79-7.06,0.36c-2.08-1.43-5.4-2.5-7.47-1.43c-2.08,1.07-5.4,1.43-8.72,1.07c-3.33-0.36-16.2-0.72-19.1-0.36
			c-2.91,0.36-10.8,3.22-16.61,0.72c-5.81-2.5-14.96-6.51-23.68-5.09c-8.72,1.43-11.3,2.78-13.38,2.06
			c-2.08-0.72-6.25-1.88-9.29-0.5"/>
		<path class="st3" d="M279.5,27.68c4.57-0.17,12.31,1.55,16.05,0.88c3.74-0.68,4.57-0.51,7.47-0.17c2.91,0.34,7.89,0.51,7.89,0.51
			s4.98,0.68,10.38,0c5.4-0.68,7.47-1.69,16.61-0.51c9.14,1.19,9.55,3.05,12.46,2.37c2.91-0.68,3.74-1.01,6.64-0.68
			c2.9,0.34,6.23,0.51,8.31,0c2.07-0.51,5.81-0.51,8.3-0.33c2.49,0.17,7.89,0.17,12.04-0.85c4.15-1.02,22.01-3.56,41.11-2.2
			c9.95,0.71,19.1,3.89,21.59,3.56c2.49-0.34,7.89-0.85,12.04-0.34c4.15,0.51,4.98,0.84,7.06,0.17c2.08-0.67,5.4-1.18,7.47-0.67
			c2.08,0.51,5.4,0.68,8.72,0.51c3.32-0.17,16.19-0.34,19.1-0.17c2.91,0.17,10.8,1.52,16.61,0.33c5.82-1.18,14.95-3.38,23.67-2.71
			c3.53,0.27,6.11,0.47,8.07,0.57"/>
	</g>
	<polyline class="st3" points="261.87,55.6 274.54,66.89 280.33,68.55 291.65,79.31 302.97,79.04 305.43,85.33 308.96,77.59 
		314.65,80.23 	"/>
	<polyline class="st3" points="378.52,45.04 374.66,47.58 374.15,45.08 	"/>
	<polyline class="st3" points="374.66,47.58 367.75,51.44 368.43,55.47 373.84,53.67 	"/>
	<polyline class="st3" points="371.58,57.49 373.84,53.67 379.67,55 374.88,47.75 383.8,50.02 	"/>
	<polyline class="st3" points="367.75,51.44 373.84,53.67 374.7,47.57 	"/>
	<line class="st3" x1="374.25" y1="53.88" x2="382.56" y2="58.48"/>
	<polygon class="st3" points="302.97,79.04 308.96,77.59 315.27,71.11 	"/>
	<polyline class="st3" points="319.32,73.26 323.07,68.02 332.62,66.24 	"/>
	<polyline class="st3" points="319.95,65.48 323.07,68.02 332.72,62.8 325.86,64.41 323.07,68.02 315.27,71.11 319.32,73.26 
		308.96,77.59 	"/>
	<polygon class="st3" points="291.65,79.31 282.54,76.83 292.1,83.75 	"/>
	<polyline class="st3" points="302.97,79.04 292.1,83.75 297.84,88.81 	"/>
	<polyline class="st3" points="287.25,89.88 292.1,83.75 275.64,84.01 	"/>
	<line class="st3" x1="204.88" y1="75.06" x2="217.67" y2="84.04"/>
	<polyline class="st3" points="239.32,63.75 241.34,59.59 232.26,63.97 227.35,63.99 227.23,68.43 212.33,67.58 217.5,83.93 	"/>
	<polyline class="st3" points="241.58,59.43 244.24,61.01 253.95,58.77 253.43,61.52 	"/>
	<line class="st3" x1="594.4" y1="19.15" x2="599.64" y2="15.28"/>
	<polygon class="st3" points="594.24,94.03 594.24,89.99 601.65,89.04 601.23,98.98 	"/>
	<line class="st3" x1="594.24" y1="94.03" x2="596.02" y2="98.3"/>
	<line class="st3" x1="292.1" y1="83.75" x2="305.43" y2="85.58"/>
</g>
<path class="st2" d="M13.73,84.13l11.68-5.17h-0.84c-0.29,0-1.74-0.07-2.16-0.82c-0.12-0.22-0.21-0.59,0.08-1.08l1.25-2.14
	c1.25-2.17,3.84-2.24,3.95-2.24h10.97l-1.35,2.47c-0.03,0.05-0.66,1.13-1.91,1.13h-3.32l0.39-0.66c-0.06-0.02-0.14-0.03-0.21-0.03
	h-3.75c0,0-0.69,0.01-0.97,0.51l-0.18,0.37c0.06,0.01,0.16,0.03,0.31,0.03h5.71c0.28,0,1.68,0.05,2.12,0.8
	c0.13,0.22,0.23,0.6-0.05,1.11l-1.27,2.34c-1.18,2.2-3.85,2.23-3.96,2.23h-7.92L13.73,84.13z M24.72,80.08l-5.9,2.61l3.4-0.46
	l7.97,0c0.02,0,2.34-0.03,3.31-1.83l1.27-2.34c0.09-0.17,0.11-0.3,0.07-0.38c-0.17-0.29-0.98-0.43-1.48-0.43h-5.71
	c-0.47,0-0.79-0.1-0.97-0.31c-0.12-0.14-0.17-0.32-0.14-0.5l0.03-0.11l0.29-0.58c0.51-0.89,1.58-0.9,1.63-0.9h3.75
	c0.1,0,0.63,0.02,0.88,0.35c0.08,0.1,0.12,0.22,0.13,0.34h2.14c0.81,0,1.24-0.72,1.26-0.75l0.74-1.36h-9.7
	c-0.08,0-2.3,0.1-3.32,1.87l-1.25,2.14c-0.09,0.15-0.11,0.26-0.07,0.34c0.15,0.27,0.98,0.43,1.52,0.44h7.35l-0.87,1.54
	c-0.5,0.9-1.58,0.88-1.63,0.88h-3.72c-0.1,0-0.64-0.02-0.89-0.35C24.77,80.22,24.74,80.15,24.72,80.08z M25.5,79.85
	c0.06,0.02,0.14,0.03,0.21,0.03h3.73c0.03,0,0.69,0,0.97-0.5l0.24-0.43h-4.7L25.5,79.85z"/>
<path class="st2" d="M37.3,83.06c-1.1,0-2.1-0.12-2.44-0.69c-0.12-0.2-0.21-0.54,0.06-1.01l2.95-5.21c1.08-1.88,3.3-1.92,3.4-1.93
	h2.46c1.14,0,1.91,0.31,2.29,0.91c0.55,0.87,0.03,1.97,0.01,2.02l-1.62,3.15c0.17,0.03,0.46,0.03,0.75,0.01
	c0.7-1.46,1.1-2.29,1.52-3.19l0.95-2c0.21-0.71,0.95-0.91,1.36-0.91h3.27l-3.55,6.87c-0.14,0.27-0.19,0.49-0.13,0.62
	c0.05,0.11,0.17,0.15,0.17,0.15l0.44,0.14l-0.6,1.04h-7.41c-0.16-0.01-1-0.11-1.31-0.65c-0.11-0.18-0.19-0.49,0.01-0.9l0.32-0.68
	l-0.32,0.36l-1.79,1.87l-0.36,0C37.58,83.06,37.44,83.06,37.3,83.06z M41.26,74.97c-0.01,0-1.89,0.04-2.75,1.55l-2.95,5.21
	c-0.03,0.05-0.11,0.19-0.07,0.26c0.08,0.14,0.48,0.36,2.21,0.32l0.05,0l1.14-1.19c-0.08-0.05-0.16-0.13-0.21-0.22
	c-0.09-0.15-0.17-0.4,0-0.75l0,0l0,0c0,0,1.7-3.01,1.7-3.01c0.45-0.79,1.39-0.78,1.43-0.77h1.34l-2.62,5.46
	c-0.05,0.1-0.06,0.17-0.03,0.21c0.08,0.15,0.47,0.25,0.71,0.28l6.85,0c-0.07-0.08-0.14-0.17-0.19-0.29
	c-0.15-0.35-0.1-0.78,0.15-1.27l2.98-5.78h-2.05c-0.02,0-0.54,0.01-0.66,0.43l-0.97,2.05c-0.45,0.94-0.86,1.81-1.62,3.39l-0.09,0.18
	l-0.2,0.02c-0.65,0.08-1.47,0.09-1.76-0.32c-0.12-0.18-0.13-0.4-0.03-0.62l1.7-3.29l0,0c0,0,0.36-0.77,0.03-1.29
	c-0.29-0.47-1.07-0.56-1.66-0.56H41.26z M39.57,80.55h0.76l1.65-3.45h-0.16c-0.03,0.01-0.55,0-0.77,0.4l-1.68,2.97
	c-0.02,0.05-0.02,0.07-0.02,0.07C39.34,80.54,39.51,80.55,39.57,80.55z"/>
<path class="st2" d="M62.07,83.05H51.79c-0.25,0-1.49-0.06-1.87-0.72c-0.12-0.2-0.2-0.53,0.05-0.98l2.97-5.21
	c1.06-1.86,3.3-1.9,3.4-1.91h9.36l-3.22,6.26c-0.41,0.8-0.36,1.15-0.32,1.26c0.03,0.08,0.07,0.1,0.08,0.1l0.48,0.12L62.07,83.05z
	 M56.34,74.97c-0.01,0-1.91,0.04-2.75,1.53l-2.96,5.21c-0.04,0.08-0.09,0.18-0.05,0.24c0.11,0.19,0.74,0.34,1.23,0.35h9.82
	c-0.06-0.06-0.11-0.14-0.15-0.23c-0.21-0.46-0.1-1.1,0.33-1.93l2.67-5.18H56.34z M58,81.3l-3.42,0c-0.13-0.01-0.52-0.06-0.73-0.39
	c-0.16-0.27-0.14-0.61,0.05-1.01l-0.01,0l1.57-2.76c0.44-0.78,1.38-0.79,1.42-0.79l3.19,0.02c0.17,0.04,0.57,0.14,0.73,0.48
	c0.06,0.13,0.11,0.35-0.01,0.63l-1.54,3.19C59.15,80.95,58.75,81.3,58,81.3z M54.63,80.55H58c0.37,0,0.54-0.12,0.56-0.17l0.09-0.19
	l1.46-3.04c0.01,0-0.05-0.08-0.22-0.08l-3.01,0.01c-0.02,0-0.55,0.02-0.77,0.41l-1.53,2.69l0,0C54.47,80.43,54.58,80.55,54.63,80.55
	z M58.91,80.39h0.02l-0.03-0.02L58.91,80.39z"/>
<path class="st2" d="M67.45,83.03c-1.41,0-2.42,0-2.55,0c-0.25,0-1.07-0.06-1.44-0.62c-0.15-0.23-0.27-0.64,0-1.25l4.06-6.95h3.77
	l-0.32,0.56c-1.03,1.79-3.01,5.26-3.19,5.62c-0.04,0.08-0.04,0.11-0.04,0.11c0.03,0.01,0.26,0.04,0.41,0.04
	c0.31-0.02,0.45-0.13,0.48-0.17l3.12-6.16h4.2l-3.44,6.31c0.07,0.02,0.16,0.03,0.22,0.03h0.5l3.04-6.34h4.19l-3.24,6.28
	c-0.26,0.7-0.15,1.01-0.09,1.11c0.06,0.1,0.15,0.12,0.15,0.12l0.53,0.07l-0.66,1.23l-4.5,0C70.83,83.03,68.92,83.03,67.45,83.03z
	 M67.94,74.95l-3.82,6.55c-0.06,0.13-0.13,0.36-0.04,0.51c0.12,0.19,0.51,0.28,0.82,0.28c0.28,0,4.2,0,7.75,0l4.07-0.04
	c-0.08-0.07-0.16-0.15-0.23-0.27c-0.25-0.42-0.24-1.02,0.05-1.79l2.7-5.24h-2.5L73.7,81.3h-0.98c-0.16,0-0.7-0.03-0.92-0.41
	c-0.07-0.12-0.15-0.37,0.03-0.7l0.14-0.28l2.71-4.96h-2.48l-2.91,5.72c-0.09,0.24-0.43,0.55-1.1,0.6c-0.14,0.01-0.81,0.03-1.1-0.39
	c-0.11-0.16-0.19-0.43,0-0.82l0,0c0.19-0.39,2.12-3.75,2.9-5.11H67.94z"/>
<path class="st0" d="M90.84,83c-0.62,0-0.91,0-0.91,0h-4.8l-2.18-2.25h5.45c0.74,0,1.06-0.32,1.18-0.52l0.55-1.15
	c0.44-0.83-0.71-0.83-0.71-0.83h-4.19c-0.78,0-1.23,0.44-1.35,0.66l-2.29,4.09h-1.25c0,0-2.75-0.02-1.94-1.47l3.85-6.77
	c1.27-2.23,4-2.25,4-2.25h13.79l-2.87,1.08l-1.55,2.67c-0.44,0.59-1.9,0.6-2.33,0.44c0.39,0.16,1.91,0.46,1.08,2.08l-1.47,2.87
	C92.71,82.27,91.89,83,90.84,83z M86.27,76.63h4.49c0.54,0,0.69-0.29,0.69-0.29l0.28-0.54c0.07-0.2,0.22-0.78-0.69-0.78h-3.94
	c0,0-0.96,0-1.42,0.76l-0.21,0.39C85.41,76.32,85.41,76.63,86.27,76.63z"/>
<path class="st0" d="M106.99,82.52l-0.29,0.49h-2.82h0.02c0,0-1.58-0.12-1.11-1.11l0.95-1.97v0.02c0.37-0.7-0.6-0.7-0.6-0.7h-3.52
	c-0.66,0-1.03,0.37-1.13,0.56l-0.35,0.64l0.02-0.02c-0.37,0.68,0.56,0.7,0.56,0.7h3.35l-1.83,1.89h-4.61c0,0-2.3-0.02-1.62-1.23
	l3.23-5.68c1.07-1.87,3.35-1.89,3.35-1.89h9.52l-3.19,6.21C106.07,82.08,106.99,82.52,106.99,82.52z M101.19,76.53
	c0,0-0.8,0-1.19,0.64l-0.06,0.1c-0.04,0.12-0.04,0.39,0.68,0.39h3.76c0.45,0,0.58-0.25,0.58-0.25l0.12-0.23
	c0.06-0.17,0.18-0.66-0.58-0.66L101.19,76.53L101.19,76.53z"/>
<path class="st0" d="M128.07,73.55l-5.21,2.96h-3.36l-3.54,7.24c-0.96,1.85,0.24,2.08,0.24,2.08l-0.31,0.47h-2.69
	c0,0-1.83-0.02-1.3-1.12l3.87-8.22c0.14-0.35-0.33-0.43-0.55-0.43h-0.79c0,0-0.79,0-1.18,0.63h-3.34l0.61-1.08
	c1.04-1.83,3.32-1.85,3.32-1.85h10.31L128.07,73.55z"/>
<path class="st2" d="M164.62,61.27c-2.53-1.05-5.23-0.87-7.85-0.69c-0.99,0.07-1.95,0.13-2.86,0.13c-1.33-0.46-3.27-1.61-3.25-3.98
	c0.05-5.92,7.01-6.85,9.82-7.64c-2.8,0.2-8.99,1.46-11.65-2.21c1.4-2.47,3.1-4.46,4.06-5.7c-1.04,0.56-2.92,1.68-5.14,2.56
	c-0.05-4.61,6.4-7.83,6.4-7.83s-5.44,2.66-6.35,1.34c-1.87-2.7,6.61-8.21,6.61-8.21s-10.33,5.33-11.44,12.86
	c-1.13-0.83-2.68,0-2.81,1.03c1.25-0.6,2.29-0.35,3.21,1.99c-2.12,0.26-4.28-0.01-6.17-1.31c-7.98-5.52-6.34-13.13-5.29-20.14
	c-1.65,3.51-4.48,8.4-5.83,7.39c-1.42-1.07-2.36-4.22,0.09-13.76c-1.44,1.22-5.24,5.79-5.21,13.97c0,0.78,0.03,1.59,0.09,2.44
	c0.4,5.48,1.87,7.92,2.73,9.66c-0.88,0.62-1.56,1.38-1.56,2.76c0,0.86,0.63,1.81,1.48,2.41c0.1-0.33-0.21-2.49,2.46-2.01
	c2.34,0.42,4.97,2.16,7.15,5.16c2.38,3.26,3.79,7.19,3.79,10.32c0,0.58-0.05,1.13-0.15,1.65c-0.21,1.07-0.71,1.51-1.79,1.52
	c-0.08-0.19-0.18-0.41-0.18-0.41c-0.42-1.06-1.13-2.84-3.14-4.52l-1.44-1.21l-0.31,1.86c-0.08,0.47-0.11,0.91-0.11,1.33
	c0,1.39,0.37,2.5,0.63,3.3c0.05,0.16,0.11,0.33,0.15,0.49c-0.11,0.07-0.21,0.16-0.32,0.22c-0.22,0.13-0.52,0.32-0.76,0.59
	c-0.22,0.05-0.5,0.09-0.77,0.09c-0.22,0-0.63-0.09-0.96-0.16c-0.88-0.19-1.79-0.38-2.26,0.45c-0.3,0.54-0.26,3.24,0.38,3.83
	c0.51,0.47,1.39,0.8,1.39,0.8s-0.04-0.76,0.04-1.1c0.08-0.34,0-0.68,0.25-0.59c0.25,0.08,1.18,0.7,1.8,0.85
	c0.5,0.12,1.34,0.12,1.79,0.12c0,0,0.97-0.06,1.09-0.07c0.03,0.17,0.13,0.43,0.13,0.62c0,0.14-0.08,0.84-0.29,0.93
	c-0.21,0.08-0.63-0.93-0.63-0.93c-0.38,0.51-0.71,1.06-0.72,1.6c-0.01,0.74,0.24,1.41,0.51,1.69c0.74,0.75,1.48,0.3,2.05-0.01
	l0.45-0.23c0,0,0.62-0.14,0.62-0.14c0.95-0.18,2.24-0.43,2.6-1.5c0.23-0.41,1.91-1.68,4.49-1.03c0,0,0.23,0.06,0.23,0.06
	c1.44,0.37,4.82,1.25,7.45,0.94c4.83-0.56,7.36-2.93,9.39-4.83c0.99-0.93,1.85-1.73,2.75-2.09c1.44-0.58,3.4-0.87,4.69-0.26
	c1.35,0.64,2.66,1.82,3.42,4.6C170.09,68.63,170.76,63.35,164.62,61.27z"/>
<path class="st4" d="M141.92,70.75c-3.3-0.84-5.55,0.97-5.77,1.71c-0.22,0.73-2.04,0.76-2.64,1.02c-0.6,0.26-1.27,0.77-1.51,0.53
	c-0.21-0.22-0.4-0.47-0.47-0.87c-0.07-0.4,0.05-0.75,0.05-0.75s0.11,0.36,0.3,0.68c0.25,0.41,0.61,0.31,1.31-0.48
	c0.69-0.79,0.28-2.31,0.15-2.57c-0.33-0.69-1.99,0.05-3.52-0.32c-1.22-0.3-2.26-1.02-2.63-0.95c-0.37,0.07-0.34,1.58-0.34,1.58
	c-0.64-0.75-0.34-2.62-0.21-2.86c0.13-0.24,1.52,0.26,2.27,0.27c0.75,0.01,1.49-0.24,1.49-0.24c0.01-0.43,0.8-0.56,1.38-1.15
	c0.59-0.59-1.13-2.49-0.62-5.52c2.93,2.47,2.75,5.12,3.57,5.17c1.43,0.1,2.88-0.29,3.29-2.38c1.3-6.66-5.09-17.6-11.72-18.4
	c-1.36-0.16-3.01,0.35-2.97,1.7c-0.67-2.51,1.92-3.34,1.92-3.34s-2.59-2.98-3.12-10.19c-0.64-8.81,2.26-13.27,2.91-14.22
	c-3.55,10.14,0.93,18.96,6,7.14c-2.91,11.95,2.5,16.15,5.58,18.17c4.37,2.86,9.73,1.45,14.16-1.55c-3.84,3.97-7.75,11.89-3.39,16.42
	c4.57,4.75,11.66,0.77,17.07,2.88c3.44,1.21,4.77,3.29,4.94,6.08c-1.26-4-4.79-4.87-8.35-3.44c-3.11,1.25-4.96,6.04-11.86,6.85
	C146.62,72.03,143.02,71.04,141.92,70.75z"/>
<path class="st5" d="M137.99,69.8c3.21-1.72,5.61,0.97,11.06-1.27c4.42-1.81,5.52-5.34,9.95-6.73c0.29-0.09,0.59-0.16,0.88-0.22
	c-4.41,0.06-9.12,1.27-12.48-2.22c-4.36-4.53-0.46-12.45,3.39-16.42c-4.43,3-9.8,4.41-14.16,1.55c-3.08-2.02-8.49-6.22-5.58-18.17
	c-5.07,11.83-9.54,3-6-7.14c-0.65,0.95-3.55,5.4-2.91,14.22c0.53,7.21,3.12,10.19,3.12,10.19s-2.58,0.82-1.92,3.34
	c-0.04-1.35,1.6-1.87,2.97-1.7c6.63,0.79,13.02,11.73,11.72,18.4c-0.41,2.09-1.86,2.48-3.29,2.38c-0.81-0.06-0.63-2.71-3.57-5.17
	c-0.51,3.03,1.21,4.93,0.62,5.52c-0.58,0.59-1.37,0.72-1.38,1.15c0,0-0.74,0.25-1.49,0.24c-0.75-0.01-2.14-0.51-2.27-0.27
	c-0.13,0.24-0.43,2.11,0.21,2.85c0,0-0.03-1.51,0.34-1.58c0.37-0.07,1.41,0.65,2.63,0.95c1.53,0.38,3.19-0.37,3.52,0.32
	c0.12,0.26,0.54,1.78-0.15,2.57c-0.69,0.79-1.06,0.88-1.31,0.48c-0.2-0.32-0.3-0.68-0.3-0.68s-0.12,0.35-0.05,0.76
	c0.07,0.4,0.26,0.65,0.47,0.87c0.24,0.24,0.91-0.27,1.51-0.53c0.6-0.26,2.42-0.29,2.64-1.02c0.04-0.12,0.13-0.27,0.27-0.43
	C136.61,71.32,137.04,70.31,137.99,69.8z"/>
<g>
	<path class="st2" d="M154.25,57.28h-0.65v-0.26h1.57v0.26h-0.65v1.76h-0.27L154.25,57.28L154.25,57.28z"/>
	<path class="st2" d="M155.44,57.03h0.41l0.64,1.53h0.01l0.64-1.53h0.41v2.02h-0.27v-1.66h-0.01l-0.68,1.66h-0.18l-0.68-1.66h-0.01
		v1.66h-0.27L155.44,57.03L155.44,57.03z"/>
</g>
<path class="st0" d="M169.57,68.62c-0.27-2.49-2.09-5.21-5.31-6.33c-1.32-0.55-2.7-0.73-4.09-0.76c-0.39,0.06-0.78,0.14-1.17,0.27
	c-4.42,1.39-5.52,4.91-9.95,6.73c-5.46,2.24-7.85-0.45-11.06,1.27c-0.95,0.51-1.38,1.52-1.57,2.23c0.71-0.82,2.74-1.98,5.5-1.28
	c1.1,0.28,4.7,1.28,7.28,0.98c6.9-0.8,8.75-5.6,11.86-6.84c3.4-1.36,6.97,0.13,8.38,3.75c0.06,0.12,0.09,0.19,0.09,0.19
	S169.56,68.75,169.57,68.62z"/>
<rect x="-9.79" y="90.69" class="st2" width="390.44" height="5.72"/>
</svg>
