<?xml version="1.0" encoding="utf-8"?>
<!-- Generator: Adobe Illustrator 23.1.1, SVG Export Plug-In . SVG Version: 6.00 Build 0)  -->
<svg version="1.1" id="Layer_1" xmlns="http://www.w3.org/2000/svg" xmlns:xlink="http://www.w3.org/1999/xlink" x="0px" y="0px"
	 viewBox="0 0 320 320" style="enable-background:new 0 0 320 320;" xml:space="preserve">
<style type="text/css">
	.st0{fill:#80B241;}
	.st1{fill:#141414;}
	.st2{fill:#FFFFFF;}
	.st3{fill:#999999;}
</style>
<rect class="st0" width="320" height="320"/>
<path class="st1" d="M239.6,214.87c-9.81-4.08-20.31-3.37-30.46-2.68c-3.86,0.26-7.56,0.51-11.1,0.5
	c-5.15-1.79-12.69-6.24-12.6-15.46c0.21-22.98,27.2-26.57,38.13-29.67c-10.89,0.78-34.91,5.68-45.23-8.57
	c5.44-9.6,12.04-17.32,15.77-22.11c-4.04,2.19-11.32,6.51-19.94,9.93c-0.21-17.89,24.84-30.4,24.84-30.4s-21.12,10.31-24.65,5.21
	c-7.25-10.48,25.66-31.88,25.66-31.88s-40.1,20.69-44.39,49.92c-4.39-3.24-10.41,0.01-10.9,4.01c4.86-2.34,8.9-1.34,12.45,7.72
	c-8.24,1-16.62-0.05-23.94-5.11c-30.99-21.42-24.61-50.97-20.52-78.18c-6.39,13.61-17.37,32.62-22.64,28.67
	c-5.5-4.14-9.16-16.37,0.35-53.42C84.85,48.1,70.09,65.8,70.19,97.57c0.01,3.03,0.11,6.19,0.35,9.46
	c1.55,21.27,7.27,30.72,10.61,37.51c-3.41,2.41-6.06,5.38-6.06,10.7c0,3.33,2.46,7.05,5.73,9.34c0.41-1.28-0.82-9.67,9.57-7.8
	c9.09,1.63,19.28,8.39,27.75,20.02c9.23,12.67,14.71,27.92,14.71,40.04c0,2.25-0.19,4.39-0.58,6.39c-0.81,4.16-2.75,5.85-6.94,5.88
	c-0.32-0.72-0.71-1.6-0.71-1.6c-1.65-4.12-4.4-11.02-12.17-17.55l-5.61-4.72l-1.22,7.23c-0.31,1.81-0.43,3.52-0.43,5.14
	c0,5.4,1.42,9.71,2.45,12.8c0.2,0.61,0.42,1.3,0.59,1.9c-0.42,0.29-0.79,0.6-1.24,0.86c-0.87,0.51-2.03,1.23-2.94,2.28
	c-0.84,0.19-1.93,0.36-3,0.35c-0.84,0-2.45-0.35-3.75-0.62c-3.42-0.73-6.96-1.49-8.76,1.75c-1.16,2.11-0.99,12.57,1.46,14.87
	c1.96,1.84,5.41,3.12,5.41,3.12s-0.17-2.95,0.17-4.26c0.32-1.31,0-2.62,0.98-2.29s4.57,2.71,7,3.31c1.93,0.47,5.18,0.49,6.94,0.46
	c0,0,3.76-0.24,4.24-0.26c0.12,0.64,0.51,1.68,0.51,2.39c0,0.56-0.32,3.28-1.14,3.61c-0.82,0.33-2.46-3.61-2.46-3.61
	c-1.48,1.97-2.77,4.1-2.79,6.23c-0.03,2.86,0.92,5.49,1.97,6.56c2.87,2.91,5.76,1.15,7.97-0.05l1.73-0.88
	c0.01,0,2.39-0.53,2.39-0.53c3.68-0.7,8.69-1.67,10.11-5.84c0.88-1.57,7.43-6.54,17.43-3.99c0.01,0,0.87,0.22,0.87,0.22
	c5.6,1.45,18.72,4.85,28.92,3.66c18.74-2.19,28.56-11.36,36.44-18.73c3.85-3.59,7.17-6.7,10.68-8.11c5.6-2.25,13.2-3.38,18.21-1.01
	c5.24,2.48,10.33,7.05,13.28,17.87C260.83,243.44,263.45,222.95,239.6,214.87z"/>
<g>
	<path class="st2" d="M172.76,207.49c-16.93-17.58-2.24-49.5,15.63-66.02c-17.2,13.52-40.51,19.42-57.45,8.31
		c-11.97-7.85-33.98-24.17-20.96-72.89c-21.23,50.22-38.7,13.01-23.02-28.41c-2.51,3.68-14.73,24.04-12.24,58.26
		c2.04,27.98,12.1,39.54,12.1,39.54s-10.03,3.2-7.44,12.95c-0.16-5.24,6.22-7.24,11.52-6.61c25.75,3.08,50.53,45.55,45.5,71.41
		c-1.58,8.1-7.22,9.61-12.78,9.23c-3.16-0.22-2.45-10.51-13.85-20.09c-1.98,11.74,4.68,19.14,2.41,21.43
		c-2.25,2.27-5.31,2.79-5.34,4.45c0,0-2.88,0.97-5.8,0.95c-2.93-0.02-8.3-1.96-8.81-1.04c-0.51,0.92-1.67,8.19,0.82,11.09
		c0,0-0.11-5.86,1.32-6.13c1.42-0.27,5.47,2.52,10.21,3.69c5.94,1.46,12.37-1.44,13.66,1.25c0.48,1.01,2.08,6.9-0.6,9.97
		c-2.68,3.06-4.1,3.43-5.07,1.85c-0.76-1.24-1.18-2.65-1.18-2.65s-0.47,1.36-0.21,2.92c0.26,1.56,1,2.54,1.83,3.39
		c0.93,0.94,3.52-1.05,5.86-2.06c2.33-1.01,9.4-1.12,10.24-3.96c0.14-0.46,0.49-1.04,1.04-1.67l0,0c0.75-2.74,2.43-6.69,6.1-8.65
		c12.48-6.67,21.76,3.78,42.95-4.93c17.16-7.04,21.44-20.71,38.6-26.11c1.15-0.36,2.29-0.64,3.42-0.87
		c2.59-0.03,5.15,0.04,7.66,0.29C209.41,213.7,188.02,223.34,172.76,207.49z"/>
</g>
<path class="st3" d="M239.02,218.68c-5.58-2.18-11.62-2.68-17.82-2.6c-1.14,0.22-2.28,0.51-3.42,0.87
	c-17.16,5.4-21.44,19.07-38.6,26.11c-21.18,8.71-30.47-1.74-42.95,4.93c-3.67,1.96-5.35,5.9-6.1,8.65
	c2.78-3.2,10.64-7.68,21.36-4.95c4.27,1.09,18.24,4.95,28.27,3.78c26.78-3.12,33.98-21.73,46.04-26.57
	c13.8-5.54,27.51-2.13,32.4,13.37C257.55,231.46,252.39,223.36,239.02,218.68z"/>
</svg>
