<?xml version="1.0" encoding="utf-8"?>
<!-- Generator: Adobe Illustrator 23.1.1, SVG Export Plug-In . SVG Version: 6.00 Build 0)  -->
<svg version="1.1" id="Layer_1" xmlns="http://www.w3.org/2000/svg" xmlns:xlink="http://www.w3.org/1999/xlink" x="0px" y="0px"
	 viewBox="0 0 1784 791" style="enable-background:new 0 0 1784 791;" xml:space="preserve">
<style type="text/css">
	.st0{fill:#F05123;}
	.st1{fill:#FFFFFF;}
</style>
<path d="M1723.75,504.82c-28.89-12.02-59.78-9.91-89.66-7.9c-11.35,0.77-22.24,1.49-32.66,1.45c-15.15-5.25-37.32-18.35-37.09-45.48
	c0.61-67.62,80.04-78.21,112.22-87.32c-32.04,2.29-102.75,16.7-133.12-25.21c16.02-28.25,35.45-50.98,46.43-65.07
	c-11.91,6.44-33.32,19.16-58.7,29.23c-0.62-52.65,73.12-89.49,73.12-89.49s-62.15,30.34-72.55,15.33
	c-21.33-30.84,75.53-93.84,75.53-93.84s-118.01,60.9-130.64,146.93c-12.92-9.52-30.65,0.04-32.08,11.81
	c14.3-6.9,26.18-3.94,36.63,22.71c-24.27,2.95-48.93-0.14-70.47-15.03c-91.2-63.04-72.44-150.01-60.39-230.09
	c-18.8,40.06-51.13,96.01-66.64,84.37c-16.2-12.18-26.96-48.19,1.03-157.21c-16.42,13.98-59.82,66.11-59.54,159.59
	c0.02,8.91,0.31,18.21,1.01,27.85c4.56,62.61,21.39,90.43,31.23,110.38c-10.02,7.08-17.82,15.83-17.82,31.49
	c0,9.79,7.25,20.74,16.88,27.5c1.2-3.8-2.41-28.47,28.14-22.98c26.76,4.81,56.76,24.69,81.66,58.9
	c27.18,37.28,43.31,82.19,43.31,117.86c0,6.63-0.56,12.93-1.69,18.8c-2.41,12.26-8.11,17.21-20.44,17.32
	c-0.93-2.12-2.08-4.72-2.08-4.72c-4.84-12.12-12.96-32.43-35.85-51.65l-16.49-13.87l-3.57,21.29c-0.91,5.32-1.27,10.37-1.27,15.13
	c0,15.88,4.2,28.58,7.19,37.67c0.6,1.81,1.23,3.84,1.74,5.57c-1.24,0.85-2.33,1.79-3.65,2.54c-2.56,1.48-5.98,3.6-8.66,6.7
	c-2.46,0.53-5.69,1.07-8.83,1.04c-2.48-0.02-7.23-1.04-11.02-1.85c-10.09-2.15-20.51-4.38-25.77,5.14
	c-3.43,6.2-2.92,37.01,4.3,43.77c5.78,5.39,15.92,9.17,15.92,9.17s-0.48-8.68,0.5-12.55c0.95-3.86,0-7.7,2.89-6.74
	c2.9,0.95,13.45,7.99,20.59,9.74c5.7,1.4,15.27,1.42,20.42,1.33c0,0,11.08-0.69,12.49-0.75c0.36,1.89,1.51,4.95,1.51,7.04
	c0,1.63-0.95,9.63-3.36,10.61c-2.43,0.98-7.24-10.61-7.24-10.61c-4.35,5.79-8.14,12.09-8.2,18.33c-0.1,8.41,2.7,16.14,5.77,19.3
	c8.46,8.57,16.96,3.39,23.45-0.13l5.11-2.6c0.03,0,7.04-1.54,7.04-1.54c10.82-2.08,25.55-4.92,29.76-17.19
	c2.57-4.64,21.85-19.26,51.29-11.76c0.03,0,2.59,0.68,2.59,0.68c16.47,4.27,55.09,14.3,85.09,10.79
	c55.15-6.44,84.05-33.44,107.25-55.15c11.32-10.56,21.09-19.71,31.42-23.85c16.49-6.63,38.85-9.96,53.62-2.96
	c15.42,7.31,30.39,20.74,39.06,52.6C1786.22,588.9,1793.93,528.58,1723.75,504.82z"/>
<path d="M0,765.96l133.38-59.06h-9.6c-3.34-0.06-19.87-0.79-24.69-9.39c-1.41-2.51-2.4-6.69,0.9-12.31l14.26-24.46
	c14.27-24.73,43.88-25.55,45.13-25.57h125.27l-15.43,28.26c-0.34,0.59-7.54,12.93-21.83,12.93h-38.04l4.45-7.57
	c-0.68-0.19-1.56-0.33-2.36-0.33h-42.82c-0.06,0-7.83,0.16-11.1,5.78l-2.1,4.21c0.72,0.16,1.84,0.31,3.55,0.31h65.24
	c3.2,0.02,19.23,0.61,24.24,9.16c1.49,2.56,2.6,6.85-0.63,12.71l-14.51,26.75c-13.54,25.13-44,25.42-45.29,25.42H97.57L0,765.96z
	 M125.52,719.7l-67.42,29.86L97,744.32l91.03-0.04c0.26,0,26.69-0.34,37.8-20.95l14.53-26.78c1.06-1.92,1.3-3.36,0.75-4.32
	c-1.91-3.27-11.24-4.88-16.94-4.95h-65.19c-5.39,0-9.01-1.18-11.06-3.61c-1.35-1.59-1.91-3.61-1.56-5.68l0.39-1.2l3.29-6.58
	c5.89-10.14,18.08-10.26,18.6-10.26h42.82c1.17,0,7.16,0.19,10.08,3.98c0.88,1.15,1.37,2.5,1.44,3.92h24.43
	c9.4,0,14.35-8.48,14.4-8.57l8.52-15.59H159.46c-0.17,0.01-26.01,0.82-37.85,21.33l-14.28,24.48c-1.01,1.72-1.28,3.02-0.82,3.85
	c1.74,3.1,11.19,4.92,17.35,5.04h83.97l-9.97,17.56c-5.52,9.77-17.1,10.06-18.4,10.06H136.8c-1.19,0-7.3-0.2-10.16-4.01
	C126.11,721.29,125.73,720.52,125.52,719.7z M134.43,717.16c0.7,0.19,1.59,0.33,2.37,0.33h42.56h0.01c0.48,0,7.9-0.1,11.08-5.74
	l2.75-4.85h-53.68L134.43,717.16z"/>
<path d="M268.78,753.78c-15.78,0-24.25-2.46-27.46-8c-1.33-2.29-2.28-6.13,0.75-11.41l33.65-59.5c12.29-21.52,37.73-21.99,38.81-22
	h28.09c13.03,0,21.85,3.51,26.2,10.43c6.24,9.92,0.32,22.52,0.07,23.05l-18.54,36.04c1.61,0.29,5.81,0.36,8.52,0.16
	c8.13-16.9,12.68-26.48,17.64-36.96l10.62-22.33c2.35-8.07,10.87-10.39,15.49-10.39h37.4l-40.51,78.47
	c-1.64,3.1-2.17,5.63-1.52,7.13c0.52,1.19,1.85,1.68,1.86,1.69l5.36,1.45l-7.05,12.06l-84.46-0.01c-2.55-0.21-11.65-1.38-15.12-7.41
	c-1.21-2.11-2.19-5.61,0.07-10.3l3.72-7.77l-3.72,4.15l-20.44,21.34l-4.11,0.04C272.65,753.74,270.81,753.78,268.78,753.78z
	 M314.57,661.38c-0.17,0-21.63,0.5-31.44,17.69l-33.65,59.5c-0.78,1.35-1.07,2.45-0.79,2.93c0.22,0.39,2.69,3.76,20.09,3.76
	c1.96,0,3.74-0.04,5.15-0.07l0.63-0.01l13.06-13.63c-0.92-0.62-1.75-1.4-2.39-2.42c-1.08-1.71-1.97-4.59-0.07-8.65l0,0
	c0.01-0.02,19.45-34.42,19.45-34.42c4.87-8.61,15.01-8.86,16.14-8.86h15.47l-29.89,62.4c-0.52,1.1-0.64,1.9-0.37,2.39
	c0.98,1.7,5.52,2.95,8.29,3.16l78.13-0.01c-0.83-0.87-1.61-1.94-2.2-3.3c-1.76-4.03-1.16-8.89,1.78-14.46l34.08-66.02h-23.42
	c-0.22,0-6.14,0.16-7.58,4.93l-10.85,22.94c-5.18,10.91-9.91,20.87-18.71,39.17l-1.01,2.1l-2.31,0.28c0,0-3.47,0.42-7.33,0.42
	c-7.09,0-11.08-1.34-12.94-4.35c-0.7-1.15-1.66-3.56-0.07-6.74l0.09,0.02l19.34-37.59l0,0c0,0,4.08-8.83,0.33-14.75
	c-3.37-5.32-12.18-6.43-18.98-6.43H314.57z M292.86,724.11c-0.13,0.68,1.29,1,2.33,1.01l8.6,0.11l18.91-39.5h-1.87h-0.01
	c-0.38,0-6.28,0.07-8.81,4.54L292.86,724.11z"/>
<path d="M552.27,753.67H434.83c-2.85-0.04-16.96-0.67-21.32-8.26c-1.32-2.3-2.29-6.1,0.57-11.22l33.89-59.56
	c12.05-21.29,37.72-21.75,38.81-21.76h106.88l-36.85,71.54c-4.74,9.19-4.16,13.13-3.69,14.41c0.33,0.88,0.82,1.12,0.92,1.15
	l5.45,1.33L552.27,753.67z M486.82,661.38c-0.18,0-21.85,0.49-31.45,17.45l-33.87,59.54c-0.48,0.88-1,2.1-0.61,2.79
	c1.29,2.24,8.42,3.9,14.02,4h112.23c-0.63-0.72-1.2-1.59-1.66-2.6c-2.36-5.19-1.09-12.62,3.78-22.04l30.46-59.13H486.82z
	 M505.79,733.63l-39.05-0.01c-1.5-0.09-6-0.67-8.33-4.5c-1.85-3.05-1.65-6.93,0.61-11.52l-0.07-0.03l17.9-31.51
	c5.04-8.95,15.75-9.05,16.2-9.05l36.39,0.17c1.78,0.44,6.51,1.59,8.41,5.53c0.74,1.52,1.3,4.02-0.18,7.24l-17.57,36.45
	C518.86,729.7,514.35,733.63,505.79,733.63z M467.23,725.12h38.56c4.28,0,6.13-1.41,6.43-1.91l1.07-2.21l16.69-34.68
	c0.08,0.09-0.36-0.32-2.55-0.85l-34.37,0.07c-0.03,0-6.22,0.14-8.8,4.73l-17.44,30.69l0.04,0.02c-1.44,2.77-1.15,3.76-1.15,3.76
	C465.86,724.88,466.66,725.1,467.23,725.12z"/>
<path d="M613.54,753.48c-16.03,0-27.49,0-29.05-0.01c-2.8-0.02-12.23-0.61-16.4-7.1c-1.72-2.66-3.1-7.31,0.01-14.3l46.34-79.42
	h43.12l-3.66,6.37c-11.71,20.4-34.42,60.09-36.47,64.25c-0.42,0.85-0.41,1.23-0.41,1.23c0.09-0.18,1.59,0.42,4.17,0.42
	c4.12-0.29,5.7-1.53,5.97-1.94l35.68-70.33h47.95l-39.26,72.12c0.76,0.21,1.79,0.36,2.5,0.36h5.74l34.72-72.47h47.85l-37.05,71.76
	c-2.92,8.02-1.69,11.55-1.02,12.69c0.67,1.12,1.69,1.43,1.69,1.43l6.04,0.84l-7.54,14.1L613.54,753.48z M619.33,661.16l-43.66,74.78
	c-0.65,1.52-1.46,4.18-0.41,5.82c1.32,2.05,5.68,3.16,9.3,3.2c1.54,0.01,12.97,0.01,28.98,0.01l106.05-0.43
	c-0.92-0.77-1.84-1.77-2.62-3.07c-2.87-4.79-2.69-11.69,0.54-20.47l30.86-59.83h-28.51l-34.73,72.47H674
	c-1.86-0.01-8.03-0.39-10.49-4.66c-0.78-1.34-1.76-4.17,0.39-7.97l1.55-3.13l30.99-56.71h-28.38l-33.19,65.39
	c-0.99,2.71-4.95,6.26-12.52,6.85l-1.15,0.03c-3.89,0-9.05-0.82-11.5-4.73c-1.13-1.79-2.01-4.83,0.08-9.17
	c2.19-4.45,24.18-42.87,33.08-58.38H619.33z"/>
<path class="st0" d="M880.92,753.14c-7.05,0-10.38,0-10.38,0h-54.8l-24.94-25.73h62.24c8.4,0,12.05-3.64,13.45-5.89l6.29-13.14
	c5.05-9.53-8.12-9.53-8.12-9.53h-47.88c-8.96,0-14,5.05-15.41,7.57l-26.17,46.77h-14.28c0,0-31.37-0.28-22.11-16.81l43.96-77.29
	c14.56-25.47,45.64-25.74,45.64-25.74h157.55l-32.79,12.36l-17.77,30.48c-5.04,6.72-21.76,6.85-26.64,5.04
	c4.47,1.81,21.86,5.32,12.34,23.8l-16.81,32.77C902.33,744.79,892.96,753.14,880.92,753.14z M828.68,680.38h51.24
	c6.17,0,7.84-3.37,7.84-3.37l3.24-6.15c0.83-2.25,2.51-8.96-7.86-8.96h-45.07c0,0-10.93,0-16.25,8.67l-2.37,4.47
	C818.88,676.74,818.88,680.38,828.68,680.38z"/>
<path class="st0" d="M1065.41,747.56l-3.3,5.63h-32.18h0.23c0,0-18.07-1.43-12.67-12.7l10.81-22.54v0.24
	c4.22-7.99-6.81-7.99-6.81-7.99h-40.17c-7.54,0-11.75,4.23-12.93,6.34l-4,7.28l0.23-0.22c-4.23,7.76,6.35,7.98,6.35,7.98h38.3
	l-20.91,21.61h-52.62c0,0-26.33-0.23-18.57-14.11l36.88-64.84c12.21-21.38,38.29-21.58,38.29-21.58h108.75l-36.39,70.93
	C1054.84,742.61,1065.41,747.56,1065.41,747.56z M999.16,679.19c0,0-9.16,0-13.62,7.28l-0.71,1.18c-0.47,1.41-0.47,4.46,7.76,4.46
	h42.99c5.16,0,6.58-2.83,6.58-2.83l1.42-2.57c0.69-1.89,2.11-7.51-6.58-7.51H999.16z"/>
<path class="st0" d="M1306.21,645.11l-59.56,33.75h-38.38l-40.43,82.75c-10.95,21.15,2.77,23.72,2.77,23.72l-3.49,5.35h-30.7
	c0,0-20.94-0.23-14.88-12.8l44.15-93.91c1.63-3.95-3.72-4.88-6.29-4.88h-9.06c0,0-9.07,0-13.5,7.2h-38.15l6.97-12.33
	c11.88-20.92,37.92-21.17,37.92-21.17h117.74L1306.21,645.11z"/>
<g>
	<path class="st1" d="M1692.24,509.22c-57.28-7.92-120.27,20.56-165.21-26.12c-49.82-51.75-6.6-145.69,46-194.3
		c-50.63,39.81-119.23,57.16-169.1,24.45c-35.23-23.1-100.01-71.13-61.69-214.53c-62.49,147.79-113.9,38.29-67.75-83.63
		c-7.39,10.85-43.34,70.77-36.03,171.48c6.02,82.35,35.6,116.38,35.6,116.38s-29.52,9.4-21.9,38.12
		c-0.47-15.43,18.3-21.32,33.9-19.46c75.77,9.07,148.73,134.05,133.9,210.17c-4.64,23.84-21.25,28.28-37.59,27.16
		c-9.31-0.64-7.24-30.92-40.77-59.12c-5.83,34.57,13.76,56.31,7.09,63.05c-6.63,6.69-15.64,8.21-15.74,13.11
		c0,0-8.49,2.85-17.08,2.79c-8.6-0.04-24.43-5.76-25.93-3.04c-1.5,2.71-4.91,24.08,2.43,32.63c0,0-0.33-17.24,3.88-18.06
		c4.17-0.8,16.08,7.41,30.04,10.85c17.47,4.3,36.4-4.23,40.2,3.67c1.42,2.97,6.13,20.32-1.74,29.34c-7.9,9.01-12.05,10.1-14.92,5.44
		c-2.23-3.64-3.47-7.79-3.47-7.79s-1.39,4.02-0.61,8.61c0.77,4.59,2.93,7.48,5.36,9.99c2.75,2.75,10.37-3.06,17.24-6.06
		c6.86-2.99,27.67-3.31,30.16-11.66c0.41-1.36,1.45-3.06,3.05-4.9c0,0,0,0,0,0c2.22-8.08,7.17-19.69,17.95-25.45
		c36.73-19.64,64.04,11.1,126.39-14.54c50.5-20.73,63.11-60.95,113.61-76.86c3.34-1.05,6.68-1.9,10-2.56
		C1677.2,508.27,1684.79,508.48,1692.24,509.22z"/>
</g>
<g>
	<path d="M1605.28,459.29h-7.41v-2.92h17.97v2.92h-7.44v20.12h-3.12V459.29z"/>
	<path d="M1618.93,456.37h4.64l7.34,17.45h0.12l7.27-17.45h4.65v23.04h-3.13v-18.95h-0.06l-7.78,18.95h-2.1l-7.76-18.95h-0.07v18.95
		h-3.13V456.37z"/>
</g>
<path class="st0" d="M1722.03,516.04c-16.44-6.43-34.25-7.92-52.51-7.67c-3.32,0.66-6.65,1.5-10,2.56
	c-50.5,15.9-63.11,56.13-113.61,76.86c-62.35,25.64-89.67-5.11-126.39,14.54c-10.79,5.76-15.74,17.37-17.95,25.45
	c8.18-9.42,31.3-22.62,62.87-14.57c12.59,3.22,53.68,14.6,83.21,11.13c78.82-9.18,99.99-63.95,135.52-78.18
	c40.59-16.3,80.94-6.29,95.32,39.36C1776.56,553.64,1761.38,529.81,1722.03,516.04z"/>
</svg>
