<?xml version="1.0" encoding="utf-8"?>
<!-- Generator: Adobe Illustrator 23.1.1, SVG Export Plug-In . SVG Version: 6.00 Build 0)  -->
<svg version="1.1" id="Layer_4" xmlns="http://www.w3.org/2000/svg" xmlns:xlink="http://www.w3.org/1999/xlink" x="0px" y="0px"
	 viewBox="0 0 2252 566.5" style="enable-background:new 0 0 2252 566.5;" xml:space="preserve">
<style type="text/css">
	.st0{fill:#A99D7A;}
	.st1{fill:#A39274;}
	.st2{fill:#877858;}
	.st3{fill:#CFC6B9;}
	.st4{fill:#CEC5B8;}
	.st5{fill:#BEB285;}
	.st6{fill:#E5DEAD;}
	.st7{fill:#E6DFAE;}
	.st8{fill:none;stroke:#E6DFAE;stroke-width:2;}
	.st9{opacity:0.3;fill:none;stroke:#E6DFAE;stroke-width:2;enable-background:new    ;}
	.st10{fill:none;stroke:#CFC6B9;stroke-width:2;stroke-miterlimit:10;}
	.st11{opacity:0.3;fill:none;stroke:#CFC6B9;stroke-width:2;stroke-miterlimit:10;enable-background:new    ;}
	.st12{opacity:0.8;fill:none;stroke:#A99D7A;stroke-width:2;stroke-miterlimit:10;enable-background:new    ;}
	.st13{opacity:0.2;fill:none;stroke:#A99D7A;stroke-width:2;stroke-miterlimit:10;enable-background:new    ;}
	.st14{opacity:0.4;}
	.st15{fill:none;stroke:#939598;stroke-width:2;}
	.st16{fill:none;stroke:#939598;stroke-width:2;stroke-dasharray:5.8729,5.8729;}
	.st17{fill:none;stroke:#939598;stroke-width:2;stroke-dasharray:6.1089,6.1089;}
	.st18{fill:none;stroke:#939598;stroke-width:2;stroke-dasharray:5.8728,5.8728;}
	.st19{fill:none;stroke:#939598;stroke-width:2;stroke-dasharray:6.1088,6.1088;}
</style>
<polyline class="st0" points="2252,235.3 2176.6,235.3 2176.6,159.9 2252,159.9 2252,235.3 "/>
<polyline class="st1" points="2252,322.4 2176.6,322.4 2176.6,247 2252,247 2252,322.4 "/>
<polyline class="st1" points="2252,409.4 2176.6,409.4 2176.6,334 2252,334 2252,409.4 "/>
<polyline class="st2" points="2252,235.3 2176.6,235.3 2176.6,159.9 2252,159.9 2252,235.3 "/>
<polyline class="st3" points="2074.3,235.3 1998.9,235.3 1998.9,159.9 2074.3,159.9 2074.3,235.3 "/>
<polyline class="st3" points="2163.1,235.3 2087.7,235.3 2087.7,159.9 2163.1,159.9 2163.1,235.3 "/>
<polyline class="st3" points="2163.1,409.4 2087.7,409.4 2087.7,334 2163.1,334 2163.1,409.4 "/>
<polyline class="st4" points="2163.1,322.4 2087.7,322.4 2087.7,247 2163.1,247 2163.1,322.4 "/>
<polyline class="st5" points="2074.3,235.3 1998.9,235.3 1998.9,159.9 2074.3,159.9 2074.3,235.3 "/>
<polyline class="st6" points="2074.3,322.4 1998.9,322.4 1998.9,247 2074.3,247 2074.3,322.4 "/>
<polyline class="st6" points="2074.3,409.4 1998.9,409.4 1998.9,334 2074.3,334 2074.3,409.4 "/>
<polyline class="st5" points="2163.1,235.3 2087.7,235.3 2087.7,159.9 2163.1,159.9 2163.1,235.3 "/>
<polyline class="st5" points="2163.1,409.4 2087.7,409.4 2087.7,334 2163.1,334 2163.1,409.4 "/>
<polygon class="st7" points="294.5,70.5 206.1,40.4 294.5,10.3 382.8,40.4 "/>
<polygon class="st7" points="192.1,107.6 103.8,77.4 192.1,47.3 280.5,77.4 "/>
<polygon class="st8" points="295.6,143.4 207.2,113.3 295.6,83.1 383.9,113.3 "/>
<polygon class="st8" points="497.6,143.4 409.2,113.3 497.6,83.1 586,113.3 "/>
<polygon class="st8" points="398.2,180.1 309.9,149.9 398.2,119.8 486.6,149.9 "/>
<polygon class="st8" points="295.6,216.7 207.2,186.6 295.6,156.4 383.9,186.6 "/>
<polygon class="st7" points="89.7,144.6 1.4,114.4 89.7,84.3 178.1,114.4 "/>
<polygon class="st7" points="396.8,107 308.5,76.8 396.8,46.7 485.2,76.8 "/>
<polygon class="st7" points="192.1,181 103.8,150.9 192.1,120.7 280.5,150.9 "/>
<polygon class="st9" points="943.2,208.2 854.9,178 943.2,147.9 1031.6,178 "/>
<polygon class="st9" points="1145.3,208.2 1056.9,178 1145.3,147.9 1233.6,178 "/>
<polygon class="st9" points="1045.9,244.8 957.5,214.7 1045.9,184.5 1134.2,214.7 "/>
<polygon class="st9" points="943.2,281.5 854.9,251.3 943.2,221.2 1031.6,251.3 "/>
<polygon class="st3" points="294.5,239.6 206.1,209.4 294.5,179.3 382.8,209.4 "/>
<polygon class="st10" points="193.4,275.4 105.1,245.3 193.4,215.2 281.8,245.3 "/>
<polygon class="st10" points="90,312.1 1.6,282 90,251.8 178.3,282 "/>
<polygon class="st10" points="399.5,349.6 311.2,319.4 399.5,289.3 487.9,319.4 "/>
<polygon class="st10" points="296.1,386.2 207.7,356.1 296.1,326 384.4,356.1 "/>
<polygon class="st3" points="396.8,276 308.5,245.9 396.8,215.7 485.2,245.9 "/>
<polygon class="st3" points="294.5,313 206.1,282.9 294.5,252.8 382.8,282.9 "/>
<polygon class="st3" points="192.1,350 103.8,319.9 192.1,289.8 280.5,319.9 "/>
<polygon class="st3" points="499.2,312.5 410.8,282.3 499.2,252.2 587.5,282.3 "/>
<polygon class="st3" points="942.1,239.6 853.8,209.4 942.1,179.3 1030.5,209.4 "/>
<polygon class="st11" points="841.1,275.4 752.8,245.3 841.1,215.2 929.5,245.3 "/>
<polygon class="st11" points="737.7,312.1 649.3,282 737.7,251.8 826,282 "/>
<polygon class="st11" points="1047.2,349.6 958.9,319.4 1047.2,289.3 1135.6,319.4 "/>
<polygon class="st11" points="943.8,386.2 855.4,356.1 943.8,326 1032.1,356.1 "/>
<polygon class="st3" points="1044.5,276 956.1,245.9 1044.5,215.7 1132.8,245.9 "/>
<polygon class="st3" points="942.1,313 853.8,282.9 942.1,252.8 1030.5,282.9 "/>
<polygon class="st3" points="839.8,350 751.4,319.9 839.8,289.8 928.1,319.9 "/>
<polygon class="st3" points="1146.8,312.5 1058.5,282.3 1146.8,252.2 1235.2,282.3 "/>
<polygon class="st0" points="1779.6,364.7 1691.2,334.6 1779.6,304.4 1867.9,334.6 "/>
<polygon class="st0" points="1677.2,401.7 1588.8,371.6 1677.2,341.4 1765.6,371.6 "/>
<polygon class="st0" points="1574.8,438.7 1486.5,408.6 1574.8,378.4 1663.2,408.6 "/>
<polygon class="st0" points="499.2,485 410.8,454.8 499.2,424.7 587.5,454.8 "/>
<polygon class="st0" points="396.8,522 308.5,491.9 396.8,461.7 485.2,491.9 "/>
<polygon class="st0" points="294.5,559 206.1,528.9 294.5,498.7 382.8,528.9 "/>
<polygon class="st12" points="397.3,448.3 309,418.2 397.3,388 485.7,418.2 "/>
<polygon class="st12" points="295,485.3 206.6,455.2 295,425 383.3,455.2 "/>
<polygon class="st12" points="192.6,522.3 104.3,492.2 192.6,462.1 281,492.2 "/>
<polygon class="st12" points="293.1,410.9 204.7,380.7 293.1,350.6 381.4,380.7 "/>
<polygon class="st12" points="190.7,447.9 102.4,417.7 190.7,387.6 279,417.7 "/>
<polygon class="st12" points="88.3,484.9 0,454.7 88.3,424.6 176.7,454.7 "/>
<polygon class="st0" points="1146.8,411 1058.5,380.8 1146.8,350.7 1235.2,380.8 "/>
<polygon class="st0" points="1044.5,448 956.1,417.8 1044.5,387.7 1132.8,417.8 "/>
<polygon class="st0" points="942.1,485 853.8,454.8 942.1,424.7 1030.5,454.8 "/>
<polygon class="st13" points="1045,374.3 956.7,344.2 1045,314 1133.4,344.2 "/>
<polygon class="st13" points="942.7,411.3 854.3,381.2 942.7,351 1031,381.2 "/>
<polygon class="st13" points="840.3,448.3 752,418.2 840.3,388 928.7,418.2 "/>
<polygon class="st13" points="940.8,336.8 852.4,306.7 940.8,276.5 1029.1,306.7 "/>
<polygon class="st13" points="838.4,373.8 750,343.7 838.4,313.6 926.7,343.7 "/>
<polygon class="st13" points="736,410.9 647.7,380.7 736,350.6 824.4,380.7 "/>
<g>
	<g class="st14">
		<line class="st15" x1="1385.5" y1="133.6" x2="1385.5" y2="136.6"/>
		<line class="st16" x1="1385.5" y1="142.4" x2="1385.5" y2="327.4"/>
		<line class="st15" x1="1385.5" y1="330.4" x2="1385.5" y2="333.4"/>
	</g>
</g>
<g>
	<g class="st14">
		<line class="st15" x1="1472.9" y1="163.4" x2="1472.9" y2="166.4"/>
		<line class="st16" x1="1472.9" y1="172.2" x2="1472.9" y2="357.2"/>
		<line class="st15" x1="1472.9" y1="360.2" x2="1472.9" y2="363.2"/>
	</g>
</g>
<g>
	<g class="st14">
		<line class="st15" x1="1576.7" y1="22.6" x2="1576.7" y2="25.6"/>
		<line class="st17" x1="1576.7" y1="31.7" x2="1576.7" y2="187.5"/>
		<line class="st15" x1="1576.7" y1="190.5" x2="1576.7" y2="193.5"/>
	</g>
</g>
<g>
	<g class="st14">
		<line class="st15" x1="1868.7" y1="209.6" x2="1868.7" y2="212.6"/>
		<line class="st18" x1="1868.7" y1="218.5" x2="1868.7" y2="403.5"/>
		<line class="st15" x1="1868.7" y1="406.4" x2="1868.7" y2="409.4"/>
	</g>
</g>
<g>
	<g class="st14">
		<line class="st15" x1="1781.3" y1="239.4" x2="1781.3" y2="242.4"/>
		<line class="st18" x1="1781.3" y1="248.3" x2="1781.3" y2="433.3"/>
		<line class="st15" x1="1781.3" y1="436.2" x2="1781.3" y2="439.2"/>
	</g>
</g>
<g>
	<g class="st14">
		<line class="st15" x1="1692.9" y1="210.7" x2="1692.9" y2="213.7"/>
		<line class="st18" x1="1692.9" y1="219.5" x2="1692.9" y2="404.5"/>
		<line class="st15" x1="1692.9" y1="407.5" x2="1692.9" y2="410.5"/>
	</g>
</g>
<g>
	<g class="st14">
		<line class="st15" x1="1679.5" y1="119.2" x2="1679.5" y2="122.2"/>
		<line class="st19" x1="1679.5" y1="128.3" x2="1679.5" y2="284.1"/>
		<line class="st15" x1="1679.5" y1="287.2" x2="1679.5" y2="290.2"/>
	</g>
</g>
<g>
	<g class="st14">
		<line class="st15" x1="1764.8" y1="89.4" x2="1764.8" y2="92.4"/>
		<line class="st17" x1="1764.8" y1="98.5" x2="1764.8" y2="254.3"/>
		<line class="st15" x1="1764.8" y1="257.4" x2="1764.8" y2="260.4"/>
	</g>
</g>
<polygon class="st7" points="942.1,135.3 853.8,105.2 942.1,75 1030.5,105.2 "/>
<polygon class="st7" points="839.8,172.3 751.4,142.2 839.8,112 928.1,142.2 "/>
<polygon class="st7" points="737.4,209.3 649.1,179.2 737.4,149.1 825.8,179.2 "/>
<polygon class="st7" points="1044.5,171.7 956.1,141.6 1044.5,111.5 1132.8,141.6 "/>
<polygon class="st7" points="839.8,245.8 751.4,215.6 839.8,185.5 928.1,215.6 "/>
<polygon class="st3" points="1574.8,251.9 1486.5,221.8 1574.8,191.6 1663.2,221.8 "/>
<polygon class="st3" points="1677.2,288.4 1588.8,258.2 1677.2,228.1 1765.6,258.2 "/>
<polygon class="st3" points="1574.8,325.4 1486.5,295.2 1574.8,265.1 1663.2,295.2 "/>
<polygon class="st3" points="1472.5,362.4 1384.1,332.2 1472.5,302.1 1560.8,332.2 "/>
<polygon class="st3" points="1779.6,324.8 1691.2,294.6 1779.6,264.5 1867.9,294.6 "/>
<polygon class="st7" points="1574.8,206.2 1486.5,176.1 1574.8,146 1663.2,176.1 "/>
<polygon class="st7" points="1472.5,243.3 1384.1,213.1 1472.5,183 1560.8,213.1 "/>
<polygon class="st7" points="1370.1,280.3 1281.8,250.1 1370.1,220 1458.5,250.1 "/>
<polygon class="st7" points="1677.2,242.7 1588.8,212.5 1677.2,182.4 1765.6,212.5 "/>
<polygon class="st7" points="1472.5,316.7 1384.1,286.6 1472.5,256.4 1560.8,286.6 "/>
</svg>
