<?xml version="1.0" encoding="utf-8"?>
<!-- Generator: Adobe Illustrator 23.1.1, SVG Export Plug-In . SVG Version: 6.00 Build 0)  -->
<svg version="1.1" id="Layer_1" xmlns="http://www.w3.org/2000/svg" xmlns:xlink="http://www.w3.org/1999/xlink" x="0px" y="0px"
	 viewBox="0 0 1088 1410" style="enable-background:new 0 0 1088 1410;" xml:space="preserve">
<style type="text/css">
	.st0{fill:#ABABAB;}
	.st1{fill:#FFFFFF;}
	.st2{fill-rule:evenodd;clip-rule:evenodd;fill:#ECD320;}
	.st3{fill:#010101;}
</style>
<rect x="27.35" y="28.92" class="st0" width="1031.73" height="1352.07"/>
<g>
	<path class="st1" d="M328.22,1035.62h40.2V894.63H325.1v-33.41h84.93v174.39h38.22v33.41H328.22L328.22,1035.62L328.22,1035.62z"/>
	<path class="st1" d="M513.93,1035.62h40.2V894.63h-43.31v-33.41h84.93v174.39h38.22v33.41H513.93L513.93,1035.62L513.93,1035.62z"
		/>
	<path class="st1" d="M791.08,858.4c-13.87,13.87-30.01,33.41-39.35,49.82c-5.38,8.78-17.27,30.29-19.82,42.18
		c13.31-10.19,30.01-10.19,32.55-10.19c31.71,0,61.43,23.78,61.43,67.66c0,16.42-5.66,67.94-66.81,67.94
		c-45.86,0-71.34-31.42-71.34-80.11c0-32.84,5.94-53.51,17.27-80.12c9.06-21.23,10.19-22.93,31.71-57.18L791.08,858.4L791.08,858.4z
		 M782.87,1004.19c0-6.51-0.56-15.01-5.09-21.8c-5.95-8.78-14.72-9.91-20.66-9.91c-25.76,0-25.76,26.05-25.76,37.09
		c0,17.27,4.81,34.82,25.19,34.82C782.87,1044.39,782.87,1018.06,782.87,1004.19z"/>
</g>
<g>
	<path class="st1" d="M13.77,513.24l27.39-47.6h23.56v51.55h7.42v14.35h-7.42v21.89H47.38v-21.89H13.77V513.24z M25.25,517.19h22.01
		v-37.68L25.25,517.19z"/>
	<path class="st1" d="M96.54,479.28c3.23-5.86,9.45-14.95,23.44-14.95c6.94,0,16.62,2.75,22.49,13.76
		c4.19,7.77,5.86,20.57,5.86,32.05c0,5.14-0.48,21.29-5.86,31.94c-2.87,5.74-8.97,14.23-21.77,14.23c-29.3,0-29.3-34.09-29.3-46.29
		C91.4,500.81,91.4,488.73,96.54,479.28z M130.03,500.09c0-17.22-4.43-21.65-10.29-21.65c-5.38,0-10.17,2.75-10.17,21.29v19.14
		c0,20.93,5.26,23.32,10.64,23.32c8.13,0,9.81-9.21,9.81-25L130.03,500.09L130.03,500.09z"/>
</g>
<g>
	<path class="st1" d="M819.66,1218.72l14.09-24.5h12.12v26.53h3.82v7.38h-3.82v11.26h-8.92v-11.26h-17.29V1218.72z M825.57,1220.75
		h11.32v-19.39L825.57,1220.75z"/>
	<path class="st1" d="M862.31,1201.24c1.66-3.01,4.86-7.69,12.06-7.69c3.57,0,8.55,1.42,11.57,7.08c2.15,4,3.02,10.58,3.02,16.49
		c0,2.64-0.25,10.95-3.02,16.43c-1.48,2.95-4.62,7.32-11.2,7.32c-15.08,0-15.08-17.54-15.08-23.82
		C859.67,1212.32,859.67,1206.1,862.31,1201.24z M879.55,1211.95c0-8.86-2.28-11.14-5.29-11.14c-2.77,0-5.23,1.42-5.23,10.95v9.85
		c0,10.77,2.71,12,5.48,12c4.18,0,5.05-4.74,5.05-12.86L879.55,1211.95L879.55,1211.95z"/>
</g>
<g>
	<path class="st1" d="M773.58,338.98h4.57v-16.03h-4.93v-3.8h9.66v19.83h4.34v3.8h-13.65L773.58,338.98L773.58,338.98z"/>
	<path class="st1" d="M805.35,330.45c1.23,0.45,2.29,0.8,3.12,2.35c0.42,0.8,0.77,1.74,0.77,3.38c0,2.54-1,4.67-2.71,5.89
		c-1.74,1.26-3.86,1.35-5.25,1.35c-5.8,0-7.66-4.28-7.66-6.86c0-1.61,0.16-2.58,0.87-3.7c0.64-0.97,1.71-1.9,2.9-2.38v-0.22
		c-1.42-0.61-3.22-2.22-3.22-5.09c0-0.97,0-3.25,2.32-4.99c1.42-1.06,3.19-1.48,4.9-1.48c3.9,0,7.18,2.25,7.18,6.34
		c0,3.45-2.35,4.7-3.22,5.18L805.35,330.45L805.35,330.45z M799.17,333.19c-0.45,0.64-0.68,1.42-0.68,2.74
		c0,3.48,1.55,3.96,2.93,3.96c2.35,0,2.96-1.71,2.96-3.93c0-1.1,0-3.9-2.96-3.9C801.04,332.06,799.91,332.19,799.17,333.19z
		 M803.87,325.65c0-2.09-0.77-3.28-2.48-3.28c-1.93,0-2.54,1.45-2.54,3.19c0,0.71,0,3.19,2.51,3.19
		C803.68,328.74,803.87,326.42,803.87,325.65z"/>
</g>
<g>
	<path class="st1" d="M174.69,953.18h5.23v3.94h0.12c1.25-2.29,3.3-4.39,6.12-4.39c5.39,0,5.39,4.55,5.39,6.16v15.61h-5.67v-13.92
		c0-0.85,0.04-2.9-1.85-2.9c-1.61,0-2.57,1.05-3.66,2.21v14.61h-5.68L174.69,953.18L174.69,953.18z"/>
</g>
<g>
	<path class="st1" d="M750.59,277.05h-48.85v-11.63h48.85V277.05z M750.59,298.77h-48.85v-11.63h48.85V298.77z"/>
</g>
<rect x="733.57" y="530.59" class="st2" width="354.1" height="354.11"/>
<g>
	<path class="st3" d="M791.25,702.22c-0.58-1.12-1.78-2.08-3.22-2.08c-2.13,0-2.18,1.6-2.18,1.8c0,1.32,1.22,1.85,2.36,2.26
		l2.36,0.86c1.12,0.41,2.44,1.17,3.17,2.18c0.23,0.3,1.04,1.52,1.04,3.27c0,0.84,0,3.32-2.64,4.92c-1.09,0.66-2.64,0.94-3.58,0.94
		c-3.27,0-5.2-0.79-6.88-3.78l3.17-2.11c0.69,1.57,1.93,2.54,3.53,2.54c0.89,0,2.49-0.41,2.49-2.11c0-1.4-0.76-1.7-3.55-2.79
		c-2.82-1.09-5.25-2.34-5.25-6.02c0-3.07,2.23-5.28,6.07-5.28c2.74,0,4.67,1.12,6.19,3.35L791.25,702.22z"/>
	<path class="st3" d="M809.6,702.4v13.45h-3.25v-2.28h-0.15c-0.76,1.27-1.73,2.61-3.88,2.61c-3.2,0-3.32-2.64-3.32-3.58v-10.2h3.55
		v8.76c0,0.92,0.2,1.88,1.22,1.88c0.41,0,0.96-0.25,1.14-0.35c0.63-0.36,0.94-0.79,1.14-1.04v-9.24L809.6,702.4L809.6,702.4z"/>
	<path class="st3" d="M814.43,702.4h3.17v2.51h0.1c1.37-2.66,3.27-2.84,3.88-2.84c2.28,0,2.74,1.8,2.92,2.51h0.13
		c0.66-0.97,1.75-2.51,4.06-2.51c1.34,0,2.46,0.69,2.89,1.96c0.28,0.81,0.33,2.46,0.33,3.35v8.48h-3.48v-9.16
		c0-0.63-0.15-1.47-1.32-1.47c-0.51,0-1.07,0.13-2.21,1.24v9.39h-3.48v-8.83c0-0.56,0-1.83-1.27-1.83c-0.74,0-1.32,0.48-2.26,1.32
		v9.34h-3.48L814.43,702.4L814.43,702.4z"/>
	<path class="st3" d="M836.85,702.4h3.17v2.51h0.1c1.37-2.66,3.27-2.84,3.88-2.84c2.28,0,2.74,1.8,2.92,2.51h0.13
		c0.66-0.97,1.75-2.51,4.06-2.51c1.34,0,2.46,0.69,2.89,1.96c0.28,0.81,0.33,2.46,0.33,3.35v8.48h-3.48v-9.16
		c0-0.63-0.15-1.47-1.32-1.47c-0.51,0-1.07,0.13-2.21,1.24v9.39h-3.48v-8.83c0-0.56,0-1.83-1.27-1.83c-0.74,0-1.32,0.48-2.26,1.32
		v9.34h-3.48L836.85,702.4L836.85,702.4z"/>
	<path class="st3" d="M858.22,703.85c1.14-0.89,2.28-1.78,5.15-1.78c0.94,0,2.94,0.23,4.04,1.32c1.01,1.01,1.01,2.03,1.01,2.74v6.6
		c0,0.08,0.1,0.81,0.79,0.84V716h-1.04c-1.73,0-2.44-1.07-2.77-1.68h-0.1c-0.43,0.56-0.69,0.86-1.24,1.19
		c-0.18,0.1-1.17,0.69-2.33,0.69c-1.42,0-3.6-0.74-3.6-3.83c0-1.24,0.46-3.22,2.89-4.34c1.29-0.58,2.66-0.86,3.86-0.94
		c0-1.32,0-1.7-0.25-2.05c-0.23-0.33-0.79-0.58-1.47-0.58c-1.55,0-2.51,0.84-3.25,1.47L858.22,703.85z M864.84,708.97
		c-0.79,0.15-3.35,0.63-3.35,2.94c0,0.91,0.56,1.65,1.42,1.65c1.62,0,1.93-1.62,1.93-2.51L864.84,708.97L864.84,708.97z"/>
	<path class="st3" d="M872.89,702.4h3.4v3.04h0.1c1.27-2.94,2.72-3.35,4.01-3.4v4.64c-1.5,0-2.44,0-3.88,1.22v7.94h-3.63V702.4z"/>
	<path class="st3" d="M886.8,702.4l1.93,6.62h0.2l1.65-6.62h3.48l-3.35,12.46c-1.24,4.59-2.69,5.43-5.46,5.43
		c-0.86,0-1.14-0.05-1.75-0.18v-3l1.29,0.15c1.24,0,1.67-0.63,1.85-0.91c0.46-0.69,0.46-1.04,0.46-1.83l-3.83-12.13L886.8,702.4
		L886.8,702.4z"/>
	<path class="st3" d="M912.34,701.99c1.5,0,3.43,0.13,4.62,2.05c0.66,1.09,0.84,2.61,0.84,5.02c0,2.77-0.05,4.34-1.45,5.71
		c-0.46,0.43-1.29,1.27-3.68,1.27c-0.81,0-2.23-0.05-3.09-0.53c-2.26-1.27-2.39-3.48-2.39-6.75
		C907.19,706.23,907.19,701.99,912.34,701.99z M910.79,710.01c0,0.48,0.08,1.73,0.18,2.16c0.28,1.22,1.3,1.22,1.55,1.22
		c1.7,0,1.7-1.19,1.7-4.82c0-2.11,0-3.88-1.67-3.88c-1.75,0-1.75,1.65-1.75,2.69L910.79,710.01L910.79,710.01z"/>
	<path class="st3" d="M921.71,702.4h1.98v-2.01c0-0.76,0-2.01,1.52-2.79c0.91-0.46,2.18-0.53,2.79-0.53c0.51,0,1.17,0.02,1.75,0.1
		v2.64c-1.98,0-2.51,0-2.51,1.22v1.37h2.51v2.69h-2.51v10.76h-3.55v-10.68h-1.98L921.71,702.4L921.71,702.4z"/>
	<path class="st3" d="M947.09,715.85h-4.04v-18.63h6.02c3.02,0,6.85,0.41,6.85,5.41c0,2.36-0.94,4.16-3.55,4.95l4.06,8.27h-4.44
		l-3.53-7.61h-1.37L947.09,715.85L947.09,715.85z M947.09,705.27c2.31,0,2.67,0,3.25-0.2c1.3-0.46,1.4-1.47,1.4-2.49
		c0-1.29-0.41-1.93-1.22-2.23c-0.63-0.23-1.14-0.23-3.43-0.23L947.09,705.27L947.09,705.27z"/>
	<path class="st3" d="M963.6,709.86c-0.03,1.37-0.03,3.68,2.46,3.68c1.09,0,1.98-0.2,3.58-0.99l0.38,2.69
		c-1.37,0.48-2.49,0.89-4.26,0.89c-1.65,0-4.36-0.36-5.18-3.45c-0.25-0.99-0.33-2.59-0.33-2.69c0-2.36,0-4.57,0.92-6.07
		c1.04-1.73,3.02-1.9,4.11-1.9c2.18,0,3.22,0.91,3.88,1.9c0.81,1.19,0.81,2.46,0.81,5.94H963.6z M967.02,707.86
		c0-2.03-0.03-3.58-1.8-3.58c-1.67,0-1.65,1.88-1.62,3.58H967.02z"/>
	<path class="st3" d="M981.36,705.62c-1.19-0.81-1.78-1.09-2.61-1.09c-0.84,0-1.37,0.38-1.37,1.04c0,0.74,0.76,1.09,1.8,1.55
		c1.9,0.86,4.11,1.93,4.11,4.8c0,3.43-3.07,4.29-4.57,4.29c-2.44,0-3.81-1.09-4.52-1.67l1.6-2.44c0.69,0.71,1.5,1.52,2.84,1.52
		c1.07,0,1.4-0.71,1.4-1.19c0-0.76-0.53-0.99-1.6-1.5c-2.94-1.37-4.21-2.61-4.21-4.72c0-1.34,0.56-2.69,1.9-3.5
		c1.09-0.66,2.01-0.66,2.72-0.66c1.7,0,3.32,0.76,4.04,1.37L981.36,705.62z"/>
	<path class="st3" d="M997.94,702.4v13.45h-3.25v-2.28h-0.15c-0.76,1.27-1.73,2.61-3.88,2.61c-3.2,0-3.32-2.64-3.32-3.58v-10.2h3.55
		v8.76c0,0.92,0.2,1.88,1.22,1.88c0.41,0,0.96-0.25,1.14-0.35c0.63-0.36,0.94-0.79,1.14-1.04v-9.24L997.94,702.4L997.94,702.4z"/>
	<path class="st3" d="M1002.71,697.22h3.58v18.63h-3.58V697.22z"/>
	<path class="st3" d="M1009.7,702.4h2v-4.87h3.53v4.87h2.59v2.59h-2.59v6.98c0,0.43,0,1.14,1.78,1.14c0.2,0,0.25,0,0.99-0.08v2.77
		c-1.45,0.18-1.6,0.2-2.13,0.2c-1.52,0-4.16-0.2-4.16-3.68v-7.33h-2V702.4z"/>
	<path class="st3" d="M1028.76,705.62c-1.19-0.81-1.78-1.09-2.61-1.09c-0.84,0-1.37,0.38-1.37,1.04c0,0.74,0.76,1.09,1.8,1.55
		c1.9,0.86,4.11,1.93,4.11,4.8c0,3.43-3.07,4.29-4.57,4.29c-2.44,0-3.81-1.09-4.52-1.67l1.6-2.44c0.69,0.71,1.5,1.52,2.84,1.52
		c1.07,0,1.4-0.71,1.4-1.19c0-0.76-0.53-0.99-1.6-1.5c-2.94-1.37-4.21-2.61-4.21-4.72c0-1.34,0.56-2.69,1.9-3.5
		c1.09-0.66,2.01-0.66,2.72-0.66c1.7,0,3.32,0.76,4.04,1.37L1028.76,705.62z"/>
</g>
<polygon class="st1" points="879.77,0 828.16,0 828.16,10.83 854.48,10.83 854.48,96.5 830.06,96.5 830.06,96.5 830.06,116.8 
	902.99,116.8 902.99,96.5 879.77,96.5 "/>
<path class="st1" d="M982.63,50.91L982.63,50.91l0-1.2c4.64-2.58,17.2-9.29,17.2-27.69c0-9.09-3.05-16.48-8.1-22.02h-60.82
	c-7.96,8.55-7.98,18.25-7.98,22.7c0,15.31,9.63,23.91,17.2,27.18v1.2c-6.36,2.58-12.04,7.57-15.48,12.73
	c-3.78,6.02-4.64,11.18-4.64,19.78c0,13.76,9.98,36.64,40.94,36.64c7.4,0,18.75-0.52,28.04-7.23c9.12-6.54,14.45-17.89,14.45-31.48
	c0-8.77-1.89-13.76-4.13-18.06C994.84,55.21,989.17,53.32,982.63,50.91z M961.47,7.74c9.12,0,13.24,6.37,13.24,17.55
	c0,4.13-1.03,16.51-13.42,16.51c-13.42,0-13.42-13.24-13.42-17.03C947.89,15.48,951.15,7.74,961.47,7.74z M961.64,101.31
	c-7.4,0-15.65-2.58-15.65-21.16c0-7.05,1.2-11.18,3.61-14.62c3.96-5.33,9.98-6.02,12.04-6.02c15.83,0,15.83,14.96,15.83,20.81
	C977.47,92.2,974.2,101.31,961.64,101.31z"/>
</svg>
