<?xml version="1.0" encoding="utf-8"?>
<!-- Generator: Adobe Illustrator 23.1.1, SVG Export Plug-In . SVG Version: 6.00 Build 0)  -->
<svg version="1.1" id="Layer_1" xmlns="http://www.w3.org/2000/svg" xmlns:xlink="http://www.w3.org/1999/xlink" x="0px" y="0px"
	 viewBox="0 0 612 792" style="enable-background:new 0 0 612 792;" xml:space="preserve">
<style type="text/css">
	.st0{fill:#636466;}
	.st1{fill:#DCDDDE;}
	.st2{fill:#E6E7E8;}
	.st3{fill:none;stroke:#DCDDDE;stroke-width:3;}
	.st4{fill:#FFCB05;}
	.st5{fill:#808285;}
	.st6{fill:none;stroke:#D1D3D4;stroke-width:2;}
	.st7{fill:none;}
	.st8{fill:#A99D7A;}
	.st9{fill:#A39274;}
	.st10{fill:#877858;}
	.st11{fill:#CFC6B9;}
	.st12{fill:#CEC5B8;}
	.st13{fill:#BEB285;}
	.st14{fill:#E5DEAD;}
</style>
<g>
	<path class="st0" d="M363,618.9h-2.9v-13.2h4.3c2.1,0,4.9,0.3,4.9,3.8c0,1.7-0.7,3-2.5,3.5l2.9,5.9h-3.1l-2.5-5.4h-1L363,618.9
		L363,618.9z M363,611.3c1.6,0,1.9,0,2.3-0.1c0.9-0.3,1-1,1-1.8c0-0.9-0.3-1.4-0.9-1.6c-0.5-0.2-0.8-0.2-2.4-0.2V611.3z"/>
	<path class="st0" d="M375.6,614.6c0,1,0,2.6,1.8,2.6c0.8,0,1.4-0.1,2.5-0.7l0.3,1.9c-1,0.3-1.8,0.6-3,0.6c-1.2,0-3.1-0.2-3.7-2.5
		c-0.2-0.7-0.2-1.8-0.2-1.9c0-1.7,0-3.2,0.6-4.3c0.7-1.2,2.1-1.3,2.9-1.3c1.5,0,2.3,0.7,2.8,1.3c0.6,0.8,0.6,1.8,0.6,4.2H375.6z
		 M378.1,613.2c0-1.4,0-2.5-1.3-2.5c-1.2,0-1.2,1.3-1.1,2.5H378.1z"/>
	<path class="st0" d="M389.1,611.6c-0.9-0.6-1.3-0.8-1.9-0.8s-1,0.3-1,0.7c0,0.5,0.5,0.8,1.3,1.1c1.4,0.6,2.9,1.4,2.9,3.4
		c0,2.4-2.2,3-3.2,3c-1.7,0-2.7-0.8-3.2-1.2l1.1-1.7c0.5,0.5,1.1,1.1,2,1.1c0.8,0,1-0.5,1-0.8c0-0.5-0.4-0.7-1.1-1.1
		c-2.1-1-3-1.8-3-3.3c0-1,0.4-1.9,1.4-2.5c0.8-0.5,1.4-0.5,1.9-0.5c1.2,0,2.4,0.5,2.9,1L389.1,611.6z"/>
	<path class="st0" d="M396.2,614.6c0,1,0,2.6,1.8,2.6c0.8,0,1.4-0.1,2.5-0.7l0.3,1.9c-1,0.3-1.8,0.6-3,0.6c-1.2,0-3.1-0.2-3.7-2.5
		c-0.2-0.7-0.2-1.8-0.2-1.9c0-1.7,0-3.2,0.6-4.3c0.7-1.2,2.1-1.3,2.9-1.3c1.5,0,2.3,0.7,2.8,1.3c0.6,0.8,0.6,1.8,0.6,4.2H396.2z
		 M398.7,613.2c0-1.4,0-2.5-1.3-2.5c-1.2,0-1.2,1.3-1.1,2.5H398.7z"/>
	<path class="st0" d="M404.4,610.3c0.8-0.6,1.6-1.3,3.7-1.3c0.7,0,2.1,0.2,2.9,0.9c0.7,0.7,0.7,1.4,0.7,1.9v4.7c0,0,0.1,0.6,0.6,0.6
		v1.7h-0.7c-1.2,0-1.7-0.8-2-1.2h-0.1c-0.3,0.4-0.5,0.6-0.9,0.8c-0.1,0.1-0.8,0.5-1.7,0.5c-1,0-2.6-0.5-2.6-2.7c0-0.9,0.3-2.3,2-3.1
		c0.9-0.4,1.9-0.6,2.7-0.7c0-0.9,0-1.2-0.2-1.5c-0.2-0.2-0.6-0.4-1-0.4c-1.1,0-1.8,0.6-2.3,1L404.4,610.3z M409.1,614
		c-0.6,0.1-2.4,0.5-2.4,2.1c0,0.7,0.4,1.2,1,1.2c1.1,0,1.4-1.2,1.4-1.8V614z"/>
	<path class="st0" d="M415.7,609.3h2.4v2.2h0.1c0.9-2.1,1.9-2.4,2.8-2.4v3.3c-1.1,0-1.7,0-2.8,0.9v5.6h-2.6V609.3z"/>
	<path class="st0" d="M429.1,612.1c0-0.5-0.1-1.1-1-1.1c-1.2,0-1.2,1.1-1.2,1.7v2.8c0,1.2,0.2,1.6,1.2,1.6c0.9,0,1.1-0.6,1.1-1.4
		h2.2c0,1-0.1,3.3-3.3,3.3c-0.5,0-1.7,0-2.6-0.8c-0.9-0.8-1.1-1.9-1.1-3V613c0-2.2,0.9-4,3.5-4c0.6,0,1.9,0,2.7,1
		c0.6,0.7,0.6,1.5,0.6,2L429.1,612.1L429.1,612.1z"/>
	<path class="st0" d="M435.5,605.6h2.5v3.9l0,1.3h0.1c0.7-1.3,1.7-1.7,2.6-1.7c0.8,0,1.4,0.3,1.9,0.9c0.4,0.7,0.4,1.4,0.4,2v6.9
		h-2.5v-6.1c0-0.6,0-1.4-0.9-1.4c-0.6,0-0.9,0.3-1.6,0.9v6.6h-2.5V605.6z"/>
	<path class="st0" d="M457.2,618.9h-2.9v-13.2h4.3c2.1,0,4.9,0.3,4.9,3.8c0,1.7-0.7,3-2.5,3.5l2.9,5.9h-3.1l-2.5-5.4h-1L457.2,618.9
		L457.2,618.9z M457.2,611.3c1.6,0,1.9,0,2.3-0.1c0.9-0.3,1-1,1-1.8c0-0.9-0.3-1.4-0.9-1.6c-0.5-0.2-0.8-0.2-2.4-0.2V611.3z"/>
	<path class="st0" d="M469.8,614.6c0,1,0,2.6,1.8,2.6c0.8,0,1.4-0.1,2.5-0.7l0.3,1.9c-1,0.3-1.8,0.6-3,0.6c-1.2,0-3.1-0.2-3.7-2.5
		c-0.2-0.7-0.2-1.8-0.2-1.9c0-1.7,0-3.2,0.6-4.3c0.7-1.2,2.1-1.3,2.9-1.3c1.5,0,2.3,0.7,2.8,1.3c0.6,0.8,0.6,1.8,0.6,4.2H469.8z
		 M472.2,613.2c0-1.4,0-2.5-1.3-2.5c-1.2,0-1.2,1.3-1.1,2.5H472.2z"/>
	<path class="st0" d="M478.6,609.2h2.3v1.5h0.1c0.5-1.2,1.4-1.7,2.6-1.7c1.6,0,2.1,1.1,2.3,1.8c0.2,0.8,0.2,2.2,0.2,3.6
		c0,2.1,0,2.8-0.5,3.5c-0.3,0.5-0.9,0.9-2,0.9c-1.1,0-1.9-0.6-2.4-1.4h-0.1v4.4h-2.5L478.6,609.2L478.6,609.2z M481.1,616.2
		c0.4,0.3,0.9,0.7,1.4,0.7c1,0,1-0.8,1-2.6c0-0.3,0-2-0.1-2.2c-0.1-0.9-0.6-1-1-1c-0.6,0-1.1,0.4-1.4,0.7L481.1,616.2L481.1,616.2z"
		/>
	<path class="st0" d="M493.7,609c1.1,0,2.4,0.1,3.3,1.5c0.5,0.8,0.6,1.8,0.6,3.6c0,2,0,3.1-1,4c-0.3,0.3-0.9,0.9-2.6,0.9
		c-0.6,0-1.6,0-2.2-0.4c-1.6-0.9-1.7-2.5-1.7-4.8C490.1,612,490.1,609,493.7,609z M492.6,614.7c0,0.3,0,1.2,0.1,1.5
		c0.2,0.9,0.9,0.9,1.1,0.9c1.2,0,1.2-0.8,1.2-3.4c0-1.5,0-2.8-1.2-2.8c-1.2,0-1.2,1.2-1.2,1.9L492.6,614.7L492.6,614.7z"/>
	<path class="st0" d="M501.7,609.3h2.4v2.2h0.1c0.9-2.1,1.9-2.4,2.8-2.4v3.3c-1.1,0-1.7,0-2.8,0.9v5.6h-2.6L501.7,609.3L501.7,609.3
		z"/>
	<path class="st0" d="M509.7,609.3h1.4v-3.5h2.5v3.5h1.8v1.8h-1.8v5c0,0.3,0,0.8,1.3,0.8c0.1,0,0.2,0,0.7,0v2
		c-1,0.1-1.1,0.1-1.5,0.1c-1.1,0-3-0.1-3-2.6v-5.2h-1.4L509.7,609.3L509.7,609.3z"/>
</g>
<g>
	<path class="st1" d="M122.4,1.4l2.7-1.1h0.5v26.5h-3.2L122.4,1.4L122.4,1.4z"/>
	<path class="st1" d="M131.8,1.3h4.1v3.4h-4.1V1.3z M132.3,8.1h3.2v18.6h-3.2V8.1z"/>
	<path class="st1" d="M141.2,1.4l2.6-1.1h0.5v26.5h-3.1L141.2,1.4L141.2,1.4z M155.3,8.1l-6.8,9l7.1,9.3v0.3h-3.7l-6.9-9.4l6.7-9.2
		L155.3,8.1L155.3,8.1z"/>
	<path class="st1" d="M172.4,17.8h-11c0,4.2,1.2,6.9,4.5,6.9c2.2,0,3.2-1,3.8-1.6l1.9,1.7c-1.2,1.1-2.7,2.4-6.1,2.4
		c-4.3,0-7.3-3.4-7.3-9.3c0-9.5,5.6-10.3,7.3-10.3c4.5,0,6.9,3.8,7,8.4L172.4,17.8z M169.2,15.6c0-3.2-1.2-5.6-3.7-5.6
		c-1.5,0-2.7,0.9-3.4,2.3c-0.6,1.4-0.6,2.6-0.6,3.2C161.5,15.6,169.2,15.6,169.2,15.6z"/>
</g>
<g>
	<path class="st1" d="M402,125.9l1-9.8h9.3v3.1h-6.7l-0.4,3.3l0.2,0c0.7-0.3,1.5-0.5,2.3-0.5c4,0,5.7,2.8,5.7,5.9
		c0,1.5-0.4,3.3-2.1,4.8c-1.6,1.4-3.9,1.8-5.5,1.8c-1,0-2.3-0.1-4.4-0.6l0.6-3.1c1.1,0.4,2.4,0.6,3,0.6c0.8,0,2.4-0.1,3.4-0.8
		c0.9-0.6,1.3-1.7,1.3-2.8c0-2.2-1.6-3-2.8-3c-1.2,0-1.9,0.6-2.4,1L402,125.9L402,125.9z"/>
</g>
<g>
	<path class="st2" d="M164.3,479.2c6.5-13.8,24.8-52.8,74.9-52.8s73,32.9,73,66.1c0,39.8-34,63.8-63.1,85.2
		c-20.3,14.9-53.5,37.5-57.3,65h123.1v22.9H165.1c5.7-59.2,33.2-76.1,78.4-112.4c30.2-25.2,41.7-38.2,41.7-58.9
		c0-24.1-14.5-45.5-46.2-45.5c-39,0-51.2,32.9-55,43.2L164.3,479.2z"/>
</g>
<g>
	<path class="st1" d="M2.8,747.7h1.9c0.7,1.3,1.5,2.6,4.4,2.6c6,0,7.2-7.6,8.7-11.8l-15.5-41h6.5l8.8,24.2c0.4,1.1,1.1,3.1,1.8,5.1
		c0.5,1.7,0.9,3.3,1.5,3.3c0.6,0,0.9-2.6,2.9-8.5l8.2-24.2h5.8l-15.7,45.4c-2.3,6.6-5.5,13.3-13.5,13.3c-2.4,0-3.8-0.5-5.9-1.4
		L2.8,747.7L2.8,747.7z"/>
	<path class="st1" d="M48.1,718.7c0,8,1.7,18.2,11.8,18.2c4.1,0,7.2-1.7,9.7-4.9l4.2,3.3c-3.9,4.9-8,6.7-14.1,6.7
		C48,742,42,731,42,720.4c0-5.3,0.5-11.3,4-16.7c3.6-5.6,8.5-7.5,13.5-7.5c13.6,0,15.2,11.8,15.7,22.5L48.1,718.7L48.1,718.7z
		 M68.9,714.2c0-1.7,0.1-5.6-1.8-8.8c-1.8-3-5.1-4.2-7.9-4.2c-5.2,0-10,3.6-10.8,13H68.9z"/>
	<path class="st1" d="M85.5,732.1c3.3,2.9,7.2,5.2,11.8,5.2c6.1,0,9.4-3.2,9.4-7.4c0-3-2-5.4-4.8-6.6c-1.1-0.5-10.1-4-12-5
		c-1.5-0.6-6.2-3-6.2-9.7c0-7.8,5.8-12.4,13.4-12.4c4.9,0,8.5,1.4,12.9,3.4L108,705c-3.3-2.5-7.2-4-11.4-4c-3.7,0-7.3,2.2-7.3,6.2
		c0,4.4,2.6,5.5,10.7,8.7c7,2.8,11.9,4.9,11.9,13.1c0,8.8-6.7,12.9-14.8,12.9c-5.7,0-9.5-1.4-14.1-4.7L85.5,732.1z"/>
</g>
<g>
	<line class="st3" x1="425.9" y1="217.1" x2="491.7" y2="217.1"/>
	<polyline class="st3" points="464,188.4 492.6,217.1 464,245.7 	"/>
</g>
<g>
	<path class="st1" d="M545.5,526.7c4.1-4,5.6-8.2,5.8-9c-0.6,0.5-1.8,1-3.4,1c-0.2,0-2.5,0-4.1-1.9c-1-1.1-1.7-2.9-1.7-4.5
		c0-4.6,2.7-7,6.5-7c3.1,0,4.8,1.7,5.3,2.4c1.1,1.3,1.7,3.1,1.7,6.1c0,0.4-0.1,2.2-0.5,4c-0.6,2.5-2.2,5.9-4.3,8.9L545.5,526.7
		L545.5,526.7z M546.3,512.3c0,0.9,0,3.3,2.5,3.3c1.9,0,2.5-1.4,2.5-3.6c0-1.4-0.3-3.5-2.5-3.5C546.3,508.5,546.3,511.3,546.3,512.3
		z"/>
	<path class="st1" d="M558.5,522h4.2v4.4h-4.2V522z"/>
	<path class="st1" d="M566,506h12.9v1.6c0,0.3-0.3,0.7-0.4,0.9c-2.1,4.7-2.4,5.7-3.3,8.2c-1.2,3.6-2.1,6.7-2.7,9.6h-4.6
		c1.1-4,2-6.5,3.4-9.6c1.4-3.4,2.9-6.4,3.2-7.1H566L566,506L566,506z"/>
	<path class="st1" d="M580.7,511.3c0-2.9,2.4-5.3,5.3-5.3c2.9,0,5.3,2.4,5.3,5.3c0,3-2.4,5.3-5.3,5.3
		C583,516.5,580.7,514.2,580.7,511.3z M588.7,511.3c0-1.5-1.2-2.7-2.7-2.7s-2.7,1.2-2.7,2.7c0,1.5,1.2,2.7,2.7,2.7
		C587.5,514,588.7,512.7,588.7,511.3z M584.8,529.3l12.4-23.9h2l-12.4,23.9H584.8z M592.8,523.5c0-2.9,2.4-5.3,5.3-5.3
		s5.3,2.4,5.3,5.3c0,2.9-2.4,5.2-5.3,5.2S592.8,526.4,592.8,523.5z M600.8,523.5c0-1.5-1.2-2.7-2.8-2.7c-1.5,0-2.7,1.2-2.7,2.7
		c0,1.5,1.2,2.7,2.7,2.7C599.7,526.2,600.8,524.9,600.8,523.5z"/>
</g>
<rect x="0.8" y="298.1" class="st4" width="208.5" height="197.4"/>
<g>
	<g>
		<path d="M57.1,388.5v1.7h-2.4v7.8h-2.2v-7.8h-2.4v-1.7H57.1z"/>
		<path d="M58.6,395c0,0.7,0,1.9,1.3,1.9c0.6,0,1-0.1,1.8-0.5l0.2,1.4c-0.7,0.2-1.3,0.5-2.2,0.5c-0.8,0-2.2-0.2-2.7-1.8
			c-0.1-0.5-0.2-1.3-0.2-1.4c0-1.2,0-2.3,0.5-3.1c0.5-0.9,1.5-1,2.1-1c1.1,0,1.7,0.5,2,1c0.4,0.6,0.4,1.3,0.4,3L58.6,395L58.6,395z
			 M60.3,393.9c0-1,0-1.8-0.9-1.8c-0.9,0-0.8,1-0.8,1.8H60.3z"/>
		<path d="M67,392.8c-0.6-0.4-0.9-0.6-1.3-0.6c-0.4,0-0.7,0.2-0.7,0.5c0,0.4,0.4,0.6,0.9,0.8c1,0.4,2.1,1,2.1,2.5
			c0,1.8-1.6,2.2-2.3,2.2c-1.2,0-2-0.6-2.3-0.9l0.8-1.2c0.3,0.4,0.8,0.8,1.5,0.8c0.6,0,0.7-0.4,0.7-0.6c0-0.4-0.3-0.5-0.8-0.8
			c-1.5-0.7-2.2-1.3-2.2-2.4c0-0.7,0.3-1.4,1-1.8c0.6-0.3,1-0.3,1.4-0.3c0.9,0,1.7,0.4,2.1,0.7L67,392.8z"/>
		<path d="M68.7,391.1h1v-2.5h1.8v2.5h1.3v1.3h-1.3v3.6c0,0.2,0,0.6,0.9,0.6c0.1,0,0.1,0,0.5,0v1.4c-0.7,0.1-0.8,0.1-1.1,0.1
			c-0.8,0-2.1-0.1-2.1-1.9v-3.8h-1L68.7,391.1L68.7,391.1z"/>
		<path d="M75.9,395c0,0.7,0,1.9,1.3,1.9c0.6,0,1-0.1,1.8-0.5l0.2,1.4c-0.7,0.2-1.3,0.5-2.2,0.5c-0.8,0-2.2-0.2-2.7-1.8
			c-0.1-0.5-0.2-1.3-0.2-1.4c0-1.2,0-2.3,0.5-3.1c0.5-0.9,1.6-1,2.1-1c1.1,0,1.7,0.5,2,1c0.4,0.6,0.4,1.3,0.4,3L75.9,395L75.9,395z
			 M77.7,393.9c0-1,0-1.8-0.9-1.8c-0.9,0-0.8,1-0.8,1.8H77.7z"/>
		<path d="M84.4,392v-3.5h1.8v9.5h-1.7v-1.1h-0.1c-0.6,1-1.2,1.2-1.9,1.2c-1.2,0-1.6-1-1.7-1.6c-0.1-0.5-0.1-1.2-0.1-1.7
			c0-1.3,0-2,0.1-2.7c0.2-0.7,0.7-1.3,1.6-1.3C83.7,390.9,84.1,391.6,84.4,392L84.4,392L84.4,392z M84.4,392.9
			c-0.2-0.1-0.6-0.5-1.1-0.5c-0.7,0-0.7,0.7-0.7,1.8c0,0.9,0,1.4,0,1.6c0.1,0.6,0.4,0.7,0.7,0.7c0.5,0,0.9-0.4,1-0.5V392.9z"/>
		<path d="M92.1,388.5h3.2c1.4,0,2.2,0.3,2.7,0.8c0.6,0.5,0.9,1.3,0.9,2.2c0,1.5-0.8,2.2-1.2,2.4c-0.7,0.4-1.4,0.5-2.2,0.5l-1.1,0
			v3.6h-2.1L92.1,388.5L92.1,388.5z M94.2,392.9c1,0,1.4,0,1.6-0.1c0.2-0.1,0.8-0.4,0.8-1.3c0-0.9-0.3-1.1-0.6-1.2
			c-0.3-0.1-0.5-0.1-1.8-0.1L94.2,392.9L94.2,392.9z"/>
		<path d="M100.3,391.1h1.7v1.6h0.1c0.7-1.5,1.4-1.7,2.1-1.7v2.4c-0.8,0-1.2,0-2,0.6v4.1h-1.9L100.3,391.1L100.3,391.1z"/>
		<path d="M108.2,390.9c0.8,0,1.8,0.1,2.4,1c0.3,0.6,0.4,1.3,0.4,2.6c0,1.4,0,2.2-0.7,2.9c-0.2,0.2-0.7,0.6-1.9,0.6
			c-0.4,0-1.1,0-1.6-0.3c-1.2-0.6-1.2-1.8-1.2-3.5C105.5,393.1,105.5,390.9,108.2,390.9z M107.4,395c0,0.2,0,0.9,0.1,1.1
			c0.1,0.6,0.7,0.6,0.8,0.6c0.9,0,0.9-0.6,0.9-2.5c0-1.1,0-2-0.9-2c-0.9,0-0.9,0.9-0.9,1.4L107.4,395L107.4,395z"/>
		<path d="M116.2,392v-3.5h1.8v9.5h-1.7v-1.1h-0.1c-0.6,1-1.2,1.2-1.9,1.2c-1.2,0-1.6-1-1.7-1.6c-0.1-0.5-0.1-1.2-0.1-1.7
			c0-1.3,0-2,0.1-2.7c0.2-0.7,0.7-1.3,1.6-1.3C115.4,390.9,115.9,391.6,116.2,392L116.2,392L116.2,392z M116.2,392.9
			c-0.2-0.1-0.6-0.5-1.1-0.5c-0.7,0-0.7,0.7-0.7,1.8c0,0.9,0,1.4,0,1.6c0.1,0.6,0.4,0.7,0.7,0.7c0.5,0,0.9-0.4,1-0.5V392.9z"/>
		<path d="M125.4,391.1v6.9h-1.7v-1.2h-0.1c-0.4,0.6-0.9,1.3-2,1.3c-1.6,0-1.7-1.4-1.7-1.8v-5.2h1.8v4.5c0,0.5,0.1,1,0.6,1
			c0.2,0,0.5-0.1,0.6-0.2c0.3-0.2,0.5-0.4,0.6-0.5v-4.7H125.4z"/>
		<path d="M130.4,393.2c0-0.4-0.1-0.8-0.7-0.8c-0.9,0-0.9,0.8-0.9,1.2v2c0,0.9,0.2,1.2,0.9,1.2c0.6,0,0.8-0.4,0.8-1h1.6
			c0,0.7-0.1,2.4-2.4,2.4c-0.4,0-1.2,0-1.9-0.6c-0.6-0.5-0.8-1.4-0.8-2.2v-1.6c0-1.6,0.6-2.9,2.5-2.9c0.4,0,1.4,0,2,0.8
			c0.4,0.5,0.4,1,0.4,1.5L130.4,393.2L130.4,393.2z"/>
		<path d="M133,391.1h1v-2.5h1.8v2.5h1.3v1.3h-1.3v3.6c0,0.2,0,0.6,0.9,0.6c0.1,0,0.1,0,0.5,0v1.4c-0.7,0.1-0.8,0.1-1.1,0.1
			c-0.8,0-2.1-0.1-2.1-1.9v-3.8h-1L133,391.1L133,391.1z"/>
		<path d="M142.7,388.5h2l2.5,4.5c0.1,0.2,0.2,0.5,0.3,0.6c0,0.1,0.2,0.4,0.2,0.5h0.1l-0.1-1c0-0.6,0-0.7,0-1.1v-3.5h1.9v9.5h-1.7
			l-2.5-4.6c-0.2-0.4-0.2-0.4-0.7-1.6h-0.1c0,0.3,0.1,1.5,0.1,1.7v4.5h-1.9L142.7,388.5L142.7,388.5z"/>
		<path d="M151.2,391.9c0.6-0.5,1.2-0.9,2.6-0.9c0.5,0,1.5,0.1,2.1,0.7c0.5,0.5,0.5,1,0.5,1.4v3.4c0,0,0.1,0.4,0.4,0.4v1.2h-0.5
			c-0.9,0-1.2-0.5-1.4-0.9h-0.1c-0.2,0.3-0.4,0.4-0.6,0.6c-0.1,0-0.6,0.4-1.2,0.4c-0.7,0-1.9-0.4-1.9-2c0-0.6,0.2-1.6,1.5-2.2
			c0.7-0.3,1.4-0.4,2-0.5c0-0.7,0-0.9-0.1-1c-0.1-0.2-0.4-0.3-0.8-0.3c-0.8,0-1.3,0.4-1.7,0.8L151.2,391.9z M154.6,394.5
			c-0.4,0.1-1.7,0.3-1.7,1.5c0,0.5,0.3,0.9,0.7,0.9c0.8,0,1-0.8,1-1.3V394.5z"/>
		<path d="M158.2,391.1h1.6v1.3h0.1c0.7-1.4,1.7-1.5,2-1.5c1.2,0,1.4,0.9,1.5,1.3h0.1c0.3-0.5,0.9-1.3,2.1-1.3c0.7,0,1.3,0.4,1.5,1
			c0.1,0.4,0.2,1.3,0.2,1.7v4.3h-1.8v-4.7c0-0.3-0.1-0.8-0.7-0.8c-0.3,0-0.6,0.1-1.1,0.6v4.8h-1.8v-4.5c0-0.3,0-0.9-0.6-0.9
			c-0.4,0-0.7,0.2-1.2,0.7v4.8h-1.8L158.2,391.1L158.2,391.1z"/>
		<path d="M170.5,395c0,0.7,0,1.9,1.3,1.9c0.6,0,1-0.1,1.8-0.5l0.2,1.4c-0.7,0.2-1.3,0.5-2.2,0.5c-0.9,0-2.2-0.2-2.6-1.8
			c-0.1-0.5-0.2-1.3-0.2-1.4c0-1.2,0-2.3,0.5-3.1c0.5-0.9,1.6-1,2.1-1c1.1,0,1.6,0.5,2,1c0.4,0.6,0.4,1.3,0.4,3L170.5,395L170.5,395
			z M172.2,393.9c0-1,0-1.8-0.9-1.8c-0.9,0-0.9,1-0.8,1.8H172.2z"/>
	</g>
	<g>
		<path class="st5" d="M68,405.2c0.4-0.4,1.1-1.1,2.5-1.1c1,0,1.8,0.5,1.8,1.5c0,1-1.1,1.5-1.4,1.7c0.4,0,0.9,0.1,1.4,0.5
			c0.4,0.4,0.5,0.9,0.5,1.2c0,0.7-0.4,1.5-1.3,2.1c-1.2,0.7-2.6,0.7-3.5,0.7v-0.9c0.2,0,0.3,0,0.5,0c0.5,0,1.6,0,2.5-0.6
			c0.7-0.5,0.8-1.1,0.8-1.4c0-0.7-0.5-1-1.2-1c-0.4,0-0.6,0.1-1.1,0.3l-0.3-0.7c0.9-0.4,1.4-0.6,1.9-1.1c0.1-0.1,0.4-0.3,0.4-0.7
			c0-0.5-0.5-0.8-1-0.8c-0.8,0-1.2,0.5-1.8,1L68,405.2z"/>
		<path class="st5" d="M75.9,410.7h1.6V405h-1.7v-0.8h2.7v6.5H80v0.8h-4.1V410.7z"/>
		<path class="st5" d="M88.1,411.8h-0.8l2.4-7.7h0.8L88.1,411.8z"/>
		<path class="st5" d="M97.8,410.7h1.6V405h-1.7v-0.8h2.7v6.5h1.4v0.8h-4.1V410.7z"/>
		<path class="st5" d="M104.9,405.7c0.3-0.6,0.6-1,1.1-1.3c0.5-0.3,1-0.3,1.3-0.3c0.6,0,2.2,0.3,2.2,2.1c0,0.3-0.1,0.8-0.3,1.2
			c-0.2,0.4-0.5,0.7-1.4,1.4l-0.8,0.6c-0.4,0.3-0.6,0.7-0.7,0.7c-0.1,0.2-0.2,0.4-0.2,0.6h3.4v0.9H105c0.1-1.7,0.7-2.4,2.1-3.5
			c0.7-0.5,1.5-1.1,1.5-1.9c0-0.5-0.3-1.2-1.2-1.2c-0.5,0-1.2,0.2-1.6,1.2L104.9,405.7z"/>
		<path class="st5" d="M117.5,411.8h-0.8l2.4-7.7h0.8L117.5,411.8z"/>
		<path class="st5" d="M126.8,405.7c0.3-0.6,0.6-1,1.1-1.3c0.5-0.3,1-0.3,1.3-0.3c0.6,0,2.2,0.3,2.2,2.1c0,0.3-0.1,0.8-0.4,1.2
			c-0.2,0.4-0.5,0.7-1.4,1.4l-0.8,0.6c-0.4,0.3-0.6,0.7-0.6,0.7c-0.1,0.2-0.2,0.4-0.2,0.6h3.5v0.9h-4.6c0.1-1.7,0.7-2.4,2.1-3.5
			c0.7-0.5,1.5-1.1,1.5-1.9c0-0.5-0.3-1.2-1.2-1.2c-0.5,0-1.2,0.2-1.6,1.2L126.8,405.7z"/>
		<path class="st5" d="M138.5,410.6c-0.5,0.9-1.3,1-1.8,1c-0.4,0-1.2-0.1-1.8-1c-0.5-0.9-0.6-2.1-0.6-2.6c0-2.9,1.1-4,2.5-4
			c0.5,0,1.1,0.2,1.4,0.6c0.7,0.7,0.9,1.7,0.9,3C139.1,408.8,139,409.8,138.5,410.6z M135.7,410c0.2,0.5,0.5,0.9,1.2,0.9
			c1.1,0,1.3-1.7,1.3-3.1c0-2.1-0.4-2.8-1.3-2.8c-0.7,0-1.1,0.5-1.3,1.4c-0.1,0.7-0.2,1.3-0.2,1.8
			C135.4,408.4,135.4,409.2,135.7,410z"/>
		<path class="st5" d="M142.3,410.7h1.6V405h-1.7v-0.8h2.7v6.5h1.4v0.8h-4.1L142.3,410.7L142.3,410.7z"/>
		<path class="st5" d="M149.5,405.7c0.3-0.6,0.6-1,1.1-1.3c0.5-0.3,1-0.3,1.3-0.3c0.6,0,2.2,0.3,2.2,2.1c0,0.3-0.1,0.8-0.4,1.2
			c-0.2,0.4-0.5,0.7-1.4,1.4l-0.8,0.6c-0.4,0.3-0.6,0.7-0.6,0.7c-0.1,0.2-0.1,0.4-0.2,0.6h3.4v0.9h-4.6c0.1-1.7,0.7-2.4,2.1-3.5
			c0.7-0.5,1.5-1.1,1.5-1.9c0-0.5-0.3-1.2-1.2-1.2c-0.5,0-1.2,0.2-1.6,1.2L149.5,405.7z"/>
	</g>
</g>
<line class="st6" x1="355.9" y1="779" x2="355.9" y2="792"/>
<line class="st6" x1="381.4" y1="779" x2="381.4" y2="792"/>
<line class="st6" x1="407" y1="779" x2="407" y2="792"/>
<line class="st6" x1="432.6" y1="779" x2="432.6" y2="792"/>
<line class="st6" x1="458.1" y1="779" x2="458.1" y2="792"/>
<line class="st6" x1="483.7" y1="779" x2="483.7" y2="792"/>
<line class="st6" x1="509.2" y1="779" x2="509.2" y2="792"/>
<line class="st6" x1="534.8" y1="779" x2="534.8" y2="792"/>
<line class="st6" x1="560.3" y1="779" x2="560.3" y2="792"/>
<rect class="st7" width="612" height="792"/>
<polyline class="st8" points="589,37.6 575.1,37.6 575.1,23.8 589,23.8 589,37.6 "/>
<polyline class="st9" points="589,53.5 575.1,53.5 575.1,39.7 589,39.7 589,53.5 "/>
<polyline class="st9" points="589,69.5 575.1,69.5 575.1,55.7 589,55.7 589,69.5 "/>
<polyline class="st10" points="589,37.6 575.1,37.6 575.1,23.8 589,23.8 589,37.6 "/>
<polyline class="st11" points="556.4,37.6 542.6,37.6 542.6,23.8 556.4,23.8 556.4,37.6 "/>
<polyline class="st11" points="572.7,37.6 558.8,37.6 558.8,23.8 572.7,23.8 572.7,37.6 "/>
<polyline class="st11" points="572.7,69.5 558.8,69.5 558.8,55.7 572.7,55.7 572.7,69.5 "/>
<polyline class="st12" points="572.7,53.5 558.8,53.5 558.8,39.7 572.7,39.7 572.7,53.5 "/>
<polyline class="st13" points="556.4,37.6 542.6,37.6 542.6,23.8 556.4,23.8 556.4,37.6 "/>
<polyline class="st14" points="556.4,53.5 542.6,53.5 542.6,39.7 556.4,39.7 556.4,53.5 "/>
<polyline class="st14" points="556.4,69.5 542.6,69.5 542.6,55.7 556.4,55.7 556.4,69.5 "/>
<polyline class="st13" points="572.7,37.6 558.8,37.6 558.8,23.8 572.7,23.8 572.7,37.6 "/>
<polyline class="st13" points="572.7,69.5 558.8,69.5 558.8,55.7 572.7,55.7 572.7,69.5 "/>
</svg>
