<?xml version="1.0" encoding="utf-8"?>
<!-- Generator: Adobe Illustrator 23.1.1, SVG Export Plug-In . SVG Version: 6.00 Build 0)  -->
<svg version="1.1" id="Layer_1" xmlns="http://www.w3.org/2000/svg" xmlns:xlink="http://www.w3.org/1999/xlink" x="0px" y="0px"
	 viewBox="0 0 1063.2 685.7" style="enable-background:new 0 0 1063.2 685.7;" xml:space="preserve">
<style type="text/css">
	.st0{fill:#A79B7A;}
	.st1{fill:#A39274;}
	.st2{fill:#877858;}
	.st3{fill:#CEC5B8;}
	.st4{fill:#BEB285;}
	.st5{fill:#E5DEAD;}
	.st6{enable-background:new    ;}
</style>
<g>
	<polyline class="st0" points="710.8,138.2 584.7,138.2 584.7,12.1 710.8,12.1 710.8,138.2 	"/>
	<polyline class="st1" points="710.7,283.3 584.7,283.3 584.7,157.3 710.7,157.3 710.7,283.3 	"/>
	<polyline class="st1" points="710.7,428.6 584.7,428.6 584.7,302.7 710.7,302.7 710.7,428.6 	"/>
	<polyline class="st2" points="710.7,138 584.7,138 584.7,12.1 710.7,12.1 710.7,138 	"/>
	<polyline class="st3" points="414.2,138.2 288.1,138.2 288.1,12.1 414.2,12.1 414.2,138.2 	"/>
	<polyline class="st3" points="562.5,138.2 436.5,138.2 436.5,12.1 562.5,12.1 562.5,138.2 	"/>
	<polyline class="st3" points="562.5,428.6 436.5,428.6 436.5,302.5 562.5,302.5 562.5,428.6 	"/>
	<polyline class="st3" points="562.3,283.3 436.5,283.3 436.5,157.3 562.3,157.3 562.3,283.3 	"/>
	<polyline class="st4" points="414,138 288.1,138 288.1,12.1 414,12.1 414,138 	"/>
	<polyline class="st5" points="414,283.3 288.1,283.3 288.1,157.3 414,157.3 414,283.3 	"/>
	<polyline class="st5" points="414,428.6 288.1,428.6 288.1,302.7 414,302.7 414,428.6 	"/>
	<polyline class="st4" points="562.3,138 436.5,138 436.5,12.1 562.3,12.1 562.3,138 	"/>
	<polyline class="st4" points="562.3,428.6 436.5,428.6 436.5,302.7 562.3,302.7 562.3,428.6 	"/>
</g>
<g class="st6">
	<path d="M75.1,584c-3.1-3.1-6.7-5.7-10.9-7.5c-4.2-1.9-8.4-2.7-12.7-2.7c-8.7,0-16,3.2-22.1,9.5c-6.1,6.4-9.2,13.9-9.2,22.5
		s3.1,16.1,9.3,22.5c6.2,6.4,13.6,9.5,22.1,9.5c4.3,0,8.5-0.9,12.5-2.7c4.1-1.9,7.7-4.3,10.9-7.5v10.6c-6.9,5.1-14.7,7.5-23.1,7.5
		c-11,0-20.4-3.8-28.5-11.6c-8-7.8-12-17.2-12-28.1c0-11.1,4-20.7,11.9-28.6c7.9-7.9,17.4-11.9,28.6-11.9c8.7,0,16.3,2.6,23.1,7.5
		L75.1,584L75.1,584z"/>
	<path d="M92.7,620.6c0-7.2,2.5-13.1,7.3-18.2c4.9-4.9,10.9-7.4,18.1-7.4s13.1,2.5,18.1,7.4c4.9,4.9,7.3,11,7.3,18.2
		c0,7.1-2.5,13.1-7.4,17.9c-4.9,4.8-10.9,7.4-17.9,7.4c-7.2,0-13.1-2.5-18.1-7.3C95,633.7,92.7,627.6,92.7,620.6z M100.8,620.4
		c0,5.1,1.6,9.3,4.8,12.7c3.2,3.5,7.3,5.2,12.4,5.2c4.9,0,9.2-1.7,12.4-5.2c3.2-3.5,4.8-7.7,4.8-12.7c0-4.9-1.6-9.3-4.8-12.7
		c-3.2-3.5-7.3-5.2-12.4-5.2c-4.9,0-9.2,1.7-12.4,5.2C102.4,611.1,100.8,615.4,100.8,620.4z"/>
	<path d="M170.3,602.1c3.7-4.8,8.4-7.2,14-7.2c6.2,0,10.5,1.9,12.9,5.6c2.4,3.7,3.6,8.8,3.6,15.5v28.7h-8.2v-27.2
		c0-4.8-0.6-8.5-1.9-11c-1.2-2.5-4-3.7-8.3-3.7c-5.1,0-8.3,1.7-9.8,5.2c-1.5,3.5-2.2,8-2.2,14v22.9h-8.2v-48.3h8.2L170.3,602.1
		L170.3,602.1z"/>
	<path d="M232.2,644.6h-8.2v-40.7H219v-7.5h5.1V579h8.2v17.3h8.7v7.5h-8.7V644.6z"/>
	<path d="M263.3,601.5c1.9-2.2,3.5-4,4.9-4.9c1.5-1.1,3.5-1.6,5.9-1.6c1.2,0,2.5,0.2,3.7,0.6c1.2,0.4,2.5,1,3.7,1.7l-4,7.5
		c-1.2-0.9-2.2-1.5-2.8-1.7c-0.6-0.2-1.2-0.4-2.1-0.4c-4,0-6.6,1.7-7.7,5.3c-1.1,3.6-1.7,7.7-1.7,12.6v24.1h-8.2v-48.3h8.2
		L263.3,601.5L263.3,601.5z"/>
	<path d="M341.4,644.6h-8.2v-6.7c-4.5,5.3-10,8-16.8,8c-6.9,0-12.5-2.5-16.7-7.4c-4.2-4.9-6.4-11-6.4-17.9c0-7.2,2.1-13.2,6.3-18.2
		c4.2-4.9,9.9-7.4,17-7.4c6.8,0,12.2,2.7,16.6,8.2l0.2-6.9h8.2v48.4H341.4z M301.7,619.9c0,5.1,1.4,9.4,4.2,13
		c2.8,3.6,6.7,5.4,11.6,5.4c5.1,0,9-1.7,11.9-5.2c2.8-3.5,4.2-7.8,4.2-13.1c0-4.9-1.5-9-4.5-12.5c-3-3.3-6.9-5.1-11.9-5.1
		c-4.6,0-8.4,1.7-11.3,5.2C303,611.1,301.7,615.2,301.7,619.9z"/>
	<path d="M399.8,610.7c-2.1-2.5-4.5-4.6-6.9-5.9c-2.5-1.5-5.2-2.1-8.3-2.1c-4.8,0-8.9,1.7-12.1,5.2c-3.2,3.5-4.8,7.7-4.8,12.7
		c0,4.9,1.5,9.2,4.6,12.6c3.1,3.5,7.1,5.2,12,5.2c3.3,0,6.3-0.7,8.8-2.1c2.5-1.4,4.8-3.5,6.9-6.3l0.2,11c-4.8,3.3-10,4.9-15.3,4.9
		c-7.3,0-13.5-2.5-18.3-7.3c-4.8-4.8-7.3-10.9-7.3-18.2c0-7.2,2.5-13.2,7.5-18.2c5.1-4.9,11.1-7.3,18.2-7.3c5.4,0,10.4,1.6,14.8,4.8
		L399.8,610.7L399.8,610.7z"/>
	<path d="M428.7,644.6h-8.2v-40.7h-5.1v-7.5h5.1V579h8.2v17.3h8.7v7.5h-8.7V644.6z"/>
	<path d="M511.6,644.6H503V575h-18.7v-8h46.3v8h-18.9V644.6z"/>
	<path d="M550.7,622.2c0,4.6,1.5,8.3,4.5,11.5c3,3.1,6.8,4.7,11.4,4.7c3.3,0,6.1-0.9,8.5-2.6c2.4-1.7,4.5-4.2,6.2-7.3l6.9,4
		c-4.8,9-12.2,13.6-22.3,13.6c-7.1,0-12.7-2.4-17.1-7.2c-4.3-4.7-6.6-10.6-6.6-17.7c0-7.4,2.1-13.7,6.3-18.7
		c4.2-4.9,9.9-7.4,17.2-7.4s13,2.6,17,7.9c4,5.2,5.9,11.8,5.9,19.4L550.7,622.2L550.7,622.2z M580.1,615.2c-0.5-3.6-2.1-6.6-4.8-9
		s-5.8-3.7-9.4-3.7s-6.8,1.2-9.7,3.7c-2.8,2.5-4.6,5.4-5.1,9H580.1z"/>
	<path d="M626.8,607.4c-0.6-1.4-1.5-2.5-2.7-3.5c-1.1-1-2.5-1.5-4-1.5c-1.5,0-2.8,0.5-4.1,1.5c-1.2,1-1.9,2.4-1.9,3.8
		c0,1.6,0.5,2.8,1.6,3.7c1.1,0.9,3.8,2.4,8.2,4.1c4.3,1.9,7.5,3.7,9.5,5.8c2,2.1,3,4.9,3,8.7c0,4.6-1.6,8.3-4.8,11.3
		c-3.2,3-7.1,4.5-11.5,4.5c-4.1,0-7.7-1.1-10.6-3.2c-3-2.1-5.1-5.2-6.4-9l7.3-3.1c1.1,2.6,2.5,4.6,3.8,5.8c1.4,1.2,3.5,1.9,6.1,1.9
		c2.2,0,4.1-0.7,5.6-2.1c1.5-1.4,2.2-3.1,2.2-5.3c0-3.2-3.6-6.4-10.9-9.4c-7.3-3.1-10.9-7.4-10.9-12.9c0-4,1.4-7.3,4.2-9.8
		c2.7-2.6,6.2-3.8,10.3-3.8c2.7,0,5.3,0.9,7.7,2.5c2.4,1.7,4.1,3.8,5.2,6.4L626.8,607.4z"/>
	<path d="M664.3,644.6h-8.2v-40.7h-5.1v-7.5h5.1V579h8.2v17.3h8.7v7.5h-8.7V644.6z"/>
	<path d="M699.1,578.1c0,1.6-0.6,3-1.7,4.1c-1.1,1.1-2.6,1.7-4.1,1.7c-1.6,0-3-0.5-4.1-1.6c-1.1-1.1-1.7-2.5-1.7-4.2
		c0-1.6,0.6-3,1.7-4.1c1.1-1.1,2.5-1.7,4.1-1.7c1.6,0,3,0.6,4.1,1.7C698.6,575.1,699.1,576.5,699.1,578.1z M697.4,644.6h-8.2v-48.3
		h8.2V644.6z"/>
	<path d="M730,602.1c3.7-4.8,8.4-7.2,14-7.2c6.2,0,10.5,1.9,12.9,5.6c2.4,3.7,3.6,8.8,3.6,15.5v28.7h-8.2v-27.2
		c0-4.8-0.6-8.5-1.9-11c-1.2-2.5-4-3.7-8.3-3.7c-5.1,0-8.3,1.7-9.8,5.2s-2.2,8-2.2,14v22.9H722v-48.3h8.2L730,602.1L730,602.1z"/>
	<path d="M827,642.3c0,4.9-0.2,9-0.9,12c-0.5,3-1.9,5.9-4.1,8.7c-2.1,2.8-4.9,4.9-8.2,6.4c-3.3,1.5-6.8,2.2-10.5,2.2
		c-6.9,0-12.6-2-17.1-6.1s-6.7-9.4-6.7-16.2h8.2c0,4.5,1.5,8,4.2,10.8c2.8,2.6,6.6,4,11.1,4c5.9,0,9.9-1.9,12.1-5.4s3.3-8.5,3.3-15
		v-5.8c-4.3,5.3-10,8-17,8c-6.8,0-12.4-2.5-16.6-7.4c-4.3-4.9-6.4-10.9-6.4-17.8c0-7.1,2.1-13.1,6.4-18.2s9.9-7.5,16.8-7.5
		c6.8,0,12.4,2.7,16.5,8.2l0.2-6.9h8.2L827,642.3L827,642.3z M787.2,619.9c0,5.1,1.4,9.4,4.2,13c2.8,3.6,6.7,5.4,11.6,5.4
		c5.1,0,9-1.7,11.9-5.2s4.2-7.8,4.2-13.1c0-4.9-1.5-9-4.5-12.5c-3-3.3-6.9-5.1-11.9-5.1c-4.6,0-8.4,1.7-11.3,5.2
		C788.7,611.1,787.2,615.2,787.2,619.9z"/>
	<path d="M898.2,644.6h-8.7v-77.5h8.7V644.6z"/>
	<path d="M929.4,602.1c3.7-4.8,8.4-7.2,14-7.2c6.2,0,10.5,1.9,12.9,5.6c2.4,3.7,3.6,8.8,3.6,15.5v28.7h-8.2v-27.2
		c0-4.8-0.6-8.5-1.9-11c-1.2-2.5-4-3.7-8.3-3.7c-5.1,0-8.3,1.7-9.8,5.2c-1.5,3.5-2.2,8-2.2,14v22.9h-8.2v-48.3h8.2L929.4,602.1
		L929.4,602.1z"/>
	<path d="M1018.6,610.7c-2.1-2.5-4.5-4.6-6.9-5.9c-2.5-1.5-5.2-2.1-8.3-2.1c-4.8,0-8.9,1.7-12.1,5.2c-3.2,3.5-4.8,7.7-4.8,12.7
		c0,4.9,1.5,9.2,4.6,12.6c3.1,3.5,7.1,5.2,12,5.2c3.3,0,6.3-0.7,8.8-2.1c2.5-1.4,4.8-3.5,6.9-6.3l0.2,11c-4.8,3.3-10,4.9-15.3,4.9
		c-7.3,0-13.5-2.5-18.3-7.3c-4.9-4.8-7.3-10.9-7.3-18.2c0-7.2,2.5-13.2,7.5-18.2c5.1-4.9,11.1-7.3,18.2-7.3c5.4,0,10.4,1.6,14.8,4.8
		L1018.6,610.7L1018.6,610.7z"/>
	<path d="M1052.7,640.1c0,1.6-0.5,3-1.6,4.1c-1.1,1.1-2.5,1.7-4.1,1.7s-3-0.6-4.1-1.7c-1.1-1.1-1.7-2.5-1.7-4.2c0-1.6,0.5-3,1.6-4
		c1.1-1.1,2.5-1.6,4.1-1.6s3,0.5,4.1,1.6C1052.2,637.1,1052.7,638.5,1052.7,640.1z"/>
</g>
</svg>
