<?xml version="1.0" encoding="utf-8"?>
<!-- Generator: Adobe Illustrator 15.0.2, SVG Export Plug-In . SVG Version: 6.00 Build 0)  -->
<!DOCTYPE svg PUBLIC "-//W3C//DTD SVG 1.1//EN" "http://www.w3.org/Graphics/SVG/1.1/DTD/svg11.dtd">
<svg version="1.1" id="Layer_1" xmlns="http://www.w3.org/2000/svg" xmlns:xlink="http://www.w3.org/1999/xlink" x="0px" y="0px"
	 width="1080px" height="1080px" viewBox="0 0 1080 1080" enable-background="new 0 0 1080 1080" xml:space="preserve">
<g>
	<path fill="#B18D58" d="M480.922,524.454c0-11.462-8.891-19.265-18.771-21.978c5.607-2.325,13.26-7.796,13.26-17.056
		c0-3.852-1.534-16.434-21.225-16.434c-4.015,0-7.492,0.233-10.561,0.434c-2.221,0.154-4.17,0.285-5.827,0.285
		c-0.907,0-2.046-0.13-3.335-0.279c-1.819-0.207-3.885-0.44-6.093-0.44h-4.986v3.988h1.198c0.4,0,0.848-0.038,1.281-0.077
		c1.755-0.174,6.521-1.152,6.521,8.308v49.782c0,3.166-0.149,6.454-0.239,6.902c-0.466,1.521-1.146,3.178-2.927,5.051
		c-2.454,0.473-3.238,0.361-4.572,0.148l-1.988-0.285v4.17l1.036,0.147c1.094,0.15,2.027,0.15,2.921,0.15
		c2.926,0,5.123-0.227,7.059-0.435c1.449-0.155,2.711-0.292,3.975-0.292c0.601,0,1.424,0.073,2.564,0.162
		c2.662,0.208,7.115,0.565,14.414,0.565C476.462,547.272,480.922,529.27,480.922,524.454z M442.182,476.711
		c0-2.189,1.314-2.428,6.495-2.428c10.366,0,15.631,4.474,15.631,13.312c0,8.807-5.044,12.731-16.356,12.731h-5.77V476.711z
		 M451.726,542.991c-4.687,0-7.181-0.596-9.544-1.295v-36.209c5.77,0,12.108,0.128,16.925,2.084
		c7.59,3.116,10.283,10.97,10.283,16.738C469.39,536.005,462.785,542.991,451.726,542.991z"/>
	<path fill="#B18D58" d="M528.003,539.76c-3.574,1.546-7.355,2.939-14.316,2.939c-8.295,0-9.247-2.298-9.247-4.028v-46.426
		c0-2.434,0.771-5.341,4.462-5.341c0.407,0,0.841,0.038,1.282,0.07c0.504,0.039,1.01,0.071,1.469,0.071h1.199v-3.535l-1.023-0.149
		c-1.088-0.155-1.554-0.155-2.636-0.155c-2.343,0-4.915,0.259-6.979,0.472c-1.263,0.137-2.293,0.253-2.895,0.253
		c-1.055,0-2.655-0.194-4.195-0.375c-1.521-0.182-2.959-0.35-3.938-0.35c-1.833,0-2.978,0.194-3.905,0.35l-1.637,0.245v3.678
		l1.949-0.213c0.984-0.124,1.832-0.22,2.875-0.22c0.693,0,1.47,0,2.149,0.071c2.144,2.461,2.455,3.911,2.455,7.589v41.214
		c0,4.119-0.11,6.022-2.681,7.493c-0.415,0.11-1.819,0.304-2.222,0.304c-0.401,0-0.802-0.032-1.204-0.07
		c-0.466-0.032-0.932-0.071-1.406-0.071h-1.191v3.845h1.191c0.168,0,0.363,0.032,0.563,0.058c0.312,0.045,0.628,0.086,0.9,0.086
		c0.589,0,1.904-0.092,3.49-0.208c2.344-0.169,5.271-0.375,7.24-0.375c4.857,0,26.166,0.472,31.178,0.583l0.712,0.018l0.363-0.622
		c1.102-1.929,3.529-5.367,4.306-6.282c0.777-0.787,2.913-4.667,3.529-9.55l0.174-1.339h-3.872v1.198
		c0,1.832-0.829,3.716-2.467,5.601C533.339,536.982,532.147,537.915,528.003,539.76z"/>
	<path fill="#B18D58" d="M559.103,487.045c1.387,0,2.132,0.143,3.011,0.396l1.535,0.44v-3.717l-0.763-0.304
		c-0.92-0.356-1.929-0.654-4.947-0.654c-0.679,0-2.461,0.162-4.514,0.35c-1.91,0.181-4.073,0.375-4.765,0.375
		c-0.383,0-1.567-0.155-2.836-0.317c-1.982-0.245-3.329-0.407-4.035-0.407h-0.006l-3.277,0.148c-0.614,0-1.47,0.175-1.981,0.344
		l-0.822,0.279v3.489l1.871-0.188c1.179-0.123,2.222-0.233,3.686-0.233c3.47,0,3.741,6.644,3.741,8.684l0.144,25.675
		c0,7.964,0,26.591,25.143,26.591c26.735,0,26.735-20.125,26.735-26.736v-24.818c0-8.198,3.012-9.247,5.627-9.247
		c0.511,0,1.154,0,1.601,0.11l1.48,0.376v-3.678l-0.776-0.291c-1.373-0.505-1.662-0.505-3.618-0.505
		c-1.347,0-3.077,0.22-4.592,0.421c-1.186,0.156-2.312,0.304-2.952,0.304c-0.538,0-1.586-0.142-2.76-0.291
		c-1.645-0.202-3.496-0.434-4.784-0.434c-0.992,0-1.995,0.168-2.985,0.492l-0.823,0.279v3.638l1.437-0.296
		c0.635-0.13,1.146-0.085,1.645-0.125c4.215,0,6.353,3.652,6.353,10.847v23.511c0,5.296,0,21.439-19.128,21.439
		c-14.291,0-18.104-11.292-18.104-17.962v-31.048C554.643,491.306,556.682,487.045,559.103,487.045z"/>
	<path fill="#B18D58" d="M612.362,543.431c-0.752,0-1.342-0.096-2.033-0.2l-1.924-0.279v4.041l1.055,0.129
		c1.236,0.15,1.573,0.15,4.798,0.15c1.326,0,2.654-0.079,3.981-0.15c3.664-0.188,7.344-0.097,11.066,0.008
		c2.441,0.063,4.883,0.143,7.29,0.143c2.46,0,8.224,0,10.037,0.141c1.432,0.144,2.842,0.286,4.411,0.564l0.945,0.174l0.373-0.879
		c0.824-1.924,1.059-2.267,3.434-5.55c2.984-4.267,3.605-5.147,3.76-9.091l0.06-1.245h-3.242l-0.202,0.953
		c-1.969,9.634-16.407,9.634-23.343,9.634c-4.862,0-5.187-0.251-5.187-1.986v-24.497c13.916,0.026,16.337,0.609,17.814,6.502
		l0.225,0.906h3.152v-3.231c0-0.653-0.374-1.839-1.235-4.382c-0.465-1.374-1.041-3.09-1.105-3.658
		c-0.124-0.681-0.138-1.6-0.15-2.573c-0.019-1.307-0.038-2.66-0.304-3.715c-0.305-1.4-0.798-2.055-1.359-2.785l-0.809-0.77
		l-0.902,0.453c-0.238,0.052-0.531,0.103-0.82,0.258l-0.908,0.577l0.368,0.99c0.389,1.062,0.765,2.065,0.765,2.972
		c0,2.597-2.092,3.018-7.082,3.018h-7.648v-20.287c0-0.291,0.201-0.725,0.389-1.146l0.059-0.148
		c1.074-0.511,2.078-0.835,4.164-0.835c3.055,0,18.337,0.446,19.105,9.357l0.105,1.087h3.159v-1.198c0-1.353,0-2.752-0.28-3.769
		c0-0.279,0-0.279-1.027-2.985c-0.894-2.325-2.377-6.235-2.637-7.194l-0.277-1.028l-1.418,0.201
		c-4.684,0.666-5.659,0.809-17.601,0.809c-0.892,0-2.848-0.038-5.181-0.07c-4.977-0.073-11.609-0.176-13.776-0.078l-3.285,0.22
		v4.144l5.25-0.362c2.768,0,3.445,1.022,3.445,5.179v44.692C617.838,541.43,617.074,543.431,612.362,543.431z"/>
	<path fill="#B18D58" d="M413.788,608.002c-0.493-0.006-0.945,0.006-1.411-0.078l-1.406-0.238v3.41l0.965,0.188
		c0.505,0.104,0.713,0.11,1.943,0.11c0.467,0,1.781-0.13,3.134-0.267c1.296-0.134,2.629-0.276,3.115-0.276
		c0.323,0,1.282,0.121,2.304,0.244c1.276,0.145,2.623,0.299,3.127,0.299c1.179,0,1.976-0.072,3.05-0.292l0.952-0.2v-3.535
		l-1.51,0.407c-0.529,0.144-1.139,0.228-1.676,0.228c-1.684,0-2.721-0.9-3.062-5.512l-2.811-32.77
		c-0.279-2.947,0.213-3.736,1.172-4.721c0.376-0.032,0.738-0.032,1.134-0.032c0.252,0.013,0.557,0.021,0.835,0.038
		c0.31,0.026,0.614,0.053,0.925,0.053h1.198v-1.199l-0.162-1.986l-1.055-0.129c-0.796-0.086-1.541-0.176-2.791-0.176
		c-2.02,0-6.759,0-8.805,5.381l-12.2,31.094l-13.177-33.709c-0.945-2.475-4.493-2.766-7.083-2.766
		c-0.772-0.051-1.037-0.008-3.368,0.188l-1.094,0.097v3.115h1.191c1.301,0,2.512,0.052,3.114,0.705
		c0.492,0.525,0.686,1.536,0.577,2.993l-2.26,33.21c-0.453,6.126-2.252,6.126-3.328,6.126c-0.544,0-1.094-0.078-1.735-0.176
		l-1.359-0.187v3.372l0.984,0.182c1.094,0.201,1.373,0.201,2.739,0.201c0.924,0,1.936-0.182,2.823-0.338
		c0.577-0.102,1.088-0.205,1.431-0.205c0.402,0,1.218,0.097,2.168,0.199c1.452,0.162,3.102,0.344,4.269,0.344h1.197v-3.763
		l-1.437,0.298c-0.338,0.072-0.616,0.072-1.03,0.072c-1.153,0-1.521-0.396-1.651-0.518c-0.764-0.804-0.777-2.805-0.686-4.637
		l1.45-27.144l13.165,33.962l2.991-0.596l13.274-33.549l2.208,24.917c0.181,2.021,0.181,3.524,0.181,3.788
		C416.307,607.264,415.815,608.002,413.788,608.002z"/>
	<path fill="#B18D58" d="M451.901,611.938c15.372,0,22.372-11.785,22.372-22.733c0-9.545-7.688-19.211-22.372-19.211
		c-15.378,0-22.379,11.784-22.379,22.739C429.522,602.277,437.209,611.938,451.901,611.938z M450.347,574.201
		c10.113,0,16.912,9.817,16.912,18.98c0,8.947-5.6,14.73-14.277,14.73c-10.107,0-16.9-9.824-16.9-18.986
		C436.082,579.977,441.684,574.201,450.347,574.201z"/>
	<path fill="#B18D58" d="M478.87,573.838c1.386,0,1.878,2.669,1.878,4.961l0.077,16.006c0,4.664,0,17.036,16.142,17.036
		c17.127,0,17.127-12.885,17.127-17.12v-15.482c0-5.316,1.987-5.316,3.056-5.316c0.298,0,0.661,0,0.886,0.061l1.478,0.35v-3.166
		l-0.784-0.293c-0.894-0.33-1.126-0.336-2.396-0.336c-0.842,0-1.936,0.135-2.933,0.265c-0.72,0.091-1.36,0.187-1.775,0.187
		c-0.33,0-0.958-0.09-1.663-0.173c-1.05-0.136-2.241-0.278-3.043-0.278c-0.654,0-1.316,0.103-1.995,0.316l-0.835,0.266v3.146
		l1.425-0.273c0.369-0.07,0.68-0.07,0.951-0.07c0.869,0,3.51,0,3.51,6.314v14.665c0,5.543-1.191,12.919-11.474,12.919
		c-8.56,0-10.839-6.754-10.839-10.748v-19.367c0-1.561,1.23-3.867,2.331-3.867c0.816,0,1.263,0.078,1.742,0.221l1.535,0.44v-3.211
		l-0.745-0.306c-0.583-0.232-1.27-0.445-3.251-0.445c-0.415,0-1.638,0.103-2.887,0.219c-1.217,0.11-2.468,0.232-2.908,0.232
		c-0.246-0.006-0.958-0.103-1.722-0.193c-1.023-0.131-2.04-0.304-2.583-0.258l-2.034,0.089c-0.42,0-1.003,0.118-1.36,0.233
		l-0.828,0.267v3.004l1.637-0.147C477.309,573.904,477.95,573.838,478.87,573.838z"/>
	<path fill="#B18D58" d="M558.663,610.948c0.661,0.821,1.413,0.989,1.924,0.989c1.327,0,2.285-0.842,2.285-2.013v-31.223
		c0-3.464,0.505-4.132,1.431-4.78c1.522,0,1.684,0.014,2.61,0.17l1.385,0.232v-3.296l-0.946-0.202
		c-0.893-0.193-1.599-0.289-2.777-0.289c-0.57,0-1.257,0.116-1.943,0.244c-1.276,0.232-2.222,0.183-3.237,0.007
		c-1.315-0.22-2.804-0.519-5.102-0.05l-0.959,0.188v3.212l1.392-0.228c0.472-0.08,0.958-0.064,1.438-0.072
		c0.42,0.014,0.835,0,1.263,0.032c1.101,1.213,1.333,3.038,1.333,5.552v21.179l-24.604-27.864c-1.82-2.037-4.306-2.199-7.142-2.199
		c-1.723,0-3.2,0.122-4.417,0.381l-0.938,0.201v3.244l1.715-0.226c0.493-0.065,0.927-0.124,1.471-0.124
		c1.14,0,1.379,0.174,2.369,1.242l0.596,0.646v25.877c0,1.812-0.46,5.426-1.561,6.391c-0.389,0.045-1.204,0.104-1.404,0.104
		c-0.57,0-1.36-0.078-1.761-0.156l-1.425-0.277v3.4l1.327,0.187c0.712,0.11,1.237,0.278,3.614,0.015
		c0.854-0.098,1.923-0.229,3.126-0.229c1.406,0,2.26,0.131,2.954,0.229c1.625,0.227,2.85,0.09,3.975-0.053l1.055-0.131v-3.373
		l-1.385,0.228c-0.485,0.077-1.056,0.161-1.619,0.161c-2.792,0-2.868-3.632-2.868-4.047v-23.881L558.663,610.948z"/>
	<path fill="#B18D58" d="M596.063,579.958l2.784,1.184l0.578-0.659c2.383-2.771,3.533-4.805,3.533-6.217
		c0-2.953-1.527-4.266-5.087-4.266c-0.009,0-0.014,0-0.02,0l-4.754,0.439c-1.345,0.098-4.279,0.187-5.179,0.187
		c-2.078,0-6.469-0.181-8.412-0.271c-0.504,0-2.162-0.183-3.379-0.312c-0.783-0.076-1.399-0.141-1.502-0.141
		c-0.318,0-0.784,0-1.29,0.123l-0.62,0.147l-0.222,0.604c-0.251,0.686-0.685,1.721-1.055,2.46c-0.238,0.551-0.822,1.554-1.534,2.79
		l-1.697,2.914l1.126,0.562c0.129,0.13,0.317,0.317,0.577,0.446l1.003,0.5l0.57-0.965c1.166-1.995,2.933-5.019,9.467-5.019
		c2.332,0,2.332,0,2.332,2.24v24.801c0,4.208-0.429,4.992-1.756,6.559c-0.414,0.032-0.822,0.046-1.203,0.032
		c-0.68,0-0.986,0-1.554-0.084l-1.374-0.2v3.58h4.273c0.292,0,1.018-0.065,1.852-0.148c1.017-0.09,2.209-0.215,2.862-0.215
		c0.55,0,1.521,0.092,2.513,0.176c1.119,0.098,2.13,0.182,2.939,0.188c1.179,0,1.191,0,2.759-0.084l1.133-0.07v-3.285l-3.555,0.144
		c-0.694,0-1.878-0.932-1.878-4.423v-28.6c0-0.059,0-0.247-0.026-0.247h-0.006c0.012-0.006,0.356-0.271,2.006-0.271
		c4.468,0,5.958,0.219,5.958,1.521c0,0.647-0.233,1.017-1.354,2.673L596.063,579.958z"/>
	<path fill="#B18D58" d="M604.307,607.107l-0.084,0.156c-0.155,0.148-0.544,0.439-0.844,0.654c-0.103,0.078-0.181,0.148-0.251,0.199
		c-0.389,0.047-0.999,0.072-1.443,0.027c-0.269-0.027-0.541-0.046-0.804-0.046h-1.197v3.004l0.97,0.182
		c0.525,0.104,0.83,0.11,1.767,0.11c0.409,0,0.894-0.033,1.458-0.072c1.191-0.082,2.746-0.122,4.83-0.018
		c1.663,0.076,3.184,0.207,4.346-0.021l0.971-0.182v-3.004h-1.198c-0.345,0-0.687,0.019-1.03,0.046
		c-0.292,0.02-0.582,0.038-0.867,0.038c-0.88,0-1.069-0.875-1.069-1.604c0-0.473,0.15-1.439,0.558-2.565l3.691-9.907h9.681
		l4.583,11.389c0.184,0.441,0.365,0.979,0.365,1.627c0,0.551-0.223,0.829-0.182,0.829c-0.293,0.07-0.824,0.148-1.068,0.148
		c-0.402,0-0.947-0.091-1.432-0.175l-1.399-0.232v3.469l1.035,0.145c1.413,0.18,2.312,0.109,3.887-0.064
		c0.905-0.092,1.948-0.209,3.075-0.209c1.179,0,2.59,0.137,3.684,0.233c0.77,0.079,1.406,0.13,1.748,0.13
		c0.804,0,1.393-0.09,2.001-0.194l0.999-0.175v-3.205h-1.199c-0.156,0-0.506,0.06-0.9,0.135c-0.707,0.151-1.371,0.123-1.857,0.06
		c-0.783-1.186-1.327-2.214-2.637-5.504l-12.877-32.518h-2.649l-12.865,34.077C605.803,604.869,604.935,606.164,604.307,607.107z
		 M618.855,581.764l3.426,8.502h-6.561L618.855,581.764z"/>
	<path fill="#B18D58" d="M656.088,573.922c0.887,0.092,1.107,0,1.872,0.086l1.319,0.137v-3.188l-1.463-0.207
		c-0.647-0.103-1.463-0.213-2.085-0.213c-0.356,0-1.419,0.078-2.544,0.162c-1.18,0.096-2.421,0.193-2.888,0.193
		c-0.337,0-1.347-0.083-2.39-0.169c-1.191-0.098-2.422-0.187-2.856-0.187c-1.507,0-2.214,0.11-3.133,0.283l-0.965,0.189v3.152
		l1.333-0.154c0.68-0.086,1.36-0.086,1.761-0.086c0.569,0.039,1.05,0,1.58,0.039c0.946,0.888,1.212,1.457,1.212,4.197v25.156
		c0,3.256-0.278,3.891-0.997,4.654c-0.413,0.039-0.802,0.027-1.243,0.033c-0.617-0.025-1.244,0-1.821-0.078l-1.37-0.206v3.276
		l0.957,0.199c0.537,0.111,1.431,0.201,1.949,0.201c0.408,0,1.594-0.084,2.809-0.176c1.211-0.091,2.45-0.188,2.902-0.188
		c0.415,0,1.631,0.086,2.912,0.169c1.479,0.089,3.025,0.194,3.607,0.194c0.953,0,1.18,0,1.91-0.238l0.822-0.272v-3.166l-1.373,0.206
		c-0.963,0.137-1.76,0.232-2.951,0.059c-0.552-0.643-1.107-1.619-1.107-2.94v-28.517
		C653.848,574.803,654.605,573.922,656.088,573.922z"/>
	<path fill="#B18D58" d="M666.099,608.17c-0.382,0.045-1.206,0.104-1.405,0.104c-0.571,0-1.366-0.078-1.769-0.156l-1.425-0.277v3.4
		l1.342,0.187c0.691,0.11,1.21,0.298,3.6,0.015c0.861-0.098,1.93-0.229,3.136-0.229c1.402,0,2.259,0.131,2.946,0.229
		c1.624,0.227,2.848,0.09,3.975-0.053l1.055-0.131v-3.373l-1.393,0.228c-0.471,0.077-1.037,0.161-1.612,0.161
		c-2.783,0-2.868-3.632-2.868-4.047v-23.881l26.827,30.603c0.667,0.821,1.411,0.989,1.929,0.989c1.322,0,2.279-0.842,2.279-2.013
		v-31.223c0-3.464,0.512-4.132,1.432-4.78c1.529,0,1.69,0.014,2.607,0.17l1.394,0.232v-3.296l-0.949-0.202
		c-0.891-0.193-1.603-0.289-2.774-0.289c-0.568,0-1.262,0.116-1.947,0.244c-1.27,0.232-2.209,0.183-3.232,0.007
		c-1.32-0.212-2.816-0.497-5.101-0.05l-0.966,0.188v3.212l1.393-0.228c0.471-0.08,0.957-0.064,1.438-0.072
		c0.44-0.008,0.835,0,1.262,0.032c1.107,1.213,1.34,3.038,1.34,5.552v21.179l-24.604-27.864c-1.813-2.037-4.313-2.199-7.147-2.199
		c-1.723,0-3.168,0.122-4.403,0.381l-0.954,0.201v3.244l1.705-0.219c0.511-0.072,0.943-0.131,1.488-0.131
		c1.135,0,1.385,0.174,2.363,1.242l0.596,0.646v25.877C667.652,603.592,667.191,607.205,666.099,608.17z"/>
	<path fill="#B18D58" d="M341.953,748.699c2.214,0.732,3.121,0.785,4.357,0.785h0.745l0.331-0.662
		c0.297-0.602,0.297-0.602,1.599-1.658l3.251-2.654c0.473-0.387,1.463-1.203,2.214-1.203c0.213,0,0.532,0.064,0.932,0.551
		c0.202,0.252,0.37,0.562,0.531,0.859l0.946,1.627l2.44-1.975l-0.375-0.85c-0.407-0.912-0.537-1.068-1.282-1.982
		c-0.22-0.27-0.867-0.949-1.528-1.629c-0.595-0.623-1.198-1.244-1.404-1.504c-0.234-0.277-0.874-1.184-1.522-2.084
		c-0.673-0.953-1.346-1.893-1.619-2.221c-0.557-0.682-0.621-0.752-1.14-1.264l-0.764-0.752l-2.46,2.002l1.825,1.994
		c1.147,1.398,0.473,2.324-1.58,4.002c-2.208,1.807-4.299,3.521-6.565,3.521c-2.124,0-4.403-1.525-6.968-4.662
		c-2.648-3.242-3.626-7.07-2.836-11.078c0.81-4.074,3.362-7.959,7.375-11.232c3.743-3.066,8.347-4.82,12.634-4.82
		c2.875,0,6.953,0.803,10.1,4.65c4.825,5.904,2.584,13.428,1.639,14.355c-0.221,0.182-0.356,0.246-0.795,0.49l-2.41,1.367
		l1.807,2.227l0.803-0.303c0.88-0.324,1.71-0.643,2.953-1.639c0.544-0.447,1.58-1.631,3.101-3.393
		c0.966-1.121,1.878-2.188,2.293-2.572l1.217-1.133l-1.463-0.795c-0.562-0.311-0.847-0.467-1.703-1.516
		c-0.396-0.473-0.524-0.705-1.58-3.705c-0.563-1.572-1.424-3.645-3.121-5.73c-3.931-4.797-10.451-7.781-17.004-7.781
		c-5.057,0-9.804,1.693-13.734,4.906c-8.956,7.318-9.887,20.502-2.124,30.014C335.329,746.465,339.655,747.924,341.953,748.699z"/>
	<path fill="#B18D58" d="M358.083,761.715c0.415,5.691,3.399,11.016,8.637,15.393c3.859,3.23,8.482,4.939,13.364,4.939
		c6.424,0,13.081-2.996,16.965-7.641c8.087-9.674,6.838-21.764-3.108-30.076c-3.885-3.252-8.676-4.967-13.876-4.967
		c-6.597,0-12.949,2.881-16.99,7.711C359.475,751.375,357.701,756.582,358.083,761.715z M368.864,750.338
		c3.652-4.371,8.521-6.877,13.358-6.877c3.244,0,6.3,1.127,8.846,3.246c4.026,3.373,5.619,7.904,4.752,13.492
		c-0.778,4.986-3.38,9.545-5.562,12.148c-5.53,6.617-14.291,7.615-20.734,2.227c-4.798-4.021-5.575-8.994-5.373-12.457
		C364.383,757.984,366.145,753.582,368.864,750.338z"/>
	<path fill="#B18D58" d="M412.209,763.438c0.051,0.033,1.321,0.855-0.195,3.58l-9.966,17.969
		c-4.623,8.342-1.851,16.131,7.608,21.389c0.635,0.357,4.034,2.129,8.14,2.129c1.243,0,2.454-0.16,3.587-0.492
		c5.556-1.58,8.152-5.613,11.215-11.137l6.326-11.408c2.247-4.035,2.662-4.391,4.422-4.695c0.156,0.053,0.364,0.143,0.474,0.201
		c0.175,0.104,0.556,0.479,0.834,0.764l1.133,1.127l1.652-3.012l-0.589-0.639c-0.383-0.41-0.693-0.713-1.555-1.199
		c-0.364-0.195-1.036-0.475-1.762-0.766c-0.712-0.291-1.482-0.594-1.968-0.859c-0.518-0.293-1.102-0.719-1.684-1.141
		c-0.667-0.492-1.334-0.971-1.928-1.309c-0.765-0.42-1.309-0.635-2.009-0.795l-0.867-0.188l-1.749,3.082l1.657,0.303
		c0.356,0.072,1.03,0.305,1.295,0.447c0.214,0.125,0.434,0.279,0.538,0.357l0.006,0.004c1.101,1.414,0.208,3.551-0.42,4.684
		l-8.166,14.705c-0.834,1.516-2.388,4.352-4.623,6.189c-2.785,2.299-8.12,2.52-11.525,0.621c-3.206-1.773-5.207-3.975-5.938-6.553
		c-1.154-4.047,1.086-8.055,1.831-9.361L417,771.33c0.848-1.521,1.961-3.27,3.14-3.27c0.278,0,0.584,0.098,0.919,0.285
		c0.751,0.414,0.978,0.604,1.547,1.082l1.121,0.945l1.65-3.09l-0.861-0.615c-0.517-0.375-1.101-0.789-1.78-1.166
		c-0.428-0.238-2.28-0.988-2.623-1.107c-0.57-0.238-1.223-0.6-1.897-0.971c-0.31-0.168-1.171-0.75-2.052-1.346
		c-0.977-0.654-1.976-1.32-2.357-1.529c-0.789-0.445-1.502-0.752-2.306-0.996l-0.925-0.285l-1.651,2.939l1.34,0.479
		C410.893,762.906,411.95,763.283,412.209,763.438z"/>
	<path fill="#B18D58" d="M450.917,783.795c0.247,0.064,0.505,0.137,0.739,0.215c0.491,0.174,0.815,0.4,0.951,0.674
		c0.247,0.523,0,1.393-0.278,2.174l-9.479,27.443c-0.667,1.922-1.017,2.371-2.137,2.99c-0.396-0.084-0.79-0.189-1.167-0.311
		c-0.335-0.123-0.621-0.271-0.963-0.439l-1.568-0.766l-1.055,3.064l0.841,0.49c0.771,0.461,1.315,0.643,1.878,0.83
		c0.459,0.162,1.282,0.355,2.15,0.559c0.854,0.199,1.753,0.4,2.292,0.588c0.893,0.311,2.144,0.879,3.165,1.346
		c0.759,0.338,1.399,0.629,1.742,0.746c0.622,0.213,1.14,0.33,1.892,0.492l1.042,0.227l1.049-3.07l-1.314-0.285
		c-0.504-0.104-1.069-0.232-1.664-0.422c-0.834-0.646-1.036-1.436-0.654-2.531l4.967-14.387c0.006,0,0.013,0.006,0.019,0.006
		c0.441,0.311,0.88,0.617,1.005,0.725c0.562,0.734,1.884,5.756,2.681,9.746c2.174,11.098,3.399,14.121,8.462,15.869
		c1.723,0.598,2.881,0.844,4.022,0.844c0.305,0,0.588-0.02,0.887-0.039l0.783-0.066l0.887-3.016l-1.819,0.129
		c-0.653,0.045-0.984,0.117-1.742-0.135c-2.571-0.889-3.561-5.518-4.487-9.824c-1.399-6.729-1.833-8.709-2.856-11.422
		c6.36,1.055,11.545-1.488,13.222-6.338c2.137-6.191-1.379-12.064-8.755-14.615c-0.426-0.148-0.918-0.299-1.424-0.453
		c-0.486-0.148-0.979-0.301-1.482-0.467l-5.615-1.709c-0.271-0.092-1.069-0.428-1.877-0.758c-0.868-0.371-1.756-0.738-2.105-0.867
		c-1.114-0.369-1.114-0.369-2.019-0.609l-1.069-0.277l-1.049,3.018l1.121,0.4C450.353,783.641,450.632,783.717,450.917,783.795z
		 M458.681,788.029c0.227-0.658,0.227-0.658,0.641-0.658c0.61,0,1.561,0.227,2.843,0.666c7.854,2.727,5.86,9.232,5.602,9.965
		c-1.451,4.215-5.142,4.668-6.664,4.668c-0.92,0-1.839-0.146-2.661-0.428c-2.08-0.723-3.018-1.514-3.853-2.406L458.681,788.029z"/>
	<path fill="#B18D58" d="M480.431,833.68c0.724,0.104,1.599,0.092,2.376,0.059l0.758-0.02c0.168,0,0.305,0.006,0.433,0.02
		c0.324,0.045,0.991,0.227,1.761,0.428c1.153,0.305,2.513,0.652,3.431,0.783l1.186,0.176l0.312-2.078l-0.019-1.367h-1.393
		c-0.207,0-0.389-0.033-0.642-0.064c-0.86-0.131-1.087-0.439-1.158-0.545c-0.485-0.693-0.26-2.279,0.019-3.73l4.229-21.158
		l6.59,28.684l2.792-0.168l14.523-25.293l-1.107,19.848c-0.097,1.65-0.258,2.855-0.311,3.113c-0.401,2.857-0.933,2.83-2.285,2.615
		c-0.37-0.045-0.739-0.09-1.114-0.211l-1.354-0.453l-0.466,3.197l0.913,0.33c0.479,0.182,0.719,0.221,1.645,0.344
		c0.388,0.057,1.47,0.109,2.578,0.154c1.087,0.045,2.208,0.086,2.608,0.15c0.261,0.037,1.005,0.244,1.808,0.459
		c1.042,0.271,2.169,0.57,2.583,0.627c0.719,0.111,1.256,0.145,1.78,0.145c0.26,0,0.505-0.008,0.79-0.021l0.971-0.059l0.5-3.379
		l-1.594,0.24c-0.427,0.051-0.881,0.045-1.308-0.014c-1.262-0.189-1.942-1.004-1.683-4.676l1.593-27.215
		c0.117-2.324,0.551-2.887,1.379-3.535c0.298,0.02,0.589,0.064,0.958,0.125c0.195,0.023,0.389,0.07,0.577,0.107
		c0.246,0.066,0.485,0.117,0.725,0.15l1.198,0.18l0.362-3.012l-1.029-0.27c-0.673-0.176-1.289-0.344-2.344-0.492
		c-0.629-0.09-1.294-0.17-1.981-0.17c-2.738,0-4.733,1.191-6.099,3.627l-13.442,23.609l-6.683-28.705
		c-0.562-2.559-4.396-3.096-5.685-3.275c-0.596-0.086-0.848-0.129-2.765-0.248l-1.108-0.064l-0.414,2.947l1.179,0.168
		c1.017,0.148,1.955,0.324,2.331,0.867c0.383,0.557,0.26,1.586,0.098,2.357l-5.822,26.975c-0.453,2.066-1.289,4.521-2.688,4.521
		c-0.2,0-0.389-0.027-0.55-0.047c-0.415-0.057-0.83-0.188-1.36-0.342l-1.322-0.383l-0.466,3.166l0.952,0.318
		C479.039,833.473,479.265,833.512,480.431,833.68z"/>
	<path fill="#B18D58" d="M535.009,801.459c0.59-0.084,0.687-0.084,1.606-0.109c1.444,0,1.801,0.568,1.897,3.084l0.958,27.811
		c0.078,2.045-0.181,3.184-0.687,3.754c-0.388,0.279-1.08,0.441-1.657,0.461c-0.375,0-0.79-0.061-1.159-0.098l-1.385-0.162
		l0.104,3.219l0.906,0.201c0.544,0.121,1.05,0.135,1.386,0.135l0.641-0.014c0.926-0.033,1.846-0.121,2.785-0.205
		c0.9-0.092,1.807-0.176,2.687-0.209c2.403-0.09,7.667-0.201,11.863-0.201c2.506,0,4.332,0.039,5.264,0.117l0.881,0.064l0.343-0.814
		c0.155-0.389,1.321-2.105,1.877-2.928c0.357-0.52,0.654-0.965,0.791-1.178c0.991-1.588,1.133-2.455,1.334-3.971l0.181-1.404
		l-3.199,0.129l-0.11,1.037c-0.136,1.275-0.175,1.623-3.646,3.477c-3.457,1.807-7.013,1.924-7.071,1.924l-3.917,0.135
		c-0.369,0-1.567-0.098-1.613-1.289l-0.512-14.879c1.846-0.084,3.4-0.143,4.702-0.143c4.604,0,5.142,0.688,5.42,3.639l0.102,1.113
		l2.856-0.109l-0.045-1.217c-0.045-1.016-0.096-2.279-0.66-3.703c-0.479-1.25-0.511-1.516-0.778-4.105l-0.071-0.648
		c-0.22-2.02-0.265-2.498-0.978-3.541l-0.691-1.023l-2.098,1.533l0.361,1.354c0.124,0.428,0.24,0.811,0.247,1.102
		c0.019,0.615-0.615,1.684-3.102,1.775l-5.394,0.186l-0.511-13.842c0.013-0.014,0.259-0.273,1.521-0.312
		c0.33-0.012,0.673-0.018,1.029-0.018c1.826,0,10.924,0.238,11.164,4.939l0.058,1.164l2.953-0.07l-0.026-1.191
		c-0.032-1.244-0.072-1.852-0.726-3.309c-0.129-0.277-0.447-0.945-0.822-1.717c-0.59-1.217-1.315-2.699-1.515-3.191l-0.324-0.791
		l-13.637,0.57l-0.699,0.008c-0.764,0-1.891-0.014-3.03-0.027c-1.153-0.012-2.325-0.025-3.122-0.025l-0.815,0.008
		c-1.088,0.045-1.69,0.154-2.416,0.34l-0.933,0.248l0.111,3.121L535.009,801.459z"/>
	<path fill="#B18D58" d="M566.064,806.479l2.513,0.045l0.202-0.979c0.731-3.586,3.34-5.445,3.651-5.594l5.848-1.037
		c0.238,0,0.485,0.168,0.517,0.35L584,828.441c0.396,2.273,0.396,3.166,0.065,4.062c-0.517,0.172-0.912,0.289-1.268,0.354
		c-0.466,0.076-0.946,0.117-1.419,0.117l-1.846-0.066l0.647,3.277l0.933,0.066c0.26,0.018,0.466,0.031,0.686,0.031
		c0.364,0,0.745-0.031,1.36-0.148c0.318-0.053,1.237-0.266,2.215-0.5c1.062-0.252,2.182-0.518,2.609-0.59
		c0.914-0.16,1.878-0.275,2.81-0.381c0.96-0.115,1.892-0.219,2.707-0.375c0.698-0.129,1.256-0.227,1.936-0.66l0.687-0.436
		l-0.654-3.594l-1.554,1.172c-0.239,0.176-0.348,0.234-0.739,0.307c-0.265,0.043-0.795,0.102-1.236,0.129
		c-0.636-0.41-1.069-0.92-1.25-1.904l-5.459-30.654c-0.091-0.51-0.045-0.744-0.006-0.809c0.09-0.131,0.505-0.344,1.956-0.607
		l4.441-0.791c0.287-0.045,0.628-0.109,0.979-0.109c0.42,0,1.063,0,1.335,1.508l0.038,0.254l-0.006,0.02
		c-0.202,0.484-0.485,1.197-0.873,1.844l-0.765,1.373l1.501,0.441c0.169,0.096,0.345,0.174,0.479,0.227l0.894,0.297l0.505-0.803
		c1.897-3.023,1.968-5.654,1.851-6.326c-0.4-2.299-2.071-3.465-4.349-3.037c-1.367,0.238-4.896,0.973-8.341,1.684
		c-3.257,0.674-6.443,1.334-7.648,1.547c-2.252,0.402-5.042,0.9-8.061,0.926l-0.861,0.008l-0.272,0.803
		c-1.864,5.51-2.104,6.293-2.013,8.254L566.064,806.479z"/>
	<path fill="#B18D58" d="M642.458,817.875c3.224,0,6.513-0.74,9.783-2.189c3.568-1.588,6.241-3.062,8.561-5.549
		c1.696-1.846,3.735-4.514,4.364-8.852l0.212-1.457l-3.353,0.201l-0.103,1.016c-0.214,2.1-1.86,4.836-4.106,6.812
		c-2.692,2.357-4.682,3.25-5.762,3.723c-2.281,1.018-4.533,1.535-6.697,1.535c-9.298,0-14.064-9.084-15.3-11.877
		c-2.196-4.932-2.429-9.68-0.681-13.719c1.367-3.186,4.035-5.912,7.123-7.279c1.709-0.758,3.932-1.18,6.262-1.18
		c4.248,0,7.926,1.35,8.756,3.195c0.181,0.42,0.225,0.75,0.309,1.332l0.17,1.152l1.158-0.135c0.162-0.02,0.344-0.059,0.48-0.137
		l1.489,0.062l-0.26-1.467c-0.149-0.869-0.389-1.871-1.022-3.309c-0.744-1.684-1.627-2.768-2.395-3.717
		c-0.675-0.83-1.253-1.549-1.712-2.584l-0.745-1.658l-1.229,1.328c-0.688,0.738-0.992,0.99-1.834,1.365
		c-1.248,0.557-1.572,0.588-3.508,0.783c-3.277,0.318-5.09,0.492-7.66,1.625c-6.82,3.037-17.809,13.119-10.51,29.553
		C626.775,812.139,633.373,817.875,642.458,817.875z"/>
	<path fill="#B18D58" d="M673.551,797.023c0.48,2.131,0.208,3.502-0.096,4.41c-0.777,0.582-0.828,0.604-1.27,0.766l-1.432,0.523
		l1.873,2.783l0.904-0.387c0.408-0.176,0.5-0.215,1.301-0.758c0.291-0.203,0.744-0.57,1.264-0.998
		c0.582-0.479,1.244-1.035,1.807-1.404c0.324-0.227,1.16-0.674,1.924-1.088c0.705-0.389,1.366-0.752,1.631-0.92
		c0.848-0.568,0.9-0.615,1.275-0.965l0.752-0.699l-1.605-2.408l-2.118,1.41c-0.245,0.162-0.499,0.33-0.81,0.447
		c-0.374-0.102-0.698-0.285-1.062-0.814c-0.524-0.791-1.103-2.709-1.269-3.512l-2.131-9.828l8.755-5.834l10.78,7.537
		c0.498,0.369,0.849,0.867,0.991,1.074l1.017-0.641l-0.861,0.926c0,0.025-0.014,0.121-0.137,0.395
		c-0.771,0.576-0.943,0.68-1.805,1.102l-1.225,0.607l1.793,2.695l0.945-0.467c0.604-0.291,0.674-0.33,1.496-0.887
		c0.284-0.188,1.043-0.777,1.826-1.393c0.797-0.621,1.62-1.262,1.944-1.477c0.529-0.363,2.646-1.58,3.812-2.254
		c0.473-0.273,0.803-0.467,0.867-0.51c0.154-0.104,0.307-0.234,0.608-0.486l1.019-0.654l-1.865-2.842l-1.041,0.982
		c-0.223,0.223-0.481,0.389-0.744,0.564c-0.248,0.17-0.412,0.277-0.746,0.357c-0.836-0.17-1.082-0.273-2.467-1.256L668.6,759.436
		c-0.43-0.324-0.869-0.408-1.103-0.447l-0.485-0.098l-0.898,0.615l-0.385,0.416c-0.289,0.531-0.205,1.049-0.162,1.32
		L673.551,797.023z M680,775.402l-6.365,4.248l-2.227-10.191L680,775.402z"/>
	<path fill="#B18D58" d="M686.225,749.857c0.355-0.398,0.439-0.479,1.016-0.996c0.479-0.428,0.905-0.646,1.27-0.646
		c0.705,0,1.514,0.834,2.285,1.695l18.57,20.729c1.232,1.379,1.84,2.453,1.794,3.205c-0.038,0.73-0.745,1.391-1.884,2.414
		l-0.912,0.811l2.083,2.279l0.867-0.59c0.467-0.322,0.907-0.701,1.282-1.035c0.306-0.279,1.121-1.133,1.956-2.002
		c0.815-0.861,1.645-1.736,1.969-2.033c0.228-0.201,0.946-0.719,1.685-1.27c0.874-0.652,1.785-1.332,2.083-1.605
		c0.675-0.59,1.03-1.049,1.521-1.812l0.508-0.77l-2.312-2.494l-0.85,1.354c-0.245,0.395-0.46,0.738-0.783,1.018
		c-1.372,1.242-2.487,0.025-3.243-0.816l-9.216-10.283c3.788-3.395,5.946-5.244,7.22-5.244c0.616,0,1.322,0.451,2.604,1.689
		l0.789,0.764l2.158-2.02l-0.876-0.906c-1.464-1.523-1.761-1.84-3.263-2.52c-1.349-0.654-1.431-0.693-2.28-1.65
		c-0.07-0.078-0.271-0.344-0.497-0.641c-0.389-0.5-0.85-1.096-1.004-1.264c-0.733-0.816-1.458-1.154-2.15-1.418l-1.095-0.428
		l-1.08,2.656l0.861,0.529c0.395,0.248,0.771,0.48,1.008,0.75c0.668,0.746,0.68,1.023,0.105,1.859
		c-0.758,1.102-2.468,2.674-5.051,4.998l-9.26-10.301c0.006-0.006,0.031-0.383,0.973-1.219c2.766-2.477,6.804-5.133,9.827-5.133
		c1.107,0,1.988,0.369,2.675,1.105l0.81,0.881l2.188-2.006l-0.783-0.895c-0.835-0.926-1.256-1.365-2.649-2.045
		c-0.213-0.098-0.651-0.299-1.196-0.559c-1.204-0.543-3.226-1.463-3.814-1.838l-0.932-0.576l-0.667,0.873
		c-0.841,1.121-1.553,1.768-2.487,2.604l-6.72,6.01c-0.409,0.369-1.65,1.379-2.896,2.395c-1.268,1.037-2.551,2.08-3.004,2.488
		c-0.783,0.719-1.165,1.164-1.632,1.799l-0.587,0.789l2.137,2.34L686.225,749.857z"/>
	<path fill="#B18D58" d="M708.621,729.307c0.342-0.492,0.388-0.551,0.881-1.127c0.692-0.822,1.146-0.822,1.301-0.822
		c0.68,0,1.586,0.707,2.371,1.381l21.211,18c1.568,1.328,2.234,2.279,2.319,3.037c-0.053,0.473-0.409,1.094-0.745,1.488
		c-0.239,0.293-0.584,0.576-0.876,0.828l-1.068,0.906l2.456,2.119l0.765-0.543c0.647-0.453,1.112-1.025,1.457-1.426
		c0.596-0.707,1.157-1.455,1.723-2.221c0.544-0.719,1.072-1.432,1.645-2.098c2.258-2.68,9.22-10.639,11.473-12.711l0.628-0.613
		l-0.369-0.791c-0.166-0.365-0.633-2.307-0.854-3.246c-0.163-0.674-0.306-1.248-0.382-1.514c-0.513-1.742-1.011-2.453-2.047-3.652
		l-0.92-1.068l-2.064,2.436l0.704,0.783c0.873,0.977,1.082,1.211,0.118,5.037c-0.939,3.588-3.09,6.242-3.329,6.525l-2.467,2.922
		c-0.622,0.719-1.451,0.939-2.118,0.375l-11.339-9.615c3.375-4.092,5.317-6.332,6.853-6.332c0.648,0,1.432,0.375,2.536,1.203
		l0.896,0.674l1.838-2.201l-0.939-0.785c-0.771-0.652-1.734-1.463-3.165-2.006c-1.252-0.486-1.483-0.654-3.641-2.234l-0.51-0.369
		c-1.603-1.172-1.977-1.455-3.206-1.617l-1.212-0.176l-0.315,2.57l1.229,0.641c0.402,0.195,0.782,0.375,1.016,0.576
		c0.033,0.039,0.343,0.307,0.39,0.861c0.058,0.732-0.351,1.639-1.181,2.609l-3.487,4.125l-10.568-8.941
		c0-0.006-0.02-0.383,0.791-1.334c3.212-3.781,8.838-8.152,11.842-5.697l0.921,0.756l1.916-2.285l-0.912-0.771
		c-0.96-0.809-1.451-1.189-2.908-1.664c-0.318-0.109-1.121-0.342-2.021-0.607c-1.257-0.369-2.707-0.789-3.187-0.973l-0.803-0.303
		l-8.768,10.477c-0.33,0.389-1.282,1.41-2.286,2.486c-0.051,0.057-0.103,0.117-0.161,0.176l6.539-16.584l-5.257-1.49l-4.352,18.246
		l2.234,0.727c-0.844,0.914-1.592,1.729-1.885,2.08c-0.7,0.809-1.035,1.332-1.404,2.025l-0.441,0.85l2.383,1.992L708.621,729.307z"
		/>
	<path fill="#B18D58" d="M854.979,303.514c0.933-2.345,2.874-3.244,3.107-3.316h4.001c0.17,0,0.339,0.162,0.339,0.279v20.288
		c0,1.547-0.11,2.149-0.429,2.706c-0.918,0.13-1.399,0.098-2.091-0.044l-1.029-0.214v2.337l0.648,0.155
		c0.485,0.123,0.763,0.175,1.436,0.175c0.228,0,0.887-0.033,1.586-0.072c0.74-0.032,1.517-0.071,1.803-0.071
		c0.646,0,1.326,0.04,1.975,0.071c0.646,0.04,1.269,0.072,1.824,0.072c0.492,0,0.889,0,1.406-0.208l0.531-0.221v-2.544l-1.226,0.583
		c-0.188,0.09-0.258,0.116-0.549,0.116c-0.174,0-0.524-0.033-0.815-0.065c-0.362-0.324-0.591-0.718-0.591-1.392v-21.316
		c0-0.622,0-0.687,1.458-0.687h3.075c0.939,0,1.354,0.051,1.354,1.198v0.169c-0.189,0.297-0.469,0.73-0.803,1.1l-0.721,0.887
		l1.886,1.036l0.459-0.504c1.65-1.82,2.026-3.6,2.026-4.08c0-1.625-0.979-2.59-2.61-2.59c-0.943,0-3.399,0.064-5.801,0.129
		c-2.28,0.065-4.515,0.124-5.341,0.124c-1.574,0-3.523,0-5.552-0.349l-0.599-0.105l-0.3,0.531c-1.853,3.361-2.188,3.963-2.356,5.349
		l-0.104,0.803l1.741,0.317L854.979,303.514z"/>
	<path fill="#B18D58" d="M879.091,325.879c0.533,0,1.114-0.104,1.626-0.195c0.318-0.051,0.602-0.11,0.798-0.11
		c0.221,0,0.674,0.052,1.202,0.11c0.817,0.091,1.782,0.195,2.437,0.195h0.855v-2.526l-1.031,0.214
		c-0.167,0.039-0.31,0.039-0.537,0.039c-0.584,0-0.757-0.181-0.817-0.246c-0.388-0.414-0.388-1.553-0.328-2.5l0.771-14.576
		l7.238,18.648l1.918-0.395l7.302-18.448l1.193,13.417c0.104,1.14,0.104,1.981,0.104,2.129c0,1.71-0.286,1.969-1.256,1.969
		c-0.26,0-0.52,0.007-0.778-0.039l-1.004-0.175v2.299l0.7,0.129c0.297,0.051,0.415,0.059,1.134,0.059
		c0.264,0,1.03-0.072,1.808-0.149c0.717-0.077,1.461-0.155,1.732-0.155c0.184,0,0.727,0.064,1.297,0.129
		c0.727,0.09,1.503,0.175,1.799,0.175c0.759,0,1.218-0.059,1.749-0.162l0.698-0.136v-2.396l-1.086,0.298
		c-0.28,0.078-0.616,0.123-0.908,0.123c-0.711,0-1.359-0.227-1.554-2.964l-1.599-18.611c-0.143-1.535,0.076-1.962,0.568-2.493
		c0.177-0.013,0.352-0.013,0.532-0.013c0.155-0.014,0.316,0.013,0.485,0.026c0.182,0.02,0.357,0.032,0.537,0.032h0.855l-0.064-2.137
		l-0.758-0.092c-0.459-0.051-0.895-0.102-1.627-0.102c-1.184,0-3.949,0-5.151,3.166l-6.768,17.23l-7.312-18.72
		c-0.576-1.502-2.668-1.676-4.194-1.676c-0.461-0.059-0.584,0-1.919,0.11l-0.782,0.064v2.098h0.855c0.697,0,1.346,0.032,1.638,0.349
		c0.245,0.26,0.336,0.797,0.278,1.568l-1.289,18.848c-0.247,3.315-1.158,3.315-1.708,3.315c-0.306,0-0.604-0.044-0.946-0.097
		l-0.979-0.149v2.279l0.707,0.13C878.126,325.879,878.249,325.879,879.091,325.879z"/>
	<path fill="#B18D58" d="M329.644,683.838c-2.597-4.738-8.605-6.5-13.353-3.912c-4.732,2.598-6.488,8.602-3.905,13.34
		c2.598,4.74,8.6,6.502,13.339,3.912C330.473,694.586,332.227,688.584,329.644,683.838z"/>
	<path fill="#B18D58" d="M751.137,702.914c4.667,2.727,10.729,1.127,13.442-3.541c2.72-4.668,1.128-10.723-3.542-13.443
		c-4.667-2.713-10.729-1.119-13.449,3.549C744.875,694.146,746.469,700.201,751.137,702.914z"/>
	<path fill="#B18D58" d="M588.818,689.375c0-0.02,0-0.045,0-0.059c-0.012,0.045-0.012,0.109-0.012,0.162
		c0,0.039,0.051,0.092,0.051,0.143C588.856,689.57,588.818,689.414,588.818,689.375z"/>
	<path fill="#B18D58" d="M559.479,690.975c-0.025,0.111-0.038,0.201-0.038,0.297c0,0.066,0.038,0.059,0.038,0.117
		C559.479,691.291,559.479,690.975,559.479,690.975z"/>
	<path fill="#B18D58" d="M325.026,310.753l-9.589,12.361l12.037-9.998c14.583-12.115,25.791-18.149,41.325-22.281l1.366-0.362
		l-0.804-11.119l-2.032,0.441C347.702,285.474,336.586,295.848,325.026,310.753z M338.592,300.639
		c7.518-7.414,16.052-13.062,27.675-16.771c0.123,1.735,0.2,2.855,0.285,4.086C356.186,290.849,347.54,294.747,338.592,300.639z"/>
	<path fill="#B18D58" d="M341.966,311.808l-6.385,7.803l8.605-5.258c8.586-5.245,15.806-8.67,27.337-10.58l1.834-0.298
		l-2.914-11.421l-1.794,0.673C357.83,296.838,349.095,303.073,341.966,311.808z M353.615,305.496
		c4.332-3.478,9.124-6.41,14.53-8.651c0.389,1.56,0.654,2.59,1.003,3.949C363.153,301.914,358.193,303.482,353.615,305.496z"/>
	<path fill="#B18D58" d="M333.172,254.535c5.848,3.666,14.246,3.621,18.674,1.484l2.771-1.334c0,0-6.74-4.306-8.845-5.647
		c1.075-1.372,2.895-3.464,3.911-4.195l2.286-1.671l-2.544-1.256c-2.7-1.322-5.025-1.769-7.104-2.053
		c1.866-1.917,4.617-4.494,7.55-6.061l4.999-2.688l-5.659-0.518c-8.599-0.802-17.586,2.862-20.481,8.346
		C325.752,244.597,327.584,251,333.172,254.535z M331.767,240.537c1.405-2.681,5.873-4.778,10.982-5.756
		c-2.926,2.57-5.134,5.096-5.271,5.264l-2.059,2.473l4.228,0.421c1.657,0.162,3.691,0.537,5.873,1.231
		c-1.632,1.676-3.34,3.639-3.787,4.624l-0.583,1.346c0,0,3.451,2.196,5.498,3.503c-3.71,0.532-8.192,0.168-11.656-2.007
		c-3.024-1.91-4.242-4.558-4.242-7.103C330.75,243.114,331.126,241.733,331.767,240.537z"/>
	<path fill="#B18D58" d="M367.873,276.85l1.263-0.357l-0.098-8.748l0.176-6.223l-2.332,0.829
		c-27.448,9.286-42.646,20.999-60.238,46.414l-9.35,13.495l11.935-11.28C328.317,292.927,344.757,283.357,367.873,276.85z
		 M365.639,266.553c-0.012,0.428-0.026,1.043-0.026,1.043s0.052,4.482,0.084,6.378c-17.645,5.115-31.598,12.122-45.741,23.252
		C332.681,282.301,345.986,273.521,365.639,266.553z"/>
	<path fill="#B18D58" d="M357.189,314.995l-7.466,6.733l8.372-3.126c6.702-2.487,10.063-3.73,16.738-4.805l2.034-0.331l-2.234-6.234
		l-0.926-3.019l-1.723,0.712C365.412,307.547,361.773,310.831,357.189,314.995z M365.613,312.359
		c1.729-1.276,3.802-2.338,6.022-3.361c0.187,0.518,0.336,0.951,0.667,1.858C369.893,311.31,367.608,311.757,365.613,312.359z"/>
	<polygon fill="#B18D58" points="360.893,324.991 381.264,320.136 377.158,314.425 375.792,315.312 	"/>
	<path fill="#B18D58" d="M402.884,231.568l-3.315,1.852l-15.682,8.78l15.197,6.973L402.884,231.568z M396.636,244.285
		c-1.606-0.738-3.011-1.386-5.187-2.39c2.299-1.282,3.982-2.234,6.488-3.632C397.374,240.854,397.011,242.531,396.636,244.285z"/>
	<path fill="#B18D58" d="M471.333,411.772c3.012-2.208,5.983-4.786,7.303-8.626l0.473-1.354l-1.256-0.698
		c-1.968-1.095-5.671-1.412-7.362-1.425l-1.833-0.014l0.111,1.833l0.077,1.114l-0.304,10.994L471.333,411.772z M472.233,403.256
		c0.829,0.072,1.483,0.175,2.208,0.337c-0.602,1.056-1.341,2.085-2.304,2.992C472.182,404.92,472.22,403.885,472.233,403.256z"/>
	<path fill="#B18D58" d="M338.177,440.956l6.191-7.641l-2.164-0.739c-11.744-5.179-16.524-8.254-25.836-15.475l-9.148-7.078
		l6.701,9.429c7.053,9.932,14.155,16.369,23.026,20.882L338.177,440.956z M338.805,434.772c-0.639,0.796-0.892,1.101-1.417,1.741
		c-4.19-2.26-7.984-5.051-11.532-8.463C329.508,430.317,333.561,432.389,338.805,434.772z"/>
	<path fill="#B18D58" d="M307.719,425.532l5.536,8.397c5.647,8.534,7.582,10.186,14.907,15.8l1.269,0.979l1.165-1.315l4.733-5.445
		l-1.995-0.841c-7.213-3.938-9.7-5.474-17.605-11.481L307.719,425.532z M329.831,445.08c-0.401,0.46-0.499,0.57-0.829,0.96
		c-2.356-1.82-4.163-3.31-5.659-4.767C325.279,442.51,327.358,443.707,329.831,445.08z"/>
	<path fill="#B18D58" d="M345.773,430.266l6.009-8.885l-2.26-0.601l-1.916-0.59c-14.297-4.428-20.209-6.254-33.147-16.064
		l-12.159-9.208l9.803,11.674c10.426,12.407,18.221,16.758,32.363,23.085L345.773,430.266z M346.31,423.369
		c-0.763,1.146-1.178,1.741-1.741,2.576c-7.071-3.21-12.478-6.046-17.399-9.673C332.719,419.031,338.254,420.876,346.31,423.369z"/>
	<path fill="#B18D58" d="M356.652,411.079l-1.821-0.505c-18.512-6.882-26.017-10.488-42.256-20.292l-12.348-7.453l10.257,10.126
		c14.667,14.512,22.901,20.067,40.093,27.048l1.496,0.602L356.652,411.079z M350.403,416.182
		c-10.931-4.54-18.137-8.631-26.082-15.235c8.346,4.499,15.903,7.782,27.571,12.166
		C351.328,414.277,350.939,415.094,350.403,416.182z"/>
	<path fill="#B18D58" d="M254.382,573.107l1.244,10.102l2.208-1.206c8.198-4.454,16.855-10.082,24.6-20.985l6.565-9.272
		l-9.013,6.917c-9.376,7.194-16.616,10.573-24.425,13.94L254.382,573.107z M270.357,569.054c-3.697,3.271-7.679,6.073-11.979,8.522
		c-0.143-1.173-0.201-1.646-0.291-2.391C262.029,573.47,266.103,571.482,270.357,569.054z"/>
	<path fill="#B18D58" d="M264.173,553.068l4.934-4.522l-6.714,1.673l-11.235,2.758l-5.646,0.822l4.843,8.392l0.013-0.007
		l4.253,10.335l1.71-1.043c7.064-4.291,12.574-8.287,18.26-14.911l5.102-5.952l-7.122,3.277c-7.784,3.593-12.743,5.427-20.422,7.575
		l-0.68,0.188l0.316-0.156C256.992,558.971,259.894,557.003,264.173,553.068z M265.527,560.578
		c-2.862,2.461-5.945,4.732-9.299,6.832c-0.538-1.311-0.829-2.021-1.328-3.232C258.675,563.078,262.18,561.893,265.527,560.578z
		 M251.009,556.453c0.202-0.025,0.616-0.084,0.616-0.084s2.259-0.558,4.104-1.01c-1.185,0.776-2.576,1.514-4.052,2.273
		C251.398,557.133,251.347,557.042,251.009,556.453z"/>
	<path fill="#B18D58" d="M222.596,483.342l-6.625,13.513c-7.367,15.062-11.045,29.794-11.926,47.78l-0.071,1.264l12.4,4.455
		l-0.318-2.649c-1.392-22.131-1.152-31.345,3.127-49.709L222.596,483.342z M212.495,545.334c-1.937-0.691-3.717-1.332-4.869-1.748
		c0.576-10.095,2.408-19.146,5.019-27.83c-0.454,4.196-0.777,8.288-0.777,12.853C211.868,533.441,212.119,538.938,212.495,545.334z"
		/>
	<path fill="#B18D58" d="M201.928,542.033c0.375-14.071,1.884-24.794,5.23-37.012l3.329-12.22l-6.456,10.893
		c-7.025,11.829-10.36,24.883-11.908,33.746l-0.188,1.115l9.913,6.553L201.928,542.033z M198.742,538.958
		c-1.398-0.94-2.188-1.458-2.979-1.982c0.894-4.855,2.525-10.762,4.785-17.068C199.604,525.832,199.014,532.146,198.742,538.958z"/>
	<path fill="#B18D58" d="M191.198,534.38c0.79-9.227,2.059-16.105,4.241-22.98l3.173-10.004l-6.184,8.476
		c-4.442,6.072-7.355,12.147-9.175,19.108l-0.24,0.917l7.945,8.367L191.198,534.38z M188.258,530.455
		c-0.686-0.725-1.042-1.094-1.379-1.457c0.641-2.324,1.496-4.519,2.434-6.676C188.874,524.81,188.563,527.625,188.258,530.455z"/>
	<path fill="#B18D58" d="M182.903,512.409c-1.833,2.002-4.267,5.491-5.574,8.806l-0.35,0.875l5.686,7.984l4.318-21.991
		L182.903,512.409z"/>
	<path fill="#B18D58" d="M752.769,313.116l12.036,9.998l-9.601-12.361c-11.559-14.905-22.679-25.279-42.303-30.958l-2.034-0.589
		l-0.156,2.26l-0.627,8.857l1.346,0.511C726.965,294.967,738.158,301.001,752.769,313.116z M713.965,283.868
		c11.62,3.709,20.154,9.357,27.674,16.777c-8.951-5.899-17.595-9.797-27.96-12.691C713.763,286.724,713.84,285.604,713.965,283.868z
		"/>
	<path fill="#B18D58" d="M736.05,314.353l8.6,5.251l-6.386-7.796c-7.129-8.729-15.864-14.97-26.684-19.082l-1.794-0.673
		l-0.467,1.851l-2.445,9.57l1.831,0.298C720.224,305.683,727.458,309.102,736.05,314.353z M712.097,296.845
		c5.408,2.241,10.188,5.18,14.531,8.657c-4.57-2.019-9.538-3.587-15.546-4.708C711.43,299.435,711.702,298.404,712.097,296.845z"/>
	<path fill="#B18D58" d="M737.921,239.863c-2.093,0.284-4.416,0.731-7.117,2.046l-2.544,1.263l2.285,1.664
		c1.017,0.738,2.838,2.83,3.912,4.202c-2.104,1.341-8.95,5.731-8.95,5.731l2.874,1.25c4.431,2.137,12.829,2.182,18.677-1.476
		c5.589-3.535,7.42-9.946,4.44-15.606c-2.873-5.478-11.867-9.142-20.479-8.34l-5.658,0.518l5.018,2.688
		C733.292,235.37,736.05,237.946,737.921,239.863z M748.462,240.537c0.64,1.197,1.019,2.577,1.019,3.996
		c0,2.544-1.221,5.192-4.241,7.103c-3.465,2.169-7.946,2.531-11.655,2.007c2.065-1.307,5.38-3.438,5.38-3.438l-0.467-1.411
		c-0.446-0.985-2.156-2.94-3.788-4.624c2.182-0.694,4.217-1.069,5.885-1.231l4.243-0.421l-2.073-2.473
		c-0.137-0.168-2.343-2.694-5.283-5.264C742.603,235.751,747.058,237.855,748.462,240.537z"/>
	<path fill="#B18D58" d="M711.191,267.731l-0.076,8.587l1.24,0.531c23.116,6.507,39.558,16.078,58.646,34.13l11.934,11.28
		l-9.35-13.495c-17.593-25.415-32.79-37.128-60.237-46.414l-2.331-0.789l0.064,2.421L711.191,267.731z M714.59,266.553
		c19.667,6.975,32.958,15.748,45.682,30.674c-14.141-11.131-28.106-18.137-45.739-23.252c0.032-1.896,0.084-6.384,0.084-6.384
		S714.605,266.981,714.59,266.553z"/>
	<path fill="#B18D58" d="M722.134,318.601l8.373,3.121l-7.421-6.701c-4.617-4.177-8.256-7.467-14.842-10.096l-1.721-0.686
		l-0.551,1.754l-0.343,1.16l-2.21,6.178l1.977,0.466C712.072,314.871,715.432,316.114,722.134,318.601z M708.596,308.991
		c2.221,1.029,4.292,2.092,6.021,3.368c-1.995-0.602-4.279-1.049-6.688-1.503C708.244,309.949,708.396,309.549,708.596,308.991z"/>
	<polygon fill="#B18D58" points="703.071,314.425 702.119,315.745 698.966,320.136 719.338,324.991 	"/>
	<path fill="#B18D58" d="M681.16,249.174l15.184-6.973l-18.998-10.632l0.803,3.71L681.16,249.174z M688.799,241.896
		c-2.18,1.003-3.6,1.651-5.191,2.39c-0.389-1.754-0.751-3.431-1.307-6.021C684.799,239.662,686.481,240.614,688.799,241.896z"/>
	<path fill="#B18D58" d="M611.382,402.649l0.189-2.998l-1.831,0.019c-1.691,0.013-5.395,0.33-7.356,1.418l-1.263,0.705l0.474,1.354
		c1.308,3.84,4.278,6.411,7.301,8.626l2.804,2.064l-0.117-3.735L611.382,402.649z M605.789,403.593
		c0.726-0.154,1.378-0.265,2.193-0.337c0.026,0.603,0.052,1.658,0.113,3.329C607.129,405.673,606.391,404.642,605.789,403.593z"/>
	<path fill="#B18D58" d="M738.038,432.576l-2.059,0.914l6.208,7.615l1.093-0.778c8.872-4.512,15.978-10.943,23.04-20.875
		l6.689-9.429l-9.137,7.078C755.19,423.83,750.412,427.112,738.038,432.576z M742.842,436.514c-0.524-0.641-0.764-0.938-1.418-1.741
		c5.245-2.377,9.298-4.456,12.951-6.722C750.824,431.463,747.045,434.253,742.842,436.514z"/>
	<path fill="#B18D58" d="M746.908,443.106l-1.87,1.016l1.254,1.432l4.392,5.043l1.393-0.867c7.316-5.607,9.253-7.251,14.898-15.8
		l5.537-8.391l-7.999,6.08C756.595,437.632,754.108,439.168,746.908,443.106z M751.228,446.04c-0.331-0.39-0.428-0.493-0.83-0.96
		c2.482-1.373,4.565-2.577,6.501-3.82C755.391,442.73,753.584,444.219,751.228,446.04z"/>
	<path fill="#B18D58" d="M732.611,420.189l-4.112,1.276l6.022,8.89l1.242-0.679c14.144-6.333,21.94-10.678,32.364-23.085
		l9.804-11.674l-12.161,9.208C752.834,413.935,746.922,415.767,732.611,420.189z M735.661,425.945
		c-0.563-0.834-0.977-1.43-1.743-2.576c8.057-2.487,13.592-4.332,19.141-7.098C748.138,419.898,742.737,422.734,735.661,425.945z"/>
	<path fill="#B18D58" d="M725.411,410.573l-1.768,0.655l4.591,9.511l1.417-0.738c17.181-6.98,25.43-12.536,40.097-27.048
		l10.24-10.126l-12.334,7.453C751.415,400.085,743.91,403.684,725.411,410.573z M729.829,416.182
		c-0.526-1.088-0.929-1.904-1.484-3.069c11.66-4.384,19.217-7.667,27.564-12.166C747.964,407.55,740.757,411.642,729.829,416.182z"
		/>
	<path fill="#B18D58" d="M800.244,558.662l-9.013-6.917l6.579,9.272c7.745,10.91,16.387,16.537,24.585,20.985l2.208,1.206
		l1.244-10.102l-1.18-0.506C816.859,569.234,809.619,565.855,800.244,558.662z M821.85,577.576
		c-4.284-2.449-8.28-5.246-11.971-8.522c4.255,2.429,8.32,4.416,12.264,6.132C822.052,575.931,821.995,576.403,821.85,577.576z"/>
	<path fill="#B18D58" d="M811.335,548.617l4.721,4.451c4.295,3.936,7.182,5.903,12.388,8.428l0.33,0.156l-0.691-0.188
		c-7.66-2.143-12.629-3.982-20.424-7.575l-7.116-3.277l5.109,5.952c5.673,6.616,11.181,10.62,18.246,14.911l1.708,1.043
		l4.257-10.341l0.024,0.013l4.818-8.398l-5.634-0.815L811.335,548.617z M824.001,567.41c-3.354-2.1-6.436-4.371-9.283-6.832
		c3.334,1.314,6.836,2.5,10.624,3.6C824.829,565.389,824.538,566.1,824.001,567.41z M828.553,557.632
		c-1.477-0.752-2.86-1.497-4.052-2.273c1.846,0.452,4.105,1.003,4.105,1.003s0.413,0.066,0.626,0.091
		C828.896,557.042,828.844,557.133,828.553,557.632z"/>
	<path fill="#B18D58" d="M864.257,496.855l-6.623-13.513l3.425,14.653c4.279,18.383,4.507,27.591,3.114,49.709l-0.161,2.597
		l12.418-4.467l-0.225-1.199C875.316,526.649,871.626,511.917,864.257,496.855z M867.735,545.334
		c0.374-6.396,0.628-11.893,0.628-16.725c0-4.558-0.324-8.652-0.765-12.853c2.596,8.684,4.43,17.735,5.005,27.83
		C871.45,544.002,869.669,544.643,867.735,545.334z"/>
	<path fill="#B18D58" d="M876.205,503.694l-6.463-10.904l3.341,12.231c3.335,12.206,4.842,22.928,5.221,37.012l0.089,3.075
		l9.914-6.553l-0.201-1.115C886.546,528.577,883.211,515.51,876.205,503.694z M881.502,538.958
		c-0.286-6.812-0.875-13.114-1.808-19.038c2.246,6.299,3.891,12.2,4.786,17.055C883.689,537.5,882.893,538.018,881.502,538.958z"/>
	<path fill="#B18D58" d="M887.813,509.871l-6.183-8.464l3.157,9.993c2.185,6.889,3.454,13.765,4.257,22.98l0.316,3.799l7.94-8.379
		l-0.324-0.821C895.156,522.004,892.243,515.933,887.813,509.871z M891.972,530.448c-0.304-2.817-0.616-5.627-1.043-8.105
		c0.94,2.148,1.782,4.331,2.422,6.662C893.013,529.361,892.67,529.73,891.972,530.448z"/>
	<path fill="#B18D58" d="M897.326,512.414l-4.124-4.479l1.217,6.098l3.12,15.892l2.338-3.095l3.374-4.741l-0.351-0.875
		C901.606,517.913,899.171,514.411,897.326,512.414z"/>
	<path fill="#B18D58" d="M474.732,295.309c-26.6,17.153-39.116,45.846-29.572,65.93c1.871-5.192,6.437-11.934,17.508-16.899
		c15.457-6.877,40.011-22.126,57.416-36.437c-4.979-8.099-8.282-16.603-9.939-24.922
		C498.626,283.895,486.252,287.876,474.732,295.309z"/>
	<path fill="#B18D58" d="M549.715,337.243c-6.029-3.646-11.785-8.055-16.965-13.268c-4.131-4.169-7.687-8.625-10.769-13.215
		c-17.645,14.459-42.334,29.785-57.906,36.713c-12.485,5.595-15.709,13.476-16.505,17.878c4.927,7.278,12.697,12.295,22.631,14.433
		c15.837,3.419,35.114-0.886,51.593-11.513C534.35,360.178,544.204,349.073,549.715,337.243z"/>
	<path fill="#B18D58" d="M588.759,690.98l-0.556-0.207c-0.033-0.006-1.477-0.531-3.2-1.191c2.208,2.053,2.597,2.41,4.629,4.305
		v-0.031c0,0-0.337-1.619-0.575-2.973C588.921,690.93,588.759,690.98,588.759,690.98z"/>
	<path fill="#B18D58" d="M561.675,699.795c2.622,1.721,6.015,3.916,9.11,5.846c-1.179-1.994-2.118-3.742-2.674-4.979
		C566.77,700.484,562.49,699.896,561.675,699.795z"/>
	<path fill="#B18D58" d="M590.891,695.041c0.517,0.49,1.002,0.939,1.378,1.295c0.026-0.588,0.05-1.031,0.064-1.412
		c-0.511,0.014-1.042,0.039-1.042,0.039S591.063,695.008,590.891,695.041z"/>
	<path fill="#B18D58" d="M536.855,686.43c6.197,4.143,14.076,9.162,16.188,10.301l0.926,0.086l-0.071,1.094
		c0,0-0.027,0.498-0.053,0.77c1.97,0,5.745,0,5.848,0c0-0.123-0.135-4.436-0.188-6.5
		C555.011,691.311,544.949,688.787,536.855,686.43z"/>
	<path fill="#B18D58" d="M450.295,718.908c1.283-1.566,4.333-5.258,4.798-5.635c0,0,3.399-1.619,3.736-1.727
		c0,0,2.648-0.648,5.147-1.258c-1.767-1.242-3.024-2.123-3.625-2.545c-1.23,0.355-6.916,1.982-6.916,1.982l-0.706-0.648
		c-5.458-5.004-17.393-11.416-23.79-14.73C436.329,700.961,446.896,713.986,450.295,718.908z"/>
	<path fill="#B18D58" d="M528.282,712.285c-1.249,0.75-3.037,1.812-4.732,2.822c2.927-0.506,6.112-1.057,8.883-1.527l-3.724-0.836
		L528.282,712.285z"/>
	<path fill="#B18D58" d="M531.118,709.771c1.432,0.324,11.733,2.635,20.766,4.668c-5.782-4.105-12.122-9.207-14.919-11.498
		C535.611,704.521,532.633,708.012,531.118,709.771z"/>
	<path fill="#B18D58" d="M468.342,688.482c1.132,0.459,1.76,0.725,2.311,0.951c0.427-0.447,1.166-1.219,2.248-2.338
		C470.692,687.77,470.238,687.898,468.342,688.482z"/>
	<path fill="#B18D58" d="M1023.832,644.14c-0.745-3.187-2.003-6.242-3.438-9.227c0.551,0.265,5.14,2.602,5.14,2.602l-1.592-5.684
		c-4.267-13.657-9.979-23.524-17.581-31.341c1.004-2.227,6.729-14.932,6.729-14.932l-5.252,1.477c0,0-1.419,0.376-2.654,0.699
		c0.434-1.314,1.087-2.312,1.38-3.84l1.041-5.484l-11.246,6.462c-8.832,4.798-21.472,4.662-28.854-0.246
		c-7.149-4.442-11.442-11.475-11.571-18.862c0.041-1.494,0.064-3.049,0.064-4.656c0-16.128-2.946-36.52-17.645-50.162
		c36.184-17.114,59.062-47.275,59.062-78.343c0-0.867-0.015-1.741-0.055-2.615c-0.867-21.239-10.015-41.577-24.468-54.397
		c-12.575-11.17-28.854-16.312-47.074-14.887c-2.363-0.039-3.062-0.952-4.883-3.833c-1.78-2.817-4.201-6.669-10.152-9.746
		c-6.702-3.464-12.817-3.173-18.74-2.888c-6.185,0.299-12.029,0.589-18.72-3.36l-6.632-3.911l2.955,7.108
		c6.475,15.585,21.322,33.509,41.829,32.764c4.816-0.252,10.464-1.89,15.069-4.216c37.21-0.381,54.952,28.032,55.658,54.69
		c0,31.599-22.003,54.845-56.113,59.662c-11.293-18.583-23.854-27.92-37.156-37.594c-19.526-14.2-41.478-30.647-63.1-82.591
		c0.202,0.194,5.485,5.284,5.485,5.284s-0.176-10.581-0.226-14.765c0.064,0.098,3.916,4.974,3.916,4.974l1.037-5.556
		c1.644-8.385,2.435-15.384,2.435-22.649c0-2.021-0.273-4.261-0.388-6.366c1.133,1.275,2.472,2.778,2.472,2.778l0.615-5.744
		c0.362-3.348,0.59-6.514,0.59-9.596c0-7.628-1.457-14.726-5.408-22.567c0.578,0.253,6.626,2.862,6.626,2.862l-1.101-4.985
		c-1.258-4.727-6.793-19.542-21.615-32.253c4.229,0.389,8.307,0.927,11.487,1.716l10.315,2.578l-8.05-7.045
		c-5.069-4.437-10.814-9.318-20.592-14.052c1.316-0.058,2.462-0.31,3.894-0.298l12.976,0.183l-11.934-5.103
		c-10.181-4.357-17.748-6.631-27.539-8.268c1.146-0.745,8.398-5.415,8.398-5.415l-6.624-1.086c-1.761-0.253-4.117-0.403-6.564-0.492
		c1.507-0.519,3.21-1.154,4.214-1.393l16.679-3.885l-17.094-1.172c-6.585-0.454-11.856-0.357-16.965-0.189
		c0.24-0.109,8.937-4.403,8.937-4.403l-8.521-1.061c-5.336-0.597-13.682-0.447-20.721,0.168c1.77-2.189,7.103-8.761,7.103-8.761
		l-5.619,0.18c-5.348,0.182-13.106,2.481-17.684,3.964c0.298-3.348,1.128-12.452,1.128-12.452l-4.19,1.981
		c-3.905,2.163-10.114,7.116-14.733,11.583c-0.413-1.76-0.704-3.587-0.769-5.095l-0.26-5.958l-4.156,4.274
		c-0.201,0.213-4.254,4.487-6.988,8.496c-5.172-3.205-10.779-5.4-16.932-6.086l-6.424-0.713l4.189,4.927
		c1.243,1.464,2.047,3.238,3.074,4.928c-1.066,0.027-2.18,0.085-3.438,0.259l-5.373,0.738l3.982,3.685
		c0.699,0.66,1.055,1.553,1.67,2.357c-5.775,0.55-10.58,3.199-13.644,7.744c-2.22,0.893-4.882,0.136-7.706-0.686
		c-4.09-1.199-9.486-2.383-13.738,2.512c-0.305-0.059-0.654-0.122-0.654-0.122l-3.438-0.602l-0.332,0.154
		c-4.002,0.971-9.595,6.022-10.889,9.823l-0.364,1.029l4.162,8.133c0,0,1.536,0.182,1.55,0.182
		c-1.432,1.112-4.999,3.911-4.999,3.911l1.562,1.885c1.553,2.161,2.368,5.438,2.368,8.779c0,1.962-0.362,3.892-0.945,5.679
		c-10.665-3.503-21.53-6.565-32.654-8.955c1.619,1.806,3.155,3.658,4.585,5.549c11.721,2.739,23.154,6.196,34.337,10.205
		c0.706,2.202,3.036,9.512,4.624,14.466c-10.049-3.95-20.301-7.498-30.834-10.386c3.477,7.09,5.217,13.572,5.789,15.994
		c10.432,3.243,20.59,7.097,30.49,11.448c-0.006,0.059-0.018,0.189-0.018,0.189c-1.484,0.33-6.387,1.416-6.387,1.416l1.982,2.875
		c0.777,1.431,1.08,3.161,1.08,4.936c0,3.703-1.36,7.581-2.725,9.135c0,0-1.043,1.219-2.047,2.37
		c-2.222-1.139-4.682-2.058-7.505-2.623c-5.07-8.638-12.05-15.747-19.819-20.59c-1.188-14.55-8.639-30.583-21.757-43.785
		c-22.308-22.469-52.974-28.756-70.644-15.249c5.472,0.745,13.021,3.814,20.183,13.631c8.516,11.725,24.425,28.685,39.881,42.152
		c-0.679-0.063-1.262-0.143-1.995-0.201l-3.75-0.298c-14.522-13.092-28.924-28.645-36.901-39.633
		c-8.093-11.1-16.511-12.589-20.985-12.439c-16.292,17.024-10.775,49.651,12.606,73.228c13.805,13.908,31.722,22.242,47.917,22.293
		c3.931,0.014,7.582-0.563,11.008-1.528c2.642,2.105,5.691,3.975,9.371,5.407c5.844,7.311,14.095,10.756,20.415,12.374
		c6.578,9.92,15.351,16.525,23.77,21.815c-8.158,3.678-15.683,4.527-24.151,4.351c-5.692-12.775-16.959-25.019-32.369-33.425
		c-2.02-1.1-4.105-1.961-6.178-2.88c-1.087,0.006-2.247-0.007-3.594-0.065c-11.725-0.524-21.316-4.047-27.014-6.702
		c-0.375,0-0.764-0.064-1.14-0.059c-3.439,7.176-8.354,14.026-14.336,20.223c1.134,0.713,2.286,1.508,3.464,2.402
		c12.069,9.221,33.6,21.653,53,30.2c-0.067,0.116-0.156,0.214-0.215,0.336c-1.379,0.33-2.623,0.901-3.728,1.651
		c-18.974-8.612-39.436-20.532-51.149-29.462c-1.313-1.01-2.604-1.865-3.846-2.616c-4.047,3.866-8.495,7.44-13.345,10.568
		c-3.154,2.033-6.429,3.769-9.751,5.368c0.272,2.461,0.75,4.973,1.502,7.518c4.584,15.535,17.607,30.406,34.837,39.777
		c17.198,9.382,36.746,12.238,52.272,7.654c0.824-0.246,1.528-0.616,2.319-0.895c0.739,1.205,1.443,2.28,1.91,2.882l3.198,4.131
		l1.782-6.863c0.374-1.478,0.725-2.792,1.068-3.984c4.531-2.835,8.216-6.435,10.847-10.807l0.295-0.032
		c2.392,0.072,5.038,0.077,8.049-1.171c-0.024,0.044-0.038,0.097-0.056,0.142c50.602,31.411,84.403,87.434,84.403,151.247
		c0,44.64-16.558,85.459-43.817,116.734l-27.418-18.156c0,0-15.396,3.328-17.618,3.814c-1.534-1.387-8.495-7.693-8.495-7.693
		s-33.761,6.98-35.469,7.344c-1.238-0.654-5.435-2.863-5.485-2.889c0-0.111-6.171-5.789-6.171-5.789l-0.539-0.486
		c0,0-2.848-0.575-4.266-0.854c-0.468-1.152-1.762-4.314-1.762-4.314s-1.678,0.111-1.78,0.125
		c-1.218-1.858-6.923-10.258-6.923-10.258l-2.039,1.471c0,0-6.903,4.355-7.103,4.486c-0.059-0.039-1.017,0.233-1.517,0.382
		c0.059-0.271,0.616-3.185,0.616-3.185s-4.358,0.35-5.199,0.413c0.025-0.142,0.439-2.245,0.439-2.245l-16.577-11.105l-1.417,0.887
		c0,0-57.505,35.904-58.458,36.494c-15.677,2.059-21.258,1.969-35.691,1.695l-6.625-0.123c-0.356,0.027-19.244,2.785-24.185,3.512
		c-24.029-30.344-38.43-68.646-38.43-110.26c0-63.858,33.846-119.887,84.494-151.292c2.831,1.069,5.335,1.087,7.621,1.01
		l6.554,0.713c3.749,1.314,5.658,8.611,6.487,11.725l1.619,6.087l3.172-4.104c1.685-2.163,3.264-6.903,4.021-9.746
		c1.781-0.349,3.349-0.997,4.688-1.878c1.231,1.91,5.654,8.762,5.654,8.762l1.969-4.456c0.763-2.059,1.152-4.83,1.152-7.608
		c0-2.7-0.511-5.219-1.205-7.336c0.907-1.669,1.769-3.405,1.769-5.271c0-1.483-0.311-2.972-0.925-4.365
		c-0.383-0.854-0.894-1.604-1.483-2.271c7.939-2.44,16.104-4.345,24.457-5.666c-0.55-1.432-1.127-2.855-1.553-4.3
		c-9.525,1.547-18.765,3.924-27.74,6.891c-0.518-0.176-1.023-0.376-1.573-0.5c-1.308-2.726-3.257-5.697-6.488-7.971
		c-2.098-0.213-4.164-0.511-6.177-0.945c-3.095-0.666-6.003-1.593-8.736-2.726c-0.382,0.008-0.705-0.032-1.101-0.006
		c-10.516,0.596-19.154,0.103-28.788-4.235c4.228-2.655,8.475-5.801,12.549-9.363c-0.415-0.577-0.939-1.049-1.322-1.651
		c-0.537-0.83-0.958-1.709-1.425-2.571c-5.379,4.792-11.247,8.586-16.731,11.862l-3.755,2.248l3.794,2.188
		c12.75,7.323,23.389,7.355,35.963,6.649c11.875-0.68,15.793,4.456,18.059,9.577l0.615,1.379l1.497,0.142
		c2.513,0.233,4.39,1.425,5.245,3.355c0.317,0.73,0.479,1.508,0.479,2.286c0,1.282-0.428,2.563-1.23,3.652l-0.628,0.972
		c0,0,2.558,4.835,1.767,10.591c-0.304-0.485-3.904-6.098-3.904-6.098l-1.06,1.565c-1.367,1.511-2.663,1.97-6.276,2.449l-1.23,0.162
		l-0.317,2.143c-0.213,1.6-0.666,3.736-1.53,5.175c-0.935-4.317-3.903-10.181-8.079-11.637l-8.424-1.003
		c-3.134,0.104-5.394,0.188-8.696-2.383c-5.899-4.585-16.148-9.292-25.615-7.499c-4.896,0.933-8.846,3.917-12.245,7.972
		c-0.932-2.259-3.729-9.046-3.729-9.046l-2.745,3.795c0,0-0.706,1.062-1.347,1.995c-1.872-3.064-4.39-7.493-6.184-11.164
		l-3.853-7.952l-1.107,9.753c-0.24,2.059-0.511,4.363-0.511,6.999c0,1.742,0.427,3.905,0.737,5.963
		c-1.113-0.22-2.37-0.667-4.707-1.754l-7.79-3.601c0,0,5.432,8.696,6.423,10.276c-8.599-1.334-16.907-3.153-22.327-5.257
		l-2.396-0.92l-0.919,2.403c-7.692,20.04-17.632,34.072-29.541,41.68c-10.463,5.407-29.927,19.297-36.228,23.854
		c-1.896-2.655-12.174-17.062-12.174-17.062l1.153,9.965l0.951,7.615c0,0,0.57,4.655,0.791,6.417
		c-0.233,0.238-0.298,0.292-0.577,0.576c-2.221-2.745-13.262-16.343-13.262-16.343l1.677,9.706
		c3.063,17.108,9.162,28.502,14.55,38.547c5.633,10.521,10.088,18.835,9.661,30.602c-0.692,19.497-14.446,36.758-25.862,47.813
		c-13.857,13.402-12.387,29.993-11.608,34.752c1.631,10.119,10.191,19.127,18.317,19.275c3.995,0.071,6.817-1.16,9.292-2.24
		c2.169-0.945,4.04-1.768,6.572-1.657c5,0.22,8.179,5.199,8.315,9.04c0,0,3.625,1.625,6.625,5.375c-2.25-1-5.703-0.929-7.25-0.125
		c0,0-1,2.547-1.375,3.68c-3.29,0-40.426,0-42.621,0c-7.68-8.289-9.351-15.451-10.716-21.777l-2.61-8.527
		c-2.583-5.076-6.177-6.708-8.748-7.188c-2.072-0.377-3.963,0.012-5.685,0.557c0.251-2.027,0.602-3.891,1.029-5.143l1.068-3.151
		c0,0-4.643-0.318-5.246-0.356c11.28-11.249,17.127-22.716,17.127-34.9c0-0.967-0.025-1.943-0.096-2.922
		c-0.946-13.28-12.348-27.598-35.154-27.609h-1.71l-0.66,1.586c-2.364,5.731-4.61,10.846-8.171,15.365
		c-22.917,27.649-58.542,35.213-87.156,41.293c-11.169,2.699-19.665,12.789-20.267,24.009c-0.356,5.589,1.418,12.537,7.44,15.198
		c2.9,1.301,5.607,0.713,8.003,0.194c2.615-0.577,5.108-1.122,8.573,0.265c3.25,1.308,4.097,3.338,4.349,5.178
		c0,0,3.75,2.375,5.375,6c-1.191-0.285-6.375-2-6.375-2l-0.941,2.057c0,0-0.271,0.523-0.55,1.049
		c-2.687,0-33.657-0.031-35.652-0.031c-1.51-1.256-1.793-3.095-1.872-6.225c-0.11-3.69-0.239-8.746-5.646-11.181
		c-1.042-0.169-1.807-0.092-2.61-0.027c0.324-2.888,1.289-11.667,1.289-11.667l-4.365,2.867c0,0-0.479,0.351-0.563,0.402
		c1.152-2.525,2.494-5.018,3.801-7.466l3.867-7.182l-6.865,3.341c0,0-0.803,0.408-1.055,0.539
		c3.892-10.141,8.521-18.449,14.822-24.521l1.301-1.256c0,0-2.234-4.943-3.626-8.029c0.868,0.227,8.281,2.182,8.281,2.182
		l-3.322-5.445c-0.174-0.272-0.226-0.758-0.375-1.042c0.136,0.07,0.725,0.413,0.725,0.413c10.354,5.619,25.001,5.393,33.976-0.575
		c8.496-5.284,13.701-13.91,13.863-23.052c-0.699-26.484,5.07-43.502,18.137-53.654l3.386-2.641l-3.937-1.743
		c-37.123-16.408-60.29-46.873-59.035-77.617c0.835-19.878,9.337-38.858,22.76-50.771c11.675-10.36,26.231-14.938,43.262-13.605
		c5.736-0.051,7.718-3.178,9.628-6.209c1.619-2.577,3.464-5.49,8.178-7.925c5.471-2.837,10.645-2.584,16.117-2.318
		c4.481,0.213,9.434,0.18,14.744-1.354c-6.753,12.31-18.356,24.244-33.736,23.687c-4.287-0.221-9.485-1.716-13.565-3.911
		l-0.55-0.298l-0.628-0.013c-39.182-0.622-60.504,29.559-61.306,59.694c0,34.429,24.948,60.595,62.109,65.186l1.67,0.201
		l0.854-1.457c11.015-18.823,23.531-27.927,36.792-37.562c21.511-15.645,45.896-33.379,69.531-96.169l0.124-0.324
		c1.269,4.656,3.379,9.654,5.685,13.054l2.5,3.692l0.615-4.411c0.938-6.701,3.269-11.861,6.76-16.375
		c2.111,3.115,10.657,15.669,10.657,15.669l0.401-4.766c0.014-0.051,0.525-4.389,2.035-9.033c0.148,0.228,0.458,0.713,0.458,0.713
		c2.377,3.827,4.838,7.784,8.263,11.144l1.567,1.529l1.217-2.098l4.345-7.434c2.41-3.718,5.181-8.308,7.375-13.261
		c5.789,6.915,11.156,17.289,11.209,17.411l1.845,3.672c0,0,3.211-9.624,4.428-13.262c2.661,3.97,7.402,11.299,10.705,16.479
		l1.921,3.004l1.154-3.373c1.742-5.129,2.862-11.15,3.652-17.768c2.221,4.371,7.226,14.161,7.226,14.161l1.068-4.54
		c0,0,0.992-4.383,1.781-7.834c2.823,3.963,5.2,8.028,7.932,14.207l1.458,3.295l1.631-3.211c0.978-1.903,5.245-10.873,5.361-19.847
		c2.746,2.027,9.084,6.748,9.084,6.748l0.014-2.941l0.841,0.092c19.989,2.156,28.549-6.235,36.093-13.63
		c4.539-4.442,8.986-8.521,15.566-10.334c2.234-5.918,5.517-11.759,9.647-17.308c-3.386,3.522-6.475,7.472-9.04,11.842
		c-2.822,0.564-5.283,1.483-7.504,2.623c-1.003-1.151-2.06-2.37-2.06-2.37c-1.354-1.554-2.712-5.426-2.712-9.135
		c0-1.769,0.305-3.505,1.082-4.936l1.605-2.991l-2.946-0.621c0,0-1.573-0.349-3.062-0.673c0,0-0.007-0.079-0.02-0.201
		c17.23-7.602,35.316-13.598,54.101-17.742c1.838-0.946,3.794-1.892,5.977-2.837c12.782-5.543,25.13-6.825,25.13-6.825
		s-0.15-4.804,0.472-9.259c-28.038,2.836-54.928,9.544-80.194,19.529l0.944-2.999c0,0,2.713-8.495,3.613-11.305
		c24.625-8.852,50.635-14.738,77.637-17.198c0.564-1.612,1.217-3.173,1.97-4.688c-25.403,2.118-49.917,7.323-73.306,15.047
		c-0.583-1.793-0.938-3.736-0.938-5.71c0-3.342,0.802-6.618,2.357-8.786l1.443-1.995c0,0-3.45-2.688-4.883-3.801
		c0.015,0,1.536-0.17,1.536-0.17l4.177-8.132l-0.35-1.043c-1.308-3.8-6.903-8.852-10.891-9.823l-0.518-0.129
		c0,0-3.614,0.641-3.905,0.699c-4.267-4.895-9.661-3.711-13.754-2.512c-2.823,0.822-5.483,1.566-7.706,0.686
		c-3.062-4.545-7.867-7.194-13.643-7.744c0.616-0.804,0.972-1.697,1.671-2.357l4.002-3.69l-5.394-0.732
		c-1.256-0.174-2.356-0.232-3.439-0.259c1.03-1.689,1.846-3.471,3.077-4.928l4.202-4.927l-6.436,0.713
		c-6.153,0.686-11.772,2.881-16.934,6.08c-2.719-4.002-6.785-8.276-6.987-8.49l-4.157-4.274l-0.258,5.958
		c-0.065,1.508-0.357,3.335-0.771,5.095c-4.629-4.467-10.826-9.42-14.731-11.583l-4.241-2.344l0.498,5.179
		c0,0,0.369,4.287,0.68,7.635c-4.577-1.483-12.335-3.782-17.684-3.964l-5.634-0.194c0,0,5.335,6.585,7.116,8.774
		c-7.038-0.615-15.384-0.765-20.72-0.168l-8.748,0.971c0,0,8.923,4.384,9.162,4.493c-5.109-0.168-10.38-0.265-16.978,0.189
		l-17.095,1.172l16.693,3.885c1.003,0.239,2.707,0.874,4.215,1.393c-2.447,0.089-4.805,0.238-6.565,0.492l-6.787,0.99
		c0,0,7.414,4.767,8.56,5.511c-9.789,1.637-17.359,3.911-27.539,8.268l-11.946,5.103l12.989-0.183
		c1.431-0.012,2.583,0.24,3.891,0.298c-9.764,4.733-15.521,9.615-20.571,14.044l-8.003,7l10.25-2.525
		c3.18-0.789,7.258-1.327,11.5-1.716c-14.808,12.706-20.37,27.52-21.627,32.253l-1.352,5.11c0,0,6.299-2.733,6.876-2.986
		c-3.95,7.835-5.395,14.933-5.395,22.554c0,3.081,0.214,6.249,0.577,9.609l0.628,5.75c0,0,1.327-1.496,2.46-2.779
		c-0.117,2.099-0.388,4.333-0.388,6.352c0,7.26,0.79,14.272,2.453,22.657l1.069,5.485c0,0,3.814-4.812,3.878-4.889
		c-0.064,4.177-0.239,14.544-0.239,14.544l4.442-4.062c0,0,0.854-0.822,1.055-1.016c-21.62,51.937-43.584,68.391-63.101,82.591
		c-13.313,9.674-25.875,19.011-37.16,37.594c-34.118-4.817-56.12-28.063-56.12-59.734c0.705-26.586,18.447-54.999,55.66-54.618
		c4.604,2.326,10.25,3.964,15.022,4.216c20.539,0.745,35.399-17.179,41.875-32.764l2.966-7.108l-6.631,3.911
		c-6.689,3.942-12.536,3.659-18.733,3.36c-5.911-0.285-12.038-0.576-18.726,2.888c-5.95,3.076-8.386,6.929-10.166,9.746
		c-1.819,2.88-2.513,3.794-5.109,3.82c-17.981-1.412-34.26,3.729-46.849,14.9c-14.445,12.82-23.602,33.153-24.469,54.397
		c-0.039,0.874-0.051,1.742-0.051,2.615c0,31.062,22.876,61.229,59.059,78.343c-14.698,13.642-17.644,34.039-17.644,50.24
		c0,1.613,0.026,3.186,0.064,4.702c-0.13,7.259-4.423,14.296-11.487,18.698c-7.466,4.948-20.105,5.084-28.84,0.332
		c-0.097-0.046-11.176-6.402-11.176-6.402l0.875,5.373c0.291,1.527,0.945,2.531,1.38,3.846c-1.218-0.323-7.868-2.071-7.868-2.071
		s5.685,12.595,6.688,14.827c-7.589,7.811-13.312,17.684-17.58,31.341l-1.819,5.808c0,0,4.817-2.455,5.368-2.726
		c-1.431,2.984-2.693,6.04-3.438,9.227l-1.542,6.61c0,0,6.916-4.934,7.815-5.562c-0.297,2.52-1.58,13.936-1.58,13.936l5.575-7.147
		c0.441-0.558,0.99-0.889,2.208-0.713c1.555,0.81,1.82,2.511,1.931,6.429c0.09,3.586,0.227,8.043,4.506,10.814l0.628,0.414
		l40.587,0.039l0.426-0.953c0,0,0.454-0.867,0.888-1.709c1.67,0.355,7.77,1.697,7.77,1.697l0.252-3.309
		c-0.428-4.273-2.998-7.602-5.523-9.59c-0.324-2.234-1.055-6.01-6.825-8.333c-4.934-1.97-8.612-1.165-11.584-0.519
		c-2.196,0.473-3.503,0.713-4.805,0.13c-3.302-1.456-4.455-5.485-4.455-9.124c0-0.361,0.019-0.732,0.044-1.081
		c0.48-9.026,7.331-17.134,16.28-19.297c29.326-6.235,65.91-14.005,90.004-43.079c3.594-4.545,5.86-9.459,8.107-14.795
		c5.394,0.207,9.92,1.397,13.766,3.141c-0.046,2.277-0.11,4.57-0.11,6.863c0,14.543,1.003,28.847,2.901,42.871
		c-2.182,2.481-4.604,4.947-7.395,7.414l-4.604,4.068c0,0,8.534,0.582,10.826,0.737c-0.499,2.278-1.087,4.558-1.087,6.929
		c0,0.343,0.013,0.699,0.026,1.049l0.188,5.503l4.092-3.685c0.401-0.363,0.945-0.68,1.535-0.978
		c29.682,145.612,158.699,255.53,312.956,255.53c154.218,0,283.21-109.885,312.952-255.459c0.518,0.272,1.003,0.577,1.364,0.9
		l4.08,3.696l0.201-5.504c0.015-0.36,0.026-0.724,0.026-1.079c0-2.359-0.59-4.63-1.081-6.903c2.284-0.155,10.97-0.751,10.97-0.751
		l-4.752-4.055c-2.722-2.408-5.091-4.824-7.236-7.238c1.904-14.084,2.929-28.445,2.929-43.047c0-2.326-0.059-4.643-0.11-6.955
		c3.813-1.696,8.275-2.849,13.579-3.049c2.234,5.33,4.513,10.237,8.067,14.75c24.131,29.119,60.724,36.889,90.107,43.138
		c8.884,2.149,15.735,10.257,16.214,19.259c0.032,0.359,0.046,0.723,0.046,1.094c0,3.65-1.152,7.68-4.43,9.122
		c-1.326,0.597-2.637,0.356-4.83-0.116c-2.971-0.646-6.65-1.451-11.57,0.512c-5.783,2.324-6.514,6.1-6.838,8.34
		c-2.514,1.988-5.082,5.316-5.524,9.59l-0.349,3.516l4.054-0.967c0,0,2.66-0.582,4.323-0.938c0.443,0.842,1.602,3.102,1.602,3.102
		l1.274-0.439l39.02-0.039l0.628-0.414c4.293-2.771,4.417-7.229,4.507-10.814c0.108-3.918,0.377-5.619,2.622-6.629
		c0.526,0.024,1.075,0.355,1.516,0.906l5.562,7c0,0-1.268-11.262-1.561-13.781c0.895,0.629,7.596,5.375,7.596,5.375L1023.832,644.14
		z M225.277,564.594c6.39,4.408,9.861,10.772,10.308,16.996c0.053,0.843,0.079,1.67,0.079,2.499c0,7.835-2.694,15.417-8.075,22.902
		c-1.508-12.458-2.37-25.123-2.37-37.989C225.219,567.533,225.257,566.062,225.277,564.594z M428.021,326.844
		c0,0,0.389-0.014,0.466-0.014c-3.302,2.247-6.086,4.96-8.813,7.641c-7.2,7.038-14.076,13.649-30.607,12.263
		c-0.563-1.114-1.418-3.037-2.286-5.27c3.943,2.072,7.246,2.972,7.445,3.017l4.203,0.958c0,0-1.554-5.588-1.91-6.838
		c0.382,0.24,6.39,3.982,6.39,3.982l-1.028-5.762c-0.123-0.538-0.842-3.704-1.871-6.98c2.953,1.644,5.873,3.852,7.868,6.288
		l2.046,2.512l1.975-2.583C415.005,331.992,420.329,327.097,428.021,326.844z M422.432,289.657l-0.051,1.125
		c-0.273-2.512-0.474-4.371-0.474-4.371l-3.852,7.558l-1.859,3.49c0,0-2.519,4.544-3.749,6.752
		c-3.801-1.352-4.508-5.897-4.545-8.055c0-0.084,0-0.168,0-0.246c0-7.141,4.856-17.509,14.938-19.904
		c0.615,1.807,1.418,4.196,1.418,4.196l2.363,7.763C425.23,288.537,423.817,289.067,422.432,289.657z M254.234,359.835
		c0.065-4.818,0.279-17.794,0.279-17.794l-4.857,6.378c0,0-0.77,0.984-1.309,1.664c-0.866-5.601-1.456-10.847-1.456-16.06
		c0-4.208,0.278-8.514,0.829-13.254l0.906-8.041c0,0-3.942,4.435-4.823,5.426c-0.045-0.92-0.175-1.918-0.175-2.817
		c0-8.936,2.02-16.997,8.424-26.724l4.727-7.188c0,0-9.701,4.208-11.643,5.044c2.92-7.233,9.622-19.69,23.77-29.209l7.201-4.843
		l-8.67,0.143c-3.464,0.059-7.006,0.311-10.379,0.693c4.908-3.677,10.956-7.368,20.604-10.956l7.996-2.966l-8.32-1.942
		c-1.043-0.24-2.286-0.175-3.36-0.357c7.187-2.447,13.823-3.911,22.824-5.062l6.993-0.894c0,0-7.128-4.592-7.86-5.058
		c4.04-0.109,8.132-0.051,9.906,0.117l10.25,0.952l-8.599-5.66c-1.263-0.835-2.881-1.469-4.378-2.208
		c5.381,0.033,10.25,0.324,15.988,0.765l12.49,0.951c0,0-12.945-6.754-14.032-7.317c5.555,0.071,11.507,0.441,15.599,1.126
		l6.689,1.134c0,0-5.952-7.355-7.623-9.416c6.469,1.419,13.56,3.97,13.656,4.009l3.814,1.379l-0.363-3.8
		c0,0-0.324-3.433-0.628-6.807c4.183,3.089,9.228,7.466,12.122,10.704l2.447,2.726l1.722-3.224c0.791-1.458,1.342-3.291,1.754-5.116
		c1.471,1.761,3.05,3.755,3.957,5.445l1.379,2.558l2.369-1.691c3.399-2.421,7.194-3.942,11.145-5.051
		c-1.004,1.646-2.319,3.181-3.037,4.85l-2.474,5.782l5.815-2.389c0.427-0.182,1.405-0.266,2.331-0.35
		c-0.711,1.082-1.768,2.035-2.195,3.102l-1.605,4.021l4.292-0.512c6.541-0.789,11.857,1.581,14.583,6.514l0.426,0.771l0.79,0.343
		c3.963,1.715,7.88,0.569,11.344-0.447c4.857-1.425,7.104-1.897,9.352,1.709l0.938,1.503l3.729-0.727c0,0,1.081-0.2,1.754-0.316
		c2.273,0.706,5.348,3.639,6.462,5.653c-0.602,1.166-1.166,2.252-1.742,3.373c-1.696,0.188-11.396,1.205-11.396,1.205
		s9.485,7.4,11.369,8.884c-1.365,2.784-2.271,6.028-2.271,9.491c0,2.131,0.641,4.152,1.191,6.172
		c-1.833,0.615-4.935,1.631-4.935,1.631s-1.727,9.138-2.375,12.016c-0.647-3.525-2.518-10.001-2.518-10.001l-1.317,0.363
		c-13.403,1.547-21.511,14.691-21.354,25.997c0.123,7.867,4.468,13.18,10.943,13.717c0,0,3.885-6.62,6.044-11.8
		c0,0.083-0.787,10.27-0.787,10.27l2.208,0.433c0,0,0.914,0.195,1.82,0.396c-0.364,1.418-0.978,2.759-0.978,4.241
		c0,3.458,1.017,6.599,2.26,9.222c-5.297,1.028-10.107,3.735-14.246,8.249c-3.852-3.982-9.376-7.874-14.382-8.308l-4.92-0.427
		l2.487,4.279c0.699,1.205,1.378,3.245,1.994,5.232c-0.576-0.356-7.09-4.442-7.09-4.442l1.742,6.327l0.628,2.421
		c0,0,0.305,1.101,0.504,1.812c-2.175-0.971-4.83-2.415-7.277-4.59l-6.216-5.543l2.02,8.081c1.346,5.413,3.458,10.167,4.694,12.705
		c-0.096,0.012-0.207,0.032-0.297,0.044c-2.299-1.696-10.794-8.002-10.794-8.002l0.55,4.015c0.117,0.919,0.176,1.865,0.176,2.823
		c0,5.22-1.755,10.743-3.691,15.347c-2.759-5.795-5.303-10.199-8.781-14.563l-2.22-2.777c0,0-1.619,7.149-2.376,10.49
		c-2.248-4.397-8.339-16.304-8.339-16.304l-0.383,6.209c-0.537,7.26-1.704,13.327-3.237,18.83
		c-3.348-5.193-9.448-14.634-10.716-16.168l-1.969-2.356c0,0-2.7,8.112-3.904,11.733c-2.41-4.357-6.826-11.798-11.52-16.726
		l-1.884-1.974l-0.952,2.564c-2.098,5.678-5.375,10.722-8.269,15.178c0,0-1.859,3.211-3.225,5.554
		c-2.376-2.712-4.52-5.633-6.391-8.643l-4.054-6.392l-1.282,2.947c-1.38,3.102-2.234,6.364-2.759,8.897
		c-2.622-3.866-8.146-11.986-8.146-11.986l-1.516,1.542c-3.891,4.325-6.151,9.571-7.621,15.612
		c-1.969-3.905-3.827-8.684-4.306-12.983l-0.227,0.027l1.761-4.682C267.838,346.761,256.921,357.25,254.234,359.835z M653.614,288
		l1.241-4.138l1.13-3.685c0,0,0.802-2.37,1.404-4.17c10.081,2.395,14.938,12.763,14.938,19.904c0,0.078,0,0.162,0,0.246
		c-0.039,2.157-0.744,6.703-4.547,8.055c-1.229-2.208-3.729-6.721-3.729-6.721l-5.797-10.904l-0.315,3.077
		C656.522,289.061,655.045,288.575,653.614,288z M658.217,313.492c0-1.482-0.613-2.823-0.976-4.241
		c0.905-0.201,3.715-0.803,3.715-0.803s-0.688-9.918-0.676-10.008c1.439,3.598,5.253,11.656,5.253,11.656l1.244-0.225
		c6.477-0.537,10.568-5.77,10.691-13.636c0.175-11.306-7.947-24.45-21.355-25.997l-1.733-0.219c0,0-1.367,6.979-1.942,9.713
		c-0.842-2.622-2.734-11.872-2.734-11.872s-2.914-1.016-4.728-1.63c0.532-2.014,1.171-4.002,1.171-6.32
		c0-3.257-0.841-6.476-2.258-9.343c1.884-1.477,11.228-8.774,11.228-8.774l-6.169-0.777c0,0-3.375-0.35-5.085-0.538
		c-0.575-1.12-1.14-2.207-1.723-3.373c1.095-2.014,4.171-4.947,6.442-5.653c0.675,0.116,1.756,0.316,1.756,0.316l3.813,0.738
		l0.856-1.515c2.245-3.607,4.494-3.134,9.348-1.709c3.466,1.016,7.383,2.162,11.346,0.447l0.803-0.343l0.415-0.771
		c2.726-4.933,8.04-7.303,14.581-6.514l4.294,0.518l-1.606-4.027c-0.427-1.075-1.469-2.02-2.182-3.102
		c0.914,0.084,1.891,0.168,2.317,0.35l5.802,2.383l-2.461-5.77c-0.719-1.676-2.02-3.206-3.035-4.857
		c3.948,1.108,7.751,2.63,11.144,5.051l2.369,1.691l1.378-2.552c0.908-1.69,2.486-3.69,3.957-5.451
		c0.416,1.825,0.965,3.658,1.756,5.121l1.734,3.218l2.437-2.726c2.892-3.237,7.938-7.615,12.119-10.704
		c-0.304,3.374-1.004,10.841-1.004,10.841l3.828-1.613c0.097-0.039,7.188-2.59,13.662-4.009c-1.677,2.061-7.654,9.442-7.654,9.442
		l6.717-1.16c4.092-0.686,10.042-1.055,15.596-1.126c-1.099,0.577-13.992,7.291-13.992,7.291l12.453-0.925
		c5.744-0.441,10.612-0.732,15.986-0.765c-1.496,0.739-3.102,1.373-4.378,2.208l-8.598,5.66l10.25-0.952
		c1.773-0.168,5.885-0.226,9.907-0.117c-0.719,0.466-7.959,5.122-7.959,5.122l7.092,0.83c9.007,1.152,15.636,2.615,22.825,5.062
		c-1.077,0.182-2.318,0.117-3.361,0.357l-8.309,1.942l7.992,2.966c9.641,3.587,15.688,7.278,20.597,10.956
		c-3.374-0.382-6.916-0.634-10.38-0.693l-8.67-0.143l7.201,4.843c14.166,9.532,20.869,21.984,23.77,29.209
		c-1.931-0.835-11.869-5.121-11.869-5.121l4.953,7.265c6.404,9.727,8.426,17.8,8.426,26.736c0,0.906-0.119,1.892-0.157,2.81
		c-0.886-0.99-4.843-5.414-4.843-5.414l0.906,8.023c0.551,4.753,0.828,9.059,0.828,13.275c0,5.199-0.577,10.438-1.456,16.032
		c-0.524-0.667-6.008-7.614-6.008-7.614l-0.026,7.174c0,0,0.082,5.374,0.161,10.198c-2.688-2.584-13.616-13.081-13.616-13.081
		l1.768,4.689l-0.228-0.027c-0.473,4.293-2.346,9.071-4.313,12.983c-1.469-6.041-3.73-11.287-7.62-15.612l-1.457-1.619
		c0,0-5.569,8.198-8.204,12.064c-0.518-2.525-1.366-5.79-2.759-8.897l-1.295-2.92l-4.039,6.377c-1.872,3.005-4.029,5.925-6.393,8.63
		c-1.366-2.35-3.238-5.568-3.238-5.568c-2.874-4.448-6.156-9.493-8.256-15.164l-0.949-2.572l-1.885,1.981
		c-4.695,4.928-9.111,12.369-11.508,16.726c-1.217-3.621-3.892-11.63-3.892-11.63l-1.994,2.26
		c-1.271,1.528-7.368,10.969-10.716,16.162c-1.535-5.503-2.688-11.57-3.238-18.816l-0.452-6.087c0,0-6.002,11.771-8.25,16.168
		c-0.763-3.341-2.396-10.463-2.396-10.463l-2.223,2.751c-3.489,4.372-6.021,8.774-8.772,14.563
		c-1.942-4.598-3.697-10.114-3.697-15.347c0-0.958,0.059-1.91,0.175-2.823l0.537-4.008c0,0-8.481,6.3-10.769,7.996
		c-0.098-0.012-0.2-0.032-0.303-0.044c1.23-2.538,3.341-7.292,4.7-12.705l2.021-8.081l-6.218,5.543
		c-2.445,2.175-5.093,3.619-7.275,4.59c0.187-0.698,0.491-1.78,0.491-1.78l2.234-8.684c0,0-6.379,3.989-6.941,4.345
		c0.602-1.987,1.281-4.027,1.981-5.238l2.486-4.273l-4.922,0.427c-5.005,0.434-10.53,4.325-14.382,8.308
		c-4.131-4.514-8.947-7.221-14.246-8.249C657.201,320.091,658.217,316.943,658.217,313.492z M652.209,326.844
		c7.693,0.252,13.015,5.147,16.123,9.214l1.975,2.583l2.066-2.512c1.975-2.436,4.895-4.644,7.85-6.288
		c-1.02,3.276-1.75,6.436-1.873,6.98l-1.255,5.912c0,0,6.234-3.892,6.623-4.132c-0.364,1.25-1.892,6.754-1.892,6.754l4.176-0.874
		c0.201-0.045,3.505-0.945,7.453-3.017c-0.873,2.233-1.729,4.156-2.29,5.27c-16.532,1.386-23.41-5.225-30.609-12.263
		c-2.728-2.681-5.499-5.395-8.813-7.641C651.82,326.831,652.209,326.844,652.209,326.844z M478.21,681.896l6.3-1.916l-13.002,13.5
		l-13.364-5.471L478.21,681.896z M408.355,683.326c5.354-0.098,12.781-0.342,16.816-1.035c15.087,3.23,34.751,12.633,47.209,20.58
		c3.879-5.447,8.121-9.326,9.564-10.129l0.719-0.4c0,0,14.063,5.645,17.857,7.166c-0.815-2.666-1.818-5.982-2.362-7.775
		c-0.725,0.104-2.435,0.342-2.435,0.342l-0.602-0.795c-1.93-2.514-5.368-9.371-5.368-11.703v-1.053l5.66-2.838l23.356-11.746
		c0,0,4.83,4.002,7.213,5.979c0.304-1.258,0.803-3.291,0.803-3.291s16.188-7.906,16.2-7.918l6.418-3.076l0.99-0.467
		c0,0,15.8,13.197,16.7,13.955c0.829-0.008,7.937-0.008,11.785-0.014l-0.364-0.258c1.47,0.311,3.212,0.588,3.212,0.588l6.973,3.988
		l-0.518,0.111l11.882,7.717l1.38-0.162l2.182,0.889c0,0,0.304,0.396,0.557,0.744c0.211,0.09,15.117,6.58,21.043,9.176
		c-0.254-0.562-1.522-3.348-1.522-3.348l35.905,12.283c-0.976,0.887-1.995,1.734-2.999,2.596
		c-6.766-2.316-22.559-7.717-26.846-9.195c0,0.047,0.053,0.119,0.053,0.156c0,0.447-0.123,0.848-0.402,1.23l-1.405,1.197
		l-25.232-10.98l-0.828-0.848c-0.356-0.371-1.86-0.791-2.338-0.654l-0.765,0.213c0,0-17.697-11.5-18.512-12.023
		c-0.938,0-14.491,0.012-14.491,0.012s-14.434-12.07-15.957-13.334c-1.793,0.857-5.418,2.598-5.418,2.598s-13.43,6.561-14.745,7.201
		c-0.265,1.127-1.708,7.045-1.708,7.045s-8.32-6.889-9.701-8.043c-1.921,0.967-23.529,11.824-24.871,12.498
		c0.563,1.818,2.306,5.531,3.886,7.895c0.841-0.125,1.787-0.26,1.787-0.26h1.502l3.931,12.846l0.511,4.039
		c0,0-20.416-8.197-22.035-8.844c-1.432,1.082-5.174,4.494-8.762,9.895l-0.938,1.418l-1.432-0.932
		c-12.076-7.932-32.252-17.666-46.75-20.914c-4.279,0.82-12.794,1.053-18.194,1.125c-0.835-0.953-1.665-1.91-2.487-2.881
		C405.624,683.729,406.911,683.533,408.355,683.326z M610.056,717.994c0.83,0.305,1.478,0.539,1.432,0.525l12.983,7.176
		c-1.212,0.652-2.443,1.256-3.674,1.883c-4.07-2.254-11.001-6.08-11.071-6.125l-2.958-1.107c0.012,0.115,0.041,0.244,0.052,0.322
		c1.54,1.078,9.606,6.787,9.606,6.949c0.04,0.006,1.699,0.312,3.168,0.576c-1.574,0.789-3.168,1.559-4.771,2.299l-11.119-7.836
		c0,0-0.173-0.996-0.213-1.191c-0.654-0.043-1.367-0.076-2.084-0.115c2.117,2.764,6.312,8.217,8.683,11.285
		c-1.172,0.506-2.371,0.971-3.555,1.445c-2.039-0.338-6.32-1.057-6.32-1.18c-0.108,0.033-5.082,1.555-5.082,1.555l-0.578-0.252
		c-1.682-0.721-3.963-2.014-5.245-4.1l-1.081-1.742c0,0,0.266-0.104,0.389-0.148c-0.097-0.098-0.214-0.227-0.214-0.227
		s-3.186-3.463-3.561-4.131c0,0-0.052-0.184-0.052-0.199c-0.363,1.125-0.673,2.076-0.738,2.205l-4.144,6.1l-0.875,0.047
		c0,0-2.362,0.09-2.675,0.07l-7.018-0.982l0.129-1.613c0,0,0.187-2.352,0.214-2.559c0,0,0.978-4.721,0.991-4.693
		c0.098-1.18,0.389-3.957,0.842-6.438c-2.992,1.631-6.955,3.459-9.149,4.24l-0.441,0.158l-0.466-0.086
		c0,0-21.886-4.234-21.886-4.338c-0.026,0-24.561,4.318-24.561,4.318l-1.178-3.158c0,0,12.865-7.688,13.526-8.082
		c0.239-0.369,2.111-3.303,4.054-6.314c-7.174,2.623-55.926,20.43-70.456,25.732c-1.393-0.691-2.778-1.398-4.151-2.123
		l78.201-28.561l4.78-1.75l-2.099,3.264l0.155,0.137c5.227,4.332,19.348,15.561,23.972,17.34c3.315-1.275,9.311-4.209,10.813-5.451
		l2.927,2.492c-0.492,0.816-1.159,5.271-1.509,9.123c0,0-0.965,4.682-0.977,4.676c0,0.006-0.04,0.422-0.066,0.746
		c1.522,0.211,3.542,0.496,3.542,0.518c0.012,0,0.802-0.033,1.502-0.059c0.919-1.367,2.939-4.314,2.979-4.314
		c0.013-0.045,2.059-6.564,2.059-6.564l2.344-5.602l1.47,5.893c0,0,0.914,3.619,0.914,4.164c0,0.045-0.013,0.072-0.027,0.072
		c0.092,0.082,1.574,1.709,2.415,2.627c0.248-0.078,0.648-0.188,0.648-0.188l5.161,4.293c0,0-1.081,0.422-1.884,0.732
		c0.479,0.348,0.765,0.736,1.38,1.035c1.321-0.395,3.955-1.166,4.533-1.197c0,0,1.923,0.311,3.838,0.621
		c-2.984-3.877-11.267-14.627-11.267-14.627l5.117,1.541c0,0,2.401,0.738,2.401,0.777c0.04,0,1.276,0.051,2.622,0.121l-1.819-2.893
		l-2.862-4.824c0,0,5.797,2.764,5.914,2.822c-0.505-1.127-1.03-2.266-1.03-2.266l4.325,2.143c2.874,1.432,5.827,2.078,6.338,2.066
		c5.55-1.359,11.825-1.379,15.2-1.387l1.965,0.461l-0.133,1.852c-0.054,0.635,0.395,3.303,0.865,5.691
		c-1.016,0.615-2.066,1.199-3.094,1.787c-0.415-1.902-0.914-4.441-1.062-6.326c-3.375,0.025-8.349,0.137-12.938,1.244
		c-0.912,0.227-2.647-0.098-4.507-0.674C609.978,717.84,609.991,717.846,610.056,717.994z M410.784,690.949
		c-1.16-1.23-2.319-2.467-3.445-3.73c3.963,0.342,17.702,1.514,18.22,1.658c0.842,0.406,20.209,9.725,28.705,17.047
		c1.315-0.367,6.715-1.916,6.715-1.916l11.157,7.809l-3.678,0.902c0,0-8.827,2.148-8.496,2.033c0,0-2.777,1.32-2.876,1.236
		c-0.188,0.232-4.772,5.865-4.959,6.066c-0.279,0.291-0.629,0.615-1.004,0.895c-1.21-0.701-2.428-1.387-3.612-2.105
		c-4.552-6.643-19.697-24.539-24.644-26.859c-0.616,0.072-5.025,0.518-8.367,0.855c-1.022-1.023-2-2.092-2.998-3.135
		c0.971-0.102,2.357-0.238,3.718-0.381C413.672,691.193,412.157,691.07,410.784,690.949z M577.176,709.609l3.037,4.895L575,712.07
		c-3.27-1.521-14.517-8.955-16.045-9.967c-0.881,0-6.741,0-6.741,0l-1.365-0.875c0,0-0.202-1.752-0.228-1.959
		c-4.441-2.539-20.72-13.016-23.517-15.541c0,0,0.136-0.316,0.161-0.389v-0.014c0.266-0.615,1.327-3.146,1.327-3.146
		c5.335,2.24,25.001,7.414,31.768,8.697l2.13,1.145l0.267,0.822c0,0,0.174,4.152,0.238,5.674c1.904,0.252,6.501,0.881,6.501,0.881
		l1.127,0.264l0.324,1.074C571.226,699.697,574.398,705.129,577.176,709.609z M576.373,686.234l2.195-3.037
		c0.952,0.629,7.038,3.004,10.354,4.201c1.003-0.264,1.885-0.232,2.52,0.312l0.628,1.346c0,0,0.33,1.549,0.517,2.43
		c0.098,0,0.312-0.014,0.324-0.014c1.217-0.109,1.923,0.389,2.298,0.814c0.578,0.654,0.739,1.535,0.487,2.65l-0.219,4.844
		l-0.131,4.078L576.373,686.234z M428.836,409.007c5.575,1.165,10.671,4.059,13.456,6.21
		c-50.747,32.434-84.502,89.215-84.502,153.785c0,100.572,81.827,182.398,182.411,182.398c100.585,0,182.425-81.826,182.425-182.398
		c0-64.616-33.795-121.441-84.599-153.856c2.823-2.157,7.92-5.024,13.495-6.165c50.564,35.277,83.762,93.818,83.762,160.021
		c0,107.553-87.518,195.07-195.083,195.07c-107.551,0-195.069-87.518-195.069-195.07
		C345.132,502.826,378.305,444.297,428.836,409.007z M658.918,408.708c0.16,0.026,0.324,0.014,0.479,0.045
		c0.111,0.021,0.214,0.078,0.324,0.104L658.918,408.708z M688.049,417.199c1.206,0.181,2.222,0.09,3.225-0.021
		c-0.246,0.389-1.969,3.141-3.018,4.838c-2.125-2.137-4.292-4.223-6.507-6.262l0.827-1.153c0.753-1.029,2.371-3.652,4.132-6.729
		c-0.089,1.924-0.188,3.854-0.756,6.165l-0.687,2.72L688.049,417.199z M392.193,417.199l2.771-0.441l-0.68-2.72
		c-0.577-2.311-0.673-4.241-0.764-6.151c1.781,3.075,3.399,5.691,4.131,6.722l0.9,1.243c-2.208,2.047-4.372,4.131-6.488,6.268
		c-1.121-1.781-2.862-4.559-3.109-4.941C389.959,417.289,390.989,417.38,392.193,417.199z M300.59,669.773
		c0,0,1.133-3.418,1.599-4.805c2.655-0.867,4.857,0.453,4.968,0.525l5.821,4.039l-1.846-6.81c-1.101-4.003-3.762-7.091-7.4-9.312
		c-0.79-5.731-5.124-11.544-12.615-11.875c-3.717-0.162-6.449,1.029-8.845,2.085c-2.285,0.998-4.267,1.858-7.156,1.808
		c-5.633-0.104-12.108-7.375-13.338-14.972c-0.174-1.107-0.401-2.957-0.401-5.283c0-6.384,1.676-16.402,10.515-24.949
		c12.083-11.706,26.664-30.115,27.423-51.315c0.025-0.589,0.044-1.166,0.044-1.741c0-12.245-4.805-21.188-10.315-31.477
		c-3.961-7.381-8.307-15.559-11.454-26.211c0.589,0.713,3.613,4.435,3.613,4.435l2.157-2.293l3.93-3.942l0.078-1.483
		c0,0-0.37-3.011-0.642-5.23c0.804,1.106,3.6,5.037,3.6,5.037l2.021-1.637c0.252-0.188,25.699-18.779,37.86-25.073
		c12.561-8.023,22.819-22.261,30.789-42.139c6.987,2.408,16.726,4.623,26.678,5.82l3.179,0.382
		c-36.714,37.654-59.416,89.026-59.416,145.646c0,115.115,93.649,208.766,208.764,208.766c115.129,0,208.779-93.65,208.779-208.766
		c0-56.696-22.761-108.136-59.564-145.795l3.14-0.233c9.952-1.198,19.679-3.413,26.678-5.82
		c7.973,19.878,18.215,34.104,30.589,42.017c12.359,6.417,37.808,25.007,38.062,25.195l2.098,1.534c0,0,2.719-3.827,3.521-4.941
		c-0.283,2.234-0.791,6.482-0.791,6.482l6.153,6.177l1.968-1.91c0,0,1.219-1.514,1.808-2.234
		c-3.147,10.652-7.493,18.836-11.456,26.218c-5.509,10.288-10.294,19.231-10.294,31.477c0,0.576,0,1.152,0.025,1.741
		c0.764,21.206,15.339,39.609,27.435,51.315c8.832,8.541,10.502,18.552,10.502,24.936c0,2.332-0.225,4.189-0.402,5.297
		c-1.229,7.597-7.704,14.867-13.338,14.972c-2.886,0.051-4.856-0.81-7.141-1.808c-2.409-1.056-5.135-2.247-8.847-2.085
		c-7.503,0.331-11.834,6.144-12.625,11.875c-3.639,2.222-6.299,5.31-7.394,9.312l-1.867,6.831l5.836-4.061
		c0.096-0.072,2.316-1.393,4.965-0.525c0.481,1.393,1.711,5.059,1.711,5.059l1.741-0.254h29.584
		c-41.077,109.742-146.979,188.08-270.875,188.08c-123.895,0-229.808-78.338-270.893-188.08H300.59z M540.202,883.986
		c-152.03,0-279.202-108.285-308.552-251.76c2.039,0.406,3.741,1.889,5.037,4.439l2.163,7.279
		c1.405,6.48,3.322,15.352,12.686,25.037l0.745,0.791h2.459c41.713,117.441,153.909,201.781,285.463,201.781
		c131.563,0,243.758-84.346,285.464-201.781h2.286l0.745-0.791c9.35-9.678,11.279-18.557,12.684-25.025l2.168-7.291
		c1.31-2.584,3.037-4.09,5.124-4.468c0.032-0.005,0.064,0,0.097-0.005C819.416,775.695,692.245,883.986,540.202,883.986z
		 M1012.37,630.451c1.307,2.46,2.649,4.967,3.814,7.49c-0.085-0.05-5.219-3.697-5.219-3.697l0.926,6.126c0,0,0.33,2.999,0.642,5.854
		c-0.604-0.059-1.165-0.156-1.904-0.059c-6.101,2.643-6.229,7.698-6.34,11.396c-0.076,3.122-0.362,4.961-1.857,6.217
		c-2.007,0-32.979,0.031-35.667,0.031c-0.277-0.525-1.469-2.81-1.469-2.81s-2.716,0.079-5.591,1.579c0.875-3,4.75-5.875,4.75-5.875
		c0.254-1.846,0.917-3.87,4.182-5.178c3.452-1.387,5.945-0.842,8.568-0.265c2.387,0.519,5.094,1.106,8.009-0.2
		c6.01-2.655,7.782-9.604,7.427-15.211c-0.603-11.201-9.098-21.291-20.204-23.979c-28.677-6.1-64.305-13.662-87.258-41.363
		c-3.536-4.467-5.771-9.575-8.121-15.3l-0.654-1.592h-1.727c-22.806,0.011-34.209,14.329-35.141,27.609
		c-0.073,0.984-0.111,1.955-0.111,2.927c0,12.18,5.861,23.646,17.128,34.896c-0.604,0.038-4.981,0.35-4.981,0.35l0.805,3.158
		c0.427,1.252,0.789,3.121,1.03,5.143c-1.723-0.545-3.614-0.934-5.673-0.557c-2.564,0.479-6.178,2.111-8.762,7.193l-2.61,8.527
		c-1.366,6.32-3.05,13.488-10.716,21.771c-2.193,0-39.031,0-42.322,0c-0.374-1.133-1.125-3.395-1.125-3.395l-0.965-0.627
		c-1.562-0.804-4.653-0.408-6.528,0.217c1-2,3.607-3.354,4.875-4l1.725-0.395l0.051-1.508c0.137-3.841,2.986-8.043,7.984-8.263
		c2.531-0.11,4.403,0.712,6.573,1.657c2.473,1.088,5.297,2.312,9.296,2.24c8.121-0.148,16.669-9.156,18.313-19.282
		c0.776-4.752,2.246-21.329-11.597-34.745c-11.417-11.055-25.175-28.311-25.876-47.813c-0.428-11.773,4.027-20.081,9.661-30.602
		c5.387-10.045,11.487-21.439,14.55-38.547l1.743-9.791c0,0-11.105,13.683-13.327,16.428c-0.276-0.284-0.343-0.337-0.568-0.576
		c0.211-1.762,0.783-6.436,0.783-6.436l2.22-17.671l-6.014,8.372c0,0-4.378,6.145-6.276,8.8
		c-6.299-4.558-25.789-18.468-36.429-23.964c-11.694-7.499-21.632-21.531-29.321-41.57l-0.923-2.403l-2.41,0.92
		c-5.432,2.104-13.74,3.923-22.326,5.257c0.99-1.58,6.598-10.606,6.598-10.606l-7.964,3.931c-2.339,1.087-3.581,1.534-4.708,1.754
		c0.324-2.059,0.738-4.215,0.738-5.95c0-2.655-0.271-4.979-0.512-7.045l-1.105-9.693l-3.854,7.925
		c-1.795,3.671-4.305,8.094-6.184,11.164c-0.629-0.933-4.029-5.958-4.029-5.958s-2.563,6.248-3.625,8.807l-0.673-0.123
		c-3.284-3.763-7.073-6.554-11.739-7.441c-9.467-1.793-19.717,2.914-25.617,7.492c-2.712,2.104-4.748,2.461-7.084,2.474
		c-0.012-0.021-0.025-0.045-0.038-0.071c-1.579,0.091-3.25-0.647-5.14-0.899c-2.164-0.997-3.957,0.252-7.039,5.141
		c-0.059,0.091-0.131,0.201-0.184,0.292c-0.388,0.615-0.776,1.25-1.203,1.976c-0.505,0.874-1.057,1.819-1.639,2.868
		c-1.334,3.814-1.845,6.774-2.356,8.586c-0.382-0.492-0.849-1.224-1.347-2.072c-0.292-0.485-0.575-1.062-0.873-1.606
		c-0.208-0.389-0.415-0.738-0.616-1.139c-0.925-1.852-1.723-3.724-2.051-4.974c-0.034-0.123-0.117-0.316-0.137-0.426
		c-0.123,0-0.247-0.045-0.368-0.059c-1.626-0.103-3.247-0.907-4.644-2.117c-0.467-0.414-0.919-0.867-1.334-1.354
		c-1.749,2-3.555,4.786-4.585,7.116c-1.405-3.813-2.06-11.357-0.588-14.906c-0.357-0.453-0.622-0.971-0.824-1.528
		c-0.084-0.22-0.111-0.473-0.161-0.713c-0.078-0.336-0.168-0.673-0.201-1.022c-0.026-0.369,0-0.745,0.024-1.113
		c0.014-0.233,0.014-0.466,0.046-0.699c0.07-0.479,0.201-0.966,0.356-1.432c0.039-0.123,0.07-0.239,0.117-0.356
		c0.207-0.544,0.473-1.082,0.803-1.594c0.02-0.032,0.038-0.063,0.058-0.096c1.087-1.659,2.803-3.037,5.143-3.671
		c0.562-0.15,1.104-0.332,1.741-0.39c2.543-5.756,6.889-8.825,18.415-8.489c0.062,0,0.13,0,0.2,0
		c0.552,0.014,1.063,0.007,1.652,0.04c0.374,0.02,0.865,0,1.417-0.046c3.773-0.213,5.252,0.24,10.056,0.175
		c8.093-0.271,15.87-1.826,24.631-6.863l3.814-2.188l-3.776-2.248c-9.334-5.582-19.889-12.47-27.02-23.699l-0.564-0.874l-1.004-0.24
		c-8.093-1.923-14.781-5.893-18.849-11.189l-0.453-0.588l-0.698-0.253c-1.663-0.616-3.108-1.341-4.527-2.079l-0.044,0.026
		c-0.227-0.11-0.458-0.253-0.701-0.363c-0.213-0.124-0.446-0.233-0.66-0.356c-0.415-0.214-0.835-0.48-1.25-0.719
		c-0.736-0.401-1.463-0.81-2.202-1.283c-0.439-0.278-0.874-0.628-1.313-0.94c-0.609-0.432-1.225-0.841-1.821-1.327
		c-0.569-0.458-1.113-1.022-1.671-1.541c-0.447-0.426-0.919-0.809-1.353-1.282c-0.978-1.048-1.91-2.201-2.783-3.49
		c-3.602-0.486-8.775-4.655-9.916-6.487c0,0,6.326-1.782,8.697-2.423c0.213-2.519,0.413-5.23,2.097-7.957
		c0,0-3.728-6.475-5.238-8.378c0.603,0.057,1.398,0.116,2.266,0.181c1.994,0.142,4.404,0.349,6.308,0.711
		c0.829,0.156,1.579,0.337,2.11,0.563c1.89-2.298,4.752-3.768,7.745-4.396c0.161-2.688,0.737-7.557,0.349-9.901
		c4.416,2.688,6.863,9.137,8.04,12.239c1.019,0.614,1.925,1.191,2.766,1.754c0.278,0.188,0.526,0.363,0.785,0.544
		c0.549,0.382,1.101,0.751,1.592,1.121c0.286,0.207,0.55,0.407,0.815,0.608c0.484,0.356,0.967,0.72,1.424,1.076
		c0.293,0.227,0.576,0.445,0.856,0.667c0.465,0.362,0.926,0.719,1.394,1.081v0.033c5.768,4.435,10.896,10.333,14.742,17.165
		l0.616,1.082l1.229,0.195c8.186,1.288,13.043,6.035,18.182,11.065c7.544,7.395,16.104,15.787,36.092,13.63l0.842-0.092l0.014,3.115
		l2.713-2.195c0,0,3.627-2.7,6.373-4.727c0.117,8.993,4.395,17.943,5.361,19.853l1.645,3.205l1.442-3.295
		c2.733-6.171,5.116-10.238,7.933-14.207c0.791,3.451,2.836,12.438,2.836,12.438s5.02-9.849,7.239-14.22
		c0.803,6.605,1.918,12.633,3.665,17.762l1.153,3.373l1.91-3.004c3.309-5.18,8.042-12.51,10.704-16.479
		c1.217,3.639,4.468,13.358,4.468,13.358l1.807-3.769c0.051-0.123,5.433-10.497,11.219-17.411c2.185,4.954,4.956,9.538,7.351,13.242
		l5.464,9.343l1.68-1.321c3.426-3.36,5.885-7.31,8.26-11.131c0,0,0.314-0.498,0.461-0.726c1.521,4.644,2.021,8.982,2.032,9.033
		l0.467,4.695c0,0,8.484-12.483,10.596-15.598c3.496,4.513,5.82,9.673,6.759,16.375l0.628,4.417l2.487-3.699
		c2.311-3.412,4.428-8.417,5.691-13.072l0.129,0.342c23.621,62.79,48.007,80.525,69.519,96.169
		c13.259,9.635,25.782,18.746,36.803,37.562l0.842,1.457l1.685-0.201c37.152-4.591,62.104-30.757,62.104-65.122
		c-0.823-30.2-22.133-60.38-61.314-59.758l-0.616,0.013l-0.562,0.298c-4.067,2.194-9.28,3.689-13.605,3.911
		c-15.353,0.557-26.956-11.377-33.696-23.687c5.31,1.528,10.263,1.567,14.745,1.354c5.471-0.267,10.646-0.512,16.115,2.318
		c4.714,2.435,6.56,5.348,8.178,7.925c1.91,3.031,3.893,6.158,9.403,6.209c17.257-1.333,31.812,3.245,43.486,13.605
		c13.437,11.921,21.932,30.893,22.747,50.771c1.282,30.744-21.9,61.209-59.02,77.617l-3.938,1.743l3.386,2.641
		c13.065,10.152,18.836,27.17,18.138,53.549c0.174,9.246,5.38,17.872,13.928,23.194c8.923,5.93,23.557,6.156,33.995,0.491
		c0,0,0.367-0.22,0.642-0.367c-0.15,0.29-0.202,0.77-0.365,1.035l-3.346,5.452c0,0,7.427-1.955,8.294-2.182
		c-1.385,3.086-3.581,7.943-3.581,7.943l1.256,1.342c6.313,6.079,10.93,14.381,14.822,24.527c-0.252-0.137-8.346-4.216-8.346-4.216
		L1012.37,630.451z M855.198,569.002c0,12.944-0.873,25.674-2.401,38.203c-5.479-7.557-8.229-15.21-8.229-23.11
		c0-0.827,0.026-1.662,0.091-2.499c0.438-6.286,3.969-12.729,10.476-17.133C855.16,565.978,855.198,567.48,855.198,569.002z"/>
</g>
</svg>
