<?xml version="1.0" encoding="utf-8"?>
<!-- Generator: Adobe Illustrator 23.1.1, SVG Export Plug-In . SVG Version: 6.00 Build 0)  -->
<svg version="1.1" id="Layer_1" xmlns="http://www.w3.org/2000/svg" xmlns:xlink="http://www.w3.org/1999/xlink" x="0px" y="0px"
	 viewBox="0 0 742 149.3" style="enable-background:new 0 0 742 149.3;" xml:space="preserve">
<style type="text/css">
	.st0{fill-rule:evenodd;clip-rule:evenodd;fill:#141414;}
</style>
<path class="st0" d="M81.8,109.7c-5.3,2-13.8,3.5-20.9,3.5C22,113.1,6.8,84.1,6.8,60c0-21.8,15.5-51.8,54.5-51.8
	c31.8,0,53.8,19.4,53.8,50.7c0,23.5-14.7,38.4-23.1,44l26.7,13.8c28,14.4,45.7,15.9,54.7,15.9c6.9,0,16.7-1.1,25.9-4.7
	c0.8-0.3,1.5-0.7,2-0.7c0.7,0,1.2,0.5,1.2,1.2c0,0.8-0.7,1.2-1.6,1.6c-8,3.9-23,10-42.1,10c-20.1,0-34.3-5.2-56.2-18.2L81.8,109.7z
	 M96.5,62.6c0-32.4-19.9-47.9-38.3-47.9c-17.4,0-32.9,11.2-32.9,42.3c0,31.8,19.1,49.5,40.5,49.5C76.5,106.4,96.5,101.8,96.5,62.6z
	 M139.2,54.8v18.9c0,16.7,4.7,25.3,10.9,30.6c8.7,7.6,21,7.9,27.3,7.9c7.7,0,16.8-1.2,25.2-8.3c10-8.3,11.4-21.9,11.4-34.9V54.8
	c0-17.6,0.1-20.8,0.3-24.5c0.3-4.1,1.1-5.7,4.3-6.3c1.5-0.3,2.2-0.4,3.5-0.4c1.4,0,2-0.4,2-1.2c0-0.8-0.8-1.1-2.4-1.1
	c-4.6,0-12.6,0.3-14,0.3c-0.1,0-8.1-0.3-14.2-0.3c-1.6,0-2.4,0.3-2.4,1.1c0,0.8,0.7,1.2,2,1.2s3.4,0.1,4.3,0.4
	c3.8,1.1,4.8,2.3,5,6.3c0.1,3.7,0.3,6.9,0.3,24.5v16.5c0,11.8-0.3,21.9-6.9,28.2c-4.7,4.6-10.9,6.1-16,6.1c-4.1,0-9.8-0.4-15.1-4.6
	c-5.8-4.6-9.1-11.2-9.1-28V54.8c0-17.6,0-20.8,0.3-24.5c0.3-4.1,1.2-5.7,4.3-6.3c1.5-0.3,2.2-0.4,3.5-0.4c1.2,0,1.9-0.4,1.9-1.2
	c0-0.8-0.8-1.1-2.6-1.1c-4.3,0-12.3,0.3-15.3,0.3c-3.5,0-11.5-0.3-17.9-0.3c-1.8,0-2.6,0.3-2.6,1.1c0,0.8,0.7,1.2,2,1.2
	c1.6,0,3.7,0.1,4.6,0.4c3.8,1.1,4.9,2.2,5.2,6.3C139.4,34,139.2,37.2,139.2,54.8 M245,55.6v20.9c0,11.4,0,20.3-0.5,25.2
	c-0.4,3.5-1.1,5.2-3.5,5.7c-1.1,0.3-2.4,0.4-4.2,0.4c-1.5,0-1.9,0.7-1.9,1.3c0,0.8,0.8,1.3,2.3,1.3c4.7,0,12.7-0.4,15.4-0.4
	c3.2,0,11.3,0.4,19,0.4c1.3,0,2.3-0.4,2.3-1.3c0-0.6-0.5-1.3-1.9-1.3c-1.7,0-4.4-0.1-6-0.4c-3.5-0.6-4.3-2.4-4.7-5.6
	c-0.5-5-0.5-13.9-0.5-25.3V55.6c0-18,0-21.3,0.3-25.1c0.3-4.2,1.2-5.9,4.4-6.4c1.3-0.3,2.3-0.4,3.5-0.4c1.2,0,1.9-0.3,1.9-1.4
	c0-0.7-0.9-1-2.4-1c-4.6,0-12.2,0.3-15.1,0.3c-3.4,0-11.4-0.3-15.8-0.3c-1.9,0-2.8,0.3-2.8,1c0,1.1,0.7,1.4,1.9,1.4
	c1.5,0,2.9,0.1,4.3,0.6c2.5,0.8,3.8,2.2,4,6.3C245,34.3,245,37.6,245,55.6z M300.2,94.4l-1.3-47.6h0.4c2.3,2.1,14.6,16.2,27.4,28.8
	c12.2,12.2,26.9,26.6,34.2,33.6c1.2,1.2,2.8,2.5,4.8,2.5c0.9,0,1.9-1.1,1.9-3.7l1.3-74.3c0.1-6.6,1.1-8.6,4.3-9.6
	c1.5-0.4,2.4-0.4,3.6-0.4c1.3,0,2-0.6,2-1.2c0-1-1.1-1.1-2.7-1.1c-5.7,0-10.1,0.3-11.4,0.3c-2.5,0-8.8-0.3-14.9-0.3
	c-1.7,0-2.9,0.1-2.9,1.1c0,0.7,0.4,1.2,1.9,1.2c1.6,0,4.4,0,6.1,0.7c2.8,1.1,3.9,3.2,4,10.3l1.2,52.6h-0.5
	c-1.7-1.6-17.3-18.1-25.3-26.2c-17-17.2-34.6-35.7-36.1-37.2c-2-2.1-3.6-3.8-5.1-3.8c-1.2,0-2,1.6-2,4L290,93.2
	c-0.1,10.2-0.5,13.3-3.6,14.1c-1.6,0.4-3.7,0.6-5.3,0.6c-1.1,0-1.9,0.5-1.9,1.2c0,1.1,1.1,1.2,2.7,1.2c6,0,11.6-0.4,12.6-0.4
	c2.1,0,7.6,0.4,15.2,0.4c1.6,0,2.7-0.3,2.7-1.2c0-0.7-0.7-1.2-2-1.2c-1.9,0-4.1-0.1-6.1-0.8C302,106.2,300.5,103.5,300.2,94.4
	 M402.4,94.4L401,46.8h0.4c2.3,2.1,14.6,16.2,27.4,28.8c12.2,12.2,26.9,26.6,34.2,33.6c1.2,1.2,2.8,2.5,4.8,2.5
	c0.9,0,1.9-1.1,1.9-3.7l1.3-74.3c0.1-6.6,1.1-8.6,4.3-9.6c1.5-0.4,2.4-0.4,3.6-0.4c1.3,0,2-0.6,2-1.2c0-1-1.1-1.1-2.7-1.1
	c-5.7,0-10.1,0.3-11.4,0.3c-2.5,0-8.8-0.3-14.9-0.3c-1.7,0-2.9,0.1-2.9,1.1c0,0.7,0.4,1.2,1.9,1.2c1.6,0,4.4,0,6.1,0.7
	c2.8,1.1,3.9,3.2,4,10.3l1.2,52.6h-0.5c-1.7-1.6-17.3-18.1-25.3-26.2c-17-17.2-34.6-35.7-36.1-37.2c-2-2.1-3.6-3.8-5.1-3.8
	c-1.2,0-2,1.6-2,4l-1.1,69.2c-0.1,10.2-0.5,13.3-3.6,14.1c-1.6,0.4-3.7,0.6-5.3,0.6c-1.1,0-1.9,0.5-1.9,1.2c0,1.1,1.1,1.2,2.7,1.2
	c6,0,11.6-0.4,12.6-0.4c2.1,0,7.6,0.4,15.2,0.4c1.6,0,2.7-0.3,2.7-1.2c0-0.7-0.7-1.2-2-1.2c-1.9,0-4.1-0.1-6.1-0.8
	C404.1,106.2,402.6,103.5,402.4,94.4 M524.1,80.2v9.8c0,2,0,6.2-0.4,11.2c-0.3,3.5-1.2,5.7-3.6,6.3c-1.1,0.3-2.5,0.4-4.2,0.4
	c-1.3,0-1.9,0.7-1.9,1.3c0,1,0.9,1.3,2.5,1.3c4.4,0,12.3-0.4,15.3-0.4c3.2,0,11.1,0.4,18.5,0.4c1.6,0,2.5-0.4,2.5-1.3
	c0-0.6-0.7-1.3-2-1.3c-1.6,0-4.1-0.1-5.9-0.4c-3.5-0.6-4.5-2.8-4.8-6.3c-0.3-5-0.3-9.3-0.3-11.2v-9.5c0-3.9-0.3-7.5,1.5-11.9
	c2.1-5,19-33.2,22.9-37.9c2.5-3.2,3.6-4.3,6.2-5.6c1.7-0.8,3.9-1.4,5.1-1.4c1.3,0,2.3-0.6,2.3-1.4c0-0.7-0.8-1-2.1-1
	c-2.3,0-10,0.3-12.6,0.3c-3.5,0-7.6-0.3-11.5-0.3c-1.3,0-2,0.3-2,1.1c0,1,1.1,1.1,2.1,1.4c2,0.4,2.5,1.5,2.5,2.6
	c0,1.5-0.5,3.6-1.7,6.3c-1.7,3.6-16.1,29-17.5,31.8c-2-3.3-17.4-31.1-19.5-34.7c-0.9-1.7-1.5-3.1-1.5-4s0.7-1.5,1.6-1.8
	c1.9-0.6,2.7-0.6,2.7-1.5c0-0.8-0.7-1.1-1.7-1.1c-5.4,0-10.8,0.3-13.4,0.3c-3.9,0-12.7-0.3-14.7-0.3c-1.5,0-2.3,0.3-2.3,1.1
	c0,0.8,0.8,1.3,1.7,1.3c1.5,0,3.5,0.7,5,1.5c2.3,1.3,4.7,4,7.6,8.4c4.1,6.3,20.2,32.4,21,34.2C523,71.2,524.1,73.8,524.1,80.2z
	 M627.7,22.4c-13.1,11.8-15.9,27.5-15.9,36.6c0,13,3.5,27.9,16.9,39.4c12.4,10.6,28,14.6,46.7,14.6c8.7,0,19-0.9,24.5-3.1
	c2.3-0.9,2.9-1.6,3.5-3.9c0.4-1.5,0.9-3.7,1.4-6.1c-6.6,3.7-15.1,5.9-24.4,5.9c-2.8,0-5.5-0.2-8.1-0.6c-18-0.9-41.2-16.7-41.2-47.5
	c0-13,2.6-25.7,12.5-34.6c6-5.3,13.8-8.3,25.6-8.3c12.5,0,23.1,3.6,27.6,8.3c3.4,3.5,5.2,8.2,5.3,12.3c0,1.9,0.3,2.9,1.4,2.9
	c1.2,0,1.5-1.1,1.6-3.1c0.3-2.7,0.1-10,0.4-14.4c0.3-4.7,0.7-6.3,0.7-7.4c0-0.8-0.5-1.5-2-1.6c-4.1-0.4-8.4-1.6-13.6-2.3
	c-6.3-0.8-11.3-1.3-19.7-1.3C650.4,8.2,637.5,13.6,627.7,22.4z M724.4,103.8c0,3,1.9,6.5,6.4,6.5c4.1,0,6.7-3.1,6.7-6.9
	c0-3.8-2.9-6.2-6.5-6.2C726.3,97.3,724.4,101.1,724.4,103.8"/>
</svg>
