<?xml version="1.0" encoding="utf-8"?>
<!-- Generator: Adobe Illustrator 23.1.1, SVG Export Plug-In . SVG Version: 6.00 Build 0)  -->
<svg version="1.1" id="Layer_1" xmlns="http://www.w3.org/2000/svg" xmlns:xlink="http://www.w3.org/1999/xlink" x="0px" y="0px"
	 viewBox="0 0 1322 290" style="enable-background:new 0 0 1322 290;" xml:space="preserve">
<style type="text/css">
	.st0{fill:#141414;}
</style>
<g>
	<path class="st0" d="M420.24,4.39h-19.23c0,0,0,73.13,0,76.65c-3.46,0-82.92,0-86.37,0c0-3.52,0-76.65,0-76.65h-21.06v177.64h21.06
		c0,0,0-78.06,0-81.57c3.45,0,82.91,0,86.37,0c0,3.51,0,81.57,0,81.57h21.08V4.39H420.24z"/>
	<path class="st0" d="M577.48,93.86c0,49.47,43.08,91.26,94.08,91.26c52.01,0,94.32-41.37,94.32-92.21
		c0-50.85-42.31-92.2-94.32-92.2C626.32,0.72,577.48,36.32,577.48,93.86z M597.86,93.88c0-41.02,33.05-74.4,73.69-74.4
		c40.76,0,73.93,33.04,73.93,73.67c0,40.39-33.17,73.23-73.93,73.23C631.62,166.38,597.86,133.18,597.86,93.88z"/>
	<path class="st0" d="M928.65,45.45c0-25.26-0.79-29.77-11.69-31.11l-8.51-1.07c-1.87-1.33-1.87-5.58,0.27-6.65
		c14.89-1.33,33.23-2.12,59.29-2.12c16.48,0,32.16,1.32,44.4,7.97c12.75,6.64,22.07,18.6,22.07,37.23
		c0,25.25-19.95,39.08-33.23,44.4c-1.33,1.59,0,4.25,1.3,6.37c21.28,34.3,35.37,55.56,53.46,70.72c4.53,4,11.16,6.93,18.35,7.44
		c1.33,0.53,1.6,2.66,0.27,3.73c-2.4,0.8-6.65,1.32-11.69,1.32c-22.6,0-36.16-6.65-55.04-33.49c-6.93-9.83-17.82-28.17-26.07-40.15
		c-3.97-5.85-8.24-8.51-18.87-8.51c-11.95,0-12.5,0.25-12.5,5.85v33.49c0,27.92,0.55,31.11,15.96,33.23l5.59,0.8
		c1.59,1.33,1.07,5.85-0.55,6.65c-11.96-0.53-21-0.8-31.63-0.8c-11.18,0-20.73,0.27-33.24,0.8c-1.59-0.8-2.11-4.78-0.52-6.65
		l6.65-0.8c15.42-1.85,15.93-5.31,15.93-33.23V45.45z M950.46,83.46c0,4.8,0,7.72,0.82,8.77c0.79,0.8,4.77,1.35,18.35,1.35
		c9.57,0,19.65-1.05,27.38-6.92c7.18-5.59,13.3-14.88,13.3-32.98c0-21-13.04-40.93-42.55-40.93c-16.48,0-17.29,1.06-17.29,8.49
		V83.46z"/>
	<path class="st0" d="M1241.2,82.75h47.21c5.36,0,9.56,4.2,9.56,9.57c0,5.36-4.2,9.56-9.56,9.56h-47.21v60.38h71.22
		c5.38,0,9.57,4.21,9.57,9.57c0,5.37-4.2,9.57-9.57,9.57h-110.2v-6.77h6.32c6.98,0,12.81-5.82,12.81-12.82V25.06
		c0-7-5.84-12.84-12.81-12.84h-6.32V5.45h100.4c5.38,0,9.59,4.2,9.59,9.57c0,5.36-4.21,9.58-9.59,9.58h-61.42V82.75z"/>
	<g>
		<path class="st0" d="M805.42,241.23c-10.19,0-17.36,9.73-20.78,21.34c-3.44,11.74-1.95,21.59,8.23,21.59
			c5.66,0,10.08-3.68,13.99-9.02l2.38,0.95c-4.34,7.48-11.33,12.46-19.63,12.46c-11.82,0-18.64-11.27-14.4-25.97
			c4.2-14.46,17.51-25.73,29.45-25.73c10.95,0,14.81,8.18,13.04,14.35c-1.66,5.45-5.47,7.47-8.86,7.47c-3.52,0-5.52-2.72-4.56-5.93
			c0.98-3.32,4.62-5.93,8.02-5.93c0.62,0,1.24,0.11,1.72,0.24C812.66,243.36,809.18,241.23,805.42,241.23z"/>
		<path class="st0" d="M879.74,241.1c1.89-1.78,5.35-4.86,8.87-4.86c3.52,0,5.54,2.61,4.68,5.93c-1.08,3.2-4.62,5.93-8.14,5.93
			c-3.02,0-4.62-2.02-4.65-3.56l-13.68,13.87l-8.59,29.29h-7.67l12.27-41.86c0.73-2.49-0.99-4.51-3.38-4.51
			c-2.52,0-5.32,2.02-5.93,4.51l-1.37,4.27h-1.38l1.37-4.27c1.3-4.75,6.64-8.66,11.67-8.66c5.03,0,7.99,3.91,6.68,8.66l-2,6.99
			L879.74,241.1z"/>
		<path class="st0" d="M927.78,264c-3.91,13.28,0.61,20.4,7.9,20.4c3.02,0,9.88-2.26,14.31-9.49l2.77,0.83
			c-4.71,7.47-10.76,12.81-21.44,12.81c-12.7,0-16.22-12.33-12.26-25.97c3.97-13.75,15.56-26.2,28.51-26.2
			c12.32,0,14.83,7.11,13.15,12.69C958.47,256.88,946.52,264,927.78,264z M946.81,239.92c-7.92,0-15.07,10.43-18.05,20.75
			c14.08,0,22.27-6.28,24.16-12.45C954.61,242.53,950.58,239.92,946.81,239.92z"/>
		<path class="st0" d="M1028.95,289.02c-5.03,0-7.99-3.91-6.69-8.66l1.37-4.27c-4.81,8.18-14.17,12.93-18.82,12.93
			c-10.19,0-14.49-12.1-10.31-26.45c4.18-14.35,15.56-26.2,25.74-26.2c5.41,0,11.18,5.33,11.23,12.92l2.74-9.49
			c0.54-2.01,2.65-3.55,4.78-3.55c2.01,0,3.43,1.54,2.76,3.55l-11.82,40.56c-0.61,2.49,0.99,4.51,3.38,4.51
			c2.64,0,5.32-2.01,5.93-4.51l1.36-4.27h1.39l-1.37,4.27C1039.32,285.1,1033.98,289.02,1028.95,289.02z M1021.41,241.46
			c-6.67,0-15.17,9.37-18.48,21.11c-3.46,11.86-0.52,21.23,6.15,21.23c5.53,0,15.04-9.37,18.5-21.23
			C1030.88,250.83,1026.94,241.46,1021.41,241.46z"/>
		<path class="st0" d="M1081.95,241.94l0.99-3.44h11.07l3.66-12.45h7.67l-3.66,12.45h14.46l-1,3.44h-14.46l-11.27,38.42
			c-0.61,2.49,0.99,4.51,3.38,4.51c2.64,0,5.32-2.01,5.93-4.51l1.37-4.27h1.38l-1.37,4.27c-1.3,4.75-6.64,8.66-11.67,8.66
			c-5.03,0-7.99-3.91-6.68-8.66l11.27-38.42H1081.95z"/>
		<path class="st0" d="M1148.29,289.02c-5.03,0-7.87-3.91-6.56-8.66l12.27-41.86h7.67l-12.27,41.86c-0.73,2.49,0.99,4.51,3.26,4.51
			c2.64,0,5.32-2.01,6.05-4.51l1.37-4.27h1.26l-1.24,4.27C1158.78,285.1,1153.31,289.02,1148.29,289.02z M1162.72,221.42
			c2.39,0,4,1.89,3.3,4.15c-0.7,2.25-3.36,4.15-5.75,4.15c-2.39,0-3.88-1.9-3.18-4.15C1157.79,223.32,1160.32,221.42,1162.72,221.42
			z"/>
		<path class="st0" d="M1210.03,289.02c-7.17,0-8.83-6.88-7.28-12.45l9.04-30.72c0.73-2.49-0.99-4.51-3.38-4.51
			c-2.52,0-5.32,2.02-5.93,4.51l-1.37,4.27h-1.38l1.37-4.27c1.3-4.75,6.64-8.66,11.67-8.66c5.03,0,7.99,3.91,6.68,8.66l-8.16,28.11
			c-1.4,4.5-0.05,8.3,4.48,8.3c9.18,0,21.98-19.22,27.03-35.22c-1.38,0.83-2.72,1.42-4.61,1.42c-3.52,0-5.64-2.72-4.65-6.16
			c0.98-3.32,4.64-6.05,8.28-6.05c3.78,0,6.98,3.08,4.55,11.27C1239.96,269.57,1224.61,289.02,1210.03,289.02z"/>
		<path class="st0" d="M1287.67,264c-3.91,13.28,0.6,20.4,7.9,20.4c3.02,0,9.88-2.26,14.31-9.49l2.77,0.83
			c-4.71,7.47-10.76,12.81-21.44,12.81c-12.7,0-16.22-12.33-12.26-25.97c3.97-13.75,15.56-26.2,28.51-26.2
			c12.32,0,14.83,7.11,13.15,12.69C1318.35,256.88,1306.4,264,1287.67,264z M1306.69,239.92c-7.92,0-15.07,10.43-18.05,20.75
			c14.08,0,22.27-6.28,24.16-12.45C1314.49,242.53,1310.47,239.92,1306.69,239.92z"/>
	</g>
	<g>
		<path class="st0" d="M0,181.87v-57.88h6.85c7.78,37.76,26.19,56.61,55.28,56.61c13.07,0,23.2-3.61,30.37-10.86
			c7.19-7.25,10.78-15.34,10.78-24.31c0-9.06-3.15-16.66-9.47-22.8c-6.32-6.03-17.84-12.53-34.59-19.44
			C44.3,96.99,33.06,91.56,25.45,86.89c-7.59-4.65-13.5-10.7-17.77-18.15c-4.24-7.44-6.38-15.37-6.38-23.79
			c0-12.85,4.59-23.56,13.78-32.12C24.26,4.3,35.9,0,49.96,0c7.86,0,15.27,1.27,22.22,3.75c6.93,2.49,14.07,7.69,21.38,15.55
			c4.19-4.87,6.56-10.15,7.11-15.81h5.87v47.13h-5.87c-3.47-13.74-9.62-24.55-18.45-32.43c-8.8-7.88-19.02-11.85-30.6-11.85
			c-11.08,0-19.16,2.89-24.33,8.7c-5.16,5.79-7.76,12.13-7.76,19.02c0,8.31,3.26,15.33,9.76,21.08c6.41,5.83,17.95,12.4,34.65,19.7
			c15.98,6.92,27.58,12.52,34.85,16.71c7.24,4.21,13.08,10.04,17.45,17.5c4.36,7.42,6.58,16.05,6.58,25.77
			c0,15.42-5.29,27.98-15.89,37.63c-10.59,9.68-24.75,14.51-42.44,14.51c-20.36,0-37.35-7.59-50.94-22.73
			c-3.02,4.2-5.24,10.08-6.71,17.65H0z"/>
	</g>
</g>
</svg>
