<?xml version="1.0" encoding="utf-8"?>
<!-- Generator: Adobe Illustrator 23.1.1, SVG Export Plug-In . SVG Version: 6.00 Build 0)  -->
<svg version="1.1" id="Layer_1" xmlns="http://www.w3.org/2000/svg" xmlns:xlink="http://www.w3.org/1999/xlink" x="0px" y="0px"
	 viewBox="0 0 720 720" style="enable-background:new 0 0 720 720;" xml:space="preserve">
<style type="text/css">
	.st0{fill-rule:evenodd;clip-rule:evenodd;fill:#A0A0A0;}
	.st1{fill-rule:evenodd;clip-rule:evenodd;}
	.st2{fill-rule:evenodd;clip-rule:evenodd;fill:#FFFFFF;}
	.st3{clip-path:url(#SVGID_2_);fill:none;stroke:#000000;stroke-width:4;stroke-miterlimit:10;}
	.st4{clip-path:url(#SVGID_4_);fill:none;stroke:#000000;stroke-width:4;stroke-miterlimit:10;}
	.st5{clip-path:url(#SVGID_6_);fill:none;stroke:#000000;stroke-width:4;stroke-miterlimit:10;}
	.st6{clip-path:url(#SVGID_8_);fill:none;stroke:#FFFFFF;stroke-width:4;stroke-miterlimit:10;}
	.st7{clip-path:url(#SVGID_10_);fill:none;stroke:#FFFFFF;stroke-width:4;stroke-miterlimit:10;}
	.st8{clip-path:url(#SVGID_12_);fill:none;stroke:#FFFFFF;stroke-width:4;stroke-miterlimit:10;}
	.st9{clip-path:url(#SVGID_14_);fill:none;stroke:#FFFFFF;stroke-width:4;stroke-miterlimit:10;}
</style>
<rect class="st0" width="720" height="720"/>
<path class="st1" d="M262.8,489.6c-14.8,5.6-38.4,9.6-58,9.6c-108.2,0-150.2-80.6-150.2-147.6c0-60.6,43.2-143.8,151.4-143.8
	c88.2,0,149.6,53.8,149.6,140.8c0,65.4-41,106.6-64.2,122.4l74.2,38.2c78,40.2,127,44.2,152.2,44.2c19.2,0,46.6-3,72-13
	c2.2-0.8,4-1.8,5.6-1.8c1.8,0,3.4,1.4,3.4,3.4c0,2.2-1.8,3.4-4.4,4.4c-22.2,10.8-63.8,27.8-117,27.8c-55.8,0-95.2-14.4-156.2-50.6
	L262.8,489.6z M303.8,358.8c0-90-55.4-133-106.4-133c-48.4,0-91.6,31.2-91.6,117.4c0,88.4,53.2,137.6,112.6,137.6
	C248,480.8,303.8,467.6,303.8,358.8z"/>
<g>
	<path class="st2" d="M438.6,281.8c-27.4,24.6-33.4,57.6-33.4,76.6c0,27.2,7.4,58.4,35.4,82.6c26,22.2,58.6,30.4,97.8,30.4
		c18.2,0,39.8-2,51.2-6.4c4.8-2,6-3.4,7.4-8.2c1-3.2,2-7.8,2.8-12.8c-13.8,7.6-31.8,12.2-51.2,12.2c-5.8,0-11.4-0.4-17-1.2
		c-37.8-2-86.2-35-86.2-99.6c0-27.2,5.4-53.8,26.2-72.4c12.6-11.2,28.8-17.4,53.6-17.4c26.2,0,48.4,7.6,57.8,17.4
		c7.2,7.2,10.8,17,11.2,25.8c0,4,0.6,6.2,2.8,6.2c2.6,0,3.2-2.2,3.4-6.4c0.6-5.6,0.2-21,0.8-30.2c0.6-9.8,1.4-13.2,1.4-15.4
		c0-1.6-1.2-3-4.2-3.4c-8.6-0.8-17.6-3.4-28.4-4.8c-13.2-1.6-23.6-2.8-41.4-2.8C486.2,252.2,459.2,263.4,438.6,281.8z"/>
	<path class="st2" d="M641.2,452.4c0,6.2,4,13.8,13.4,13.8c8.6,0,14-6.6,14-14.4c0-7.8-6-13-13.8-13
		C645.2,438.6,641.2,446.8,641.2,452.4"/>
</g>
<g>
	<g>
		<g>
			<defs>
				<rect id="SVGID_1_" width="720" height="720"/>
			</defs>
			<clipPath id="SVGID_2_">
				<use xlink:href="#SVGID_1_"  style="overflow:visible;"/>
			</clipPath>
			<line class="st3" x1="134.2" y1="483.8" x2="634" y2="745"/>
		</g>
	</g>
	<g>
		<g>
			<defs>
				<rect id="SVGID_3_" width="720" height="720"/>
			</defs>
			<clipPath id="SVGID_4_">
				<use xlink:href="#SVGID_3_"  style="overflow:visible;"/>
			</clipPath>
			<line class="st4" x1="367.8" y1="547.2" x2="735.8" y2="739.4"/>
		</g>
	</g>
	<g>
		<g>
			<defs>
				<rect id="SVGID_5_" width="720" height="720"/>
			</defs>
			<clipPath id="SVGID_6_">
				<use xlink:href="#SVGID_5_"  style="overflow:visible;"/>
			</clipPath>
			<line class="st5" x1="596.2" y1="539.6" x2="750.4" y2="620.2"/>
		</g>
	</g>
	<g>
		<g>
			<defs>
				<rect id="SVGID_7_" width="720" height="720"/>
			</defs>
			<clipPath id="SVGID_8_">
				<use xlink:href="#SVGID_7_"  style="overflow:visible;"/>
			</clipPath>
			<line class="st6" x1="594.2" y1="461" x2="748.6" y2="541.6"/>
		</g>
	</g>
	<g>
		<g>
			<defs>
				<rect id="SVGID_9_" width="720" height="720"/>
			</defs>
			<clipPath id="SVGID_10_">
				<use xlink:href="#SVGID_9_"  style="overflow:visible;"/>
			</clipPath>
			<line class="st7" x1="459.4" y1="452.4" x2="748.8" y2="603.4"/>
		</g>
	</g>
	<g>
		<g>
			<defs>
				<rect id="SVGID_11_" width="720" height="720"/>
			</defs>
			<clipPath id="SVGID_12_">
				<use xlink:href="#SVGID_11_"  style="overflow:visible;"/>
			</clipPath>
			<line class="st8" x1="597.4" y1="314.2" x2="747.2" y2="392.4"/>
		</g>
	</g>
	<g>
		<g>
			<defs>
				<rect id="SVGID_13_" width="720" height="720"/>
			</defs>
			<clipPath id="SVGID_14_">
				<use xlink:href="#SVGID_13_"  style="overflow:visible;"/>
			</clipPath>
			<line class="st9" x1="650.2" y1="464.4" x2="747.8" y2="515.4"/>
		</g>
	</g>
</g>
</svg>
